<?xml version="1.0" standalone="no"?>
<!DOCTYPE svg PUBLIC "-//W3C//DTD SVG 1.1//EN" "http://www.w3.org/Graphics/SVG/1.1/DTD/svg11.dtd" >
<svg>
<metadata>
Created by FontForge 20090914 at Mon Mar 10 12:21:30 2014
 By www-data
&#228;&#165;&#132;Ethno Multimedia
</metadata>
<defs>
<font id="AdaanaaRegular" horiz-adv-x="167" >
  <font-face 
    font-family="Adaanaa"
    font-weight="5"
    font-stretch="normal"
    units-per-em="1025"
    panose-1="0 0 0 0 0 0 0 0 0 0"
    ascent="820"
    descent="-205"
    x-height="392"
    cap-height="395.997"
    bbox="-585.001 -332.999 1063 697"
    underline-thickness="17"
    underline-position="-103"
    unicode-range="U+0020-U+201C"
  />
<missing-glyph horiz-adv-x="675" 
d="M42 0v675h591v-675h-591zM591 42v591h-507v-591h507z" />
    <glyph glyph-name=".notdef" horiz-adv-x="675" 
d="M42 0v675h591v-675h-591zM591 42v591h-507v-591h507z" />
    <glyph glyph-name="space" unicode=" " horiz-adv-x="417" 
 />
    <glyph glyph-name="exclam" unicode="!" horiz-adv-x="292" 
d="M91 173l-23.0039 333.001c-0.666992 5.33301 -1.16699 11 -1.5 17s-0.5 10.333 -0.5 13c0 6.66699 0.666992 17 2 31s2 26 2 36c1.33301 14 4.83301 27.167 10.5 39.5s16.834 18.5 33.501 18.5c12.667 0 22.334 -5.33301 29.001 -16s12.334 -23 17.001 -37
c2 -10 3 -18.667 3 -26c0 -8.66699 -1.16699 -20.834 -3.5 -36.501s-3.5 -27.167 -3.5 -34.5l-27 -337c0 -6.66699 -0.166992 -13.167 -0.5 -19.5s-1.83301 -13.333 -4.5 -21s-7 -11.167 -13 -10.5c-7.33301 2 -11.666 6 -12.999 12s-2.83301 12 -4.5 18
s-2.5 12.667 -2.5 20zM160.996 41.001c2 -12.667 -1.33008 -23.001 -9.99707 -31.001s-20.334 -12 -35.001 -12c-15.333 0 -26.333 3.33301 -33 10s-11 16.334 -13 29.001c-2 12 1.66699 23 11 33s20.666 15 33.999 15c12.667 0 23.167 -4.16699 31.5 -12.5
s13.166 -18.833 14.499 -31.5z" />
    <glyph glyph-name="quotedbl" unicode="&#x22;" horiz-adv-x="292" 
d="M75 586c-8.66699 1.33301 -15 5.33203 -19 11.999s-7.33301 15.667 -10 27c-1.33301 12 2.16699 21.5 10.5 28.5s18.5 9.83301 30.5 8.5c11.333 -2 21 -7.16699 29 -15.5s13.333 -19.5 16 -33.5s4 -21.333 4 -22c0 -2 -1.5 -8.83301 -4.5 -20.5s-11 -22.5 -24 -32.5
s-26.5 -15 -40.5 -15c6.66699 4.66699 11.5 8.83398 14.5 12.501s6.33301 10.5 10 20.5s5.5 17.667 5.5 23c-2 0 -4.16699 0.833008 -6.5 2.5s-7.5 3.16699 -15.5 4.5z" />
    <glyph glyph-name="numbersign" unicode="#" horiz-adv-x="822" 
d="M593 88l0.000976562 -88.0029h-50l1 177h-57l-1 -42v-17c0 -22 -0.833008 -38.167 -2.5 -48.5s-5.16699 -21.166 -10.5 -32.499s-12.5 -20.5 -21.5 -27.5s-17.167 -12.333 -24.5 -16s-16.666 -5.5 -27.999 -5.5c-12.667 0 -23.834 2.16699 -33.501 6.5
s-19.834 10 -30.501 17s-30.334 23.5 -59.001 49.5s-46.834 44.667 -54.501 56s-13.334 21.666 -17.001 30.999s-5.5 17.666 -5.5 24.999c0 9.33301 2.5 17.5 7.5 24.5s11.167 12.5 18.5 16.5s15.333 6 24 6c18.667 0 31.5 0.333008 38.5 1s11.167 1 12.5 1v171h276l1 -42
h-91v-130h147l1 -44h-39v-48l30 -1c34.667 0 66.834 -10.5 96.501 -31.5s44.5 -55.5 44.5 -103.5v-25c-2 -8 -6.16699 -29.167 -12.5 -63.5s-45.833 -71.333 -118.5 -111s-154.667 -59.5 -246 -59.5c-109.333 0 -196.666 36.167 -261.999 108.5s-98 153.5 -98 243.5
c0 40.667 6 80.5 18 119.5s26.333 69.833 43 92.5s30.667 38.834 42 48.501s26 18.834 44 27.501l25 -26c-19.333 -11.333 -35.5 -22.833 -48.5 -34.5s-26.667 -29.5 -41 -53.5s-24.5 -51.833 -30.5 -83.5s-9 -62.5 -9 -92.5c0 -65.333 29 -127.333 87 -186
s134.667 -88 230 -88c47.333 0 97.333 10.333 150 31s87.667 47.834 105 81.501s26 59.167 26 76.5c0 22.667 -5 42.834 -15 60.501s-19.667 27 -29 28s-15.666 1.5 -18.999 1.5c-1.33301 -0.666992 -6 -1 -14 -1zM286.001 178.997l-15 0.000976562
c-9.33301 0 -16.5 -0.833008 -21.5 -2.5s-8.5 -5.83398 -10.5 -12.501c-0.666992 -4 -0.166992 -8.33301 1.5 -13l7.5 -20c3.33301 -8.66699 17.5 -23.5 42.5 -44.5s43.167 -31.5 54.5 -31.5c17.333 0 28.833 1.83301 34.5 5.5s10.167 7 13.5 10s5 7.5 5 13.5l1 95h-113z
M398.001 220.998l1 131h-66v-131h65z" />
    <glyph glyph-name="dollar" unicode="$" horiz-adv-x="830" 
d="M94 225v168h260v-40h-81v-125h31c8 0 16.667 -0.333008 26 -1s17.833 -2.16699 25.5 -4.5s14.5 -6.33301 20.5 -12l19 -17.5c6 8 12.667 15.167 20 21.5s15.833 11 25.5 14s20.834 4.5 33.501 4.5c20.667 0 37 -3.66699 49 -11c16 -8 28.5 -21.667 37.5 -41
s13.5 -49 13.5 -89c0 -8.66699 -2.83301 -18.334 -8.5 -29.001s-11.5 -18.334 -17.5 -23.001h202v-41l-277 1c10 8.66699 18 19.5 24 32.5s9 30.167 9 51.5v22c0 19.333 -4.66699 36.333 -14 51s-19.666 22 -30.999 22c-8 0 -15.333 -2.33301 -22 -7s-11.5 -10 -14.5 -16
s-4.83301 -12.167 -5.5 -18.5s-1 -13.833 -1 -22.5v-15v-101h-72v117c0 12.667 -0.833008 23.834 -2.5 33.501s-5 16.667 -10 21s-10.5 8.33301 -16.5 12s-13 5.5 -21 5.5c-4.66699 0.666992 -8.33398 1 -11.001 1c-4.66699 0 -8 -0.333008 -10 -1v-69
c0 -34.667 -5.5 -63.167 -16.5 -85.5s-30.167 -33.5 -57.5 -33.5c-46.667 0 -89.334 20 -128.001 60s-61.167 68.5 -67.5 85.5s-9.5 28.5 -9.5 34.5c0 14.667 4.66699 25.334 14 32.001s19 10.5 29 11.5s21.333 1.5 34 1.5h14.5h6.5zM126 225h64v128h-64v-128zM71 185
c-6 0 -12.001 -1.49902 -18.001 -4.49902s-9 -10.5 -9 -22.5c0 -10.667 14.833 -31.334 44.5 -62.001s55.5 -46 77.5 -46c10.667 0 17.334 5 20.001 15s4 21.667 4 35v85h-119z" />
    <glyph glyph-name="percent" unicode="%" horiz-adv-x="878" 
d="M355 393l0.00195312 -351h148v269c0 10.667 4.83301 25 14.5 43s20.667 29.167 33 33.5s26.5 6.5 42.5 6.5c13.333 0 24.666 -1.33301 33.999 -4s24.333 -10.667 45 -24s48.167 -53.5 82.5 -120.5s51.5 -117.5 51.5 -151.5c0 -25.333 -4.83301 -47.333 -14.5 -66
s-26.5 -28 -50.5 -28h-132c0 -32.667 -1.33301 -57.667 -4 -75s-10.334 -39 -23.001 -65s-28.167 -46.333 -46.5 -61s-43.666 -26.834 -75.999 -36.501s-60.833 -14.5 -85.5 -14.5c-25.333 0 -57.833 5.33301 -97.5 16s-72.834 22.5 -99.501 35.5s-54.5 33.833 -83.5 62.5
s-50.667 55.167 -65 79.5s-26 52.666 -35 84.999s-15.167 59.5 -18.5 81.5s-5 43.667 -5 65c0 15.333 1 31.666 3 48.999c8 44 22.833 82.5 44.5 115.5s56.834 49.5 105.501 49.5c25.333 0 46 -11.833 62 -35.5s24 -51.167 24 -82.5
c0 -11.333 -2.16699 -24.666 -6.5 -39.999s-16.333 -31.833 -36 -49.5s-41.834 -26.5 -66.501 -26.5c-8 0 -20.167 2.66699 -36.5 8s-32.833 18 -49.5 38c-0.666992 -8 -1.16699 -15 -1.5 -21s-0.5 -10.667 -0.5 -14c0 -22.667 4.16699 -53.667 12.5 -93
s22.833 -74.5 43.5 -105.5s47 -57.167 79 -78.5s58.833 -35.666 80.5 -42.999s43.667 -12.166 66 -14.499s40.833 -3.5 55.5 -3.5c19.333 0 36.166 2 50.499 6s28.5 11.333 42.5 22s24.833 22 32.5 34s13.834 26.667 18.501 44c4 10.667 6.66699 21.5 8 32.5
s2 22.833 2 35.5h-249l1 393h100zM80.002 229c16.667 0 29.3301 4.50098 37.9971 13.501s14 20.5 16 34.5c0 15.333 -3.66699 27.666 -11 36.999s-17.666 14 -30.999 14c-9.33301 0 -17.166 -3.16699 -23.499 -9.5s-11.166 -14.833 -14.499 -25.5
c-4.66699 -8 -7 -17.667 -7 -29c0 -10 2.5 -18.333 7.5 -25s13.5 -10 25.5 -10zM709.998 45.001c16 0 28 5.00098 36 15.001s12 21.333 12 34c0 5.33301 -1.5 14.666 -4.5 27.999s-13.833 40.833 -32.5 82.5s-33.167 68.667 -43.5 81s-20 23 -29 32
s-16.833 12.833 -23.5 11.5c-4.66699 -1.33301 -8.66699 -5 -12 -11s-5 -12.333 -5 -19l2 -254h100z" />
    <glyph glyph-name="ampersand" unicode="&#x26;" horiz-adv-x="858" 
d="M252 225c0 -34 -10.6689 -59.832 -32.002 -77.499s-45.666 -26.5 -72.999 -26.5c-10.667 0 -23.167 5.16699 -37.5 15.5s-23.166 14.166 -26.499 11.499c-11.333 -11.333 -17 -32.333 -17 -63c0 -20.667 3.33301 -38 10 -52c15.333 -38.667 28 -66.334 38 -83.001
s31.333 -38 64 -64s64.667 -42.667 96 -50s76 -11 134 -11c51.333 0 105.5 17.833 162.5 53.5s89.667 67.5 98 95.5s13.333 45.667 15 53s2.5 15.666 2.5 24.999c0 23.333 -7.16699 44 -21.5 62s-25.5 30.333 -33.5 37s-17.333 10 -28 10
c-7.33301 0 -12.666 -1.16699 -15.999 -3.5s-9.33301 -8 -18 -17s-13 -19.833 -13 -32.5c0 -4 0.333008 -7 1 -9l1 -99h-120v344h-97l2 -344h-53v393h367l1 -39h-100v-161l33 16c13.333 7.33301 26.333 11 39 11c4.66699 0 17.667 -2.16699 39 -6.5
s40.666 -14.166 57.999 -29.499s30.333 -34.333 39 -57s14.5 -41.5 17.5 -56.5s4.5 -28.5 4.5 -40.5c0 -16 -1.83301 -31.667 -5.5 -47s-11 -38 -22 -68s-49.333 -63.167 -115 -99.5s-143.167 -54.5 -232.5 -54.5c-106 0 -198.833 26.667 -278.5 80s-119.5 141 -119.5 263
c0 58.667 9.16699 110.834 27.5 156.501s52.833 68.5 103.5 68.5c28.667 0 53.5 -8.16699 74.5 -24.5s31.5 -42.833 31.5 -79.5zM114.998 189.001c3.33301 -0.666992 7.66797 -1 13.001 -1c26.667 0 40 14.333 40 43c0 14 -3.83301 25.167 -11.5 33.5
s-16.834 12.5 -27.501 12.5c-4 0 -9.66699 -1.33301 -17 -4s-13.333 -8.66699 -18 -18s-7 -19.333 -7 -30c0 -22 9.33301 -34 28 -36z" />
    <glyph glyph-name="quotesingle" unicode="'" 
d="M26 543c1.33301 -12 -2.16602 -21.5 -10.499 -28.5s-18.5 -9.83301 -30.5 -8.5c-11.333 2 -21 7.16699 -29 15.5s-13.333 19.5 -16 33.5s-4 21.333 -4 22c0 2 1.33301 8.66699 4 20s10.667 22.166 24 32.499s27.333 15.5 42 15.5c-6 -4 -11 -8.33301 -15 -13
s-7.66699 -12.167 -11 -22.5s-5 -17.166 -5 -20.499c2 0 4.16699 -0.833008 6.5 -2.5s7.66602 -3.16699 15.999 -4.5s14.5 -5.33301 18.5 -12s7.33301 -15.667 10 -27z" />
    <glyph glyph-name="parenleft" unicode="(" horiz-adv-x="375" 
d="M231 615c-22.667 -25.333 -40.835 -49.499 -54.502 -72.499s-27.667 -52.5 -42 -88.5s-24.333 -66.333 -30 -91s-8.5 -55.334 -8.5 -92.001c0 -12.667 -0.166992 -25 -0.5 -37s-0.5 -23.667 -0.5 -35c0 -21.333 0.666992 -40.333 2 -57s7.5 -48.5 18.5 -95.5
s32.833 -95.333 65.5 -145s58.334 -84.834 77.001 -105.501s42.334 -43.667 71.001 -69l-27 -32c-37.333 28 -66.5 51.333 -87.5 70s-46.5 48.334 -76.5 89.001s-54.167 77 -72.5 109s-32.166 71.833 -41.499 119.5s-14 93.5 -14 137.5c0 28 2 59.833 6 95.5
s10.167 65.167 18.5 88.5s21 51.833 38 85.5s33.667 60.5 50 80.5s40.166 44.333 71.499 73z" />
    <glyph glyph-name="parenright" unicode=")" horiz-adv-x="375" 
d="M64 637c35.333 -33.333 62.334 -61.167 81.001 -83.5s40.834 -53.833 66.501 -94.5s44.834 -73.334 57.501 -98.001s26 -61.167 40 -109.5s21 -95.5 21 -141.5c0 -18 -0.666992 -32.5 -2 -43.5s-3 -28.833 -5 -53.5s-9.5 -52.667 -22.5 -84s-30.333 -64.666 -52 -99.999
s-40.834 -61.333 -57.501 -78s-39.667 -35.334 -69 -56.001l-36 28c22.667 18.667 42.334 38.5 59.001 59.5s34.167 48 52.5 81s31.666 63 39.999 90s12.5 60.167 12.5 99.5c0 36.667 -1.33301 68.5 -4 95.5s-9.83398 65.667 -21.501 116s-30.834 101 -57.501 152
s-48.667 88.833 -66 113.5s-40.333 52.334 -69 83.001z" />
    <glyph glyph-name="asterisk" unicode="*" horiz-adv-x="792" 
d="M104 338c28 0 49.499 -8.49805 64.499 -25.498s22.5 -37.833 22.5 -62.5c0 -3.33301 -0.333008 -7 -1 -11l-4 -25c-2 -12.667 -11.167 -25.834 -27.5 -39.501s-37.833 -20.5 -64.5 -20.5c-10.667 0 -21.167 3.16699 -31.5 9.5s-17.5 9.83301 -21.5 10.5
c-13.333 2.66699 -21.166 -2.83301 -23.499 -16.5s-3.5 -29.167 -3.5 -46.5v-16c0 -61.333 29.333 -126 88 -194s115 -110.167 169 -126.5s92.667 -24.5 116 -24.5c50.667 0 98 11.833 142 35.5s66 50.834 66 81.501c0 6.66699 -2.66699 14.167 -8 22.5
s-11.666 12.833 -18.999 13.5c-10.667 1.33301 -18.834 -0.333984 -24.501 -5.00098s-8.5 -10 -8.5 -16v-36h-91l-1 154h-225v393h93l1 -350h131l1 285c0 18 5.66699 34.333 17 49c8 12.667 21.667 19 41 19c51.333 0 95.166 -21.5 131.499 -64.5s58.5 -81.833 66.5 -116.5
c4.66699 -15.333 9.33398 -33.833 14.001 -55.5s7 -43.834 7 -66.501c0 -28 -5 -50.5 -15 -67.5s-27.667 -25.5 -53 -25.5h-117v-54c8.66699 5.33301 16 9.5 22 12.5s12 4.83301 18 5.5s12.667 1 20 1c27.333 0 50.5 -9.5 69.5 -28.5s28.5 -44.833 28.5 -77.5
c0 -48.667 -32.167 -87.334 -96.5 -116.001s-131.833 -43 -202.5 -43c-28 0 -69.5 6.5 -124.5 19.5s-118.667 56.333 -191 130s-108.5 155.834 -108.5 246.501c0 66 8 122.833 24 170.5s52.333 71.5 109 71.5zM618.999 41.002c18 0 30.832 6.83301 38.499 20.5
s11.5 32.167 11.5 55.5c0 16 -1.66699 33.5 -5 52.5s-9.83301 40.5 -19.5 64.5s-23 46.5 -40 67.5s-36.833 31.5 -59.5 31.5c-3.33301 0 -5.66602 -4.66699 -6.99902 -14s-2 -23.333 -2 -42v-236h83zM44.998 225.002c7.33301 -13.333 19.333 -20.002 36 -20.002
c6.66699 0 14 3 22 9s12 14.667 12 26c0 4.66699 -1 10.834 -3 18.501s-5.83301 13.334 -11.5 17.001s-12.167 5.5 -19.5 5.5c-3.33301 0 -8.83301 -0.666992 -16.5 -2s-14 -4.83301 -19 -10.5s-7.5 -12.5 -7.5 -20.5s2.33301 -15.667 7 -23z" />
    <glyph glyph-name="plus" unicode="+" horiz-adv-x="588" 
d="M-189 29l96 -0.00195312l33 -8c23.333 -5.33301 39.333 -9.83301 48 -13.5s20.834 -13.5 36.501 -29.5s26.667 -31.833 33 -47.5s9.5 -35.167 9.5 -58.5c0 -55.333 -23 -103 -69 -143s-108.667 -60 -188 -60c-78.667 0 -161.334 16.667 -248.001 50
s-132.834 63 -138.501 89s-8.5 41.667 -8.5 47c0 10.667 4.16699 21.334 12.5 32.001s19.166 17.5 32.499 20.5s31 4.5 53 4.5s44.667 -2.66699 68 -8l81 -22c24.667 -6.66699 53 -16.667 85 -30l-20 -32c-22 8.66699 -47.167 16.334 -75.5 23.001s-49.5 11.167 -63.5 13.5
l-40.5 7c-13 2.33301 -23.5 3.5 -31.5 3.5c-12 0 -23 -1.83301 -33 -5.5s-15 -9.83398 -15 -18.501c0 -10 12.167 -23.833 36.5 -41.5s60.833 -36 109.5 -55s92.334 -28.5 131.001 -28.5c66.667 0 122.667 8.33301 168 25s68 52 68 106c0.666992 10.667 1 17.334 1 20.001
c0 23.333 -6.16699 42.5 -18.5 57.5s-31.166 22.5 -56.499 22.5l1 -82h-97v162z" />
    <glyph glyph-name="comma" unicode="," horiz-adv-x="762" 
d="M257 390c28 -8.66699 49.835 -19.8291 65.502 -33.4961s23.5 -44.834 23.5 -93.501c0 -28.667 -12.5 -51.667 -37.5 -69s-50.833 -26 -77.5 -26c-32.667 0 -57 12.667 -73 38s-24 52.333 -24 81c0 31.333 6.33301 57.666 19 78.999s32.834 40.666 60.501 57.999
s57.834 26 90.501 26c24.667 0 50 -5.33301 76 -16s46 -24.5 60 -41.5s25.833 -40.833 35.5 -71.5s14.5 -56.667 14.5 -78c0 -9.33301 -0.666992 -19 -2 -29l-5.5 -43c-2.33301 -18.667 -8.83301 -40.334 -19.5 -65.001c7.33301 -2.66699 14.166 -6.16699 20.499 -10.5
l27.5 -18.5c12 -8 22.667 -16.667 32 -26s17.833 -22.833 25.5 -40.5s13.167 -30.834 16.5 -39.501s5 -19.334 5 -32.001c0 -39.333 -10.667 -67.666 -32 -84.999s-40.833 -27.333 -58.5 -30s-31.834 -4 -42.501 -4c-6 0 -14.833 0.833008 -26.5 2.5
s-24.834 3.33398 -39.501 5.00098s-28.334 4.83398 -41.001 9.50098s-29.334 12.334 -50.001 23.001c-13.333 -11.333 -26.5 -21.666 -39.5 -30.999s-28.333 -17 -46 -23s-36.167 -11.167 -55.5 -15.5s-34.333 -6.5 -45 -6.5c-40 0 -67.667 8.33301 -83 25s-23 43 -23 79
c0 14 2.5 27.167 7.5 39.5s12 26.166 21 41.499s17.5 27.666 25.5 36.999s17.667 19 29 29c-26 31.333 -45.167 69.666 -57.5 114.999s-18.5 84.333 -18.5 117c0 106 29.833 195.167 89.5 267.5s143.834 108.5 252.501 108.5c42 0 86.667 -9 134 -27s89 -50.333 125 -97
s54 -109.667 54 -189v-483h-36v428c0 94 -26 162.333 -78 205s-121 64 -207 64c-94.667 0 -167.167 -28.5 -217.5 -85.5s-75.5 -118.833 -75.5 -185.5c0 -42.667 6.16699 -84.334 18.5 -125.001s27.833 -69.334 46.5 -86.001c10.667 7.33301 28.834 17.833 54.501 31.5
s47.334 22.5 65.001 26.5s38.667 7.5 63 10.5s47.166 4.5 68.499 4.5c5.33301 12 9.16602 23.5 11.499 34.5s4.66602 24.5 6.99902 40.5s3.5 29.333 3.5 40c0 24.667 -5 48.334 -15 71.001s-19.667 38.667 -29 48s-19.333 16.333 -30 21s-17.667 7.33398 -21 8.00098
s-6.66602 1 -9.99902 1c-10 0 -20.667 -3 -32 -9zM197.002 347.005c-6 0 -11.5 -5.16504 -16.5 -15.498s-8.16699 -21.5 -9.5 -33.5s-2 -20.667 -2 -26c0 -8.66699 1 -16.667 3 -24s7 -15.333 15 -24s19.333 -13 34 -13c10.667 1.33301 20 6.16602 28 14.499
s12 17.833 12 28.5c0.666992 5.33301 1 9 1 11c0 19.333 -7 38.666 -21 57.999c-10 16 -24.667 24 -44 24zM319.002 5.00684l19.9961 41.002c6.66699 14 12 28.667 16 44c-7.33301 2 -16.666 3 -27.999 3c-12.667 0 -27.834 -1.33301 -45.501 -4
s-32.5 -5.83398 -44.5 -9.50098s-29.167 -10.834 -51.5 -21.501s-38.166 -20 -47.499 -28c16.667 -23.333 33.334 -42.5 50.001 -57.5s27.334 -24 32.001 -27s17.334 -10.167 38.001 -21.5l32.5 38.5c11 13 20.5 27.167 28.5 42.5zM402.998 -33.9912
c-9.33301 -16 -18.3301 -29.332 -26.9971 -39.999s-20.334 -23 -35.001 -37c14 -5.33301 27.333 -8 40 -8c9.33301 0 25.666 3.16699 48.999 9.5s38.5 17.166 45.5 32.499s10.5 27 10.5 35c0 8.66699 -1.5 16.5 -4.5 23.5s-8.33301 16.333 -16 28
s-17.834 20.167 -30.501 25.5c-3.33301 -12 -8.5 -24.5 -15.5 -37.5zM63.001 -55.9902c-4 -7.33301 -7.49902 -16.1689 -10.499 -26.502s-4.5 -21.166 -4.5 -32.499c0 -16.667 4.16699 -30 12.5 -40s22.833 -15 43.5 -15c5.33301 -0.666992 9.33301 -1 12 -1
c13.333 0 23.666 1.5 30.999 4.5s17.333 8.5 30 16.5l33.5 21.5c9.66699 6.33301 17.5 14.5 23.5 24.5c-13.333 8 -25.333 15.833 -36 23.5s-21.834 17.167 -33.501 28.5l-28 27.5c-7 7 -14.167 15.833 -21.5 26.5c-10.667 -8.66699 -19.667 -16.667 -27 -24
s-15.666 -18.666 -24.999 -33.999z" />
    <glyph glyph-name="hyphen" unicode="-" horiz-adv-x="510" 
d="M388 269l3 -89h-278l4 89h271z" />
    <glyph glyph-name="hyphen" unicode="&#xad;" horiz-adv-x="510" 
d="M388 269l3 -89h-278l4 89h271z" />
    <glyph glyph-name="period" unicode="." 
d="M117 61c2 -13.333 0 -23.499 -6 -30.499s-15 -11.167 -27 -12.5c-10.667 0 -21.334 3.66699 -32.001 11s-17 16.333 -19 27c-2.66699 12.667 -0.5 23.667 6.5 33s16.833 14 29.5 14s23.334 -3.83301 32.001 -11.5s14 -17.834 16 -30.501z" />
    <glyph glyph-name="slash" unicode="/" horiz-adv-x="468" 
d="M71 130c18.667 0 34.667 -5.83398 48 -17.501s20 -26.5 20 -44.5c0 -18.667 -6 -34.667 -18 -48s-27 -20 -45 -20c-18.667 0 -34.5 5.83301 -47.5 17.5s-19.5 26.834 -19.5 45.501s5.83301 34.5 17.5 47.5s26.5 19.5 44.5 19.5zM306 129.999
c18 0 33.832 -6.16699 47.499 -18.5s20.5 -26.833 20.5 -43.5c0 -18 -6.16699 -33.833 -18.5 -47.5s-27.166 -20.5 -44.499 -20.5c-18 0 -33.667 6 -47 18s-20 27 -20 45s6 33.667 18 47s26.667 20 44 20zM185.999 319.999c18 0 33.832 -6.16699 47.499 -18.5
s20.5 -26.833 20.5 -43.5c0 -18 -6.16699 -33.833 -18.5 -47.5s-27.166 -20.5 -44.499 -20.5c-18 0 -33.667 6 -47 18s-20 27 -20 45s6 33.667 18 47s26.667 20 44 20z" />
    <glyph glyph-name="zero" unicode="0" horiz-adv-x="411" 
d="M172 585c62.667 0 107.666 -30.667 134.999 -92s41 -134 41 -218c0 -65.333 -15.167 -128 -45.5 -188s-74.5 -90 -132.5 -90c-44.667 0 -83.5 24.167 -116.5 72.5s-49.5 112.833 -49.5 193.5c0 82.667 12.833 157 38.5 223s68.834 99 129.501 99zM93.999 293
c0 -50 5.5 -100.333 16.5 -151s30.5 -76 58.5 -76c26 0 46.5 25.833 61.5 77.5s22.5 99.167 22.5 142.5c0 80 -7.33301 140.833 -22 182.5s-35.334 62.5 -62.001 62.5c-27.333 0 -46.666 -27.333 -57.999 -82s-17 -106.667 -17 -156z" />
    <glyph glyph-name="one" unicode="1" horiz-adv-x="379" 
d="M96 55l-1 400h-78l1 53h28c8 1.33301 14.5 2.66602 19.5 3.99902s12.5 4.33301 22.5 9s18 10.334 24 17.001s11 15 15 25s9.33301 15 16 15h43l1 -524h89l-1 -55h-278l1 56h98z" />
    <glyph glyph-name="two" unicode="2" horiz-adv-x="368" 
d="M53 513l20.502 -8.99219c6.33301 -2.66699 13.666 -10 21.999 -22s12.5 -29 12.5 -51c0 -15.333 -6.33301 -27.333 -19 -36s-26.334 -13 -41.001 -13s-27 5.83301 -37 17.5s-16.5 23.667 -19.5 36s-4.5 21.5 -4.5 27.5c0 13.333 3.5 27.166 10.5 41.499
s15.5 28.666 25.5 42.999s24.167 24.666 42.5 30.999s38.833 9.5 61.5 9.5c50 0 89.833 -16.167 119.5 -48.5s44.5 -75.833 44.5 -130.5c0 -66.667 -21.333 -120 -64 -160c-47.333 -30 -74.5 -47.833 -81.5 -53.5s-15.5 -11.834 -25.5 -18.501s-18.667 -12.834 -26 -18.501
s-13.666 -13.334 -18.999 -23.001s-9 -19.834 -11 -30.501h111c15.333 0 27.166 0.666992 35.499 2s15.166 4.66602 20.499 9.99902c10 12.667 16.333 28 19 46l4 30h38v-190h-299l3 32v27c0 15.333 0.833008 28 2.5 38s5.66699 20.833 12 32.5s15 23.834 26 36.501l37 41.5
l48.5 53.5l32 42c10 15.333 16.667 33.666 20 54.999l11 70c0 11.333 -3.5 27.333 -10.5 48s-21.167 37.667 -42.5 51c-13.333 6.66699 -26.666 10 -39.999 10c-5.33301 0 -12 -1.5 -20 -4.5s-14.333 -10.5 -19 -22.5z" />
    <glyph glyph-name="three" unicode="3" horiz-adv-x="347" 
d="M67 516c11.333 0 22.502 -7.33203 33.502 -21.999s17.167 -26.5 18.5 -35.5s2 -16.5 2 -22.5c0 -14.667 -3.66699 -27.334 -11 -38.001s-18.666 -16 -33.999 -16c-24 -2 -42.167 4.5 -54.5 19.5s-18.5 35.833 -18.5 62.5c0 27.333 11.667 54.5 35 81.5s58 40.5 104 40.5
c36 0 71.167 -10.5 105.5 -31.5s51.5 -59.167 51.5 -114.5c0 -37.333 -11 -68 -33 -92c-26 -20.667 -42.667 -34.667 -50 -42c14 -8 23.833 -13.833 29.5 -17.5s12.834 -10.5 21.501 -20.5s16.834 -23.833 24.501 -41.5s11.5 -35.5 11.5 -53.5
c0 -68.667 -17 -114.667 -51 -138s-69.667 -35 -107 -35c-40 0 -72.167 10 -96.5 30s-37.833 37.5 -40.5 52.5s-4 25.833 -4 32.5c0 27.333 5.5 51.166 16.5 71.499s28.833 30.5 53.5 30.5c22 0 37.833 -5.5 47.5 -16.5s14.5 -24.833 14.5 -41.5
c0 -22.667 -3.5 -37.5 -10.5 -44.5s-16.833 -11 -29.5 -12s-20.334 -4.33301 -23.001 -10s-3.66699 -10.834 -3 -15.501c0 -6 4.16699 -10.667 12.5 -14s17.5 -6.33301 27.5 -9c9.33301 -2 20.666 -0.5 33.999 4.5s24.333 11.167 33 18.5
c11.333 12.667 19.166 25.334 23.499 38.001s6.5 29.334 6.5 50.001c0 38.667 -9.66699 67.5 -29 86.5s-38 28.5 -56 28.5l-31 -2v55l32 -1c6.66699 0 13 2 19 6l20 13c7.33301 4.66699 15 14.834 23 30.501s12 32.167 12 49.5c0 5.33301 -0.333008 9.66602 -1 12.999
c0 28 -8.5 50.167 -25.5 66.5s-33.167 24.5 -48.5 24.5c-18.667 0 -31.334 -1.16699 -38.001 -3.5s-12.334 -7.5 -17.001 -15.5z" />
    <glyph glyph-name="four" unicode="4" horiz-adv-x="393" 
d="M162 583h71l2 -385h76v-65h-77l-1 -77h78l2 -56h-256l1 58h79l1 75h-162zM136 400l-86 -202h84z" />
    <glyph glyph-name="five" unicode="5" horiz-adv-x="346" 
d="M43 268l-44.001 0.00292969v311c8 -5.33301 25.333 -13.333 52 -24s44.667 -16 54 -16c25.333 0 47.666 5.33301 66.999 16s35 19.667 47 27c3.33301 -0.666992 5.5 -5.5 6.5 -14.5s1.83301 -15.667 2.5 -20s1 -9.83301 1 -16.5c0 -10 -2 -23 -6 -39s-19 -30.333 -45 -43
s-49.333 -19 -70 -19c-8.66699 0 -19.667 1.83301 -33 5.5s-24 7.16699 -32 10.5v-84l13 -1c4 0 10.5 2.83301 19.5 8.5s17.5 8.5 25.5 8.5c57.333 0 102 -15.333 134 -46s48 -81.334 48 -152.001c0 -34 -12.667 -72.667 -38 -116s-66 -65 -122 -65
c-53.333 0 -89.5 12.667 -108.5 38s-28.5 54.333 -28.5 87c0 14 5 31.667 15 53s23 32 39 32c18 0 33.667 -5.83301 47 -17.5s20 -32.834 20 -63.501c0 -16 -6.66699 -27.5 -20 -34.5s-25.666 -10.5 -36.999 -10.5l-3 -5l13.5 -18.5c3.66699 -5 8.16699 -8.16699 13.5 -9.5
s10.666 -2 15.999 -2c8 0.666992 13.333 1 16 1c20.667 2 36.834 14.667 48.501 38s17.5 54.333 17.5 93c0 45.333 -6.66699 81.333 -20 108s-32.666 40 -57.999 40c-14 0 -25.5 -6.33301 -34.5 -19s-14.5 -26.334 -16.5 -41.001z" />
    <glyph glyph-name="six" unicode="6" horiz-adv-x="369" 
d="M64 323c10 10 24.167 19.8311 42.5 29.498s34.5 15.834 48.5 18.501c41.333 7.33301 78 -5.33398 110 -38.001s48 -76.334 48 -131.001c0 -57.333 -12.833 -105.833 -38.5 -145.5s-68.167 -59.5 -127.5 -59.5c-48 0 -84.833 27.667 -110.5 83s-38.5 123.333 -38.5 204
c0 64.667 16.333 131.834 49 201.501s80 104.5 142 104.5c29.333 0 52.833 -9.5 70.5 -28.5s28.834 -44.5 33.501 -76.5c0 -13.333 -2.33301 -26.833 -7 -40.5s-11.334 -23.5 -20.001 -29.5c-6 -5.33301 -11.5 -8.66602 -16.5 -9.99902s-12.167 -2 -21.5 -2
c-11.333 0 -22.833 4.33301 -34.5 13s-18.667 19.334 -21 32.001s-3.5 20 -3.5 22c0 4 1.16699 7.16699 3.5 9.5s5.83301 5.33301 10.5 9s8 8.16699 10 13.5s2 10 0 14c-3.33301 8 -10 12 -20 12c-12.667 0 -26.5 -9 -41.5 -27s-26 -34.833 -33 -50.5
s-13.333 -35.5 -19 -59.5zM151 310.998c-19.333 0 -32.333 -12.666 -39 -37.999s-10 -50 -10 -74c-0.666992 -7.33301 -1 -14 -1 -20c0 -30 4 -58.5 12 -85.5s21.667 -40.5 41 -40.5c14.667 0 26 12.167 34 36.5s12 58.166 12 101.499c0 30 -3.5 57.5 -10.5 82.5
s-19.833 37.5 -38.5 37.5z" />
    <glyph glyph-name="seven" unicode="7" horiz-adv-x="383" 
d="M22 396l-39.001 2.99805l28 186l20 -1c6 -6.66699 11.833 -11.667 17.5 -15l14.5 -8.5c4 -2.33301 8.66699 -3.5 14 -3.5l184 1c5.33301 0 11.833 1.16699 19.5 3.5s13.5 4 17.5 5s9.66699 2.66699 17 5s12.666 4.16602 15.999 5.49902
c1.33301 -2 2.33301 -7.83301 3 -17.5s1 -21.167 1 -34.5v-26c0 -6.66699 -0.333008 -13 -1 -19c-2 -6 -4.5 -12.167 -7.5 -18.5s-9.83301 -17.833 -20.5 -34.5l-122 -244c-8 -22.667 -14.333 -43 -19 -61s-7 -34.333 -7 -49c0 -23.333 -3.83301 -41.666 -11.5 -54.999
s-24.167 -20 -49.5 -20c-9.33301 0 -17.166 5.5 -23.499 16.5s-9.5 23.833 -9.5 38.5c0 6.66699 1.33301 15.167 4 25.5s7.33398 22 14.001 35l22 42.5l156 305l-167 1c-6 0 -11.5 -0.166992 -16.5 -0.5s-11.167 -2.16602 -18.5 -5.49902s-15 -10.666 -23 -21.999
c-3.33301 -6 -6.33301 -12 -9 -18s-4 -12.667 -4 -20z" />
    <glyph glyph-name="eight" unicode="8" horiz-adv-x="392" 
d="M82 293c-15.333 10 -33 23.833 -53 41.5s-30 52.5 -30 104.5c0 31.333 13.667 66.666 41 105.999s68.333 59 123 59c37.333 0 72 -13.833 104 -41.5s48 -69.167 48 -124.5c0 -35.333 -8.5 -61.166 -25.5 -77.499s-39.167 -31.833 -66.5 -46.5l69 -60
c18.667 -26.667 28 -59 28 -97c0 -34.667 -12.5 -70.5 -37.5 -107.5s-68.833 -55.5 -131.5 -55.5c-54 0 -93.333 16.5 -118 49.5s-37 67.5 -37 103.5c0 36.667 8.66699 66.667 26 90s37.333 42 60 56zM177 347c17.333 7.33301 34.333 17.333 51 30s25 32.667 25 60
c0 26.667 -5.33301 50.167 -16 70.5s-32.667 30.5 -66 30.5c-29.333 0 -49.833 -9.16699 -61.5 -27.5s-17.5 -38.5 -17.5 -60.5c0.666992 -6 1 -10 1 -12c3.33301 -34 13.833 -56.5 31.5 -67.5s35.167 -18.833 52.5 -23.5zM59 134c0 -17.333 8.16895 -33.502 24.502 -48.502
s32.833 -22.5 49.5 -22.5c19.333 0 36.166 6.83301 50.499 20.5s21.5 32.834 21.5 57.501c0 28.667 -6.33301 54.334 -19 77.001s-32.334 38 -59.001 46l-39 -35c-19.333 -24 -29 -55.667 -29 -95z" />
    <glyph glyph-name="nine" unicode="9" horiz-adv-x="369" 
d="M250 267c-1.33301 -9.33301 -11.5 -18.832 -30.5 -28.499s-37.167 -16.167 -54.5 -19.5c-40.667 -7.33301 -76.667 5.33398 -108 38.001s-47 76.334 -47 131.001c0 56 13.167 104.167 39.5 144.5s67.5 60.5 123.5 60.5c50.667 0 88.167 -26.833 112.5 -80.5
s36.5 -122.5 36.5 -206.5c0 -64.667 -16.333 -131.834 -49 -201.501s-80 -104.5 -142 -104.5c-29.333 0 -52.833 9.5 -70.5 28.5s-28.834 44.5 -33.501 76.5c0 13.333 2.33301 26.833 7 40.5s11.334 23.5 20.001 29.5c6 5.33301 11.5 8.66602 16.5 9.99902s12.167 2 21.5 2
c11.333 0 22.833 -4.33301 34.5 -13s18.667 -19.334 21 -32.001s3.5 -20 3.5 -22c0 -4 -1.16699 -7.16699 -3.5 -9.5s-5.83301 -5.33301 -10.5 -9s-8 -8 -10 -13s-2 -9.83301 0 -14.5c4 -10 12 -15 24 -15c10.667 0 23.334 9.5 38.001 28.5s25.5 36.333 32.5 52
s12.667 35.5 17 59.5s8.16602 46.667 11.499 68zM169 279.001c19.333 0 32.333 12.666 39 37.999s10 50 10 74c0.666992 7.33301 1 14 1 20c0 30 -4 58.5 -12 85.5s-21.667 40.5 -41 40.5c-14.667 0 -26 -12.167 -34 -36.5s-12 -58.166 -12 -101.499
c0 -30 3.5 -57.5 10.5 -82.5s19.833 -37.5 38.5 -37.5z" />
    <glyph glyph-name="colon" unicode=":" 
d="M117 61c2 -13.333 0 -23.499 -6 -30.499s-15 -11.167 -27 -12.5c-10.667 0 -21.334 3.66699 -32.001 11s-17 16.333 -19 27c-2.66699 12.667 -0.5 23.667 6.5 33s16.833 14 29.5 14s23.334 -3.83301 32.001 -11.5s14 -17.834 16 -30.501zM116 208.001
c2 -13.333 0 -23.499 -6 -30.499s-15 -11.167 -27 -12.5c-10.667 0 -21.334 3.66699 -32.001 11s-17 16.333 -19 27c-2.66699 12.667 -0.5 23.667 6.5 33s16.833 14 29.5 14s23.334 -3.83301 32.001 -11.5s14 -17.834 16 -30.501z" />
    <glyph glyph-name="semicolon" unicode=";" horiz-adv-x="0" 
d="M-225 558c0 -20.667 -6.50098 -37.666 -19.501 -50.999s-28.833 -20 -47.5 -20c-17.333 0 -33.166 6.5 -47.499 19.5s-21.5 28.5 -21.5 46.5c0 19.333 6.5 36.5 19.5 51.5s29.167 22.5 48.5 22.5s35.5 -6.83301 48.5 -20.5s19.5 -29.834 19.5 -48.501z" />
    <glyph glyph-name="less" unicode="&#x3c;" horiz-adv-x="411" 
d="M0 1v393h338v-50h-81v-343h-94l-1 341h-119l1 -341h-44zM317 228c12.667 0 22.167 -4.83203 28.5 -14.499s9.5 -19.834 9.5 -30.501c0 -8 -3 -15 -9 -21s-15.667 -9 -29 -9c-10.667 0 -19.667 3.66699 -27 11s-11 15.666 -11 24.999c0 10.667 3 19.834 9 27.501
s15.667 11.5 29 11.5zM103 232.001c12.667 0 22.167 -4.83203 28.5 -14.499s9.5 -19.834 9.5 -30.501c0 -8 -3 -15 -9 -21s-15.667 -9 -29 -9c-10.667 0 -19.667 3.66699 -27 11s-11 15.666 -11 24.999c0 10.667 3 19.834 9 27.501s15.667 11.5 29 11.5z" />
    <glyph glyph-name="equal" unicode="=" horiz-adv-x="896" 
d="M95 393l0.00292969 -340.996h146v221c0 25.333 7.83301 50.666 23.5 75.999s38.5 38 68.5 38c21.333 0 46.333 -3.5 75 -10.5s46.667 -14.5 54 -22.5c1.33301 1.33301 6 5 14 11s15.667 11.167 23 15.5s20 6.5 38 6.5l104 1c-14.667 12.667 -25.834 30 -33.501 52
s-11.5 42.667 -11.5 62c0 30.667 11.167 60.334 33.5 89.001s51.166 43 86.499 43c39.333 0 70.333 -7.83301 93 -23.5s34 -43.834 34 -84.501c0 -24.667 -7.33301 -47.5 -22 -68.5s-41 -31.5 -79 -31.5c-17.333 0 -32.833 6.33301 -46.5 19s-22.834 25.5 -27.501 38.5
s-7 24.167 -7 33.5c0 12.667 3.33301 26.667 10 42c-6.66699 -4.66699 -12.834 -11 -18.501 -19s-9.16699 -15.167 -10.5 -21.5s-2 -14.166 -2 -23.499c0 -28 6.33301 -51.333 19 -70c3.33301 -6.66699 6.5 -11.334 9.5 -14.001s14.833 -10.334 35.5 -23.001h89v-59h-60
v-255c0 -54 -3.33301 -99.333 -10 -136s-19.834 -67.167 -39.501 -91.5s-43.834 -43 -72.501 -56s-61.834 -24.167 -99.501 -33.5s-67.667 -14.833 -90 -16.5s-50.166 -2.5 -83.499 -2.5h-41c-40.667 0 -92.667 11.333 -156 34s-100.166 43.334 -110.499 62.001
s-17.666 33.667 -21.999 45s-6.5 21.666 -6.5 30.999c0 6.66699 2 14.167 6 22.5s10 14.833 18 19.5s18.5 9.16699 31.5 13.5s25.833 6.5 38.5 6.5c30 0 65 -5.83301 105 -17.5s73.333 -24.834 100 -39.501c14.667 -6 26.834 -11.5 36.501 -16.5
s20.834 -11.167 33.501 -18.5l-21 -34c-10 4 -23.833 10.833 -41.5 20.5s-34.334 18.167 -50.001 25.5s-41.834 15.666 -78.501 24.999s-63.334 14 -80.001 14c-12 0 -22.667 -2.33301 -32 -7s-15 -12.334 -17 -23.001c-1.33301 -8 -0.166016 -14.833 3.50098 -20.5
s15.167 -15.167 34.5 -28.5s36.333 -22.166 51 -26.499s35 -9.33301 61 -15s43.333 -8.83398 52 -9.50098s18.667 -1 30 -1c15.333 0 36.333 1.16699 63 3.5s44.667 3.5 54 3.5c51.333 4 97.666 17.167 138.999 39.5s67.833 45.833 79.5 70.5s19.167 47.834 22.5 69.501
s5 47.5 5 77.5v25v241h-79c-10.667 0.666992 -18.334 1 -23.001 1c-5.33301 0 -9.5 -0.333008 -12.5 -1s-6.66699 -1.83398 -11 -3.50098s-8.5 -3.5 -12.5 -5.5c22 -2.66699 45.167 -18.5 69.5 -47.5s36.5 -69.167 36.5 -120.5c0 -41.333 -9.66699 -78.166 -29 -110.499
s-51.666 -48.5 -96.999 -48.5c-39.333 0 -70.166 14.333 -92.499 43s-33.5 69.667 -33.5 123c0 28 6 57.167 18 87.5s27.333 51.5 46 63.5c-2.66699 4 -7.66699 8.33301 -15 13s-17 7 -29 7h-8c-7.33301 -0.666992 -16.166 -7 -26.499 -19s-15.5 -27.333 -15.5 -46v-267
l-332 -1l-1 395h96zM401.003 155.004c0 -24 5.16699 -47.998 15.5 -71.998s27.166 -36 50.499 -36c22.667 0 38.334 9.66699 47.001 29s13 43.666 13 72.999c0 30 -6 59 -18 87s-26.333 42 -43 42c-18.667 0 -34.167 -12.833 -46.5 -38.5s-18.5 -53.834 -18.5 -84.501z
M700.003 511.006c2 -11.333 5.33008 -20.5 9.99707 -27.5s11.334 -10.5 20.001 -10.5c10 0 18.333 4.83301 25 14.5s9.33398 19.834 8.00098 30.501c-1.33301 11.333 -4.66602 20.666 -9.99902 27.999s-16 11 -32 11c-6.66699 0 -12.167 -3.5 -16.5 -10.5
s-6.5 -14.833 -6.5 -23.5c0 -2.66699 0.666992 -6.66699 2 -12z" />
    <glyph glyph-name="greater" unicode="&#x3e;" 
d="M61 26c-8 1.33301 -14.167 5.66699 -18.5 13s-7.16602 16 -8.49902 26c-2 12 1.16699 21.5 9.5 28.5s18.833 9.83301 31.5 8.5c10.667 -2 20 -7.33301 28 -16s13.333 -18.5 16 -29.5s4 -18.833 4 -23.5c0 -4 -1 -9 -3 -15c-0.666992 -8.66699 -3 -16 -7 -22
s-10 -11.833 -18 -17.5s-15 -9.66699 -21 -12s-13 -3.5 -21 -3.5c12.667 8 21.167 17.667 25.5 29s6.16602 20.333 5.49902 27c-2 0 -4.16699 0.833008 -6.5 2.5s-7.83301 3.16699 -16.5 4.5z" />
    <glyph glyph-name="question" unicode="?" horiz-adv-x="458" 
d="M54 118c-11.333 5.33301 -20.8311 11.1699 -28.498 17.5029s-14.667 14.166 -21 23.499s-10.5 17.666 -12.5 24.999s-3 15.666 -3 24.999c0 16 3.16699 30.833 9.5 44.5s14.833 25.834 25.5 36.501l136 82c27.333 26 41 54 41 84l-2 23c-5.33301 30 -17 55.833 -35 77.5
s-36.5 34.834 -55.5 39.501s-33.5 7 -43.5 7c-24 0 -47 -9.16699 -69 -27.5s-33 -43.833 -33 -76.5l-38 -1c-0.666992 5.33301 -1 12.666 -1 21.999c0 21.333 3.5 40.833 10.5 58.5s17.333 34.167 31 49.5s29.5 26.166 47.5 32.499s41 9.5 69 9.5
c32 0 60.833 -5.16699 86.5 -15.5s47.5 -25.5 65.5 -45.5s32.333 -43.333 43 -70s16 -51.667 16 -75c0 -10 -2.16699 -23.667 -6.5 -41s-11.333 -33.833 -21 -49.5s-24.167 -29.667 -43.5 -42s-48.333 -25 -87 -38s-63.334 -24.5 -74.001 -34.5
s-17.834 -17.833 -21.501 -23.5s-5.5 -12.834 -5.5 -21.501c0 -7.33301 2.16699 -17.166 6.5 -29.499s12.833 -22.333 25.5 -30s27 -11.5 43 -11.5c18.667 0 31.667 8 39 24l28 -31c-18 -20.667 -40.667 -31 -68 -31c-18 0 -36 4.33301 -54 13zM154.002 38.0039
c1.33301 -12.667 -2.83203 -23.167 -12.499 -31.5s-20.5 -12.5 -32.5 -12.5c-10.667 0 -20.834 3.5 -30.501 10.5s-15.834 15.833 -18.501 26.5c-2.66699 12 0.333008 23.5 9 34.5s19.334 16.5 32.001 16.5c12 0 23.333 -4.66699 34 -14s17 -19.333 19 -30z" />
    <glyph glyph-name="at" unicode="@" horiz-adv-x="938" 
d="M198 -103c44.667 -31.333 84.6748 -53.1719 120.008 -65.5049s78.333 -18.5 129 -18.5c72.667 0 140.334 21.333 203.001 64s98.334 87.667 107.001 135c1.33301 10.667 2 19.667 2 27c0 28 -5.33301 54.833 -16 80.5s-25 39.167 -43 40.5
c-9.33301 0 -17 -1.16699 -23 -3.5s-11.667 -6.83301 -17 -13.5v-144h-80v357h-69l1 -357h-85v239c0 14.667 -1.5 26.667 -4.5 36s-9.16699 19.333 -18.5 30c-13.333 18 -27 28.833 -41 32.5s-23.333 5.83398 -28 6.50098s-9 1 -13 1c-8 0 -15.333 -0.833008 -22 -2.5
s-16.667 -6.16699 -30 -13.5s-23 -17.666 -29 -30.999s-9.83301 -24.5 -11.5 -33.5s-2.83398 -15.833 -3.50098 -20.5c4.66699 6.66699 12 13.334 22 20.001s19.667 10 29 10c13.333 0 25.166 -3.16699 35.499 -9.5s21.166 -16.166 32.499 -29.499s20.666 -30 27.999 -50
s11 -36 11 -48c0 -26.667 -0.833008 -47.334 -2.5 -62.001s-7.33398 -28.5 -17.001 -41.5s-19.334 -21.833 -29.001 -26.5s-21.5 -7 -35.5 -7c-16.667 0 -33.167 5.66699 -49.5 17s-28.5 23.166 -36.5 35.499s-16.333 32.333 -25 60s-13 58.5 -13 92.5
c0 23.333 1.33301 41.833 4 55.5s10.5 34.834 23.5 63.501s29.333 48.667 49 60s35.5 18.166 47.5 20.499s26.333 3.5 43 3.5c13.333 0 24.666 -1.16699 33.999 -3.5s24 -8.66602 44 -18.999s38.667 -23.5 56 -39.5v53h254v-42h-73v-153l14 15
c4 4.66699 11 8.33398 21 11.001s19.667 4 29 4c5.33301 0 19.166 -2.33301 41.499 -7s42.666 -29.667 60.999 -75s27.5 -90.666 27.5 -135.999c0 -55.333 -38.667 -111 -116 -167s-173 -84 -287 -84c-59.333 0 -112.833 8 -160.5 24s-93.334 41.333 -137.001 76
s-82.167 79.5 -115.5 134.5s-50 105.167 -50 150.5c0 42.667 8 76.667 24 102s37 38 63 38c23.333 0 43.833 -11.667 61.5 -35s26.5 -48.666 26.5 -75.999c0 -47.333 -6 -80.5 -18 -99.5s-37 -28.5 -75 -28.5c18 -34.667 36.333 -63.334 55 -86.001s43.667 -45 75 -67z
M58.0078 94.9941c10.667 0 19.001 6.83301 25.001 20.5s9 29.167 9 46.5c0 16.667 -2.5 30.5 -7.5 41.5s-12.5 16.5 -22.5 16.5c-13.333 0 -23.333 -6.83301 -30 -20.5s-10 -29.167 -10 -46.5s2.66699 -31.333 8 -42s14.666 -16 27.999 -16zM240.009 163.994
c-0.666992 -3.33301 -1 -7.66602 -1 -12.999c0 -8 0.333008 -15 1 -21s2 -13.333 4 -22s5.5 -16.5 10.5 -23.5s11.833 -10.5 20.5 -10.5c5.33301 0 9.5 1 12.5 3s6.16699 7.16699 9.5 15.5s5 17.833 5 28.5c0 17.333 -3 33.666 -9 48.999c-2 8 -4.5 14.333 -7.5 19
s-7.83301 8 -14.5 10c-8.66699 3.33301 -15.5 1.33301 -20.5 -6s-8.5 -17 -10.5 -29z" />
    <glyph glyph-name="A" unicode="A" horiz-adv-x="583" 
d="M504 -178l-85.999 -0.000976562v178h-273v53c0 -8.66699 -1.83301 -15.834 -5.5 -21.501s-9.16699 -11.334 -16.5 -17.001s-15.166 -9.5 -23.499 -11.5s-17.5 -3 -27.5 -3c-8.66699 0 -17.334 1.33301 -26.001 4s-16.667 8.83398 -24 18.501s-12.833 23.167 -16.5 40.5
s-5.5 35.333 -5.5 54v272h87v-285c0 -5.33301 1.83301 -10.666 5.5 -15.999s8.16699 -8.66602 13.5 -9.99902c4 -0.666992 8.33301 0.833008 13 4.5s9.66699 9 15 16s9.16602 15 11.499 24s3.5 21.167 3.5 36.5v230h90v-341h176v343h89v-569z" />
    <glyph glyph-name="B" unicode="B" horiz-adv-x="667" 
d="M607 50l0.998047 -50.001h-608l-2 393h101l1 -344h190c-13.333 14 -26.333 28.333 -39 43c-8 15.333 -13.5 30.5 -16.5 45.5s-4.5 32.167 -4.5 51.5c0 31.333 13.5 63.833 40.5 97.5s64.167 50.5 111.5 50.5c34.667 0 63.834 -12.167 87.501 -36.5
s35.5 -51.166 35.5 -80.499c0 -42 -9.33301 -73 -28 -93s-41.667 -30 -69 -30c-33.333 0 -57.833 10.667 -73.5 32s-23.5 45 -23.5 71c0 15.333 2 27 6 35c-9.33301 0 -17.666 -8 -24.999 -24s-11 -33.333 -11 -52c0 -16.667 5.5 -33.167 16.5 -49.5
s22.833 -28.333 35.5 -36l29.5 -17.5c7 -4 14.167 -6 21.5 -6h223zM350.998 190.999c0 -8.66699 4.16797 -17.167 12.501 -25.5s18.166 -12.5 29.499 -12.5c22 0 33 16.667 33 50c0 10.667 -4.33301 21 -13 31s-18 14.333 -28 13c-13.333 -2 -22.333 -8 -27 -18
s-7 -22.667 -7 -38z" />
    <glyph glyph-name="C" unicode="C" horiz-adv-x="862" 
d="M67 348c18 2 38.498 -5.16992 61.498 -21.5029s34.5 -41.5 34.5 -75.5c0 -21.333 -8.66699 -43.5 -26 -66.5s-39.666 -34.5 -66.999 -34.5c-31.333 0 -53 13 -65 39s-18 51.333 -18 76c0 36 12.167 71.333 36.5 106s61.833 52 112.5 52c38 0 74.333 -15.833 109 -47.5
s52 -69.5 52 -113.5c0 -33.333 -9.33301 -68.333 -28 -105s-43.5 -58.667 -74.5 -66s-50.833 -11.333 -59.5 -12s-19 -1 -31 -1h-23c-6 0 -10.167 -0.166992 -12.5 -0.5s-5.33301 -2.16602 -9 -5.49902s-5.16699 -6.66602 -4.5 -9.99902s2.33398 -6 5.00098 -8
s5.66699 -3 9 -3h35h655l1 -52l-689 1c-7.33301 -0.666992 -13 -1 -17 -1c-16.667 0 -27 2 -31 6c-4 2.66699 -8.33301 6.5 -13 11.5s-7 17.833 -7 38.5v13c0 8.66699 0.5 14.667 1.5 18s4 8.33301 9 15s18.167 11.5 39.5 14.5s42.666 6.33301 63.999 10
s41.333 15.834 60 36.501s28 43.667 28 69c0 28.667 -4 52.167 -12 70.5s-17.667 32.166 -29 41.499s-20.166 15.5 -26.499 18.5s-15.833 4.5 -28.5 4.5c-4 0.666992 -10.167 -1.16602 -18.5 -5.49902zM727.998 86.9971l-73 -0.000976562v282h-58v-282h-66v192
c0 18 -5.66699 37.667 -17 59s-29.333 32 -54 32c-27.333 0 -45.333 -3.66699 -54 -11s-17.167 -17.333 -25.5 -30s-13.5 -22 -15.5 -28l-6 -18c4 2.66699 11.5 7.33398 22.5 14.001s20.833 10 29.5 10c30 0 51.667 -13.333 65 -40s20 -50 20 -70
c0 -27.333 -6 -52.5 -18 -75.5s-33 -34.5 -63 -34.5c-27.333 0 -50 14.167 -68 42.5s-27 64.166 -27 107.499c0 32 10.833 68.333 32.5 109s58.5 63.334 110.5 68.001c16 0 34.167 -4 54.5 -12s37.5 -20.667 51.5 -38v43h205v-36h-46v-284zM366.998 193.996
c4 -18.667 9.33105 -31.832 15.998 -39.499s15.334 -10.834 26.001 -9.50098c12.667 2 20.834 7.83301 24.501 17.5s5.5 20.167 5.5 31.5c2 14.667 -1.16699 27.167 -9.5 37.5s-17.833 15.5 -28.5 15.5c-10 0 -18.667 -5.66699 -26 -17s-10 -23.333 -8 -36zM22.9961 249.998
c0 -15.333 3.5 -27.834 10.5 -37.501s14.167 -14.5 21.5 -14.5c11.333 0 20.333 3.66699 27 11s10 20.333 10 39c0 10 -3.5 21.5 -10.5 34.5s-16.5 19.5 -28.5 19.5c-10 -0.666992 -17.5 -7.16699 -22.5 -19.5s-7.5 -23.166 -7.5 -32.499z" />
    <glyph glyph-name="D" unicode="D" horiz-adv-x="857" 
d="M754 391l0.00488281 -471.998h-186c-20 -26 -43 -49 -69 -69c-18.667 -16 -47.5 -32.167 -86.5 -48.5s-79.167 -24.5 -120.5 -24.5c-83.333 0 -147.333 16.667 -192 50s-72.334 65.666 -83.001 96.999c-2.66699 5.33301 -5 10.333 -7 15s-2.33301 9.66699 -1 15
c3.33301 11.333 11.666 17 24.999 17h447c11.333 10 20 20.167 26 30.5s12.833 27.333 20.5 51s11.5 50.5 11.5 80.5c0 21.333 -3.16699 46.5 -9.5 75.5s-18 58.167 -35 87.5s-38.5 44 -64.5 44c-6.66699 0.666992 -15.5 -1.16602 -26.5 -5.49902s-17.833 -9.5 -20.5 -15.5
c28 -16 48.5 -39.5 61.5 -70.5s19.5 -57.833 19.5 -80.5c0 -58 -9.16699 -100.5 -27.5 -127.5s-48.166 -40.5 -89.499 -40.5c-30.667 0 -55.667 15.167 -75 45.5s-29 70.166 -29 119.499c0 24 3.33301 45.667 10 65s19 42.666 37 69.999
c-11.333 8 -27.166 15.333 -47.499 22s-37.166 10 -50.499 10c-6 0.666992 -10.333 1 -13 1c-21.333 0 -41 -4.83301 -59 -14.5s-31.667 -21.667 -41 -36l-20 -30.5c-4 -6 -6.66699 -13 -8 -21l15 11.5c4 3 9.16699 5.5 15.5 7.5s12.166 3.66699 17.499 5s10.666 2 15.999 2
c6 0 17.167 -1.33301 33.5 -4s32 -16.5 47 -41.5s23.667 -44.667 26 -59s3.5 -24.166 3.5 -29.499c0 -28.667 -8.83301 -56.834 -26.5 -84.501s-43.834 -41.5 -78.501 -41.5c-50.667 0 -84.5 19.333 -101.5 58s-25.5 79.334 -25.5 122.001c0 45.333 17 92.666 51 141.999
s82 74 144 74h18c20.667 0 41.667 -3.33301 63 -10s41.333 -17.334 60 -32.001c12.667 12.667 26.667 23.334 42 32.001s37.666 13 66.999 13c22.667 0 43.5 -5.16699 62.5 -15.5s38.333 -25.333 58 -45s33.667 -39.834 42 -60.501s15.166 -42 20.499 -64
s8.66602 -39.5 9.99902 -52.5s2 -25.167 2 -36.5c0 -23.333 -2.16699 -47.166 -6.5 -71.499s-12.5 -49.833 -24.5 -76.5h81l1 417h70zM44.0049 131.002c0 -13.333 4.5 -26.833 13.5 -40.5s22.167 -20.5 39.5 -20.5c16 0 27.667 4.66699 35 14s11 28.333 11 57
c0 12 -4.66699 23.833 -14 35.5s-21 17.5 -35 17.5c-33.333 0 -50 -21 -50 -63zM287.005 164.002c0 -30 4.33203 -53.668 12.999 -71.001s20.667 -26 36 -26c14 0 24.5 7.83301 31.5 23.5s10.5 33.834 10.5 54.501c0 12 -2 24 -6 36s-10.5 27.333 -19.5 46
s-17.833 32.334 -26.5 41.001c-7.33301 -7.33301 -15.666 -23.833 -24.999 -49.5s-14 -43.834 -14 -54.501zM147.004 -75.999h-20.001c-6 0 -12.667 -0.666992 -20 -2s-12.5 -2.16602 -15.5 -2.49902s-4.83301 -1.83301 -5.5 -4.5
c-4.66699 -8.66699 11.833 -23.834 49.5 -45.501s75.5 -32.5 113.5 -32.5c44.667 0 84.334 8.5 119.001 25.5s61.667 37.5 81 61.5h-302z" />
    <glyph glyph-name="E" unicode="E" horiz-adv-x="845" 
d="M110 0l-0.000976562 393.002h350v-43h-105l1 -141c6.66699 2.66699 14.834 4.83398 24.501 6.50098l26 4.5c7.66699 1.33301 14.167 2 19.5 2c12 0 32.167 -4.66699 60.5 -14s50.833 -34.333 67.5 -75c8.66699 -18.667 14.5 -36.834 17.5 -54.501s4.5 -35.5 4.5 -53.5
c0 -10.667 -0.833008 -20.334 -2.5 -29.001s-4.83398 -19.334 -9.50098 -32.001h82v431h85l1 -475h-192c-18 -37.333 -56.667 -71.333 -116 -102s-119.666 -46 -180.999 -46c-56 0 -105.833 11.667 -149.5 35s-74.5 44.833 -92.5 64.5s-25.333 37.5 -22 53.5
c1.33301 11.333 7 19.5 17 24.5s22.333 7.5 37 7.5h402l15 21.5c4 5.66699 6.66699 11.667 8 18s3 15 5 26s3 19.5 3 25.5c0 6.66699 -0.333008 11.667 -1 15c0 20 -5.33301 41.667 -16 65c-10 16.667 -17.333 28.167 -22 34.5s-11.667 10.5 -21 12.5
c-14 2.66699 -25.5 0.166992 -34.5 -7.5s-13.5 -18.5 -13.5 -32.5v-17v-118h-108v350h-95v-350h-45zM80.999 -84.998c-11.333 0 -19.332 -0.666992 -23.999 -2s-7 -5 -7 -11c0.666992 -4.66699 2.66699 -9 6 -13s8.33301 -9.66699 15 -17s28 -18 64 -32s65.333 -21 88 -21
c43.333 0 82.666 11 117.999 33s57 43 65 63h-325z" />
    <glyph glyph-name="F" unicode="F" horiz-adv-x="763" 
d="M236 226l1.99609 167.001h325l1 -40h-96v-124h43c66 0 112.167 -19.167 138.5 -57.5s39.5 -88.833 39.5 -151.5c0 -65.333 -31.833 -121 -95.5 -167s-139.834 -69 -228.501 -69c-108 0 -189.5 19.5 -244.5 58.5s-92.833 85.5 -113.5 139.5l-20 82.5
c-6 24.333 -9 45.5 -9 63.5c0 20.667 1.33301 38.667 4 54s7.66699 37.666 15 66.999s22.333 57.5 45 84.5s42 43.833 58 50.5l25 -35c-23.333 -9.33301 -39.166 -21 -47.499 -35s-20.5 -39.333 -36.5 -76c-5.33301 -8.66699 -9.33301 -21.334 -12 -38.001
s-4 -34.667 -4 -54c0 -26.667 3.5 -55.167 10.5 -85.5s19 -61.666 36 -93.999s48.833 -62.5 95.5 -90.5s110.334 -42 191.001 -42c81.333 0 137.833 23.167 169.5 69.5s47.5 97.5 47.5 153.5c0 13.333 -1.5 27.5 -4.5 42.5s-6.33301 27 -10 36s-10.167 17.5 -19.5 25.5
s-17.166 13.667 -23.499 17s-13.166 5 -20.499 5l-29 -4l1 -90c0 -13.333 -2.16699 -23.5 -6.5 -30.5s-12.5 -16.167 -24.5 -27.5c-19.333 -21.333 -45.666 -32 -78.999 -32h-13c-17.333 0 -32 1.16699 -44 3.5s-30.167 10.5 -54.5 24.5s-50 34.833 -77 62.5
s-40.5 56.5 -40.5 86.5c0 12.667 3.83301 24.167 11.5 34.5s17.167 15.5 28.5 15.5h66zM350.996 226.001v123h-68l-1 -123h69zM188.996 179.001c-12 0 -18 -8.33301 -18 -25c0 -16 14.5 -35 43.5 -57s50.167 -34.167 63.5 -36.5s21.333 -3.5 24 -3.5
c7.33301 0 18.333 2.5 33 7.5s21 17.5 19 37.5l-1 77h-164z" />
    <glyph glyph-name="G" unicode="G" horiz-adv-x="506" 
d="M5 0v392h96v-345h208l1 345h97v-584h-95v192h-307z" />
    <glyph glyph-name="H" unicode="H" horiz-adv-x="348" 
d="M-2 -1v396h273v-52h-71v-343h-93v342h-62v-343h-47zM160 517c0 -21.333 -5.33496 -37.667 -16.002 -49s-25 -17 -43 -17c-15.333 0 -28.666 4.66699 -39.999 14s-18 18.5 -20 27.5s-3 16.5 -3 22.5c0 16 5 30.167 15 42.5s22.667 18.5 38 18.5
c18.667 0 34.834 -5.5 48.501 -16.5s20.5 -25.167 20.5 -42.5z" />
    <glyph glyph-name="I" unicode="I" horiz-adv-x="642" 
d="M544 -113c0 -25.333 -8.66699 -50.8369 -26 -76.5039s-38.166 -40.167 -62.499 -43.5s-41.833 -5 -52.5 -5c-8.66699 0 -16.334 0.833008 -23.001 2.5s-21 7.66699 -43 18s-39.667 32.5 -53 66.5c-5.33301 -21.333 -19.833 -40.166 -43.5 -56.499
s-47.167 -24.5 -70.5 -24.5c-47.333 0 -85.666 14.667 -114.999 44s-44 69.333 -44 120c0 50 18.667 85 56 105s72.333 30 105 30c8.66699 0 17.167 -0.166992 25.5 -0.5s16.5 -0.5 24.5 -0.5h30c9.33301 2 16.333 3.33301 21 4c17.333 0 31.166 0.666992 41.499 2
s26.833 5.16602 49.5 11.499s42.5 23 59.5 50s25.5 59.5 25.5 97.5c0 17.333 -4.5 38.5 -13.5 63.5s-20.833 36.833 -35.5 35.5c-11.333 0 -21.666 -5.5 -30.999 -16.5s-14 -25.167 -14 -42.5l-2 -166l-88 -1v146c0 26.667 -11.667 50.334 -35 71.001s-44.333 31 -63 31
c-15.333 0 -27.333 -1.16699 -36 -3.5s-18.334 -8.33301 -29.001 -18s-17.334 -21.167 -20.001 -34.5c7.33301 3.33301 15 6.33301 23 9s16 4 24 4c4 0 8.16699 -0.5 12.5 -1.5s12.5 -4 24.5 -9s24.333 -16 37 -33s19 -35.167 19 -54.5c0 -42 -9.33301 -73 -28 -93
s-42.334 -30 -71.001 -30c-40 0 -68.333 15.5 -85 46.5s-25 63.167 -25 96.5c0 7.33301 1.33301 19.333 4 36s16.334 42.167 41.001 76.5s63 51.5 115 51.5c28 0 54.167 -6.33301 78.5 -19s45.166 -29.667 62.499 -51c11.333 22 25.166 39.333 41.499 52s39.5 19 69.5 19
c36 0 66.333 -18.5 91 -55.5s37 -74.167 37 -111.5s-12.5 -76.5 -37.5 -117.5s-59.333 -65.167 -103 -72.5s-71.667 -11.5 -84 -12.5s-27.166 -1.5 -44.499 -1.5c-20 0 -36.667 -0.333008 -50 -1s-30.166 -2.66699 -50.499 -6s-39 -13.333 -56 -30s-26.5 -32.667 -28.5 -48
c0 -23.333 5.33301 -45.666 16 -66.999s31.667 -32 63 -32c11.333 0 22 3.83301 32 11.5s17.5 16.667 22.5 27s7.83301 21.833 8.5 34.5s1 22.334 1 29.001l1 55h82l-1 -75c0 -23.333 6 -46.5 18 -69.5s30.333 -34.5 55 -34.5c18.667 0 34.334 7.83301 47.001 23.5
s19 35.834 19 60.501c0 10.667 -0.333008 18.667 -1 24s-2.83398 13.5 -6.50098 24.5l-10.5 30.5c-3.33301 9.33301 -7.66602 19.666 -12.999 30.999h75c6.66699 -9.33301 14.5 -29.166 23.5 -59.499s13.5 -52.5 13.5 -66.5zM96 243.996c-12 0 -21.332 -6.33301 -27.999 -19
c-2 -6 -3 -14 -3 -24c0 -10.667 2.83301 -23.5 8.5 -38.5s17.167 -22.5 34.5 -22.5c6.66699 0 12.167 1.5 16.5 4.5s8.16602 8 11.499 15s5 15.5 5 25.5c0 14 -4.33301 27.333 -13 40c-7.33301 12.667 -18 19 -32 19z" />
    <glyph glyph-name="J" unicode="J" horiz-adv-x="912" 
d="M162 228l-0.000976562 167h360l-1 -35h-110v-127l65 1c15.333 0 28.833 -2.16699 40.5 -6.5s25.834 -11.5 42.501 -21.5s29.834 -21.5 39.501 -34.5s17.667 -27 24 -42s10.833 -30 13.5 -45s4 -28.167 4 -39.5v-20c-1.33301 -6 -2.16602 -11.5 -2.49902 -16.5
s-1.5 -11.833 -3.5 -20.5s-4.33301 -16.667 -7 -24h88l1 432h87v-470h-196l-122 -113c-54.667 -30.667 -118.667 -46 -192 -46c-85.333 0 -153.833 12.167 -205.5 36.5s-88 46.5 -109 66.5s-33.167 32.833 -36.5 38.5s-5 12.834 -5 21.501
c0 11.333 5.83301 19.666 17.5 24.999s25.167 8 40.5 8h506c8 9.33301 13.833 17.166 17.5 23.499s7 13.833 10 22.5s5.5 18.167 7.5 28.5s3 23.833 3 40.5s-0.833008 29.5 -2.5 38.5s-6.33398 19.167 -14.001 30.5s-19.5 22.833 -35.5 34.5s-29.667 17.5 -41 17.5h-34v-111
c0 -12 -2.83301 -22.833 -8.5 -32.5s-15.5 -20.5 -29.5 -32.5s-33.667 -18 -59 -18c-24 0 -47.833 4.33301 -71.5 13s-47.5 20.667 -71.5 36s-44 31 -60 47l-38 43c-7.33301 8 -11 18 -11 30c0 8.66699 2 16.834 6 24.501s11.167 14.5 21.5 20.5s22.166 9 35.499 9h36z
M48.999 -75c-10.667 1.33301 -18.334 2.00098 -23.001 2.00098c-6 0 -11 -2.33301 -15 -7c-4 -8.66699 -4.66699 -15.334 -2 -20.001c6.66699 -8 17.167 -16 31.5 -24l46.5 -26.5c16.667 -9.66699 34.834 -17.667 54.501 -24s39.5 -11 59.5 -14s35.667 -4.5 47 -4.5
c9.33301 0 18.333 0.666992 27 2s22 3.83301 40 7.5s34.667 9.16699 50 16.5s34 18.5 56 33.5s43 34.5 63 58.5h-435zM136.999 193.001c-14.667 0 -24.667 -6.66602 -30 -19.999c-3.33301 -12 2 -24 16 -36s26 -21.833 36 -29.5s21.5 -15.167 34.5 -22.5
s24.333 -12.833 34 -16.5s18.167 -5.5 25.5 -5.5c8 0 16.167 1.5 24.5 4.5s17 8.16699 26 15.5s13.5 15.666 13.5 24.999v85h-180zM203.999 230.002h112l-1 130h-111v-130z" />
    <glyph glyph-name="K" unicode="K" horiz-adv-x="878" 
d="M129 393l20.002 -23c-22.667 -23.333 -45.5 -52.5 -68.5 -87.5s-34.5 -79.5 -34.5 -133.5c0 -50 9.5 -101.333 28.5 -154s43.833 -89.167 74.5 -109.5s56.834 -34.166 78.501 -41.499s43.667 -12.166 66 -14.499s40.833 -3.5 55.5 -3.5c19.333 0 36.166 2 50.499 6
s28.666 11.333 42.999 22s25.333 21.167 33 31.5s13.5 23.833 17.5 40.5c3.33301 8.66699 5.33301 17.167 6 25.5s1 17.833 1 28.5v20h-246l1 393h100v-351h145v269c0 11.333 5.16699 25.833 15.5 43.5s21.166 28.5 32.499 32.5c17.333 4.66699 32 7 44 7
c12.667 0 24 -1.5 34 -4.5s25.667 -11 47 -24s48.333 -52.5 81 -118.5s49 -117 49 -153c0 -24.667 -5.83301 -46.5 -17.5 -65.5s-29.5 -28.5 -53.5 -28.5h-123c0 -32.667 -1.33301 -57.667 -4 -75s-10.334 -39 -23.001 -65s-28.167 -46.333 -46.5 -61
s-43.666 -26.834 -75.999 -36.501s-60.833 -14.5 -85.5 -14.5c-25.333 0 -57.333 5.16699 -96 15.5s-70.834 22 -96.501 35s-52.167 33.167 -79.5 60.5s-50.166 69.166 -68.499 125.499s-27.5 108.5 -27.5 156.5c0 58.667 14.5 112.5 43.5 161.5s55.5 79.167 79.5 90.5z
M698.002 45c20 0 35.167 7.50098 45.5 22.501s13.833 29.833 10.5 44.5c-4 26 -14.5 58.667 -31.5 98s-30.167 63.666 -39.5 72.999l-31 31c-11.333 11.333 -20.333 16.333 -27 15c-4.66699 -1.33301 -8.66699 -5 -12 -11s-5 -12.333 -5 -19l2 -254h88z" />
    <glyph glyph-name="L" unicode="L" horiz-adv-x="634" 
d="M198 393h96.002v-185c7.33301 6 15.833 11.167 25.5 15.5s23.167 6.5 40.5 6.5c36 0 67.333 -17.333 94 -52s40 -88.334 40 -161.001c0 -46 -20.333 -91.167 -61 -135.5s-99.334 -66.5 -176.001 -66.5c-79.333 0 -142.833 38 -190.5 114s-71.5 156 -71.5 240
c0 95.333 24.667 182.5 74 261.5s122.666 118.5 219.999 118.5c88.667 0 156.334 -28.833 203.001 -86.5s70 -118.834 70 -183.501l-1 -280l-34 1l1 233c0 66 -26.167 120.167 -78.5 162.5s-114.833 63.5 -187.5 63.5c-76 0 -131.833 -33.167 -167.5 -99.5
s-53.5 -128.166 -53.5 -185.499c0 -82 19.167 -149.667 57.5 -203s90.833 -80 157.5 -80c41.333 0 74.166 15.5 98.499 46.5s36.5 59.5 36.5 85.5v22c0 13.333 -0.833008 23.833 -2.5 31.5s-6.16699 16.834 -13.5 27.501c-7.33301 14.667 -14 24.667 -20 30
s-12.667 8.33301 -20 9c-13.333 0 -23.833 -3.5 -31.5 -10.5s-11.5 -16.833 -11.5 -29.5v-103h-93z" />
    <glyph glyph-name="M" unicode="M" horiz-adv-x="1021" 
d="M422 380c21.333 -14.667 34.832 -27.9951 40.499 -39.9951s8.5 -32.667 8.5 -62c0 -18 -10.333 -36.167 -31 -54.5s-46.334 -27.5 -77.001 -27.5c-26 0 -50 8.66699 -72 26s-33 48 -33 92c0 40.667 15.333 74.5 46 101.5s64.334 40.5 101.001 40.5
c55.333 0 96.333 -8.66699 123 -26s48 -39.166 64 -65.499s26.167 -52 30.5 -77s6.5 -49.5 6.5 -73.5c0 -23.333 -1.66699 -39.333 -5 -48l51 -1v281h109v-251l26 8c7.33301 2 15 3 23 3c33.333 0 64.666 -14.5 93.999 -43.5s44 -68.833 44 -119.5
c0 -89.333 -33.5 -153.833 -100.5 -193.5s-129.5 -59.5 -187.5 -59.5c-76 0 -131.167 7 -165.5 21s-61.333 27.667 -81 41s-32 25.166 -37 35.499s-7.5 20.166 -7.5 29.499c0 8 4.83301 16 14.5 24s20.834 12.667 33.501 14s21.667 2.16602 27 2.49902s9 0.5 11 0.5
c13.333 -0.666992 24.333 -1 33 -1h114v-44l-95 -1c-7.33301 0 -14.666 0.166992 -21.999 0.5s-15 0.5 -23 0.5c-16 0 -29 -2 -39 -6c1.33301 -4.66699 3.83301 -10.667 7.5 -18s10 -13.833 19 -19.5s21.167 -11.334 36.5 -17.001s38.333 -10.834 69 -15.501
s51.334 -7 62.001 -7h21c8.66699 2 29.334 4.66699 62.001 8s64.667 27.5 96 72.5s47 86.167 47 123.5c0 17.333 -2.16699 34.5 -6.5 51.5s-9.83301 30 -16.5 39s-12.167 16 -16.5 21s-9.5 7.5 -15.5 7.5c-14 0 -22 -2.83301 -24 -8.5s-3.16699 -18.834 -3.5 -39.501
s-0.5 -38.334 -0.5 -53.001v-59.5v-18.5l-109 1v146h-63c-3.33301 -12 -12.333 -28.333 -27 -49s-34.834 -39.5 -60.501 -56.5s-58 -30.667 -97 -41s-92.833 -15.5 -161.5 -15.5c-71.333 0 -134.333 16.667 -189 50s-83.834 58.333 -87.501 75s-5.5 32.667 -5.5 48
c2.66699 14 9.5 22.833 20.5 26.5s19.333 5.83398 25 6.50098s13.167 1 22.5 1c7.33301 0 14.833 -0.166992 22.5 -0.5s15.834 -0.5 24.501 -0.5h412c2 3.33301 4 7.5 6 12.5s4.83301 13.167 8.5 24.5s5.5 25 5.5 41c0 10 -2.16699 24.167 -6.5 42.5s-11 35.833 -20 52.5
s-20.333 28 -34 34s-25.834 9 -36.501 9c-5.33301 -0.666992 -9 -1 -11 -1zM112.999 118.005l-19.998 0.00195312c-6 0 -11 -0.333008 -15 -1s-9.16699 -3.33398 -15.5 -8.00098s-9.5 -7.33398 -9.5 -8.00098c-4 -12.667 12 -30.667 48 -54s87.333 -35 154 -35
c19.333 0 40.5 2.66699 63.5 8s43.167 12 60.5 20s35.666 19.333 54.999 34s35.666 29 48.999 43zM309.001 309.007c0 -8 3.66699 -15.999 11 -23.999s14.666 -12 21.999 -12c13.333 1.33301 23.333 5.66602 30 12.999s10 16 10 26c0 8.66699 -3.16699 17.167 -9.5 25.5
s-14.166 12.5 -23.499 12.5c-14 0 -24.167 -3.66699 -30.5 -11s-9.5 -17.333 -9.5 -30z" />
    <glyph glyph-name="N" unicode="N" horiz-adv-x="445" 
d="M209 581c-16 2 -44.332 -21.6631 -84.999 -70.9961s-61 -109.333 -61 -180s9.83301 -127.167 29.5 -169.5s36 -67.833 49 -76.5s24.333 -15.334 34 -20.001s16.5 -6.33398 20.5 -5.00098c-0.666992 2.66699 -4.16699 10.5 -10.5 23.5s-11 26 -14 39
s-5.5 25.167 -7.5 36.5s-3 22.666 -3 33.999c0 20.667 8.16699 45.834 24.5 75.501s38.166 44.5 65.499 44.5c40.667 0 71.5 -12.333 92.5 -37s31.5 -64.334 31.5 -119.001c0 -43.333 -17 -80 -51 -110s-76 -45 -126 -45c-54 0 -99.333 31.167 -136 93.5
s-55 136.833 -55 223.5c0 67.333 20.667 139 62 215s101 114 179 114c35.333 0 67.333 -11.5 96 -34.5s43 -61.833 43 -116.5c0 -36.667 -12 -63.334 -36 -80.001s-49.333 -25 -76 -25c-29.333 0 -50.833 10.5 -64.5 31.5s-20.5 47.5 -20.5 79.5
c0 10.667 3.5 23.667 10.5 39s14.833 26.333 23.5 33zM229.001 504.004c2 -16 5.5 -29.167 10.5 -39.5s15.167 -15.5 30.5 -15.5c10.667 0.666992 18 3.5 22 8.5s6 12.5 6 22.5l-2 26c-2 18.667 -7 33 -15 43s-14.667 14.667 -20 14
c-4 -0.666992 -10.833 -8.16699 -20.5 -22.5s-13.5 -26.5 -11.5 -36.5zM289.001 158.004c1.33301 6.66699 1.99902 14.334 1.99902 23.001c0 19.333 -3.16699 36.166 -9.5 50.499s-17.833 21.5 -34.5 21.5c-13.333 0 -23.166 -8.83301 -29.499 -26.5s-9.5 -34.5 -9.5 -50.5
s2.83301 -35.833 8.5 -59.5s13.5 -35.5 23.5 -35.5c15.333 0 27.333 9.33301 36 28s13 35 13 49z" />
    <glyph glyph-name="O" unicode="O" horiz-adv-x="792" 
d="M112 383l22.9971 -28.002c-29.333 -20.667 -50.666 -42.167 -63.999 -64.5s-22.833 -40.166 -28.5 -53.499s-10 -26.833 -13 -40.5s-4.83301 -24.834 -5.5 -33.501s-1 -19 -1 -31v-26.5c0 -9 0.333008 -18.167 1 -27.5c0 -24 3.33301 -45.5 10 -64.5s17 -41 31 -66
s27.5 -45 40.5 -60s31 -31.5 54 -49.5s45 -32.167 66 -42.5s44.667 -19.166 71 -26.499s46.5 -12.666 60.5 -15.999s31.333 -5 52 -5c12 0 27.667 1.16699 47 3.5s35.5 5.66602 48.5 9.99902s26.5 11 40.5 20s24.167 15.833 30.5 20.5s12.333 11 18 19s8.5 15.667 8.5 23
c0 8 -2.66699 16.667 -8 26s-10.166 16 -14.499 20s-10.166 6.33301 -17.499 7c-10.667 1.33301 -18.834 -0.333984 -24.501 -5.00098s-8.5 -10 -8.5 -16l-3 -42h-94l11 166h-237l21 393h93l-17 -350h143l15 285c0 10.667 1.5 19.334 4.5 26.001s7.5 13.834 13.5 21.501
s12 12.667 18 15s14.667 4.16602 26 5.49902c23.333 0 47 -7.66699 71 -23c25.333 -18.667 45.5 -40 60.5 -64s25.5 -44.5 31.5 -61.5s10.5 -33.667 13.5 -50s5.33301 -32 7 -47s2.5 -27.5 2.5 -37.5v-18c0 -6 0.333008 -11.667 1 -17c0 -9.33301 -1.16699 -18 -3.5 -26
s-5.83301 -15.167 -10.5 -21.5s-8.66699 -12.166 -12 -17.499c-7.33301 -8.66699 -17.666 -13 -30.999 -13h-117l-3 -60c6.66699 3.33301 13 6.16602 19 8.49902s14.333 3.5 25 3.5c4.66699 0.666992 9.66699 1.16699 15 1.5s9.33301 0.5 12 0.5
c12 0 24.5 -3.83301 37.5 -11.5s23 -16.834 30 -27.501s12.167 -23 15.5 -37s5 -26 5 -36c0 -16.667 -6.16699 -33.667 -18.5 -51s-23.5 -30 -33.5 -38s-25.667 -16.833 -47 -26.5s-41.5 -16 -60.5 -19s-42.833 -4.5 -71.5 -4.5c-44.667 0 -80.667 2.33301 -108 7
s-59.333 15.167 -96 31.5s-68 32.833 -94 49.5s-50.167 37.334 -72.5 62.001s-39.333 46.834 -51 66.501s-23.667 46.167 -36 79.5s-18.5 68 -18.5 104c0 42.667 2.33301 77.167 7 103.5s15.334 53.5 32.001 81.5c12.667 23.333 25.167 41.5 37.5 54.5
s29.166 26.5 50.499 40.5zM641.997 40.998c16 0 26.332 7.83496 30.999 23.502s7 36.5 7 62.5c0 21.333 -1 38.333 -3 51s-7.5 31.167 -16.5 55.5s-16.167 41.5 -21.5 51.5s-14.166 19.167 -26.499 27.5s-21.333 14.166 -27 17.499s-11.167 4.33301 -16.5 3
c-12 -2.66699 -17.667 -8.33398 -17 -17.001l-11 -275h101z" />
    <glyph glyph-name="P" unicode="P" horiz-adv-x="12" 
d="M-201 371c-23.333 8.66699 -45.168 26.001 -65.501 52.001s-30.5 56.333 -30.5 91c0 27.333 11.5 57.333 34.5 90s53.833 49 92.5 49c44 0 77.833 -10.167 101.5 -30.5s35.5 -50.833 35.5 -91.5c0 -26.667 -11.167 -48.334 -33.5 -65.001s-45.166 -25 -68.499 -25
c-18.667 0 -34.5 5.66699 -47.5 17s-21.333 23.333 -25 36s-5.5 24.667 -5.5 36c0 17.333 2.66699 33.333 8 48c-6.66699 -3.33301 -11.5 -6.83301 -14.5 -10.5s-7.33301 -9.66699 -13 -18s-9.66699 -15.333 -12 -21s-3.5 -14.5 -3.5 -26.5
c0.666992 -5.33301 1 -9.33301 1 -12c1.33301 -13.333 7 -27.833 17 -43.5s20.833 -29 32.5 -40l31.5 -30.5zM-165.002 554.001c-4.66699 -4.66699 -7 -11.333 -7 -20c0 -12 3.83301 -20.667 11.5 -26s14.5 -8 20.5 -8c4.66699 0 11.167 1.83301 19.5 5.5
s12.5 10.834 12.5 21.501c0 7.33301 -2.5 15.166 -7.5 23.499s-12.833 12.833 -23.5 13.5c-12 2 -20.667 -1.33301 -26 -10z" />
    <glyph glyph-name="Q" unicode="Q" horiz-adv-x="771" 
d="M106 352c-34 -15.333 -58.167 -41.667 -72.5 -79s-21.5 -71.666 -21.5 -102.999c0 -96.667 33.667 -174.334 101 -233.001s153.333 -88 258 -88c42.667 0 79.834 7.33301 111.501 22s55.5 28.5 71.5 41.5s27.833 27.167 35.5 42.5s13.834 31.166 18.501 47.499
s7 33.5 7 51.5c0 11.333 -1.16699 22 -3.5 32s-5.16602 20.167 -8.49902 30.5s-7.83301 19.166 -13.5 26.499s-12.167 11.333 -19.5 12c-10 2 -17.333 0 -22 -6s-8.5 -12.333 -11.5 -19s-4.5 -12 -4.5 -16l-2 -114h-105l1 341h-169c-18 0 -33.167 -2.83301 -45.5 -8.5
s-23.833 -15.5 -34.5 -29.5c-8.66699 -14 -14.334 -26.167 -17.001 -36.5l-6.5 -25.5c-1.66699 -6.66699 -2.83398 -12.667 -3.50098 -18c9.33301 6.66699 18.333 12 27 16s17.667 6 27 6c40.667 0 73 -11.167 97 -33.5s36 -48.166 36 -77.499c0 -50 -13 -84.833 -39 -104.5
s-55 -29.5 -87 -29.5c-49.333 0 -82.666 20.667 -99.999 62s-26 84 -26 128c0 46.667 7.66699 84.667 23 114s27.166 48.5 35.499 57.5s17.333 15.833 27 20.5s19.834 8 30.501 10s21.667 3 33 3h400v-56h-105l-2 -125c5.33301 5.33301 13.666 9.83301 24.999 13.5
s23.666 5.5 36.999 5.5c42 0 76.167 -19.333 102.5 -58s39.5 -77 39.5 -115c0 -84 -34 -151.667 -102 -203s-157.333 -77 -268 -77c-106.667 0 -201.167 36.833 -283.5 110.5s-123.5 156.834 -123.5 249.501c0 66.667 12 121 36 163s54 74.333 90 97zM153 161.999
c-6 -8 -9 -18.334 -9 -31.001c0 -18 5.66699 -34.667 17 -50s26.333 -23 45 -23c8 0 16 3.33301 24 10s12.667 13.667 14 21l3.5 19c1 5.33301 1.5 10.333 1.5 15c0 10.667 -2.83301 20.334 -8.5 29.001s-11.167 15.334 -16.5 20.001s-13 8 -23 10
c-19.333 3.33301 -35.333 -3.33398 -48 -20.001z" />
    <glyph glyph-name="R" unicode="R" horiz-adv-x="513" 
d="M400 0h-53.001v177h-57v-92c0 -35.333 -10.333 -58.5 -31 -69.5s-43.334 -16.5 -68.001 -16.5h-11c-31.333 0 -61.666 13 -90.999 39s-51.166 50.5 -65.499 73.5s-21.5 42.833 -21.5 59.5c0 10.667 2.5 19.5 7.5 26.5s11.167 12.5 18.5 16.5s15.333 6 24 6
c18.667 0 31.5 0.333008 38.5 1s11.167 1 12.5 1v171h277v-42h-91v-130h151v-44h-40v-177zM88.999 179c-9.33301 0.666992 -16.332 1.00098 -20.999 1.00098c-12 0 -19.333 -4.66699 -22 -14c-0.666992 -4 0 -9.66699 2 -17s4.5 -15 7.5 -23s16.333 -22.333 40 -43
s39.667 -32.167 48 -34.5s13.833 -3.5 16.5 -3.5c10.667 0 18.667 2 24 6s9.66602 8.66699 12.999 14s5 11.666 5 18.999v95h-113zM201 221.001v131h-65v-131h65z" />
    <glyph glyph-name="S" unicode="S" horiz-adv-x="864" 
d="M593 215l40.0039 12.9971c6 2 13 3 21 3c4.66699 0 10.667 -0.5 18 -1.5s18.666 -2.83301 33.999 -5.5s35 -20.5 59 -53.5s36 -73.167 36 -120.5c0 -95.333 -41 -167.333 -123 -216s-177.333 -73 -286 -73c-98 0 -193 31.167 -285 93.5s-138 152.5 -138 270.5
c0 41.333 4 76.333 12 105s22.333 59.334 43 92.001c9.33301 13.333 18 24.333 26 33s19.667 18.667 35 30l31 -29c-16 -14 -29.167 -26.5 -39.5 -37.5s-19.833 -25.333 -28.5 -43s-16 -40.5 -22 -68.5s-9 -62 -9 -102c0 -80 36.167 -149.167 108.5 -207.5
s159.833 -87.5 262.5 -87.5c83.333 0 150.833 20.5 202.5 61.5s80.667 74 87 99s10.5 43 12.5 54s3 21.167 3 30.5c0 14 -1.5 26.667 -4.5 38s-7.66699 21.833 -14 31.5s-11.833 18.5 -16.5 26.5c-6 7.33301 -11.833 12 -17.5 14s-11.834 3 -18.501 3
c-11.333 0 -20.333 -4.33301 -27 -13v-156h-82v348h-68v-348h-83v239c0 30.667 -9 57.334 -27 80.001s-38.333 34 -61 34c-34.667 0 -61 -8.33301 -79 -25l-29 -41c-4.66699 -6.66699 -8.33398 -13.667 -11.001 -21s-4.66699 -14.666 -6 -21.999l27.5 17.5
c13 8.33301 24.833 12.5 35.5 12.5c37.333 0 64.5 -17 81.5 -51s25.5 -62.667 25.5 -86c0 -35.333 -7.33301 -67 -22 -95s-41.334 -42 -80.001 -42c-44 0 -74.167 21.5 -90.5 64.5s-24.5 83.833 -24.5 122.5c0 63.333 17.167 116 51.5 158s78.5 63 132.5 63
c24.667 0 48.5 -6 71.5 -18s41.167 -26.667 54.5 -44v53h254v-49h-73v-134zM166.004 137.997c4 -24.667 8.16797 -42.498 12.501 -53.498s14.833 -15.5 31.5 -13.5c12.667 2 21.667 7.66699 27 17s8 24 8 44c0 17.333 -4.33301 32.166 -13 44.499
s-17.334 19.833 -26.001 22.5c-8.66699 3.33301 -17.667 -0.833984 -27 -12.501s-14 -25.167 -14 -40.5c0.666992 -3.33301 1 -6 1 -8z" />
    <glyph glyph-name="T" unicode="T" horiz-adv-x="706" 
d="M619 -146h-90.999v146h-255l24 19c18 14.667 31 34.5 39 59.5s12 54.167 12 87.5c0 48 -14.167 90 -42.5 126s-64.5 54 -108.5 54c-42 0 -73.5 -10.167 -94.5 -30.5s-37.167 -44.5 -48.5 -72.5c9.33301 9.33301 19.666 17.5 30.999 24.5s24.666 10.5 39.999 10.5
c44.667 0 77.5 -14 98.5 -42s31.5 -56 31.5 -84c0 -44.667 -9.33301 -81.334 -28 -110.001s-49.667 -43 -93 -43c-48 0 -81.167 16.833 -99.5 50.5s-29.166 70.834 -32.499 111.501c0 49.333 16 100.5 48 153.5s85.667 79.5 161 79.5c68 0 124.5 -21.5 169.5 -64.5
s67.5 -95.5 67.5 -157.5c0 -27.333 -3 -50 -9 -68s-14 -37.333 -24 -58h111v347h93v-539zM104.001 59c13.333 0 25.667 5.83203 37 17.499s17 30.167 17 55.5c0 24.667 -6.66699 42.834 -20 54.501s-29 17.5 -47 17.5c-10 0 -17.667 -1.66699 -23 -5
s-9.33301 -9.83301 -12 -19.5s-4 -20.167 -4 -31.5v-12c1.33301 -5.33301 2.83301 -13 4.5 -23s7 -21.5 16 -34.5s19.5 -19.5 31.5 -19.5z" />
    <glyph glyph-name="U" unicode="U" horiz-adv-x="835" 
d="M511 -1l-113.999 0.999023v350h-106v-350h-49v393h346v-39h-77v-161l32 16c11.333 5.33301 19 8.33301 23 9s14 1 30 1c45.333 0 81.5 -19.167 108.5 -57.5s40.5 -90.833 40.5 -157.5c0 -74.667 -35.167 -136.334 -105.5 -185.001s-156.166 -73 -257.499 -73
c-51.333 0 -106.333 11.333 -165 34s-109.667 62.167 -153 118.5s-65 131.833 -65 226.5c0 80.667 13.833 142.334 41.5 185.001s58.167 72 91.5 88l22 -35c-17.333 -10 -31 -20.167 -41 -30.5s-21 -25.166 -33 -44.499c-8 -14.667 -16 -39.167 -24 -73.5
s-12 -62.833 -12 -85.5c0.666992 -5.33301 1 -9.33301 1 -12c12.667 -124.667 51.167 -206.5 115.5 -245.5s136.166 -58.5 215.499 -58.5c72.667 0 132.667 21.167 180 63.5s71 84.5 71 126.5c0 54 -5.83301 93.833 -17.5 119.5s-29.5 38.5 -53.5 38.5
c-7.33301 0 -12.833 -1.33301 -16.5 -4s-8.33398 -7.16699 -14.001 -13.5s-9.5 -12.833 -11.5 -19.5s-3 -15 -3 -25v-100z" />
    <glyph glyph-name="V" unicode="V" horiz-adv-x="546" 
d="M121 251c30 0 57.335 -11.999 82.002 -35.999s37 -56 37 -96c0 -46.667 -13.333 -78.334 -40 -95.001s-56 -25 -88 -25c-46.667 0 -77.334 23 -92.001 69s-22 92.333 -22 139c0 50 14.667 92.667 44 128s63.333 53 102 53l70 5h292v-45h-100l-1 -344l-203 -111l-24 37
l137 92l1 325h-116c-11.333 0 -22.833 -1 -34.5 -3s-25.667 -5.5 -42 -10.5s-30.5 -14.333 -42.5 -28s-20.667 -27.167 -26 -40.5s-9 -25.5 -11 -36.5s-2.33301 -19.833 -1 -26.5l29 31c11.333 12 27.666 18 48.999 18zM58.002 118.001
c0 -17.333 4.99902 -32.332 14.999 -44.999s20.667 -19 32 -19c12.667 0 23.334 5 32.001 15s13 24 13 42c0 21.333 -4.16699 38.666 -12.5 51.999s-19.5 20 -33.5 20c-11.333 1.33301 -21.833 -3.16699 -31.5 -13.5s-14.5 -27.5 -14.5 -51.5z" />
    <glyph glyph-name="W" unicode="W" horiz-adv-x="764" 
d="M24 -3l-0.000976562 296.999c0 24 8.16699 46.333 24.5 67s38.5 31 66.5 31c37.333 0 65.666 -8.33301 84.999 -25c10.667 -11.333 18 -18.666 22 -21.999c2 12.667 13 23.834 33 33.501s48.667 14.5 86 14.5c59.333 0 102.333 -30.333 129 -91s40 -124 40 -190
c0 -22.667 -3.83301 -51.834 -11.5 -87.501s-15.167 -57.834 -22.5 -66.501h101v437h90v-485l-216 1c-10 -16.667 -23 -34 -39 -52s-35 -34.667 -57 -50s-51.333 -26.166 -88 -32.499s-74.667 -9.5 -114 -9.5c-51.333 0 -104.666 11.5 -159.999 34.5s-83 61.833 -83 116.5
c0 16.667 7.16699 27.834 21.5 33.501s33.5 8.5 57.5 8.5h21c6.66699 0 13 -0.333008 19 -1l331 -1c6 8 13.333 32 22 72s13 73.333 13 100c0 45.333 -5.16699 89.833 -15.5 133.5s-30.166 65.5 -59.499 65.5c-16.667 0 -30 -5.83301 -40 -17.5s-15 -29.834 -15 -54.501
l1 -257h-102v267c0 15.333 -3 29.5 -9 42.5s-17.667 19.5 -35 19.5c-14 0 -25.833 -6.5 -35.5 -19.5s-14.5 -26.5 -14.5 -40.5v-269zM27.999 -89.001c-5.33301 0 -10.832 0.166992 -16.499 0.5s-11.5 0.5 -17.5 0.5c-10.667 0 -19 -0.833008 -25 -2.5
s-9.33301 -5.16699 -10 -10.5c-2.66699 -19.333 18.5 -38 63.5 -56s86.833 -27 125.5 -27c60 0 102.167 9 126.5 27s45.166 40.667 62.499 68h-309z" />
    <glyph glyph-name="X" unicode="X" horiz-adv-x="612" 
d="M321 -173c-0.666992 2.66699 -0.99707 6.66602 -0.99707 11.999c0 16 3.66699 30 11 42s15.333 21.333 24 28c-12.667 9.33301 -23.334 20.166 -32.001 32.499s-16 24.333 -22 36s-11.5 23.834 -16.5 36.501s-7.5 25.667 -7.5 39c0 6 0.666992 13.333 2 22
s3.16602 20 5.49902 34s10.166 35.667 23.499 65s25 51.333 35 66l31 -28c-7.33301 -7.33301 -15 -19.333 -23 -36s-12 -33.667 -12 -51c0 -18.667 0.833008 -31.667 2.5 -39s4.83398 -15.333 9.50098 -24c6.66699 -16.667 20.334 -25 41.001 -25
c11.333 0 22.5 13.667 33.5 41s16.5 54.333 16.5 81c0 6.66699 -2.16699 25.334 -6.5 56.001s-20.333 63 -48 97s-69.5 51 -125.5 51c-42.667 0 -74.5 -5.16699 -95.5 -15.5s-38.667 -23 -53 -38s-25.333 -29.667 -33 -44s-14.834 -30.166 -21.501 -47.499
c7.33301 6.66699 15.833 13.334 25.5 20.001s20.167 10 31.5 10c50 0 83.5 -13 100.5 -39s27.333 -49.667 31 -71s5.5 -36 5.5 -44c0 -46.667 -11.667 -80.834 -35 -102.501s-54 -32.5 -92 -32.5c-36 0 -65.333 19 -88 57s-34 74.667 -34 110
c0 27.333 1.5 50.666 4.5 69.999s8.16699 35.666 15.5 48.999c26.667 58 60.5 102.5 101.5 133.5s93.167 46.5 156.5 46.5c75.333 0 139 -24.5 191 -73.5s78 -101.833 78 -158.5c0 -59.333 -10.333 -109 -31 -149s-43.334 -61.667 -68.001 -65s-38.334 -5 -41.001 -5
c-12.667 0 -27 6.33301 -43 19c-14.667 10 -26.5 22.5 -35.5 37.5s-13.5 29.167 -13.5 42.5c-2 -6.66699 -3 -17.334 -3 -32.001c2.66699 -13.333 6.83398 -27.166 12.501 -41.499s12.167 -26.166 19.5 -35.499s16 -16.333 26 -21l28 -13.5
c8.66699 -4.33301 16.667 -7.16602 24 -8.49902s13.666 -2 18.999 -2h13l44 -1v-52l-60 -2c-8 0 -15 -2 -21 -6s-10 -9.16699 -12 -15.5s-5 -17.5 -9 -33.5s-7.66699 -30 -11 -42s-7.66602 -22.667 -12.999 -32c-16 -23.333 -38 -40.5 -66 -51.5s-58.667 -16.5 -92 -16.5
c-24 0 -50.5 9.66699 -79.5 29s-43.5 45.666 -43.5 78.999c0 47.333 12.667 80 38 98s52 27 80 27c26.667 0 48.167 -14.333 64.5 -43s24.5 -57.667 24.5 -87v-11c-1.33301 -4.66699 -2 -8 -2 -10c6.66699 11.333 12.167 21.5 16.5 30.5s6.5 19.5 6.5 31.5
c0 2.66699 -0.666992 8 -2 16zM250.003 -222.001c0 20.667 -3.5 35.5 -10.5 44.5s-19.5 13.5 -37.5 13.5c-30.667 0 -46 -19.667 -46 -59c0 -14.667 4.5 -26.5 13.5 -35.5s20.833 -13.5 35.5 -13.5c15.333 0 27 5.16699 35 15.5s11.333 21.833 10 34.5zM63.0029 151.999
c-4 -16 -6 -27.667 -6 -35c0 -8 2 -20.667 6 -38s10.333 -31.5 19 -42.5s18.667 -16.5 30 -16.5c24.667 0 41 6.33301 49 19s12 30.667 12 54c0 22.667 -7 43.5 -21 62.5s-26.667 28.5 -38 28.5c-10 0 -20.5 -3.16699 -31.5 -9.5s-17.5 -13.833 -19.5 -22.5z" />
    <glyph glyph-name="Y" unicode="Y" horiz-adv-x="764" 
d="M676 393l-0.00292969 -466.005h-243c-25.333 -45.333 -58 -79.833 -98 -103.5s-86 -35.5 -138 -35.5c-51.333 0 -95.333 12.333 -132 37s-59.167 44.167 -67.5 58.5s-13.833 24.5 -16.5 30.5s-4 12.333 -4 19c0 16.667 7 27 21 31s29.333 6 46 6h280h40
c1.33301 2 3.16602 6.16699 5.49902 12.5s3.83301 13.5 4.5 21.5c-53.333 0 -88 19.833 -104 59.5s-24 79.834 -24 120.501c0 52.667 -9.66699 89.834 -29 111.501s-41.666 32.5 -66.999 32.5c-30 0 -54.833 -12 -74.5 -36s-29.5 -45.333 -29.5 -64
c4 8.66699 12.5 17 25.5 25s30.167 12 51.5 12c28.667 0 50.834 -15.167 66.501 -45.5s23.5 -60.166 23.5 -89.499c0 -36 -8.16699 -66.833 -24.5 -92.5s-44.166 -38.5 -83.499 -38.5c-40.667 0 -68.167 19.833 -82.5 59.5s-21.5 81.5 -21.5 125.5
c0 54 15.5 102.167 46.5 144.5s66.833 63.5 107.5 63.5c122 0 183 -59.667 183 -179c-0.666992 -13.333 -1 -24.666 -1 -33.999c0 -33.333 4.5 -61.666 13.5 -84.999s27.167 -35 54.5 -35c26.667 0 47.667 14 63 42s23 60.333 23 97c0 24 -4.33301 48.167 -13 72.5
s-15.334 38.666 -20.001 42.999s-14.167 9.5 -28.5 15.5s-23.333 11.667 -27 17s-5.5 10 -5.5 14s1.16699 8 3.5 12s5.33301 8.16699 9 12.5s9.16699 6.5 16.5 6.5c2.66699 0 8 -0.666992 16 -2s14.333 -4.33301 19 -9s11.834 -11 21.501 -19s21.834 -26.833 36.501 -56.5
s22 -62.167 22 -97.5c0 -51.333 -7.33301 -93.333 -22 -126s-34.667 -56 -60 -70c-4 -21.333 -9.33301 -34.666 -16 -39.999h157v422h76zM86.9971 192.995c-14 0 -23.833 -7.66699 -29.5 -23s-8.5 -30.333 -8.5 -45c0 -12.667 3.66699 -26.834 11 -42.501
s19.333 -23.5 36 -23.5c16 0 26 7.33301 30 22s6 31.334 6 50.001c0 15.333 -4.5 29.5 -13.5 42.5s-19.5 19.5 -31.5 19.5zM44.9971 -89.0049c-0.666992 -3.33301 0.999023 -7.50098 4.99902 -12.501s11 -11.667 21 -20s26.5 -18.166 49.5 -29.499s46.833 -17 71.5 -17
c56 0 92.333 8.16699 109 24.5s33.667 38.833 51 67.5c-3.33301 0 -6.66602 0.166992 -9.99902 0.5s-7 0.5 -11 0.5h-251c-23.333 0 -35 -4.66699 -35 -14z" />
    <glyph glyph-name="Z" unicode="Z" horiz-adv-x="1055" 
d="M27 206c2 6.66699 5.33105 13.167 9.99805 19.5s11.5 12.666 20.5 18.999s21.5 9.5 37.5 9.5l17 -2c24 -4 42 -16 54 -36c11.333 -14 18.5 -27.167 21.5 -39.5s6.5 -32.5 10.5 -60.5c0 -27.333 -7.16699 -53.833 -21.5 -79.5s-38.166 -38.5 -71.499 -38.5
c-44.667 0 -76 18.5 -94 55.5s-27 74.167 -27 111.5c0 78 21.333 135.333 64 172s83.667 55 123 55c40 0 69 -4.33301 87 -13s29.833 -15 35.5 -19s11.834 -8 18.501 -12c22.667 16 42.5 26.667 59.5 32s35.167 8 54.5 8c18.667 0 38.834 -3.33301 60.501 -10
s39.167 -13.667 52.5 -21c12 8 26 15.167 42 21.5s31.667 9.5 47 9.5c71.333 0 122 -26.5 152 -79.5s45 -115.167 45 -186.5c0 -22 -3.33301 -50.333 -10 -85s-14.667 -58.334 -24 -71.001l84 1l1 427l88 -1v-472l-204 -1c-6 -11.333 -11.5 -20.166 -16.5 -26.499
s-12.167 -13.833 -21.5 -22.5c-30.667 -32 -70 -59.5 -118 -82.5s-112 -34.5 -192 -34.5c-54 0 -112.833 9.33301 -176.5 28s-106.667 35 -129 49s-40.666 26.167 -54.999 36.5s-25.166 24.5 -32.499 42.5c-7.33301 11.333 -9.66602 22 -6.99902 32c4.66699 16 16 24 34 24
h634c10.667 5.33301 23 26.5 37 63.5s21 71.5 21 103.5c0 45.333 -7.33301 86.666 -22 123.999s-31.834 58.5 -51.501 63.5s-31.834 7.5 -36.501 7.5c-8.66699 0 -17 -1.5 -25 -4.5s-14.333 -5.5 -19 -7.5c12 -3.33301 29.167 -20.333 51.5 -51s33.5 -64 33.5 -100
c0 -68.667 -12.667 -113.334 -38 -134.001s-51 -31 -77 -31c-31.333 0 -56.333 18.833 -75 56.5s-28 68.167 -28 91.5c1.33301 18.667 3 36.5 5 53.5s6.66699 34.167 14 51.5c2 9.33301 5.83301 18.333 11.5 27s10.5 16.334 14.5 23.001
c-5.33301 6.66699 -14.5 13.334 -27.5 20.001s-26.5 10 -40.5 10c-18 0 -30.5 -1.5 -37.5 -4.5s-16.167 -8.16699 -27.5 -15.5c13.333 -9.33301 27 -27.833 41 -55.5s21 -57.167 21 -88.5c0 -46 -6.83301 -86.167 -20.5 -120.5s-41.834 -51.5 -84.501 -51.5
c-23.333 0 -45.833 12.333 -67.5 37s-32.5 63.334 -32.5 116.001c0 39.333 5 71 15 95l35 54c-10 8 -20.833 15.833 -32.5 23.5s-34.834 11.5 -69.501 11.5c-39.333 0 -71.833 -15.833 -97.5 -47.5s-40.167 -58.5 -43.5 -80.5zM38.998 119
c3.33301 -20.667 7 -35.167 11 -43.5s13.333 -12.5 28 -12.5c14 0 23.5 5.83301 28.5 17.5s7.5 27.5 7.5 47.5c0 12 -3.33301 24.167 -10 36.5s-14.667 18.5 -24 18.5c-12.667 0 -23.167 -7.5 -31.5 -22.5s-11.5 -28.833 -9.5 -41.5zM262.998 167
c0 -21.333 2.83301 -41.335 8.5 -60.002s15.5 -28 29.5 -28c27.333 0 41 29.333 41 88c0 22.667 -5 43.834 -15 63.501s-18.667 28.834 -26 27.501c-6 -2 -13.833 -13.167 -23.5 -33.5s-14.5 -39.5 -14.5 -57.5zM490.998 185.998
c-0.666992 -2.66699 -0.999023 -7.00098 -0.999023 -13.001c0 -22.667 4.33301 -45 13 -67s19 -33 31 -33c13.333 0 23.833 9.83301 31.5 29.5s11.5 41.834 11.5 66.501c0 17.333 -6 39 -18 65s-21.667 37.333 -29 34c-6.66699 -3.33301 -14.334 -14 -23.001 -32
s-14 -34.667 -16 -50zM108.999 -83.0029c-9.33301 0 -16.6689 -0.5 -22.002 -1.5s-8.66602 -3.16699 -9.99902 -6.5c-2.66699 -2.66699 0.833008 -8 10.5 -16s25.334 -17.5 47.001 -28.5s63.167 -23.333 124.5 -37s104.333 -20.5 129 -20.5
c67.333 0 120.833 11.333 160.5 34s71.167 48 94.5 76h-534z" />
    <glyph glyph-name="bracketleft" unicode="[" horiz-adv-x="638" 
d="M558 231c0 -77.333 -19.168 -127.837 -57.501 -151.504s-72.333 -37 -102 -40l-64.5 -6.5c-13.333 -1.33301 -26.333 -2 -39 -2c-30.667 0 -54.667 -0.5 -72 -1.5s-34.5 -3.16699 -51.5 -6.5s-32.833 -14.333 -47.5 -33s-22 -35.334 -22 -50.001
c0 -16.667 1.16699 -30 3.5 -40s8.33301 -20.167 18 -30.5s20.334 -17.666 32.001 -21.999s24.834 -6.5 39.501 -6.5c14 0 26.833 3.83301 38.5 11.5s20.167 17.667 25.5 30s10 23.666 14 33.999s10.5 21 19.5 32s18.667 21.833 29 32.5s21 18.334 32 23.001
s20.5 8.16699 28.5 10.5s16.667 3.5 26 3.5c4.66699 0 17 -1.66699 37 -5s42.5 -12.5 67.5 -27.5s37.5 -47.167 37.5 -96.5c0 -42 -12 -72.167 -36 -90.5s-47.667 -27.5 -71 -27.5h-23c-15.333 0 -27 2 -35 6l-26.5 13.5c-9.66699 5 -16.5 11.167 -20.5 18.5l18 30
c2 -0.666992 6.5 -3.5 13.5 -8.5s14.5 -7.16699 22.5 -6.5c13.333 0 26 5.33301 38 16s18 25 18 43c1.33301 10.667 -0.666992 23.334 -6 38.001s-13.5 25.834 -24.5 33.501s-24.833 11.5 -41.5 11.5c-8 0 -16 -3.5 -24 -10.5s-14.667 -14.833 -20 -23.5s-13 -22 -23 -40
c-12 -30 -28.667 -57.667 -50 -83s-55 -38 -101 -38c-44.667 0 -81.667 14.333 -111 43s-44 66 -44 112c0 30 11.833 61.5 35.5 94.5s67.834 49.5 132.501 49.5c16.667 0 34.667 0.5 54 1.5s31 1.5 35 1.5h23c13.333 0 23.833 0.333008 31.5 1s21.5 4 41.5 10
s39 16.833 57 32.5s27 51.834 27 108.501c0 36 -6.5 62.5 -19.5 79.5s-25.5 25.5 -37.5 25.5c-16 0 -27 -3.83301 -33 -11.5s-9 -16.5 -9 -26.5c0 -6.66699 -0.333008 -11.667 -1 -15l-2 -169l-82 1l-1 141c0 20 -2 35.833 -6 47.5s-11.667 22.167 -23 31.5
s-25.333 16.5 -42 21.5s-31.334 7.5 -44.001 7.5c-10.667 0 -21.834 -3 -33.501 -9s-21.334 -12.5 -29.001 -19.5s-14.334 -16.333 -20.001 -28s-9.83398 -20.5 -12.501 -26.5c8 8.66699 18.667 14.834 32 18.501s29.333 5.5 48 5.5s38 -9.66699 58 -29s30 -40 30 -62
c0 -45.333 -11.333 -76.166 -34 -92.499s-49 -24.5 -79 -24.5c-22 0 -43.833 11.5 -65.5 34.5s-32.5 60.167 -32.5 111.5c0 56 15.167 96.167 45.5 120.5s53.833 37.333 70.5 39s27.334 2.5 32.001 2.5h10c14.667 0 30.334 -2 47.001 -6s28 -7.66699 34 -11
s14.167 -8.33301 24.5 -15s17.833 -12.834 22.5 -18.501l15 -17.5c2.66699 9.33301 6.66699 17 12 23l18.5 20.5c7 7.66699 17.333 13.5 31 17.5s26.834 6 39.501 6c37.333 0 72.333 -13.167 105 -39.5s49 -68.833 49 -127.5zM82.999 243.996
c-7.33301 -0.666992 -14.332 -1.49902 -20.999 -2.49902s-11 -3.66699 -13 -8s-3 -9.5 -3 -15.5c0 -12.667 2.5 -24.834 7.5 -36.501s9.66699 -20.5 14 -26.5s11.5 -9 21.5 -9c12 0 21.5 4.16699 28.5 12.5s10.5 21.5 10.5 39.5c0 14 -4.83301 25.5 -14.5 34.5
s-19.834 12.833 -30.501 11.5z" />
    <glyph glyph-name="backslash" unicode="\" horiz-adv-x="814" 
d="M641 263c0 -6 0.334961 -18.001 1.00195 -36.001s1 -29 1 -33c0 -10 -0.333008 -15.667 -1 -17c3.33301 2 8.5 3.66699 15.5 5s13.833 4.33301 20.5 9s12.834 10 18.501 16l13 14c3 3.33301 8.33301 12.833 16 28.5s11.834 23.834 12.501 24.501v-275h-103l1 -178h-86
l-1 179h-286c28.667 22 46.834 46.667 54.501 74s11.5 57.666 11.5 90.999c0 32 -10.667 67.5 -32 106.5s-51.333 58.5 -90 58.5c-40.667 0 -70.167 -5.33301 -88.5 -16s-32 -22.334 -41 -35.001s-14.833 -23.167 -17.5 -31.5s-5 -19.166 -7 -32.499
c8 17.333 20.167 29.5 36.5 36.5s30.166 10.5 41.499 10.5c7.33301 0 16.666 -1.16699 27.999 -3.5s21.833 -7 31.5 -14s19.167 -16.667 28.5 -29s15.666 -23.5 18.999 -33.5s6 -21 8 -33s3 -19.833 3 -23.5v-7.5c0 -22.667 -5 -43.167 -15 -61.5s-22.833 -32.5 -38.5 -42.5
s-33.167 -15 -52.5 -15c-4.66699 0.666992 -8.33398 1 -11.001 1c-42.667 4.66699 -75.334 26 -98.001 64s-34 77.333 -34 118c0 74 24 128 72 162s94.667 51 140 51c59.333 0 107.666 -20.333 144.999 -61s58.166 -79 62.499 -115s6.5 -58 6.5 -66
c0 -10 -1.16699 -19.333 -3.5 -28s-4.5 -17.167 -6.5 -25.5s-5.33301 -17.666 -10 -27.999s-9.66699 -20.5 -15 -30.5h159l-1 106c-16.667 6.66699 -28.167 11.5 -34.5 14.5s-17.666 13.167 -33.999 30.5s-26.166 36 -29.499 56s-5 33.333 -5 40c0 28 8.33301 54.5 25 79.5
s42 37.5 76 37.5c32 0 55.667 -16.167 71 -48.5s23 -63.5 23 -93.5zM637.002 43.999h61l2 112l-20.5 -9c-7.66699 -3.33301 -13.5 -5.33301 -17.5 -6l-25 -6v-91zM59.002 148.999c-2.66699 -8.66699 -1.49805 -20.168 3.50195 -34.501s11.167 -26.166 18.5 -35.499
c12 -13.333 25 -20 39 -20c5.33301 0 15 3 29 9s21 19.333 21 40c0 15.333 -3.33301 30 -10 44s-15.334 22.5 -26.001 25.5s-19 4.5 -25 4.5c-13.333 0 -24.333 -3.5 -33 -10.5s-14.334 -14.5 -17.001 -22.5zM552.004 197.998l0.000976562 43.001
c0 19.333 -2.83301 38.833 -8.5 58.5s-15.167 29.5 -28.5 29.5c-9.33301 0 -16.333 -3.33301 -21 -10s-7 -15 -7 -25c-1.33301 -6.66699 -2 -11.334 -2 -14.001c0 -12 3.5 -25.333 10.5 -40s15.5 -24.667 25.5 -30c13.333 -4.66699 23.666 -8.66699 30.999 -12z" />
    <glyph glyph-name="bracketright" unicode="]" horiz-adv-x="853" 
d="M692 321c-3.33301 3.33301 -7.66602 5.00098 -12.999 5.00098c-2.66699 0 -6.66699 -0.666992 -12 -2s-9.66602 -2 -12.999 -2c-6 0 -11.167 1.83301 -15.5 5.5s-8.5 10.5 -12.5 20.5s-1.83301 20.333 6.5 31s19.166 16 32.499 16c22.667 0 42 -10 58 -30
s27 -39.833 33 -59.5s10 -37 12 -52s3 -28.833 3 -41.5c0 -17.333 -3.16699 -47 -9.5 -89s-25.333 -71.667 -57 -89s-54.834 -27.333 -69.501 -30s-31.667 -4 -51 -4c-10 0.666992 -21.333 2 -34 4s-25.167 7.66699 -37.5 17s-21.833 19.5 -28.5 30.5s-12.5 25.333 -17.5 43
s-7.83301 30 -8.5 37s-1 15.5 -1 25.5c0 12.667 0.5 29.834 1.5 51.501s1.5 33.167 1.5 34.5c0 23.333 -2.16699 42.166 -6.5 56.499s-17.166 21.5 -38.499 21.5c-13.333 0 -22.666 -6 -27.999 -18s-8 -27 -8 -45v-262l-89 3v218c0 16 -3.33301 32.667 -10 50
s-19 34.666 -37 51.999s-43 26 -75 26s-57.5 -10.333 -76.5 -31s-30.667 -39.167 -35 -55.5l-9.5 -36.5c-2 -8 -2.66699 -14.667 -2 -20c2 12 10.167 24.833 24.5 38.5s29.5 20.5 45.5 20.5c40 0 69.667 -13 89 -39s29 -55.667 29 -89c0 -47.333 -10.833 -81.5 -32.5 -102.5
s-46.834 -31.5 -75.501 -31.5c-26.667 0 -53.834 12.667 -81.501 38s-41.5 66 -41.5 122c0 50.667 13.833 102.667 41.5 156s78.834 80 153.501 80c22 0 44.167 -3.83301 66.5 -11.5s37.5 -16.167 45.5 -25.5s14.667 -16.833 20 -22.5s11 -13.167 17 -22.5
c2.66699 8.66699 5.66699 16.167 9 22.5s8 13.666 14 21.999s14.167 16.333 24.5 24s23.166 11.5 38.499 11.5c45.333 0 73.5 -10.333 84.5 -31s18.5 -44.5 22.5 -71.5s6 -46.5 6 -58.5c0 -8 -0.333008 -19.167 -1 -33.5s-1 -24.833 -1 -31.5c0 -12 0.5 -21.833 1.5 -29.5
s2.83301 -16.5 5.5 -26.5c0 -12.667 5.33301 -26.334 16 -41.001s26 -22 46 -22c43.333 0 73.5 16.833 90.5 50.5s25.5 75.834 25.5 126.501c0 20.667 -3.5 40.334 -10.5 59.001s-15.5 31 -25.5 37zM68 163.001c-2 -6 -3 -12.668 -3 -20.001s0.833008 -15.166 2.5 -23.499
s3.5 -15.833 5.5 -22.5s6.66699 -12.334 14 -17.001s15 -7 23 -7c11.333 0.666992 20.166 7.33398 26.499 20.001s9.5 26.667 9.5 42c0 3.33301 -0.333008 7 -1 11s-2 10.5 -4 19.5s-5 17.833 -9 26.5s-10.333 13 -19 13c-9.33301 0 -18.166 -4.5 -26.499 -13.5
s-14.5 -18.5 -18.5 -28.5z" />
    <glyph glyph-name="asciicircum" unicode="^" horiz-adv-x="634" 
d="M465 408c-20 22 -41.165 37.5029 -63.498 46.5029s-63.833 13.5 -124.5 13.5c-76 0 -134.333 -35.333 -175 -106s-61 -133.334 -61 -188.001c0 -82 19.167 -149.667 57.5 -203s90.833 -80 157.5 -80c41.333 0 74.166 15.5 98.499 46.5s36.5 59.5 36.5 85.5v22
c0 13.333 -0.833008 23.833 -2.5 31.5s-6.16699 16.834 -13.5 27.501c-7.33301 14.667 -14 24.667 -20 30s-12.667 8.33301 -20 9c-13.333 0 -23.833 -3.5 -31.5 -10.5s-11.5 -16.833 -11.5 -29.5v-103h-93l-1 393h96v-185c7.33301 6 15.833 11.167 25.5 15.5
s23.167 6.5 40.5 6.5c36 0 67.333 -17.333 94 -52s40 -88.334 40 -161.001c0 -46 -20.333 -91.167 -61 -135.5s-99.334 -66.5 -176.001 -66.5c-79.333 0 -142.833 38 -190.5 114s-71.5 156 -71.5 240c0 96 24 183.333 72 262s120.333 118 217 118
c78.667 0 145.667 -21.833 201 -65.5s83 -101.834 83 -174.501c0 -28.667 -9.5 -51.834 -28.5 -69.501s-41.167 -26.5 -66.5 -26.5c-24.667 0 -45.5 8.66699 -62.5 26s-25.5 38.666 -25.5 63.999c0 26.667 8.16699 50.834 24.5 72.501s34.833 32.5 55.5 32.5z
M446.002 315.003c0 -8.66699 2.16797 -16.667 6.50098 -24s10.833 -11 19.5 -11c9.33301 0 17 1.83301 23 5.5s9 10.834 9 21.501c0 11.333 -1.83301 20.666 -5.5 27.999s-9.83398 11 -18.501 11c-10 0 -18.167 -2.83301 -24.5 -8.5s-9.5 -13.167 -9.5 -22.5z" />
    <glyph glyph-name="underscore" unicode="_" horiz-adv-x="657" 
d="M317 520c0 44 16.0078 80.001 48.0078 108.001s67 42 105 42c30.667 0 56.167 -14.5 76.5 -43.5s30.5 -54.5 30.5 -76.5c0 -28 -7.33301 -52.167 -22 -72.5s-38 -33.833 -70 -40.5c-16 -3.33301 -33.333 1.66699 -52 15s-29.334 26.666 -32.001 39.999
s-4.16699 21.5 -4.5 24.5s-0.5 8.5 -0.5 16.5c0 22.667 6.33301 42.667 19 60c-8 2.66699 -18.833 -6.5 -32.5 -27.5s-20.5 -36.167 -20.5 -45.5c0 -6.66699 1.5 -16.667 4.5 -30s5.83301 -24.5 8.5 -33.5s6.66699 -16.833 12 -23.5s12.166 -14.334 20.499 -23.001
s15.5 -13.834 21.5 -15.501s17.5 -5.5 34.5 -11.5s37.167 -23.833 60.5 -53.5s35 -70.167 35 -121.5c0 -28.667 -7.5 -57.167 -22.5 -85.5s-31.167 -48.5 -48.5 -60.5s-33.333 -19.5 -48 -22.5s-31.834 -5.33301 -51.501 -7s-40 -2.83398 -61 -3.50098s-32.5 -1 -34.5 -1
c-11.333 0 -21.666 0.333008 -30.999 1l-27 2c-9.33301 0 -20.333 -1 -33 -3s-24.5 -4.5 -35.5 -7.5s-22.167 -9.83301 -33.5 -20.5s-19.5 -20 -24.5 -28s-8.16699 -18.667 -9.5 -32c0 -20.667 0.666992 -35 2 -43s6.66602 -17.167 15.999 -27.5
s19.666 -17.666 30.999 -21.999s24.333 -6.5 39 -6.5c10 0 18 2 24 6s14.167 12.333 24.5 25s17.666 24.5 21.999 35.5s7.66602 18.833 9.99902 23.5s5.5 10.334 9.5 17.001s9.83301 14.5 17.5 23.5s15.5 17.167 23.5 24.5s17.667 12.5 29 15.5s20.333 4.5 27 4.5
c3.33301 0 9 -0.333008 17 -1s14.667 -1 20 -1c42.667 0 74.5 -14.667 95.5 -44s31.5 -56.333 31.5 -81c0 -35.333 -14.5 -64.333 -43.5 -87s-56.167 -34 -81.5 -34c-19.333 0 -34 0.666992 -44 2s-20 5.33301 -30 12l8 45c8.66699 -4 16 -7.16699 22 -9.5
s11.667 -3.5 17 -3.5c4 0 10.833 2.16699 20.5 6.5s17.167 12.166 22.5 23.499s8 23.333 8 36c-0.666992 7.33301 -1 12.333 -1 15c-2.66699 16.667 -8.66699 30.5 -18 41.5s-16.5 18.667 -21.5 23s-12.5 6.5 -22.5 6.5c-4.66699 0 -9.16699 -1.33301 -13.5 -4l-17 -11
c-7 -4.66699 -13.667 -12.667 -20 -24s-12.166 -23 -17.499 -35l-23.5 -39c-5.66699 -9.33301 -16.167 -19.666 -31.5 -30.999s-31.833 -21.666 -49.5 -30.999s-36.5 -14 -56.5 -14c-5.33301 0.666992 -9.33301 1 -12 1c-33.333 4 -62.5 18 -87.5 42s-37.5 59.333 -37.5 106
c0 23.333 8.5 48.166 25.5 74.499s32.333 42.833 46 49.5s27.834 11.167 42.501 13.5s31.334 3.5 50.001 3.5c12 0 23.167 -0.333008 33.5 -1l31.5 -2c10.667 0 22.667 1 36 3c12 0 23.333 0.166992 34 0.5s31.167 1.83301 61.5 4.5s52.833 18 67.5 46s22 67.667 22 119
c0 13.333 -1.33301 24.666 -4 33.999s-8.33398 19.666 -17.001 30.999c-5.33301 8.66699 -10.833 15.5 -16.5 20.5s-12.5 7.5 -20.5 7.5c-11.333 0 -20 -3.66699 -26 -11s-10.667 -15.666 -14 -24.999s-5 -18 -5 -26l-2 -163l-85 -1c0 8 0.333008 22.333 1 43
s1 31.334 1 32.001v26c-1.33301 8.66699 -2 14.667 -2 18c1.33301 12 2 20.667 2 26c0 6.66699 -2.16699 16 -6.5 28s-9 21.833 -14 29.5s-14.5 16.834 -28.5 27.501s-30 16 -48 16c-4 -0.666992 -7 -1 -9 -1c-14 -1.33301 -23.833 -3.16602 -29.5 -5.49902
s-12.834 -6.83301 -21.501 -13.5c-6 -6 -11.333 -12 -16 -18s-7.66699 -12.333 -9 -19c9.33301 4.66699 17.166 8 23.499 10s13.833 3 22.5 3c8 0 19.167 -0.666992 33.5 -2s29 -12.5 44 -33.5s22.5 -41.833 22.5 -62.5c0 -34.667 -13.667 -62.334 -41 -83.001
s-54 -31 -80 -31c-30.667 0 -53.834 13.167 -69.501 39.5s-23.5 59.5 -23.5 99.5c0 29.333 15 63.666 45 102.999s66.333 59 109 59c52 0 90.333 -9 115 -27l31 -37l13.5 20.5c2.33301 3.66699 7.16602 9.5 14.499 17.5l17.5 10.5
c6.33301 3.66699 10.833 5.83398 13.5 6.50098c-15.333 16.667 -29.5 38.5 -42.5 65.5s-19.5 49.833 -19.5 68.5zM96.0078 244.001c-14 0 -24.3311 -6.33203 -30.998 -18.999c-1.33301 -6.66699 -2 -12.334 -2 -17.001c0 -12.667 3.16699 -27.167 9.5 -43.5
s18.166 -24.5 35.499 -24.5c6.66699 0 12.167 1.5 16.5 4.5s8.16602 8 11.499 15s5 15.5 5 25.5c0 14 -4.33301 27.333 -13 40c-7.33301 12.667 -18 19 -32 19zM439.01 535.002c0 -14 3.33496 -23.499 10.002 -28.499s15.667 -8.16699 27 -9.5s20.166 2.16699 26.499 10.5
s9.5 20.166 9.5 35.499c0 9.33301 -3.66699 18 -11 26s-17 12 -29 12c-8.66699 0 -16.334 -4.5 -23.001 -13.5s-10 -19.833 -10 -32.5z" />
    <glyph glyph-name="grave" unicode="`" horiz-adv-x="893" 
d="M688 390c37.333 0 69.9941 -17.8359 97.9941 -53.5029s42 -98.834 42 -189.501c0 -36 -10.167 -77 -30.5 -123s-47.166 -73.333 -80.499 -82s-56.833 -14.167 -70.5 -16.5s-33.167 -3.5 -58.5 -3.5h-415c-10.667 0.666992 -18 1 -22 1c-8 0 -13.833 -1.83301 -17.5 -5.5
s-5.5 -9.5 -5.5 -17.5c0 -6 0.333008 -11.333 1 -16s4.66699 -11.667 12 -21s11 -17.333 11 -24c0 -10.667 -1.16699 -19.667 -3.5 -27s-7.5 -13.5 -15.5 -18.5s-17.333 -7.5 -28 -7.5c-8 0 -16 1.66699 -24 5s-15.667 9.5 -23 18.5s-14 24.167 -20 45.5
c-2.66699 13.333 -4 22.333 -4 27c0 20.667 8.33301 39.667 25 57s39.334 26 68.001 26h503c10.667 0 23 3.33301 37 10s26.167 17 36.5 31s18.333 35.167 24 63.5s8.5 52.833 8.5 73.5c0 46.667 -5 85.667 -15 117s-21 49.333 -33 54s-19.667 7 -23 7
c-4 0 -9.16699 -1.33301 -15.5 -4s-10.333 -7.5 -12 -14.5s-2.5 -12.5 -2.5 -16.5v-18l1 -268h-87v258c0 16.667 -3.5 30 -10.5 40s-15.167 15 -24.5 15s-16.333 -6.5 -21 -19.5s-7 -25.833 -7 -38.5v-255h-251c22.667 14.667 40 38.834 52 72.501s18 62.167 18 85.5
c0 38.667 -11.5 75.834 -34.5 111.501s-56.167 53.5 -99.5 53.5c-31.333 0 -55.666 -8.33301 -72.999 -25s-31.333 -37.667 -42 -63l27 21c8 6 20.333 9 37 9c24 0 48.833 -9.66699 74.5 -29s38.5 -48.666 38.5 -87.999c0 -40.667 -11 -75 -33 -103s-49.667 -42 -83 -42
c-42.667 0 -73.167 18 -91.5 54s-27.5 76.667 -27.5 122c0 50 18.833 97.5 56.5 142.5s80.167 67.5 127.5 67.5c68.667 0 121.5 -18.833 158.5 -56.5s55.5 -90.5 55.5 -158.5c0 -27.333 -3.33301 -50.666 -10 -69.999s-16.334 -36.666 -29.001 -51.999h90l-1 231
c0 23.333 4.33301 42.666 13 57.999s16.834 26 24.501 32s15.5 9.66699 23.5 11s15.333 2 22 2c8.66699 0 17.834 -1.66699 27.501 -5s18.334 -7 26.001 -11s13.5 -7.66699 17.5 -11l19 -16c0 4 1.5 8 4.5 12s6 8.5 9 13.5s11.333 10 25 15s23.834 7.16699 30.501 6.5z
M51.9941 125.997c2.66699 -12.667 7.16699 -24.501 13.5 -35.501s14.833 -16.5 25.5 -16.5c20 0 34.5 5.5 43.5 16.5s13.5 22.5 13.5 34.5c0 16 -4.33301 29.667 -13 41s-20 17 -34 17c-20 2 -33.667 -3.66699 -41 -17s-10 -26.666 -8 -39.999z" />
    <glyph glyph-name="a" unicode="a" horiz-adv-x="550" 
d="M478 0l-336.001 -0.00195312v43c0 -9.33301 -7.66699 -19 -23 -29s-31.333 -15 -48 -15c-17.333 0 -32.666 5.66699 -45.999 17c-12.667 12.667 -20 27.834 -22 45.501s-3 32.167 -3 43.5l-1 286h77v-279c0 -14.667 1.66699 -27.167 5 -37.5s10 -16.166 20 -17.499
c5.33301 -0.666992 11.333 2.5 18 9.5s12.5 15.5 17.5 25.5s7.5 24.667 7.5 44v255h90v-341h150v341h94v-391z" />
    <glyph glyph-name="b" unicode="b" horiz-adv-x="673" 
d="M97 393v-343.001h145c-7.33301 4.66699 -15.666 14.334 -24.999 29.001s-15.833 26.667 -19.5 36s-8.66699 25.333 -15 48s-9.5 43.667 -9.5 63c0 58 12 99.5 36 124.5s51.333 37.5 82 37.5c39.333 0 68.166 -11.333 86.499 -34s27.5 -49.667 27.5 -81l1 -229h210v-44
h-211l1 -191h-102l-1 191h-303l-2 393h99zM302 51.999l-0.999023 202c0 16.667 -2.16699 31.667 -6.5 45s-12.833 20 -25.5 20c-14.667 0 -27.5 -9.5 -38.5 -28.5s-16.5 -43.833 -16.5 -74.5c2.66699 -30.667 10.334 -61 23.001 -91c5.33301 -16 13.166 -29.5 23.499 -40.5
s24.166 -21.833 41.499 -32.5z" />
    <glyph glyph-name="c" unicode="c" horiz-adv-x="844" 
d="M86 365c18 2 37.1621 -6.50391 57.4951 -25.5039s30.5 -44.833 30.5 -77.5c0 -21.333 -9 -43.166 -27 -65.499s-40.667 -33.5 -68 -33.5c-28.667 0 -48.667 11.333 -60 34s-18.666 47 -21.999 73c0 45.333 13.833 81.833 41.5 109.5s60.5 41.5 98.5 41.5
c38.667 0 76.834 -15.167 114.501 -45.5s56.5 -67.166 56.5 -110.499c0 -36 -7.83301 -70.333 -23.5 -103s-39.5 -53 -71.5 -61s-53.167 -12.333 -63.5 -13s-21.833 -1 -34.5 -1h-23c-6 0 -10.167 -0.166992 -12.5 -0.5s-5.33301 -2.16602 -9 -5.49902
s-5.16699 -6.66602 -4.5 -9.99902s2.33398 -6 5.00098 -8s5.66699 -3 9 -3l35 -2h619l-1 -59l-651 1c-8.66699 0.666992 -17.667 1.66699 -27 3s-17.166 4.83301 -23.499 10.5s-10.833 10.667 -13.5 15s-4 15.5 -4 33.5v14c0 9.33301 0.5 16.166 1.5 20.499s4 9.5 9 15.5
s20.167 10.333 45.5 13s46.333 5.66699 63 9s35.667 15 57 35s32 46.333 32 79c0 26.667 -4 47.834 -12 63.501s-20.167 30.167 -36.5 43.5s-38.166 20 -65.499 20c-5.33301 0.666992 -9.83301 -0.333008 -13.5 -3s-6.5 -5 -8.5 -7zM33.9951 258.996
c0 -15.333 3.5 -27.834 10.5 -37.501s14.167 -14.5 21.5 -14.5c12.667 0 22 5.16699 28 15.5s9 21.833 9 34.5c0 10 -3.5 21.5 -10.5 34.5s-16.5 19.5 -28.5 19.5c-10 -0.666992 -17.5 -7.16699 -22.5 -19.5s-7.5 -23.166 -7.5 -32.499z" />
    <glyph glyph-name="d" unicode="d" horiz-adv-x="710" 
d="M637 392l0.000976562 -51.002h-70v-342l-90 1v338h-60h-14.5c-4.33301 0 -9.83301 -0.833008 -16.5 -2.5s-12.334 -3.33398 -17.001 -5.00098s-8.66699 -4.5 -12 -8.5c22 -16 42 -37.5 60 -64.5s27 -61.5 27 -103.5c0 -26.667 -3.83301 -51.167 -11.5 -73.5
s-16.667 -38.666 -27 -48.999s-21.166 -18.333 -32.499 -24s-24 -8.5 -38 -8.5s-27.167 4.5 -39.5 13.5s-23.166 19.5 -32.499 31.5c-26.667 39.333 -40 83 -40 131c0 22.667 4.66699 50 14 82s20 52 32 60c-19.333 16 -48.333 24 -87 24c-36 0 -67.667 -11.5 -95 -34.5
s-41 -48.167 -41 -75.5c6 8.66699 13 15.334 21 20.001s18 7 30 7c36 0 62.333 -12 79 -36s27 -45 31 -63s6 -33.667 6 -47c0 -8.66699 -0.5 -18 -1.5 -28s-4.5 -22 -10.5 -36s-16.333 -25.667 -31 -35s-31 -14 -49 -14c-4.66699 0.666992 -8.33398 1 -11.001 1
c-37.333 4.66699 -65.333 24.334 -84 59.001s-28 72 -28 112c0 58.667 16.667 110 50 154s79.666 66 138.999 66c22 0 42.667 -3.16699 62 -9.5s38 -13.833 56 -22.5c4 3.33301 10.5 7.33301 19.5 12s18.167 9 27.5 13s16.5 6.33301 21.5 7s14.833 1 29.5 1h234z
M269.001 159.998c0 -20.667 4 -40.167 12 -58.5s21 -27.5 39 -27.5c16 0 26 9.16699 30 27.5s6 39.166 6 62.499c0 14 -5.16699 34.333 -15.5 61s-20.5 44.334 -30.5 53.001c-15.333 -15.333 -26 -33.5 -32 -54.5s-9 -42.167 -9 -63.5zM51.001 131.998
c4 -21.333 8.83203 -38.668 14.499 -52.001s15.834 -20 30.501 -20c10 0 17.333 5.16699 22 15.5s7 22.833 7 37.5c0 6.66699 -0.5 13.5 -1.5 20.5s-4.83301 18.167 -11.5 33.5s-20.667 23 -42 23c-5.33301 0 -10 -5.16699 -14 -15.5s-6 -21.166 -6 -32.499
c0 -4.66699 0.333008 -8 1 -10z" />
    <glyph glyph-name="e" unicode="e" horiz-adv-x="496" 
d="M341 394v-53.999h-120v-127c5.33301 2.66699 11.833 4.83398 19.5 6.50098s13.834 2.83398 18.501 3.50098c33.333 10 67 -0.166992 101 -30.5s51 -67.833 51 -112.5c0 -57.333 -15.167 -98 -45.5 -122s-57.833 -36 -82.5 -36l-201 -2c-2.66699 0 -5 -1.5 -7 -4.5
s-3.66699 -5.33301 -5 -7s-2 -5.16699 -2 -10.5c0 -6.66699 1.33301 -14.667 4 -24c4 -7.33301 6.66699 -12.5 8 -15.5s2 -7.5 2 -13.5c0 -4.66699 -2 -12.334 -6 -23.001s-10.667 -18.334 -20 -23.001s-20.333 -7 -33 -7c-18.667 0 -32 5.5 -40 16.5
s-14.333 26.167 -19 45.5c-1.33301 9.33301 -2 15.666 -2 18.999c0 12.667 2.5 24.167 7.5 34.5s11.833 21.166 20.5 32.499c5.33301 5.33301 14.5 10.166 27.5 14.499s23.833 6.5 32.5 6.5l178 2c18.667 0 38.334 10 59.001 30s31 45 31 75
c-0.666992 4.66699 -1 8.33398 -1 11.001c-2.66699 28.667 -11.334 51.334 -26.001 68.001s-29 25 -43 25c-6.66699 0 -11.334 -1.66699 -14.001 -5l-13 -14v-153h-96l1 342h-81v-342h-47v393z" />
    <glyph glyph-name="f" unicode="f" horiz-adv-x="527" 
d="M84 394l292.999 -0.00292969v-43h-104v-123h42c44.667 0 79.5 -8.83301 104.5 -26.5s37.5 -46.167 37.5 -85.5c0 -27.333 -11.333 -53 -34 -77s-46.334 -36 -71.001 -36l-36 53c15.333 3.33301 28.333 9.66602 39 18.999s16 21 16 35c0 25.333 -5.5 42.666 -16.5 51.999
s-29.5 14 -55.5 14h-22v-97c0 -33.333 -11.333 -54.666 -34 -63.999s-46 -14 -70 -14c-19.333 0 -38.333 4 -57 12c-18.667 6.66699 -37.667 18.334 -57 35.001c-12 12 -20.5 21 -25.5 27s-10.167 13.333 -15.5 22s-9.16602 15.334 -11.499 20.001
s-4.33301 12.334 -6 23.001s-2.5 17.334 -2.5 20.001c0 6.66699 1.83301 15.5 5.5 26.5s9.33398 19 17.001 24s18.167 9 31.5 12s24 3.5 32 1.5v170zM178.999 223.997v126h-60v-126h60zM78.999 177.997c-11.333 0 -20.333 -1.66602 -27 -4.99902s-11 -10 -13 -20
c-0.666992 -6 -0.5 -10.5 0.5 -13.5s3 -8 6 -15s7.33301 -13.833 13 -20.5s10.667 -12.167 15 -16.5s11 -9.33301 20 -15s18.167 -8.5 27.5 -8.5c17.333 0 31.5 4.16699 42.5 12.5s16.5 17.166 16.5 26.499v75h-101z" />
    <glyph glyph-name="g" unicode="g" horiz-adv-x="491" 
d="M0 0l-1 392h100v-345h205l-1 345h98l1 -392h-402z" />
    <glyph glyph-name="h" unicode="h" horiz-adv-x="349" 
d="M0 -1v394h308v-49h-70v-344h-88v343h-104v-344h-46z" />
    <glyph glyph-name="i" unicode="i" horiz-adv-x="829" 
d="M52 205c7.33301 20 19.8301 32.8301 37.4971 38.4971s31.5 8.5 41.5 8.5c16 0 31.333 -4.33301 46 -13s25.834 -19.167 33.501 -31.5s14.5 -27.333 20.5 -45s9 -34.5 9 -50.5c0 -14.667 -3.16699 -30 -9.5 -46s-20.833 -31 -43.5 -45s-43.667 -21 -63 -21
c-34.667 0 -64 17.667 -88 53s-36 82.666 -36 141.999c0 20 3.33301 39.5 10 58.5s18.834 40.5 36.501 64.5s44.334 41.833 80.001 53.5s66.5 17.5 92.5 17.5c8 0 19.167 -0.666992 33.5 -2s27.833 -2.83301 40.5 -4.5s28.167 -5.66699 46.5 -12
s31.833 -11.166 40.5 -14.499c11.333 8 23 14.833 35 20.5s25.5 10.667 40.5 15s28.167 6.5 39.5 6.5c7.33301 0 17.5 -0.5 30.5 -1.5s19.833 -1.5 20.5 -1.5c58.667 0 104.167 -18.333 136.5 -55s52.666 -68.167 60.999 -94.5s12.5 -46.833 12.5 -61.5c0 -14 -2 -29 -6 -45
s-7.83301 -27.167 -11.5 -33.5s-11.834 -18.666 -24.501 -36.999s-24.667 -33.5 -36 -45.5s-24.333 -22 -39 -30l-66 59c12 6.66699 20 11.834 24 15.501s11.5 12.667 22.5 27s19.667 28.5 26 42.5s9.5 30.667 9.5 50c2 25.333 -5.83301 53.666 -23.5 84.999
s-35.167 49.5 -52.5 54.5s-31.666 8.83301 -42.999 11.5s-24 4 -38 4l-24 -2c-7.33301 -0.666992 -14.666 -2.66699 -21.999 -6s-15.666 -7.66602 -24.999 -12.999c20 -7.33301 40.333 -25.5 61 -54.5s31 -57.5 31 -85.5c0 -58 -11.667 -102.333 -35 -133
s-56.333 -46 -99 -46c-27.333 0 -52.5 13.333 -75.5 40s-34.5 65.334 -34.5 116.001c0 26.667 4.66699 50.667 14 72s22.666 40.666 39.999 57.999c-2 1.33301 -9 5.33301 -21 12s-25.333 12.834 -40 18.501s-33.667 8.5 -57 8.5c-12 0 -27.167 -1.33301 -45.5 -4
s-33.333 -6.16699 -45 -10.5s-26 -15.333 -43 -33s-25.5 -42.5 -25.5 -74.5zM331.997 220.997c-6 -14 -9.66504 -25.667 -10.998 -35s-2 -27 -2 -53c1.33301 -14 6.16602 -28.667 14.499 -44s17.833 -23 28.5 -23c23.333 0 38.166 8.66699 44.499 26s9.5 37 9.5 59
c0 18 -0.666992 30.5 -2 37.5s-5.5 16.833 -12.5 29.5s-14 22.667 -21 30s-13.167 12.333 -18.5 15c-12.667 -12 -22.667 -26 -30 -42zM57.999 144.997c-2 -15.333 1.83203 -33.168 11.499 -53.501s20.167 -30.5 31.5 -30.5c18.667 -2 32 3.16699 40 15.5s12 25.833 12 40.5
c0 15.333 -4 30.833 -12 46.5s-16.333 23.5 -25 23.5c-19.333 0 -33.166 -3.16699 -41.499 -9.5s-13.833 -17.166 -16.5 -32.499z" />
    <glyph glyph-name="j" unicode="j" horiz-adv-x="531" 
d="M87 395l288.999 0.00390625v-37h-106v-127h43c60.667 0 101 -15.167 121 -45.5s30 -63.833 30 -100.5c0 -40 -13.833 -76.833 -41.5 -110.5s-71.167 -50.5 -130.5 -50.5l-151 1c-18 0 -28 -3 -30 -9c-4.66699 -2.66699 -7 -6.33398 -7 -11.001
c0 -2.66699 1.5 -6.66699 4.5 -12s8 -12 15 -20s10.5 -22.333 10.5 -43c0 -14 -4.33301 -24.167 -13 -30.5s-19 -9.5 -31 -9.5c-10 0 -20 2.5 -30 7.5s-17.167 11.667 -21.5 20s-7.66602 19.333 -9.99902 33s-3.5 22.5 -3.5 26.5c0 17.333 5.33301 34.666 16 51.999
c4 8 13.5 15.167 28.5 21.5s28.167 9.5 39.5 9.5l154 1c31.333 0 57 15 77 45s30 57.333 30 82c0 16.667 -1.5 30.5 -4.5 41.5s-7.83301 20.833 -14.5 29.5s-13.5 15.167 -20.5 19.5s-13.5 6.5 -19.5 6.5h-41v-95c0 -14.667 -1 -26.334 -3 -35.001
s-7.16699 -17.334 -15.5 -26.001s-18.333 -16.334 -30 -23.001s-23.167 -10 -34.5 -10c-13.333 0 -29 2.5 -47 7.5s-37.5 15 -58.5 30s-38.667 33.167 -53 54.5s-23.5 39.333 -27.5 54s-6 25.334 -6 32.001c0 5.33301 1 10.5 3 15.5s5 10.5 9 16.5s10.333 11.167 19 15.5
s20 6.5 34 6.5h27v167zM182.999 183.004l-101.998 -0.000976562c-5.33301 0 -11.833 -0.166992 -19.5 -0.5s-12.834 -3.16602 -15.501 -8.49902s-4 -10.666 -4 -15.999c0 -4.66699 1 -9.16699 3 -13.5s7.16699 -13.833 15.5 -28.5s19.166 -27.5 32.499 -38.5
s25.5 -18.833 36.5 -23.5s19.833 -6.33398 26.5 -5.00098c11.333 2 18.833 6.33301 22.5 13s5.5 15.334 5.5 26.001c-0.666992 11.333 -1 19.666 -1 24.999v70zM182.001 229.003v128h-60v-128h60z" />
    <glyph glyph-name="k" unicode="k" horiz-adv-x="602" 
d="M1 0l0.00195312 392.999h105v-348h138v192c0 54.667 11.167 95 33.5 121s43.833 39 64.5 39c24.667 0 44.667 -2.5 60 -7.5s29.166 -15.167 41.499 -30.5s23.666 -34.166 33.999 -56.499l28 -59.5c8.33301 -17.333 17.833 -44.333 28.5 -81s16 -67 16 -91
c0 -26 -9.16699 -44.333 -27.5 -55s-41.5 -16 -69.5 -16h-452zM417.002 44.999c22 0 38.333 1.16797 49 3.50098s17.667 9.16602 21 20.499s5 23.333 5 36c0 22.667 -3.16699 43.334 -9.5 62.001s-16 42.5 -29 71.5l-35 76c-10.333 21.667 -24.5 31.5 -42.5 29.5
c-8 0 -15.833 -9.33301 -23.5 -28s-11.5 -48.334 -11.5 -89.001l1 -182h75z" />
    <glyph glyph-name="l" unicode="l" horiz-adv-x="690" 
d="M617 50l1 -50h-618l-1 393h103l-1 -343h516z" />
    <glyph glyph-name="m" unicode="m" horiz-adv-x="855" 
d="M774 -23l-99.9971 -2.00195v146h-60c-6.66699 -23.333 -16.167 -42.5 -28.5 -57.5s-32.333 -31.5 -60 -49.5s-60.334 -31.667 -98.001 -41s-91.834 -14 -162.501 -14s-132.834 17.5 -186.501 52.5s-82.5 61 -86.5 78s-6 33.167 -6 48.5c2.66699 14 9.5 22.833 20.5 26.5
s19.333 5.83398 25 6.50098s13.167 1 22.5 1c7.33301 0 14.833 -0.166992 22.5 -0.5s15.834 -0.5 24.501 -0.5h412c2.66699 4 5 9.66699 7 17s3.5 14.333 4.5 21s2 13 3 19s1.5 13 1.5 21c0 8.66699 -2 21.5 -6 38.5s-10.5 33.833 -19.5 50.5s-20.333 28 -34 34
s-25.834 9 -36.501 9c-5.33301 -0.666992 -9 -1 -11 -1c21.333 -14.667 34.833 -28 40.5 -40s8.5 -32.667 8.5 -62c0 -18 -10.333 -36.167 -31 -54.5s-46.334 -27.5 -77.001 -27.5c-26 0 -50 8.66699 -72 26s-33 48 -33 92c0 40.667 15.333 74.5 46 101.5
s64.334 40.5 101.001 40.5c55.333 0 96.333 -8.66699 123 -26s48 -39.166 64 -65.499s26.167 -52 30.5 -77s6.5 -49.5 6.5 -73.5c0 -23.333 -1.66699 -39.333 -5 -48l51 -1v281h100zM309.003 308.998c0 -8 3.66699 -15.999 11 -23.999s14.666 -12 21.999 -12
c13.333 1.33301 23.333 5.66602 30 12.999s10 16 10 26c0 8.66699 -3.16699 17.167 -9.5 25.5s-14.166 12.5 -23.499 12.5c-14 0 -24.167 -3.66699 -30.5 -11s-9.5 -17.333 -9.5 -30zM116.003 123.999h-20c-6 0 -11 -0.333008 -15 -1s-9.16699 -3.33398 -15.5 -8.00098
s-9.5 -7.33398 -9.5 -8.00098c-4.66699 -14 10.666 -33.333 45.999 -58s86.333 -37 153 -37c18.667 0 39.834 2.66699 63.501 8s46.667 12.333 69 21s44 20.834 65 36.501s34.167 30.834 39.5 45.501z" />
    <glyph glyph-name="n" unicode="n" horiz-adv-x="542" 
d="M214 45l-21 35.998c-6.66699 12 -12.167 26.333 -16.5 43s-7 28.667 -8 36s-1.5 17.666 -1.5 30.999c0 11.333 0.333008 19.833 1 25.5s3.5 16.334 8.5 32.001s14.167 29.834 27.5 42.501s30 19 50 19c5.33301 0.666992 9.33301 1 12 1c12.667 0 25 -2.5 37 -7.5
s24.833 -13.333 38.5 -25s25 -27.167 34 -46.5s13.5 -40.666 13.5 -63.999v-17c0 -22.667 -1.66699 -41.667 -5 -57s-11 -30.833 -23 -46.5s-25.167 -27.5 -39.5 -35.5s-32.5 -12 -54.5 -12c-26.667 0 -52.167 4.66699 -76.5 14s-44.5 20.5 -60.5 33.5
s-33.167 30.5 -51.5 52.5s-34.666 49.5 -48.999 82.5s-22.833 61.667 -25.5 86s-5 44.833 -7 61.5s-3 32.334 -3 47.001c0 19.333 3.83301 49 11.5 89s27.667 83.667 60 131s92.166 71 179.499 71c54 0 95.833 -11 125.5 -33s51.667 -45.333 66 -70s23 -45.667 26 -63
s4.5 -38.666 4.5 -63.999l1 -440h-38v395v16c0 9.33301 -0.333008 17 -1 23s-3 14 -7 24s-9.33301 19.667 -16 29s-19.334 22 -38.001 38c-20 15.333 -39.667 26.166 -59 32.499s-41.333 9.5 -66 9.5c-28.667 0 -53.667 -4.33301 -75 -13s-40.166 -21.167 -56.499 -37.5
s-28.833 -31 -37.5 -44s-17.667 -32.833 -27 -59.5s-14 -53.667 -14 -81c0 -13.333 2.83301 -38.833 8.5 -76.5s20.667 -73.334 45 -107.001s46.5 -57 66.5 -70s40.333 -23.5 61 -31.5zM252 54.998c19.333 11.333 33.832 28.001 43.499 50.001s14.5 40.667 14.5 56
c0 9.33301 -0.5 16.166 -1.5 20.499s-4.16699 13 -9.5 26s-11 23.667 -17 32s-15.333 13.5 -28 15.5c-13.333 2 -23.166 -2.16699 -29.499 -12.5s-10.166 -20.833 -11.499 -31.5s-2 -19.667 -2 -27c0 -9.33301 0.833008 -19 2.5 -29s4.66699 -23.667 9 -41
s14.166 -37 29.499 -59z" />
    <glyph glyph-name="o" unicode="o" horiz-adv-x="562" 
d="M6 3l-0.00292969 388.999l100 -1v-333h128l1 195c0 41.333 11 75.5 33 102.5s44.333 40.5 67 40.5c29.333 0 50.666 -2.66699 63.999 -8s26.833 -17.833 40.5 -37.5s25.334 -42.334 35.001 -68.001l23.5 -62.5c6 -16 11.167 -35.167 15.5 -57.5s6.5 -44.833 6.5 -67.5
c0 -16.667 -1.16699 -30.167 -3.5 -40.5s-7.33301 -20.166 -15 -29.499s-18.667 -15.833 -33 -19.5s-31.5 -5.5 -51.5 -5.5h-65l-6 -25h87l-1 -50h-101c-8 -6.66699 -14.667 -14.167 -20 -22.5s-8 -20.833 -8 -37.5s-3.16699 -32 -9.5 -46s-17.333 -28.167 -33 -42.5
s-31.5 -23.333 -47.5 -27s-31.333 -5.5 -46 -5.5c-11.333 0 -19.666 0.333008 -24.999 1s-18.166 4.16699 -38.499 10.5s-39 14.833 -56 25.5s-31.833 27 -44.5 49s-19 45.333 -19 70c0 18.667 4.33301 35.667 13 51s24.334 23 47.001 23c12.667 0 24 -4.66699 34 -14
s16 -21 18 -35c1.33301 -8.66699 0.5 -17.5 -2.5 -26.5s-10.833 -13.5 -23.5 -13.5c-14 0 -26 5 -36 15c-5.33301 -9.33301 -8 -18.666 -8 -27.999c0 -4.66699 1.66699 -11.667 5 -21s10.666 -17.333 21.999 -24s24 -12.334 38 -17.001s26 -7 36 -7c14.667 0 28 3.5 40 10.5
s22 16.5 30 28.5c2.66699 5.33301 4.66699 12.333 6 21s2 16.334 2 23.001v13c0 6.66699 0.166992 13.167 0.5 19.5s2.83301 14.333 7.5 24s11.334 20.5 20.001 32.5l2 28h-229zM342.997 62.999h70h15h15c8 1.33301 14 4.66602 18 9.99902s6 14 6 26
c0 14.667 -2.33301 32.667 -7 54l-11.5 52.5c-3 13.667 -11.5 36.834 -25.5 69.501s-26.667 50 -38 52c-14 2.66699 -24.5 -2.83301 -31.5 -16.5s-10.5 -35.5 -10.5 -65.5v-182z" />
    <glyph glyph-name="p" unicode="p" horiz-adv-x="114" 
d="M-168 367c-32.667 0 -63.165 11.834 -91.498 35.501s-42.5 51.167 -42.5 82.5c0 45.333 14.5 85.333 43.5 120s73.5 52 133.5 52c46 0 85 -21.333 117 -64s48 -86 48 -130v-463h-41v409c0 14 -2.66699 29.667 -8 47s-11.333 30.333 -18 39c-26.667 39.333 -59 59 -97 59
c-7.33301 0.666992 -12.333 1 -15 1c-29.333 0 -53.5 -7.83301 -72.5 -23.5s-28.5 -31.834 -28.5 -48.501c0 -23.333 6.5 -44 19.5 -62s31.833 -28.667 56.5 -32c1.33301 -0.666992 1.16602 -4 -0.500977 -10s-2.83398 -10 -3.50098 -12z" />
    <glyph glyph-name="q" unicode="q" horiz-adv-x="560" 
d="M0 0l-1.00098 393.003l280 1v-60l-82 -1v-80c4 3.33301 13.667 6.83301 29 10.5s28 5.5 38 5.5c4.66699 0 15.334 -2.33301 32.001 -7s33.5 -13.834 50.5 -27.501s25.5 -45.167 25.5 -94.5c0 -22 -4.16699 -41.667 -12.5 -59s-20.833 -28.333 -37.5 -33h80v345l89 1
l1 -395h-393l1 49h89c28 0 49.5 6.5 64.5 19.5s22.5 33.5 22.5 61.5c0 15.333 -1.66699 28.166 -5 38.499s-8.5 17.666 -15.5 21.999s-13.833 6.5 -20.5 6.5c-9.33301 0 -17.833 -3.33301 -25.5 -10s-11.5 -16 -11.5 -28l-1 -42h-94l-1 221l-64 -1v-337z" />
    <glyph glyph-name="r" unicode="r" horiz-adv-x="463" 
d="M85 393h275v-40h-87v-134h83v-37h-82v-92c0 -28 -9 -50.333 -27 -67s-39 -25 -63 -25c-40 0 -80.667 20 -122 60s-62 82.333 -62 127c0 10 2.5 16.5 7.5 19.5s12 6 21 9s18.5 4.66699 28.5 5s19.333 0.833008 28 1.5v173zM104 179l-18 0.000976562
c-14 0 -25 -0.833008 -33 -2.5s-12 -5.83398 -12 -12.501c0 -22.667 13.833 -48.167 41.5 -76.5s49.5 -42.5 65.5 -42.5c12.667 0 22.167 5 28.5 15s9.5 23 9.5 39v80h-82zM186 219.001v133h-70v-133h70z" />
    <glyph glyph-name="s" unicode="s" horiz-adv-x="650" 
d="M513 -1l-79.999 -0.00292969v352h-76v-352h-83v239c0 30.667 -9 57.334 -27 80.001s-38.333 34 -61 34c-27.333 0 -48 -4.16699 -62 -12.5s-26.833 -21.166 -38.5 -38.499s-19.167 -29.666 -22.5 -36.999s-6.33301 -14.333 -9 -21l31 17.5
c14.667 8.33301 27.667 12.5 39 12.5c37.333 0 64.5 -17 81.5 -51s25.5 -62.667 25.5 -86c0 -35.333 -7.33301 -67 -22 -95s-41.334 -42 -80.001 -42c-34.667 0 -63 17.5 -85 52.5s-33 79.833 -33 134.5c0 62.667 17.667 115.167 53 157.5s80 63.5 134 63.5
c24.667 0 48.5 -6 71.5 -18s41.167 -26.667 54.5 -44v53h254v-45h-65v-354zM70.001 131.997c2.66699 -16.667 7.66699 -31.5 15 -44.5s19.666 -18.5 36.999 -16.5c16 2 25.667 7.83301 29 17.5s6.33301 24.167 9 43.5c2 18.667 -2.16699 34.5 -12.5 47.5
s-22.166 19.5 -35.499 19.5c-12.667 0 -23.5 -7.16699 -32.5 -21.5s-12.167 -29.5 -9.5 -45.5z" />
    <glyph glyph-name="t" unicode="t" horiz-adv-x="687" 
d="M522 393h93.001v-393h-346l24 19c18 14.667 31 34.5 39 59.5s12 54.167 12 87.5c0 48 -14.167 90 -42.5 126s-64.5 54 -108.5 54c-42 0 -73.5 -10.167 -94.5 -30.5s-37.167 -44.5 -48.5 -72.5c9.33301 9.33301 19.666 17.5 30.999 24.5s24.666 10.5 39.999 10.5
c44.667 0 77.5 -14 98.5 -42s31.5 -56 31.5 -84c0 -44.667 -9.33301 -81.334 -28 -110.001s-49.667 -43 -93 -43c-48 0 -81.167 16.833 -99.5 50.5s-29.166 70.834 -32.499 111.501c0 49.333 16 100.5 48 153.5s85.667 79.5 161 79.5c68 0 124.5 -21.5 169.5 -64.5
s67.5 -95.5 67.5 -157.5c0 -27.333 -3 -50 -9 -68s-14 -37.333 -24 -58h111v347zM100.001 59c13.333 0 25.667 5.83301 37 17.5s17 30.167 17 55.5c0 19.333 -6 35.5 -18 48.5s-30.667 19.5 -56 19.5c-8.66699 0 -15.167 -1 -19.5 -3s-7.5 -7.16699 -9.5 -15.5
s-3 -18.833 -3 -31.5c0 -6 1.16699 -16.167 3.5 -30.5s8 -28 17 -41s19.5 -19.5 31.5 -19.5z" />
    <glyph glyph-name="u" unicode="u" horiz-adv-x="369" 
d="M250 -2l-167 -101h-62l136 105v342h-102v-344h-47v393h316v-49h-74v-346z" />
    <glyph glyph-name="v" unicode="v" horiz-adv-x="567" 
d="M323 0v347h-107c-34 0 -63.167 -6.66699 -87.5 -20s-41.666 -28.666 -51.999 -45.999s-17.5 -33.5 -21.5 -48.5s-5.66699 -25.167 -5 -30.5l29 31c11.333 12 27.666 18 48.999 18c30 0 57.333 -12 82 -36s37 -56 37 -96c0 -46.667 -13 -78.334 -39 -95.001
s-54.667 -25 -86 -25c-44 0 -75 20.833 -93 62.5s-27 81.167 -27 118.5c0 68 21 120.5 63 157.5s87.333 55.5 136 55.5h297v-45h-85v-347zM62 121c0 -18 4.66602 -33.666 13.999 -46.999s21.333 -20 36 -20c16.667 0 28.834 5.5 36.501 16.5s11.5 26.5 11.5 46.5
c0 21.333 -4.16699 37.666 -12.5 48.999s-20.5 17 -36.5 17c-11.333 1.33301 -22.333 -3 -33 -13s-16 -26.333 -16 -49z" />
    <glyph glyph-name="w" unicode="w" horiz-adv-x="529" 
d="M311 393c44 0 80.333 -20.5 109 -61.5s43 -98.167 43 -171.5c0 -67.333 -20.5 -123.166 -61.5 -167.499s-90.833 -66.5 -149.5 -66.5l-135 -7c-8 0 -16.667 -2.16699 -26 -6.5s-14.333 -9.16602 -15 -14.499c0 -14.667 0.333008 -23.667 1 -27
c5.33301 -8.66699 9.66602 -16.834 12.999 -24.501s5 -15.5 5 -23.5c0 -13.333 -6.5 -24 -19.5 -32s-25.167 -12 -36.5 -12c-13.333 0 -25 5 -35 15s-16.667 18.667 -20 26s-6.16602 15.5 -8.49902 24.5s-3.5 14.833 -3.5 17.5v6c0 7.33301 2.16699 16 6.5 26
s7.5 18.5 9.5 25.5s10.667 14.167 26 21.5s31 11 47 11l163 10c54 0 90.333 20.833 109 62.5s28 83.167 28 124.5c0 51.333 -4.16699 96.5 -12.5 135.5s-29.5 58.5 -63.5 58.5c-12 0 -20.667 -2.33301 -26 -7s-11 -13.834 -17 -27.501s-9 -30.834 -9 -51.501l1 -257h-92v249
c0 22.667 -2.66699 42.5 -8 59.5s-19.333 25.5 -42 25.5c-14.667 0 -25.834 -6.33301 -33.501 -19s-11.5 -33 -11.5 -61v-254h-43l-1 279c0 24.667 8.83301 49.5 26.5 74.5s39.167 37.5 64.5 37.5c32.667 0 54.834 -3.5 66.501 -10.5s27.167 -18.833 46.5 -35.5
c10 16.667 23 28.834 39 36.501s37.667 11.5 65 11.5z" />
    <glyph glyph-name="x" unicode="x" horiz-adv-x="595" 
d="M154 -158c-2.66699 -6 -5.16504 -13.1719 -7.49805 -21.5049s-3.5 -17.166 -3.5 -26.499s2 -19.833 6 -31.5s12.5 -22 25.5 -31s27.167 -14.167 42.5 -15.5c15.333 0 30 2.5 44 7.5s26 12.5 36 22.5c5.33301 12.667 9 22.334 11 29.001s3 16.667 3 30
c0 10.667 -0.666992 19 -2 25c-1.33301 10 -0.833008 18.667 1.5 26s5.83301 15 10.5 23s8.5 13.333 11.5 16s7.5 6.33398 13.5 11.001c-7.33301 5.33301 -14.5 11 -21.5 17s-12.5 12.333 -16.5 19c-8 10.667 -14 22.167 -18 34.5s-7.66699 24.5 -11 36.5
c-5.33301 13.333 -8 26.666 -8 39.999c0 6 0.666992 13.333 2 22s3.16602 19.834 5.49902 33.501s9.66602 33.834 21.999 60.501s23.5 47.334 33.5 62.001l34 -19c-7.33301 -7.33301 -15 -19.333 -23 -36s-12 -33.667 -12 -51c0 -18.667 0.833008 -31.667 2.5 -39
s4.83398 -15.333 9.50098 -24c6.66699 -16.667 20.334 -25 41.001 -25c11.333 0 22.5 13.667 33.5 41s16.5 54.333 16.5 81c0 6.66699 -2.16699 25.334 -6.5 56.001s-20.333 63 -48 97s-69.5 51 -125.5 51c-42.667 0 -74.5 -5.16699 -95.5 -15.5s-41.167 -25.5 -60.5 -45.5
c-12 -10.667 -21.667 -24.334 -29 -41.001s-13.333 -31 -18 -43c6 8 13.167 14.5 21.5 19.5s16.166 7.5 23.499 7.5c40 0 72.667 -10.5 98 -31.5s40.166 -44.167 44.499 -69.5s6.5 -42 6.5 -50c0 -46.667 -11.667 -80.834 -35 -102.501s-54 -32.5 -92 -32.5
c-36 0 -64.833 19 -86.5 57s-32.5 74.667 -32.5 110c0 33.333 1 58.166 3 74.499s6.66699 31.166 14 44.499l26 61c41.333 69.333 112.666 104 213.999 104c81.333 0 148 -22.167 200 -66.5s78 -94.5 78 -150.5c0 -58.667 -8.83301 -108.167 -26.5 -148.5
s-39.334 -62.166 -65.001 -65.499s-39.5 -5 -41.5 -5c-11.333 0 -25 6.33301 -41 19c-14.667 10 -26.5 22.5 -35.5 37.5s-13.5 29.167 -13.5 42.5c-2 -6.66699 -3 -17.334 -3 -32.001c2.66699 -13.333 6.83398 -27.166 12.501 -41.499s12.334 -26.333 20.001 -36
s15.667 -16.667 24 -21l27 -14c9.66699 -5 20.5 -7.5 32.5 -7.5c11.333 0.666992 20 1 26 1l44 -1v-55l-60 -2c-8 0 -15 -2 -21 -6s-10 -9.16699 -12 -15.5s-3.66699 -12.833 -5 -19.5c-2.66699 -7.33301 -5.5 -19.333 -8.5 -36s-8.16699 -32.167 -15.5 -46.5
s-25.5 -29.666 -54.5 -45.999s-64.833 -24.5 -107.5 -24.5c-25.333 0 -50.333 8.33301 -75 25s-38.667 43.334 -42 80.001c0 16 1.33301 28.833 4 38.5s5.66699 18.5 9 26.5zM57.002 151.995c-4 -16 -6 -27.667 -6 -35c0 -8 2 -20.667 6 -38s10.333 -31.5 19 -42.5
s18.667 -16.5 30 -16.5c22 0 37.667 6.66699 47 20s14 31 14 53c0 22.667 -7 43.5 -21 62.5s-26.667 28.5 -38 28.5c-10 0 -20.5 -3.16699 -31.5 -9.5s-17.5 -13.833 -19.5 -22.5z" />
    <glyph glyph-name="y" unicode="y" horiz-adv-x="586" 
d="M432 316c-2.66699 2.66699 -11.167 7 -25.5 13s-23.333 11.667 -27 17s-5.5 10 -5.5 14s1.16699 8 3.5 12s5.33301 8.16699 9 12.5s9.16699 6.5 16.5 6.5c2.66699 0 8.33398 -0.833008 17.001 -2.5s15.334 -4.83398 20.001 -9.50098l21 -20.5
c9.33301 -9 20.666 -27.667 33.999 -56s20 -60.166 20 -95.499c0 -76.667 -15.5 -130.334 -46.5 -161.001s-68.833 -46 -113.5 -46c-44 0 -77 15.667 -99 47s-33 77 -33 137c0 52.667 -9.66699 89.834 -29 111.501s-41.666 32.5 -66.999 32.5c-30 0 -54.5 -12 -73.5 -36
s-28.5 -45.333 -28.5 -64c4 8.66699 12.167 17 24.5 25s29.166 12 50.499 12c28.667 0 50.5 -15 65.5 -45s22.5 -60 22.5 -90c0 -34.667 -8.66699 -65.167 -26 -91.5s-46 -39.5 -86 -39.5c-34 0 -58.333 20.5 -73 61.5s-22 82.167 -22 123.5c0 54.667 15.167 103 45.5 145
s66.833 63 109.5 63c59.333 0 104 -14.5 134 -43.5s45 -74.167 45 -135.5c0 -5.33301 -0.333008 -14.5 -1 -27.5s-1 -20.5 -1 -22.5c0 -40 5.5 -67.333 16.5 -82s26.5 -22 46.5 -22c26.667 0 48.667 14.167 66 42.5s26 60.5 26 96.5c0 24 -4.33301 48.167 -13 72.5
s-16.334 39.5 -23.001 45.5zM64 195c-13.333 0 -22.5 -7 -27.5 -21s-7.5 -28.333 -7.5 -43c0 -19.333 4.33301 -35.833 13 -49.5s19.667 -20.5 33 -20.5s22.333 6 27 18s7 25.667 7 41v11c0 15.333 -4.5 29.833 -13.5 43.5s-19.5 20.5 -31.5 20.5z" />
    <glyph glyph-name="z" unicode="z" horiz-adv-x="1134" 
d="M50 207c11.333 19.333 21.335 32.834 30.002 40.501s27.334 11.5 56.001 11.5c33.333 0 61.666 -14 84.999 -42s35 -60.667 35 -98c0 -36.667 -14.333 -66.167 -43 -88.5s-57.667 -33.5 -87 -33.5c-38 0 -68.667 13.667 -92 41s-35 65.666 -35 114.999
c0 75.333 23.667 134.166 71 176.499s102 63.5 164 63.5c32.667 0 61.667 -3 87 -9s54 -17 86 -33c23.333 12.667 44.666 22.167 63.999 28.5s42.333 9.5 69 9.5s51 -2.5 73 -7.5s44.667 -12.833 68 -23.5l59 21c12.667 3.33301 25.5 6 38.5 8s26.833 3 41.5 3h243v-45h-74
v-345h-98v343h-76c-19.333 0 -34.666 -2 -45.999 -6s-21 -8 -29 -12c26 -18.667 47.167 -43.167 63.5 -73.5s24.5 -62.166 24.5 -95.499c0 -50 -13.167 -88.5 -39.5 -115.5s-54.166 -40.5 -83.499 -40.5c-42 0 -74 15 -96 45s-33 59.667 -33 89
c0 31.333 1.16699 53.833 3.5 67.5s7.5 29.167 15.5 46.5s14.333 29.166 19 35.499s12.667 15.166 24 26.499c-31.333 22 -64.333 33 -99 33c-16.667 0 -30 -2.16699 -40 -6.5s-21.667 -12.166 -35 -23.499c23.333 -20.667 42.166 -43.167 56.499 -67.5
s21.5 -58.166 21.5 -101.499c0 -50 -13.833 -86.667 -41.5 -110s-57.834 -35 -90.501 -35c-34.667 0 -62.334 16.5 -83.001 49.5s-31 69.167 -31 108.5c0 32.667 5.66699 62 17 88s24.666 45.667 39.999 59c-10.667 12 -27.167 22.333 -49.5 31s-49.833 13 -82.5 13
c-53.333 0 -95.166 -16 -125.499 -48s-45.5 -63 -45.5 -93zM53.002 121.001c0 -18.667 5.83398 -34.834 17.501 -48.501s25.5 -20.5 41.5 -20.5c17.333 0 29.833 6.83301 37.5 20.5s11.5 29.834 11.5 48.501c0 16.667 -5.83301 31.5 -17.5 44.5s-25.834 19.5 -42.501 19.5
c-10 0 -20.5 -7 -31.5 -21s-16.5 -28.333 -16.5 -43zM344.003 179.001c-0.666992 -4 -0.999023 -10.667 -0.999023 -20c0 -25.333 4.5 -46.333 13.5 -63s23.5 -25 43.5 -25c18.667 0 31.667 8.83301 39 26.5s11 35.5 11 53.5c0 36.667 -5.83301 64 -17.5 82
s-26.834 33.667 -45.501 47c-11.333 -10.667 -20.833 -25.667 -28.5 -45s-12.5 -38 -14.5 -56zM618.004 164.001c0 -28 4.16895 -52.498 12.502 -73.498s24.833 -31.5 49.5 -31.5c22 0 37.667 11.667 47 35s14 47.666 14 72.999c0 28 -5.83301 51.667 -17.5 71
s-26.834 36.333 -45.501 51c-14.667 -8.66699 -28.334 -26.834 -41.001 -54.501s-19 -51.167 -19 -70.5z" />
    <glyph glyph-name="braceleft" unicode="{" horiz-adv-x="175" 
d="M5 317c0 -12 2.5 -21.835 7.5 -29.502s11.167 -13.167 18.5 -16.5s13.333 -5 18 -5c9.33301 0 18 3.33301 26 10s12 14.334 12 23.001c0 18.667 -3.5 31.834 -10.5 39.501s-17.5 12.167 -31.5 13.5c-12 0 -21.667 -3.33301 -29 -10s-11 -15 -11 -25zM-178 414.998
l288 -1.00195c12 -12.667 24.167 -28 36.5 -46s18.5 -40.333 18.5 -67c0 -11.333 -0.5 -19.166 -1.5 -23.499s-3.66699 -11.666 -8 -21.999s-16.833 -22.833 -37.5 -37.5s-40 -22 -58 -22c-6 0 -16 1.66699 -30 5s-27.333 10 -40 20s-22 23.667 -28 41s-9 34.333 -9 51
c0 24 2.66699 43 8 57h-137z" />
    <glyph glyph-name="bar" unicode="|" horiz-adv-x="1315" 
d="M647 324c0 -74.667 -22.999 -141.331 -68.999 -199.998s-104.333 -97 -175 -115l-30 118c44.667 11.333 81.5 35.166 110.5 71.499s43.5 78.166 43.5 125.499c0 56 -19.833 103.833 -59.5 143.5s-87.5 59.5 -143.5 59.5c-46.667 0 -87.667 -13.333 -123 -40
s-59 -61 -71 -103h194v-121h-194c9.33301 -34 27 -63 53 -87s56.667 -40.333 92 -49l-30 -118c-62 15.333 -114.833 46.5 -158.5 93.5s-70.834 101.833 -81.501 164.5l57 57l-57 57c12 76.667 48.167 140.167 108.5 190.5s130.5 75.5 210.5 75.5
c88.667 0 164.667 -31.667 228 -95s95 -139.333 95 -228z" />
    <glyph glyph-name="braceright" unicode="}" horiz-adv-x="220" 
d="M-109 392h294v-38h-82v-429h-92v428h-120v39z" />
    <glyph glyph-name="asciitilde" unicode="~" horiz-adv-x="999" 
d="M767 144l0.000976562 32.999v18c0 14 -1.16699 25.5 -3.5 34.5s-7.5 13.5 -15.5 13.5c-14 0 -21 -9 -21 -27c-0.666992 -2 -1 -5.66699 -1 -11c0 -9.33301 2.66699 -18.666 8 -27.999c5.33301 -12 9.16602 -19 11.499 -21s9.5 -6 21.5 -12zM409.001 146.999
c-3.33301 -4 -4.99805 -10.999 -4.99805 -20.999c0 -12 2 -24.667 6 -38s8.16699 -22.333 12.5 -27s10.166 -7.83398 17.499 -9.50098s14.666 -2.83398 21.999 -3.50098c12.667 6.66699 19 15.334 19 26.001c0 5.33301 -2 12.5 -6 21.5s-9.33301 16.833 -16 23.5
s-11.667 11.167 -15 13.5s-8 6 -14 11s-10.667 7.5 -14 7.5c-2 0 -4.33301 -1.33301 -7 -4zM845.003 36l43.001 0.000976562l-1 78c-2.66699 -2.66699 -5.83398 -4.83398 -9.50098 -6.50098s-8.16699 -3.5 -13.5 -5.5l-19 -5v-61zM186.004 234.001v118h-70v-118h70z
M364.004 168.001c-6 3.33301 -12.665 6.66602 -19.998 9.99902s-14.5 6.16602 -21.5 8.49902s-15.667 4.33301 -26 6s-17.833 3.16699 -22.5 4.5v-107c0 -28 -9 -50.333 -27 -67s-39 -25 -63 -25c-39.333 0 -79.833 22.167 -121.5 66.5s-62.5 89.5 -62.5 135.5
c0 10 2.5 16.5 7.5 19.5s12 6 21 9s18.5 4.66699 28.5 5s19.333 0.833008 28 1.5v158h275v-40h-87v-119c8 -0.666992 16.167 -1.66699 24.5 -3s17.5 -3.33301 27.5 -6s18.667 -5.33398 26 -8.00098s14.666 -5.66699 21.999 -9c17.333 36 38.666 59 63.999 69
s53.333 15 84 15c59.333 0 100.666 -16.167 123.999 -48.5s36.166 -57.166 38.499 -74.499s3.5 -30 3.5 -38s-0.5 -15.833 -1.5 -23.5s-2.5 -15.667 -4.5 -24s-4.83301 -16.666 -8.5 -24.999s-7.5 -15.833 -11.5 -22.5h102l1 70l-21.5 9.5c-7 3 -16.833 11 -29.5 24
s-20.167 27.167 -22.5 42.5s-3.5 25.666 -3.5 30.999c0 20.667 6.33301 40.334 19 59.001s31.667 28 57 28c24.667 0 45 -12.5 61 -37.5s24 -48.167 24 -69.5c0 -4.66699 0.333008 -13.667 1 -27s1 -21.333 1 -24c0 -8 -0.333008 -12.333 -1 -13c8 2.66699 16 5.66699 24 9
c4.66699 3.33301 8.83398 7.83301 12.501 13.5s6.16699 9.16699 7.5 10.5l34 39v-203h-83v-136h-81l1 135h-205c21.333 16 34.833 34.167 40.5 54.5s8.5 43.166 8.5 68.499c2 22 -5.5 48 -22.5 78s-39.833 45 -68.5 45c-29.333 0 -51 -3.83301 -65 -11.5
s-26 -19.5 -36 -35.5c18 -5.33301 31.833 -10.333 41.5 -15s21.334 -13.167 35.001 -25.5s24.334 -25 32.001 -38s11.5 -27.833 11.5 -44.5c0 -4 -1.16699 -13.167 -3.5 -27.5s-10.333 -26.666 -24 -36.999s-28.834 -15.5 -45.501 -15.5
c-4.66699 0 -15.5 0.833008 -32.5 2.5s-32.667 16.834 -47 45.501s-21.5 59 -21.5 91zM104.006 194.001l-18 0.000976562c-14 0 -25 -0.833008 -33 -2.5s-12 -5.83398 -12 -12.501c0 -23.333 14.167 -51.5 42.5 -84.5s49.833 -49.5 64.5 -49.5c12.667 0 22.167 5 28.5 15
s9.5 23 9.5 39v95h-82z" />
    <glyph glyph-name="nonbreakingspace" unicode="&#xa0;" horiz-adv-x="250" 
 />
    <glyph glyph-name="yen" unicode="&#xa5;" horiz-adv-x="633" 
d="M619 -126l-90.999 0.00292969v126h-255l24 19c18 14.667 31 34.5 39 59.5s12 54.167 12 87.5c0 48 -14.167 90 -42.5 126s-64.5 54 -108.5 54c-42 0 -73.5 -10.167 -94.5 -30.5s-37.167 -44.5 -48.5 -72.5c9.33301 9.33301 19.666 17.5 30.999 24.5
s24.666 10.5 39.999 10.5c44.667 0 77.5 -14 98.5 -42s31.5 -56 31.5 -84c0 -44.667 -9.33301 -81.334 -28 -110.001s-49.667 -43 -93 -43c-48 0 -81.167 16.833 -99.5 50.5s-29.166 70.834 -32.499 111.501c0 49.333 16 100.5 48 153.5s85.667 79.5 161 79.5
c68 0 124.5 -21.5 169.5 -64.5s67.5 -95.5 67.5 -157.5c0 -27.333 -3 -50 -9 -68s-14 -37.333 -24 -58h111v347h93c-0.666992 -30 -1.16699 -63.833 -1.5 -101.5s-0.5 -75.167 -0.5 -112.5c0 -22.667 0.166992 -42 0.5 -58s1.16602 -28.333 2.49902 -37l39 4
c11.333 1.33301 22.666 -0.833984 33.999 -6.50098s24.5 -17.167 39.5 -34.5s25.833 -38.5 32.5 -63.5s10 -47.167 10 -66.5c0 -51.333 -35.333 -99.666 -106 -144.999s-145.667 -68 -225 -68c-65.333 0 -117.5 6.5 -156.5 19.5s-71.833 29 -98.5 48s-43.667 33.667 -51 44
s-11 23.166 -11 38.499c0 7.33301 0.5 14 1.5 20s5.16699 13.667 12.5 23s16.833 15.166 28.5 17.499s29.167 3.5 52.5 3.5c28 0 56.667 -3.33301 86 -10l67 -18.5c20.667 -5.66699 48.667 -15.167 84 -28.5l-20 -42c-24.667 9.33301 -42.5 16.666 -53.5 21.999
s-23.5 10 -37.5 14s-35.167 9.16699 -63.5 15.5s-50.833 9.5 -67.5 9.5c-8 0 -15.5 -1.16699 -22.5 -3.5s-12.5 -4.83301 -16.5 -7.5s-7 -7 -9 -13c-1.33301 -6 0.833984 -12.833 6.50098 -20.5s14.167 -17 25.5 -28s41.333 -22.833 90 -35.5s94 -19 136 -19
c74.667 0 135.5 19.5 182.5 58.5s71.5 68.167 73.5 87.5s3 34 3 44c0 14.667 -1.5 27 -4.5 37s-8.33301 18.833 -16 26.5s-14.167 12 -19.5 13s-14.666 1.5 -27.999 1.5zM104.001 59.0029c13.333 0 25.667 5.83203 37 17.499s17 30.167 17 55.5
c0 24.667 -6.66699 42.834 -20 54.501s-29 17.5 -47 17.5c-10 0 -17.667 -1.66699 -23 -5s-9.33301 -9.83301 -12 -19.5s-4 -20.167 -4 -31.5v-12c1.33301 -5.33301 2.83301 -13 4.5 -23s7 -21.5 16 -34.5s19.5 -19.5 31.5 -19.5z" />
    <glyph glyph-name="copyright" unicode="&#xa9;" horiz-adv-x="603" 
d="M414 404l-0.000976562 -309.998l31 -5c20 -3.33301 35.5 -7.66602 46.5 -12.999s24.333 -15.833 40 -31.5s27.334 -32.834 35.001 -51.501s11.5 -39.667 11.5 -63c0 -60.667 -24.333 -119.667 -73 -177s-112 -86 -190 -86c-81.333 0 -166.333 16.167 -255 48.5
s-135.834 61.666 -141.501 87.999s-8.5 42.166 -8.5 47.499c0 11.333 4.33301 22.5 13 33.5s19.667 18 33 21s31.333 4.5 54 4.5c24 0 47.333 -2.66699 70 -8c30 -8.66699 57.667 -16.334 83 -23.001s54.333 -17 87 -31l-20 -33c-17.333 6.66699 -39.166 13.667 -65.499 21
s-53.833 13 -82.5 17l-37.5 7.5c-11.667 2.33301 -22.167 3.5 -31.5 3.5c-12 0 -22.333 -1.5 -31 -4.5s-15.334 -5.16699 -20.001 -6.5s-7.66699 -4.66602 -9 -9.99902c-2 -8 0 -15.333 6 -22s20.333 -17.167 43 -31.5s55.334 -29 98.001 -44s87 -22.5 133 -22.5
c72 0 130.167 15.167 174.5 45.5s68.333 63.333 72 99s5.66699 56.167 6 61.5s0.5 9.66602 0.5 12.999c0 11.333 -1.16699 20.833 -3.5 28.5s-7.5 16.5 -15.5 26.5s-15.5 15.833 -22.5 17.5s-12.667 2.83398 -17 3.50098s-8.83301 0.666992 -13.5 0l1 -154h-96l1 135l-315 1
l2 402h96l-3 -354h217l-1 354z" />
    <glyph glyph-name="AE" unicode="&#xc6;" horiz-adv-x="292" 
d="M88 579c0.666992 -4 2 -8.33105 4 -12.998s5.16699 -10.834 9.5 -18.501s13.833 -15.834 28.5 -24.501c-14 0 -27 3.83301 -39 11.5s-21 14.834 -27 21.501s-10 14 -12 22c-3.33301 8 -5.33301 14.667 -6 20s-1 11.666 -1 18.999c0 10 3.83301 19.5 11.5 28.5
s16.5 14.5 26.5 16.5c12 1.33301 22.833 -1.5 32.5 -8.5s14.5 -16.5 14.5 -28.5c1.33301 -9.33301 0.333008 -17.833 -3 -25.5s-8.83301 -12.5 -16.5 -14.5zM-26 579.002c0.666992 -5.33301 2.16602 -10.166 4.49902 -14.499l9.5 -17.5c4 -7.33301 13.333 -15.333 28 -24
c-14 0 -26.833 3.66699 -38.5 11s-20.667 14.5 -27 21.5s-11 14.667 -14 23s-4.66699 13.833 -5 16.5s-0.5 10 -0.5 22c0 10 3.83301 19.5 11.5 28.5s16.5 14.5 26.5 16.5c12 1.33301 22.833 -1.5 32.5 -8.5s14.5 -16.5 14.5 -28.5c0.666992 -6.66699 0 -14.334 -2 -23.001
s-8 -14 -18 -16c-7.33301 -2.66699 -14.666 -5 -21.999 -7z" />
    <glyph glyph-name=".null" unicode="&#xd7;" horiz-adv-x="0" 
 />
    <glyph glyph-name=".null" unicode="&#x141;" horiz-adv-x="0" 
 />
    <glyph glyph-name=".null" unicode="&#xfd;" horiz-adv-x="0" 
 />
    <glyph glyph-name="aring" unicode="&#xe5;" horiz-adv-x="692" 
d="M77 391l1.00195 -272.996c0 -18.667 0.666992 -31.834 2 -39.501s7 -12.167 17 -13.5c5.33301 -0.666992 10.666 2 15.999 8l13 19c3.33301 4.66699 5.83301 10.667 7.5 18s2.5 18 2.5 32v251h90v-346h160v350h87l1 -313l21 8c10 3.33301 18.667 5 26 5
c33.333 0 61.333 -21.667 84 -65s32.334 -80 29.001 -110c-8 -68 -43.333 -124.833 -106 -170.5s-137 -68.5 -223 -68.5c-108.667 0 -187.667 19.167 -237 57.5s-76.666 74.833 -81.999 109.5c-0.666992 6 -1 10.667 -1 14c0 10.667 4 21.167 12 31.5s18.667 17 32 20
s31 4.5 53 4.5c25.333 0 50 -3.16699 74 -9.5l66.5 -18c20.333 -5.66699 34 -9.66699 41 -12s24.833 -9.16602 53.5 -20.499l-18 -32c-62 23.333 -110.667 37.666 -146 42.999c-25.333 5.33301 -50.666 10.333 -75.999 15c-8.66699 0 -16.334 -1.16699 -23.001 -3.5
s-11.334 -5.83301 -14.001 -10.5s-5 -11.334 -7 -20.001c0 -6 3.83301 -14.333 11.5 -25s17.5 -21.667 29.5 -33s38.167 -24 78.5 -38s87.833 -21 142.5 -21c84.667 0 147.5 21.333 188.5 64s61.5 83 61.5 121v12c0 20 -1.83301 35 -5.5 45s-9.33398 18.5 -17.001 25.5
s-14.5 12.167 -20.5 15.5s-12 4.33301 -18 3c-9.33301 -2.66699 -14 -10.334 -14 -23.001v-123h-83v125h-253l2 53c0 -14.667 -5.83301 -26.834 -17.5 -36.501s-25.834 -14.5 -42.501 -14.5c-4 0.666992 -7 1 -9 1c-7.33301 1.33301 -14.333 4 -21 8
s-14.334 9.66699 -23.001 17c-11.333 11.333 -18.666 23 -21.999 35s-5 28 -5 48l1 280h80z" />
    <glyph glyph-name="ae" unicode="&#xe6;" 
d="M1 600c8 -0.666992 14.167 -5 18.5 -13s7.16602 -16.667 8.49902 -26c2.66699 -11.333 -0.166016 -20.333 -8.49902 -27s-19.166 -10 -32.499 -10c-10 1.33301 -19.333 6.5 -28 15.5s-14.167 19 -16.5 30s-3.5 19.167 -3.5 24.5c0 3.33301 1 8 3 14
c0.666992 8.66699 3 16 7 22s10 11.833 18 17.5s15 9.66699 21 12s13 3.5 21 3.5c-6.66699 -4 -11.834 -8.16699 -15.501 -12.5s-7 -10.166 -10 -17.499s-4.83301 -12.333 -5.5 -15s-0.666992 -6.33398 0 -11.001c1.33301 0 4 -1 8 -3s9 -3.33301 15 -4z" />
    <glyph glyph-name="ccedilla" unicode="&#xe7;" horiz-adv-x="883" 
d="M119 59c19.333 0 34.167 5.83301 44.5 17.5s15.5 31.167 15.5 58.5c0 26.667 -7 46.334 -21 59.001s-31 19 -51 19c-14.667 0 -25.667 -2.16699 -33 -6.5s-12 -11.333 -14 -21s-3 -20.5 -3 -32.5c0 -12.667 1.16699 -25.834 3.5 -39.501s9.5 -26.167 21.5 -37.5
s24.333 -17 37 -17zM814.001 0l-526.001 0.000976562l21 22c34 36 51 86 51 150c0 51.333 -14.667 93.166 -44 125.499s-67 48.5 -113 48.5c-42 0 -73.5 -10.167 -94.5 -30.5s-37.167 -44.5 -48.5 -72.5c7.33301 7.33301 16.5 13.5 27.5 18.5s24.5 7.5 40.5 7.5
c45.333 0 78.833 -13 100.5 -39s32.5 -52 32.5 -78c0 -44.667 -9.33301 -81.334 -28 -110.001s-49.667 -43 -93 -43c-48 0 -81.167 16.833 -99.5 50.5s-29.166 70.834 -32.499 111.501c0 49.333 16 100.5 48 153.5s85.667 79.5 161 79.5c68 0 124.5 -21.5 169.5 -64.5
s67.5 -95.5 67.5 -157.5c0 -27.333 -3 -50 -9 -68s-14 -37.333 -24 -58h393v-46z" />
    <glyph glyph-name="divide" unicode="&#xf7;" horiz-adv-x="292" 
d="M91 173l-35.0029 357l-5 97c0 18 6 34.167 18 48.5s25 21.5 39 21.5c18.667 0 31.334 -9.5 38.001 -28.5s10.834 -32.833 12.501 -41.5s2.5 -19.667 2.5 -33c0 -5.33301 -0.333008 -14 -1 -26s-1 -22 -1 -30l-30 -364c0 -6.66699 -0.166992 -13.167 -0.5 -19.5
s-1.83301 -13.333 -4.5 -21s-7 -11.167 -13 -10.5c-7.33301 2 -11.666 6 -12.999 12s-2.83301 12 -4.5 18s-2.5 12.667 -2.5 20zM160.997 41c0 -12.667 -5.16797 -22.833 -15.501 -30.5s-21.5 -11.5 -33.5 -11.5c-11.333 0 -21.166 3.83301 -29.499 11.5
s-12.5 17.5 -12.5 29.5s4.5 23.167 13.5 33.5s19.5 15.5 31.5 15.5c14 0 25.167 -4.5 33.5 -13.5s12.5 -20.5 12.5 -34.5z" />
    <glyph glyph-name="quotedblleft" unicode="&#x201c;" horiz-adv-x="345" 
d="M21 317c0 -12 2.5 -21.835 7.5 -29.502s11.167 -13.167 18.5 -16.5s13.333 -5 18 -5c9.33301 0 18 3.33301 26 10s12 14.334 12 23.001c0 18.667 -3.5 31.834 -10.5 39.501s-17.5 12.167 -31.5 13.5c-12 0 -21.667 -3.33301 -29 -10s-11 -15 -11 -25zM-181 414.998h176
c2 12.667 12.833 27.334 32.5 44.001s42.167 25 67.5 25c74.667 0 129.667 -22.333 165 -67s53 -86.334 53 -125.001c0 -54.667 -14.333 -99.167 -43 -133.5s-55.667 -53.333 -81 -57s-46.333 -5.5 -63 -5.5c-13.333 0 -25.666 1.33301 -36.999 4s-22.5 6.66699 -33.5 12
s-18.5 9.16602 -22.5 11.499s-10.667 6.83301 -20 13.5l16 35l53 -23c10 -4 21.667 -6 35 -6c18.667 0 36.167 3.5 52.5 10.5s31.833 20.167 46.5 39.5s22 42.333 22 69c0 9.33301 -1.83301 23.833 -5.5 43.5s-12.5 40.667 -26.5 63s-29.5 37.833 -46.5 46.5
s-32.167 13.834 -45.5 15.501s-21.666 2.5 -24.999 2.5c-21.333 0 -37 -6.33301 -47 -19c7.33301 0.666992 12.666 1 15.999 1c37.333 0 67.333 -10.667 90 -32s34 -47.666 34 -78.999c0 -15.333 -2.83301 -29.833 -8.5 -43.5s-18.834 -27.834 -39.501 -42.501
s-40 -22 -58 -22c-6 0 -16 1.66699 -30 5s-27.333 10 -40 20s-22 23.667 -28 41s-9 34.333 -9 51c0 24 2.66699 43 8 57h-156z" />
    <glyph glyph-name="nonmarkingreturn" horiz-adv-x="417" 
 />
  </font>
</defs>
</svg>
