<?xml version="1.0" standalone="no"?>
<!DOCTYPE svg PUBLIC "-//W3C//DTD SVG 1.1//EN" "http://www.w3.org/Graphics/SVG/1.1/DTD/svg11.dtd" >
<svg>
<metadata>
Created by FontForge 20090914 at Mon Mar 10 12:06:33 2014
 By www-data
More Services
</metadata>
<defs>
<font id="DevLys-010" horiz-adv-x="768" >
  <font-face 
    font-family="DevLys 010"
    font-weight="400"
    font-stretch="normal"
    units-per-em="1000"
    panose-1="0 0 0 0 0 0 0 0 0 0"
    ascent="800"
    descent="-200"
    x-height="213"
    cap-height="516"
    bbox="-526 -247.998 826 801"
    underline-thickness="20"
    underline-position="-123"
    unicode-range="U+0020-U+2122"
  />
<missing-glyph horiz-adv-x="800" 
d="M50 0v800h700v-800h-700zM700 50v700h-600v-700h600z" />
    <glyph glyph-name=".notdef" horiz-adv-x="800" 
d="M50 0v800h700v-800h-700zM700 50v700h-600v-700h600z" />
    <glyph glyph-name="space" unicode=" " horiz-adv-x="379" 
 />
    <glyph glyph-name="exclam" unicode="!" horiz-adv-x="300" 
d="M215 176h-45l-8 494h61zM164 0v61h63v-61h-63z" />
    <glyph glyph-name="quotedbl" unicode="&#x22;" horiz-adv-x="229" 
d="M282 155c-15.333 -6 -32.6689 -8.99902 -52.002 -8.99902c-21.333 0 -39.666 2.66699 -54.999 8s-31.166 14.166 -47.499 26.499s-28.333 26.833 -36 43.5s-11.5 34 -11.5 52v199h-80v41h234v-41h-93l183 -190v-101c-10.667 -12 -24.667 -21.667 -42 -29z
M132.997 434.001v-159c0 -14.667 2.16699 -27 6.5 -37s10.833 -18.333 19.5 -25s18.667 -12.667 30 -18c11.333 -3.33301 23 -5 35 -5l27 3l27 9l23 15l17 20z" />
    <glyph glyph-name="numbersign" unicode="#" horiz-adv-x="541" 
d="M289 475l-0.00195312 -125.002l15 8l13 7l34 12c8 2 18.667 3.66699 32 5c14.667 0 29.334 -3.16699 44.001 -9.5s27.334 -14.833 38.001 -25.5c9.33301 -10.667 18 -23.667 26 -39c6 -13.333 9 -27.666 9 -42.999c0 -19.333 -3.66699 -38.333 -11 -57
c-6 -18 -16.333 -37.333 -31 -58l-18 -23l-24 -26l-37 34l20 19l15 17c4 5.33301 8.5 12.666 13.5 21.999s9.16699 18 12.5 26c6 16 9 32.667 9 50c0 13.333 -1.5 23.833 -4.5 31.5s-8.16699 15.167 -15.5 22.5c-6.66699 5.33301 -14.334 9.5 -23.001 12.5
s-18.334 4.5 -29.001 4.5s-19.667 -0.5 -27 -1.5s-14.666 -3.5 -21.999 -7.5c-8.66699 -2 -16 -5.66699 -22 -11l-19 -16c-0.666992 -3.33301 -1.33398 -5.33301 -2.00098 -6l-1 -5l-2 -5l-2 -3c-4 -6.66699 -10.333 -12.667 -19 -18l-27 -12l-13 -3l-15 -1
c-6 0 -10.667 -0.666992 -14 -2h-10l6 -12l19 -28l24 -36l23 -30l27 -34l37 -42l24 -27l15 -16l-43 -28l-26 27l-35 42l-46 57l-43 61l-49 72l-35 59l-10 19l-9 20l43 22l37 -64l8 -9l14 -8l16 -6l16 -2c8.66699 0.666992 15.834 2.83398 21.501 6.50098
s10.834 8.83398 15.501 15.501l3 15l1 26v126h-236v41h549v-41h-260z" />
    <glyph glyph-name="dollar" unicode="$" horiz-adv-x="553" 
d="M293 234v-234h-43v234h-236v43h236v239h43v-239h238v-43h-238z" />
    <glyph glyph-name="percent" unicode="%" horiz-adv-x="168" 
d="M51 367v67h70v-67h-70zM51 80v68h70v-68h-70z" />
    <glyph glyph-name="ampersand" unicode="&#x26;" horiz-adv-x="553" 
d="M14 234v43h513v-43h-513z" />
    <glyph glyph-name="quotesingle" unicode="'" horiz-adv-x="371" 
d="M297 475c8 -8 14.999 -16.999 20.999 -26.999l16 -29l9 -31l4 -32c0 -24.667 -4.66699 -47.334 -14 -68.001c-8 -20.667 -20.833 -40.667 -38.5 -60s-37.5 -33.666 -59.5 -42.999s-45.667 -14 -71 -14l166 -138l-35 -35l-240 203l35 35l33 -27l6 -2h6l26 1
c10 1.33301 19.333 3.33301 28 6s18 6.66699 28 12l31 21l24 25l16 27l5 21l2 29l-15 -13l-12 -9c-11.333 -8 -22.666 -14 -33.999 -18c-6.66699 -2 -17 -3.66699 -31 -5c-17.333 0 -32.333 2.5 -45 7.5s-24.5 12.667 -35.5 23s-20.167 22.166 -27.5 35.499
c-5.33301 12.667 -8 26 -8 40c0 12 2.16699 22.833 6.5 32.5s11.5 20.167 21.5 31.5l-115 1v41h371v-41h-74zM279.999 422.001c-2 6.66699 -4.66797 11.999 -8.00098 15.999c-7.33301 11.333 -17.166 20.5 -29.499 27.5s-24.833 10.5 -37.5 10.5
c-11.333 0 -20.333 -1.66699 -27 -5c-7.33301 -2 -14 -6.16699 -20 -12.5s-10.333 -13.166 -13 -20.499l-4 -23c0 -9.33301 1.5 -18.166 4.5 -26.499s7.5 -15.5 13.5 -21.5s13.167 -10.833 21.5 -14.5s17.833 -5.5 28.5 -5.5c11.333 0 22 2.16699 32 6.5
s19.667 11.166 29 20.499l8 11l11 16z" />
    <glyph glyph-name="parenleft" unicode="(" horiz-adv-x="180" 
d="M82 264v58h64v-58h-64zM78 -94h-45l45 151h67z" />
    <glyph glyph-name="parenright" unicode=")" horiz-adv-x="625" 
d="M523 475v-137.001h-195c-9.33301 0 -19 -2 -29 -6c-8 -2 -15 -6 -21 -12c-5.33301 -4 -10 -11.333 -14 -22l-4 -31c0 -18.667 3.5 -35 10.5 -49s17.833 -27 32.5 -39c12.667 -10 28 -18.667 46 -26c18 -5.33301 36.333 -8 55 -8l11 1l15 2l12 2l5 1l-1 9
c0 5.33301 1.66699 11.333 5 18c4.66699 17.333 11.834 30.833 21.501 40.5s20.834 14.5 33.501 14.5c7.33301 0 13.666 -1.33301 18.999 -4c5.33301 -1.33301 10 -4.33301 14 -9l8 -16c2 -5.33301 3 -11.666 3 -18.999c0 -8.66699 -1.16699 -16.667 -3.5 -24
s-6 -14.666 -11 -21.999s-11.167 -13.333 -18.5 -18c-4 -2 -11 -3.66699 -21 -5l4 -18l3 -12l7 -29l8 -25l43 -114h-55l-27 86c-2 -6 -8.66699 -12.333 -20 -19l-43 -21l-42 -12c-15.333 -3.33301 -29.333 -5 -42 -5c-22.667 0 -42.334 4.16699 -59.001 12.5
s-31 21.5 -43 39.5l-10 20l-9 31l-51 4l-35 7c-28 8 -49.667 20.667 -65 38c-14 17.333 -21 38.666 -21 63.999c0 14.667 1.83301 26.667 5.5 36s8.83398 19 15.501 29c6.66699 8 15 14.667 25 20c12 4.66699 23.333 7 34 7c11.333 0 20.666 -1.66699 27.999 -5
c8.66699 -2 17.334 -6.33301 26.001 -13l14 -16l6 -5l-27 -25l-8 6l-5 5l-16 9l-16 3l-17 -3l-11 -8l-7 -14l-4 -16c0 -16 5 -30 15 -42s26 -22 48 -30l50 -14c3.33301 -0.666992 6.16602 -1 8.49902 -1h4.5c5.33301 0 9 1 11 3l3 6l3 5l7 11c2 4 4.66699 7.33301 8 10l8 7
l11 8l10 6l8 3l-21 17l-13 16c-10 12.667 -18.667 27 -26 43c-2.66699 7.33301 -4.66699 14.333 -6 21s-2 15 -2 25c0 18 2.33301 33.667 7 47c4 14.667 10.667 26 20 34c9.33301 9.33301 20 16.333 32 21c6 2 12.333 3.66699 19 5s14 2 22 2l162 1v98h-471v41h629v-41h-106
zM455 110.999l-7 -1.99805l-16 -1c-7.33301 0 -13 -0.666992 -17 -2h-11l-21 1l-25 5l-11 2l-15 4l-22 -7l-15 -6c-11.333 -6 -20.333 -13.833 -27 -23.5s-10 -20.167 -10 -31.5c0 -10 1.83301 -18.5 5.5 -25.5s9.16699 -13.833 16.5 -20.5l25 -11
c6.66699 -2 17 -3.66699 31 -5c10.667 0 23 2 37 6c4.66699 1.33301 11.667 3.66602 21 6.99902s17.333 6.66602 24 9.99902l37 21l16 14z" />
    <glyph glyph-name="asterisk" unicode="*" horiz-adv-x="203" 
d="M94 449h-43l43 143h58z" />
    <glyph glyph-name="plus" unicode="+" horiz-adv-x="2" 
d="M-258 -113v56h59v-56h-59z" />
    <glyph glyph-name="comma" unicode="," horiz-adv-x="445" 
d="M379 475l-0.00195312 -188.002c0 -10.667 -1.66699 -20 -5 -28s-8.66602 -15.667 -15.999 -23c-6 -7.33301 -13.667 -13.666 -23 -18.999l-26 -11l-38 30c7.33301 0 14 1.5 20 4.5s12 7.83301 18 14.5l12 21c2 4.66699 3.66699 12 5 22v177h-189v-246l228 -213l7 -9l5 -7
c4 -5.33301 7 -11.333 9 -18l3 -21c0 -13.333 -3 -24.166 -9 -32.499s-15.667 -16.166 -29 -23.499l-16 -4l-22 -6l-45 44l7 -2l16 -1l6 1h6l5 2l6 1c4.66699 1.33301 7.66699 2.66602 9 3.99902l9 7l1 3l2 3l1 4l1 4c0 4 -1.16699 8.5 -3.5 13.5s-6.16602 9.5 -11.499 13.5
l-3 3l-5 3l-232 219v258h-82v41h447v-41h-68z" />
    <glyph glyph-name="hyphen" unicode="-" horiz-adv-x="168" 
d="M51 0v66h70v-66h-70z" />
    <glyph glyph-name="period" unicode="." horiz-adv-x="361" 
d="M330 475l0.000976562 -173.997c0 -6.66699 -0.166992 -13.834 -0.5 -21.501s-2.83301 -17.834 -7.5 -30.501s-12.334 -25.5 -23.001 -38.5s-23.5 -22.167 -38.5 -27.5s-31.5 -8 -49.5 -8c-12 0 -20.833 0.333008 -26.5 1s-13.167 3 -22.5 7
c-13.333 6 -26.333 14.833 -39 26.5s-22 24.667 -28 39s-9 30.166 -9 47.499v179h-86v41h369v-41h-39zM277.001 475.003h-137.999v-178c0 -11.333 1.5 -22.166 4.5 -32.499s7.33301 -19.333 13 -27s12.667 -13.834 21 -18.501s18.166 -7 29.499 -7c12 0 22.333 2 31 6
s16.667 11.333 24 22c4 6 7.66699 14.667 11 26l4 34v175z" />
    <glyph glyph-name="slash" unicode="/" horiz-adv-x="273" 
d="M248 475v41h30v-41h-30zM341 158l-36.002 -24.999c-20 -13.333 -41.333 -23.333 -64 -30c-9.33301 -2.66699 -20.166 -5 -32.499 -7s-23.833 -3 -34.5 -3c-16.667 0 -32.167 2.5 -46.5 7.5s-28.333 12.667 -42 23s-23.834 22.333 -30.501 36s-10 27.167 -10 40.5
c0 10.667 2 21.5 6 32.5s10.333 21.833 19 32.5l10 10l16 13c-8 4 -18.667 11 -32 21c-8.66699 7.33301 -18.334 17.666 -29.001 30.999l-20 36c-4.66699 14 -7 26.333 -7 37c0 14 2.33301 27.167 7 39.5s11.334 23.166 20.001 32.499s19.334 16.5 32.001 21.5
s26.667 7.5 42 7.5c11.333 0 22.5 -1.83301 33.5 -5.5s21.167 -9.16699 30.5 -16.5s16.333 -16 21 -26s7 -20 7 -30v-30h-45v31c0 12 -3.66699 21.667 -11 29s-18.666 11 -33.999 11c-8.66699 0 -15.834 -1.66699 -21.501 -5s-10.834 -8 -15.501 -14l-10 -20l-3 -23
c0 -14 2 -26.5 6 -37.5s9 -20.333 15 -28s10.333 -13 13 -16s7.83398 -7.66699 15.501 -14s15.834 -9.5 24.501 -9.5l34 10l39 4l18 -1l20 -2l22 -38l-67 -3c-16 0 -29 -1.66699 -39 -5c-20 -4.66699 -35.333 -13.167 -46 -25.5s-16 -28.166 -16 -47.499c0 -10 2 -19 6 -27
s10.167 -15.167 18.5 -21.5s17.833 -11.5 28.5 -15.5l31 -4c21.333 0 41.5 3.66699 60.5 11s39.833 19.333 62.5 36l22 20l26 28v-53c0 -4.66699 -4.66699 -10.667 -14 -18z" />
    <glyph glyph-name="zero" unicode="0" horiz-adv-x="389" 
d="M33 325c3.33301 26 8.00098 47.3379 14.001 64.0049l10 25l13 22l14 20l17 17c12.667 9.33301 26.667 16.5 42 21.5s31.666 7.5 48.999 7.5c16 0 29 -1.66699 39 -5c11.333 -2 22 -6 32 -12c10 -4 19.333 -10.333 28 -19l23 -27l17 -37l14 -40l8 -50l3 -66v-11
c0 -12.667 -0.333008 -24.834 -1 -36.501s-2 -23.834 -4 -36.501s-3.83301 -22.834 -5.5 -30.501s-4.16699 -16.334 -7.5 -26.001s-7 -18.834 -11 -27.501s-8.33301 -16.334 -13 -23.001c-7.33301 -11.333 -17 -22.5 -29 -33.5s-25.667 -18.5 -41 -22.5
c-7.33301 -2 -15.333 -3.66699 -24 -5s-18 -2 -28 -2c-24 0 -46 4 -66 12c-18.667 8.66699 -34.667 21.334 -48 38.001c-15.333 19.333 -27.333 46.333 -36 81s-13 75.667 -13 123v35c0 10 1.33301 24.667 4 44zM99.001 144.005c4 -26 10.8301 -45.9971 20.4971 -59.9971
s20.834 -25 33.501 -33c13.333 -6.66699 26.333 -10 39 -10c14 0 26.667 3.33301 38 10c12.667 6 23.667 16.333 33 31c10 13.333 17.5 34.166 22.5 62.499s7.5 62.166 7.5 101.499c0 44 -2.66699 78 -8 102c-4 26.667 -11.167 47 -21.5 61s-21.333 24.5 -33 31.5
s-24.5 10.5 -38.5 10.5c-13.333 0 -25.666 -3 -36.999 -9s-21.666 -15 -30.999 -27c-10 -15.333 -18 -37 -24 -65c-2.66699 -14.667 -4.66699 -29.834 -6 -45.501s-2 -35.167 -2 -58.5c0 -42 2.33301 -76 7 -102z" />
    <glyph glyph-name="one" unicode="1" horiz-adv-x="389" 
d="M199 0l-0.000976562 392c-6 -6.66699 -14.333 -14 -25 -22l-33 -21l-17 -11l-16 -8l-16 -7l-16 -6v60c14.667 5.33301 30.334 13.333 47.001 24l41 33c12.667 10.667 24 22 34 34l23 34l40 1v-503h-62z" />
    <glyph glyph-name="two" unicode="2" horiz-adv-x="389" 
d="M352 0l-330.999 0.00195312c0 9.33301 0.666992 16.333 2 21l6 21c2.66699 9.33301 7.66699 19.666 15 30.999c5.33301 10 13.666 21.667 24.999 35l15 18l17 17l21 18l27 23c28 22.667 50 42 66 58l43 46c9.33301 12 16.666 25 21.999 39
c2.66699 6 4.66699 11.833 6 17.5s2 12.167 2 19.5c0 12.667 -2.16699 23.667 -6.5 33s-10.666 18.5 -18.999 27.5s-18.666 15.667 -30.999 20s-24.833 6.5 -37.5 6.5c-14.667 0 -27.834 -2.16699 -39.501 -6.5s-21.667 -10.666 -30 -18.999s-15.5 -19.5 -21.5 -33.5
c-4.66699 -14 -7 -28 -7 -42l-63 8c2 21.333 7 41.166 15 59.499s19 34.166 33 47.499c14 12 31 21.167 51 27.5s41 9.5 63 9.5c24.667 0 46 -3.16699 64 -9.5s34.333 -16 49 -29s25.5 -28 32.5 -45s10.5 -35.5 10.5 -55.5l-1 -17l-1 -13c0 -4 -1.33301 -8.33301 -4 -13
l-5 -14l-8 -16l-10 -16l-12 -17l-12 -14l-40 -41l-54 -48l-46 -38l-26 -25l-26 -32h246v-59z" />
    <glyph glyph-name="three" unicode="3" horiz-adv-x="389" 
d="M91 141c2 -11.333 3.83496 -20.1689 5.50195 -26.502s5 -14.666 10 -24.999s11.333 -18.833 19 -25.5s17.5 -12.667 29.5 -18c7.33301 -2 12.666 -3.33301 15.999 -4s9.33301 -1 18 -1c14.667 0 28 2.5 40 7.5s22.833 12.333 32.5 22s17.167 20.834 22.5 33.501
s8 26.334 8 41.001s-2.33301 27.667 -7 39c-4 12.667 -10.667 23 -20 31l-16 12l-16 9l-18 5l-21 2c-8.66699 0 -15.667 -0.666992 -21 -2l-23 -5l7 55l10 -1h19c8 2 14 3.33301 18 4c12 4.66699 23.167 10.334 33.5 17.001s18.166 15.167 23.499 25.5s8 22.5 8 36.5
c0 10.667 -2 21 -6 31c-2.66699 9.33301 -7.66699 17.5 -15 24.5s-16.166 12.5 -26.499 16.5s-21.5 6 -33.5 6c-11.333 0 -22.5 -1.83301 -33.5 -5.5s-20.167 -9.16699 -27.5 -16.5c-7.33301 -6 -14 -15.333 -20 -28c-3.33301 -8.66699 -6.66602 -21.667 -9.99902 -39
l-61 11c3.33301 20 9 37.667 17 53s18.833 28.833 32.5 40.5s28.667 20.5 45 26.5s34.833 9 55.5 9c15.333 0 28.333 -1.66699 39 -5c12 -2 23.833 -6 35.5 -12s21.667 -12.833 30 -20.5s16.166 -17.167 23.499 -28.5l6 -10.5c2 -3.66699 4.33301 -9.83398 7 -18.501
s4.33398 -14.667 5.00098 -18s1 -9 1 -17c0 -11.333 -1.66699 -21.666 -5 -30.999c-2 -9.33301 -6.33301 -18.5 -13 -27.5s-14 -17.167 -22 -24.5c-9.33301 -6.66699 -19 -12.667 -29 -18c16 -4.66699 29 -10.334 39 -17.001c11.333 -6 21.166 -14.5 29.499 -25.5
s14.5 -23.833 18.5 -38.5c2 -6.66699 3.66699 -13.5 5 -20.5s2 -14.5 2 -22.5c0 -21.333 -4 -41.333 -12 -60s-20 -36 -36 -52c-16 -14 -34.333 -24.833 -55 -32.5s-42.667 -11.5 -66 -11.5c-21.333 0 -41.5 3 -60.5 9s-35.5 15.667 -49.5 29
c-6.66699 6 -12.834 12.667 -18.501 20s-11.167 15.666 -16.5 24.999c-8 17.333 -13 36.333 -15 57z" />
    <glyph glyph-name="four" unicode="4" horiz-adv-x="389" 
d="M226 120h-217v56l228 325h51v-325h68v-56h-68v-120h-62v120zM226 402l-157 -226h157v226z" />
    <glyph glyph-name="five" unicode="5" horiz-adv-x="389" 
d="M94 136c2 -15.333 5.66602 -28.833 10.999 -40.5s12.333 -21.834 21 -30.501s18.5 -14.834 29.5 -18.501s22.5 -5.5 34.5 -5.5c15.333 0 28.666 2.83301 39.999 8.5s23 13.834 35 24.501c8.66699 10 16 22.667 22 38s9 32.333 9 51c0 18 -2.66699 33.333 -8 46
c-4 14 -11 26 -21 36s-21.667 17.833 -35 23.5s-27.666 8.5 -42.999 8.5h-12.5c-3 0 -8.83301 -1.16699 -17.5 -3.5s-16.667 -5.83301 -24 -10.5l-11 -8l-10 -7l-9 -9l-7 -10l-58 8l48 257h249v-59h-199l-27 -134l22 12l23 10l23 6l26 2
c12.667 0 23.334 -0.666992 32.001 -2s20 -4.83301 34 -10.5s28.667 -16 44 -31s26.833 -32.667 34.5 -53s11.5 -42.166 11.5 -65.499c0 -22.667 -3.16699 -44 -9.5 -64s-16.5 -38 -30.5 -54c-16 -20 -35 -34.833 -57 -44.5s-46.667 -14.5 -74 -14.5c-22 0 -42.5 3 -61.5 9
s-35.5 15.333 -49.5 28s-25.667 27.667 -35 45c-8 17.333 -13 36.333 -15 57z" />
    <glyph glyph-name="six" unicode="6" horiz-adv-x="389" 
d="M287 374l-4 13.0039l-3 10l-7 15l-9 13c-7.33301 7.33301 -16.333 13.666 -27 18.999c-12 4.66699 -23.667 7 -35 7c-10.667 0 -20 -1.16699 -28 -3.5s-16.167 -6.5 -24.5 -12.5s-16.833 -14.667 -25.5 -26c-3.33301 -5.33301 -5.66602 -9.33301 -6.99902 -12
c-4 -7.33301 -8 -15.333 -12 -24l-8 -23l-5 -27l-4 -32l-1 -34c6 9.33301 13.667 18.666 23 27.999s19.333 16.666 30 21.999l34 12c8 2 13.667 3.33301 17 4s9.33301 1 18 1c20 0 38.833 -3.83301 56.5 -11.5s33.5 -18.834 47.5 -33.501s25 -32.667 33 -54
c3.33301 -8.66699 6 -18.5 8 -29.5s3 -22.5 3 -34.5c0 -5.33301 -0.166992 -11.333 -0.5 -18s-1.83301 -16 -4.5 -28s-7.33398 -25.167 -14.001 -39.5s-15.334 -26.833 -26.001 -37.5c-8 -8.66699 -18.333 -17.334 -31 -26.001c-12.667 -6.66699 -25.167 -11.5 -37.5 -14.5
s-21.666 -4.66699 -27.999 -5s-11.5 -0.5 -15.5 -0.5c-26 0 -49.167 4.33301 -69.5 13s-38.833 22.334 -55.5 41.001s-29 43.667 -37 75c-3.33301 14 -6 30.667 -8 50s-3 40 -3 62c0 50 4.16699 92.167 12.5 126.5s21.833 62.833 40.5 85.5
c14.667 18.667 32.834 32.834 54.501 42.501s45.5 14.5 71.5 14.5c12.667 0 22 -0.333008 28 -1s15.667 -3.33398 29 -8.00098s26 -12.167 38 -22.5s22.667 -23.833 32 -40.5c7.33301 -14 12.666 -31.333 15.999 -52zM98 144.004l2 -14.002l4 -15l7 -15l15 -24l21 -19
l25 -12l27 -4c13.333 0 25.666 2.5 36.999 7.5s21.5 12.667 30.5 23s15.833 22.5 20.5 36.5c2 7.33301 3.66699 14.833 5 22.5s2 16.834 2 27.501c0 16.667 -2.33301 31.667 -7 45c-4 14.667 -10.667 26.834 -20 36.501s-20.166 17.167 -32.499 22.5s-24.833 8 -37.5 8
c-15.333 0 -28.333 -2.66699 -39 -8c-10.667 -4 -21 -11 -31 -21s-17.667 -22.333 -23 -37c-2 -6.66699 -3.66699 -13.5 -5 -20.5s-2 -14.5 -2 -22.5z" />
    <glyph glyph-name="seven" unicode="7" horiz-adv-x="389" 
d="M33 495h325v-48l-24 -28l-23 -31l-24 -36l-24 -42l-24 -44l-19 -42l-8 -21l-8 -20l-7 -21l-6 -21l-11 -39l-7 -35l-5 -34l-1 -33h-64c0 8.66699 0.333008 18.334 1 29.001s2 21.5 4 32.5l7 38c2.66699 14.333 6 28.166 10 41.499c7.33301 27.333 16.333 54.333 27 81
c6.66699 17.333 12.5 31.333 17.5 42s11.833 23.667 20.5 39l21 37l21 34l22 32l25 28l-246 1v60z" />
    <glyph glyph-name="eight" unicode="8" horiz-adv-x="389" 
d="M91 287c-10 6.66699 -18.001 14.499 -24.001 23.499s-11 18.833 -15 29.5l-4 33c0 11.333 0.666992 20 2 26l7 23l12 22l18 21c13.333 12 29 21.167 47 27.5s37.333 9.5 58 9.5c22.667 0 43 -3.16699 61 -9.5s33.333 -15.833 46 -28.5c12 -10.667 21.5 -24.5 28.5 -41.5
s10.5 -34.167 10.5 -51.5c0 -12 -1.66699 -22.667 -5 -32c-2 -10 -6.33301 -19.667 -13 -29c-2.66699 -3.33301 -5.83398 -6.83301 -9.50098 -10.5s-9.16699 -8.16699 -16.5 -13.5s-17.333 -10.333 -30 -15c16 -4 29.333 -10.667 40 -20c12.667 -8 23 -17.667 31 -29
c6 -9.33301 11.333 -21.166 16 -35.499s7 -29.166 7 -44.499c0 -12.667 -0.666992 -23.334 -2 -32.001s-4.33301 -18.334 -9 -29.001c-7.33301 -18.667 -18.666 -34.667 -33.999 -48c-13.333 -13.333 -30.833 -23.5 -52.5 -30.5s-44.167 -10.5 -67.5 -10.5
c-24.667 0 -46.834 3.16699 -66.501 9.5s-36.667 16.833 -51 31.5s-26.166 31.334 -35.499 50.001c-7.33301 18.667 -11 39 -11 61l1 24c0 8 1.33301 15 4 21l3 9l5 10l5 9l6 9c7.33301 9.33301 16.833 17.833 28.5 25.5s25.834 14.167 42.501 19.5
c-4.66699 1.33301 -9 3 -13 5s-10.667 5.66699 -20 11zM115.999 341.999c4 -8.66699 9.8291 -17.165 17.4961 -25.498s15.834 -13.833 24.501 -16.5s14.667 -4.33398 18 -5.00098s9.33301 -1 18 -1c12.667 0 23.334 1.66699 32.001 5s17.334 9.33301 26.001 18
c5.33301 5.33301 11 13.333 17 24c4 9.33301 6 19.333 6 30s-1.83301 20.5 -5.5 29.5s-9.83398 18.167 -18.501 27.5c-4 3.33301 -7.66699 6 -11 8s-9.16602 5 -17.499 9s-18.166 6 -29.499 6c-12 0 -23 -2 -33 -6s-18.833 -9.66699 -26.5 -17s-13 -14.833 -16 -22.5
s-5.16699 -17.834 -6.5 -30.501c0 -12.667 1.66699 -23.667 5 -33zM94.9951 118.001l8.99707 -24.999l15 -23l21 -16l25 -10l29 -3c15.333 0 28.833 2.16699 40.5 6.5s22.334 11.5 32.001 21.5s16.834 21.5 21.501 34.5s7 25.833 7 38.5c0 15.333 -2.66699 28.666 -8 39.999
c-4 12.667 -11.167 23.667 -21.5 33s-21.833 16.5 -34.5 21.5s-25.667 7.5 -39 7.5c-15.333 0 -28.666 -2.66699 -39.999 -8c-10.667 -3.33301 -21 -10 -31 -20s-17.333 -21.5 -22 -34.5s-7 -25.5 -7 -37.5z" />
    <glyph glyph-name="nine" unicode="9" horiz-adv-x="389" 
d="M97 121c2 -14.667 5.66309 -27.3311 10.9961 -37.998c4 -10.667 9.16699 -18.5 15.5 -23.5s14.833 -9.83301 25.5 -14.5l32 -4l27 3c8.66699 2 16.334 5.66699 23.001 11l19 15c6 5.33301 11 11.333 15 18l6 11l6 14l5 15l6 19l7 37l2 38v14
c-6 -10 -13.167 -19.167 -21.5 -27.5s-17.833 -15.333 -28.5 -21s-22 -10.5 -34 -14.5l-36 -4c-21.333 0 -40.333 3.66699 -57 11s-32.667 18.333 -48 33c-14.667 15.333 -25.667 33 -33 53c-6.66699 22 -10 44.333 -10 67c0 14 0.666992 25.833 2 35.5s4.33301 20.5 9 32.5
c8 20.667 19.167 38.334 33.5 53.001s31 26.334 50 35.001s40.167 13 63.5 13c10.667 0 18.667 -0.666992 24 -2c8.66699 0 16 -1.33301 22 -4c9.33301 -2.66699 16.333 -5.33398 21 -8.00098l22 -12c12.667 -8 24.334 -18.667 35.001 -32
c8.66699 -10.667 17.334 -25 26.001 -43c6.66699 -15.333 11.834 -35.333 15.501 -60s5.5 -51.667 5.5 -81v-12c0 -12.667 -0.333008 -25.334 -1 -38.001s-1.83398 -24.834 -3.50098 -36.501s-3.83398 -23 -6.50098 -34s-6 -21.833 -10 -32.5
c-6 -18.667 -14.667 -35.334 -26 -50.001c-10 -14.667 -21.833 -27 -35.5 -37s-28.5 -17 -44.5 -21c-8.66699 -2 -17 -3.66699 -25 -5s-17 -2 -27 -2c-13.333 0 -23.166 0.333008 -29.499 1s-14.5 3 -24.5 7c-16.667 4 -30.667 11.667 -42 23
c-11.333 9.33301 -20.666 21.5 -27.999 36.5s-13 33.5 -17 55.5zM282.996 383.003c-4 13.333 -10.332 25.1689 -18.999 35.502s-19.334 18.333 -32.001 24s-25.334 8.5 -38.001 8.5c-9.33301 0 -15.833 -0.333008 -19.5 -1s-10.667 -3.16699 -21 -7.5
s-20.333 -12.166 -30 -23.499s-17.834 -25 -24.501 -41c-2 -6.66699 -3.66699 -14 -5 -22s-2 -16.333 -2 -25c0 -16 2.16699 -30.333 6.5 -43s11.333 -24 21 -34s20.834 -18 33.501 -24c14 -4.66699 27 -7 39 -7c14.667 0 27.834 2.16699 39.501 6.5s22 11.666 31 21.999
s15.833 23.166 20.5 38.499s7 30.666 7 45.999c0 17.333 -2.33301 33 -7 47z" />
    <glyph glyph-name="colon" unicode=":" horiz-adv-x="637" 
d="M299 475l0.000976562 -124.997h121l28 11l28 4c16.667 0 32.667 -4 48 -12s29 -19.833 41 -35.5s21.5 -33.334 28.5 -53.001s10.5 -38.5 10.5 -56.5c0 -29.333 -3.16699 -56.333 -9.5 -81s-15.833 -49.334 -28.5 -74.001l-8 -14l-11 -15l-43 27l17 24l12 21
c10 18.667 17.333 37.334 22 56.001c2.66699 9.33301 4.66699 18.166 6 26.499s2 17.5 2 27.5c0 16.667 -2.16699 30.834 -6.5 42.501s-10.5 22.834 -18.5 33.501s-17.333 18.5 -28 23.5s-22.334 7.5 -35.001 7.5c-11.333 0 -20.333 -1.66699 -27 -5
c-7.33301 -2 -13.833 -5.83301 -19.5 -11.5s-9.83398 -12.167 -12.501 -19.5l-4 -24c0 -12 1.83301 -22.5 5.5 -31.5s9.16699 -17.167 16.5 -24.5l9 -8l14 -8l-27 -40c-9.33301 4 -17.5 9.33301 -24.5 16s-13.5 15.667 -19.5 27s-10.333 22.333 -13 33l-4 35l3 28l9 26
l-92 1l-2 -8l-2 -5c-4 -10 -10.167 -18 -18.5 -24s-19.833 -11.667 -34.5 -17l-11 -2l-15 -1h-8h-7l-5 -1h-4l6 -12l19 -28l24 -36l23 -30l27 -34l37 -42l24 -27l15 -16l-43 -28l-26 27l-35 42l-46 57l-43 61l-49 72l-35 59l-10 19l-9 20l43 22l37 -64
c7.33301 -8.66699 14.333 -14.334 21 -17.001s16.334 -4.66699 29.001 -6c8.66699 0 16 1.16699 22 3.5s11.667 6.16602 17 11.499s9.33301 11.666 12 18.999l4 27v126h-246v41h635v-41h-336z" />
    <glyph glyph-name="semicolon" unicode=";" horiz-adv-x="504" 
d="M434 475l0.000976562 -474.997h-53v154c-17.333 -14.667 -36.333 -25.834 -57 -33.501s-42.334 -11.5 -65.001 -11.5c-26 0 -50.167 4 -72.5 12s-42.166 20.333 -59.499 37c-20 17.333 -34.833 37.333 -44.5 60s-14.5 48 -14.5 76l8 -3l9 -3
c4.66699 -0.666992 7.66699 -1.33398 9 -2.00098h10c13.333 0 24.666 1.5 33.999 4.5s18.333 8.16699 27 15.5s15.167 16.833 19.5 28.5s6.5 24.167 6.5 37.5c0 10.667 -2.16699 21.667 -6.5 33s-10.5 23.666 -18.5 36.999l-11 14l-14 18l-141 1v41h506v-41h-72z
M381.001 475.003l-176 0.00195312l12 -20l8 -15l16 -39l5 -31c0 -22.667 -4.66699 -42.334 -14 -59.001s-24 -31 -44 -43l-25 -10l-34 -9l3 -10l4 -8l3 -8l3 -6c13.333 -24.667 29 -42.834 47 -54.501s39 -17.5 63 -17.5c13.333 0 26.5 2 39.5 6s24.667 9.5 35 16.5
s17 11.833 20 14.5s7.16699 7 12.5 13l22 31v249z" />
    <glyph glyph-name="less" unicode="&#x3c;" horiz-adv-x="492" 
d="M385 475l-0.000976562 -151h-180c-8.66699 0 -15 -0.5 -19 -1.5s-10 -3.33301 -18 -7s-16.333 -9.5 -25 -17.5s-15.167 -17.333 -19.5 -28s-6.5 -23 -6.5 -37c0 -31.333 7 -60 21 -86c14 -24 35 -44 63 -60l35 -16l49 -13l-7 7l-5 6
c-4.66699 6 -7.83398 10.667 -9.50098 14l-10.5 22c-4.66699 15.333 -7 29.333 -7 42c0 15.333 2 28.333 6 39s11 20.334 21 29.001s20.833 15 32.5 19s24.167 6 37.5 6c14.667 0 27.834 -2.16699 39.501 -6.5s22.5 -10.5 32.5 -18.5s18 -18.667 24 -32
c2.66699 -5.33301 4.66699 -11.166 6 -17.499s2 -13.833 2 -22.5c0 -20 -4 -37.667 -12 -53s-19.5 -28.5 -34.5 -39.5s-31.5 -19.5 -49.5 -25.5c-9.33301 -2 -18.333 -3.66699 -27 -5s-18.334 -2 -29.001 -2c-29.333 0 -56.666 4.66699 -81.999 14
s-49.833 24.166 -73.5 44.499s-42.834 43.5 -57.501 69.5c-12 25.333 -18 53 -18 83c0 18.667 3 35.667 9 51s15.333 29.166 28 41.499s26.834 21.5 42.501 27.5s32.834 9 51.501 9l137 1v114h-332v41h512v-41h-127zM323.999 199c-6 -2 -11.999 -6.00195 -17.999 -12.002
l-11 -19l-4 -23c0 -15.333 1.83301 -28.166 5.5 -38.499s9.16699 -19.5 16.5 -27.5l9 -8l14 -8c8.66699 0 16.5 2 23.5 6s13.333 10.333 19 19s9.66699 16.834 12 24.501s4.16602 18.5 5.49902 32.5l-3 23l-9 19c-4 5.33301 -9.16699 9.5 -15.5 12.5s-12.833 4.5 -19.5 4.5
c-10 0 -18.333 -1.66699 -25 -5z" />
    <glyph glyph-name="equal" unicode="=" horiz-adv-x="524" 
d="M463 475l0.000976562 -474.999l-52 1v186l-239 -142l-31 45l248 129l-33 32l-24 23c-19.333 18.667 -36.5 32.834 -51.5 42.501s-25.5 14.5 -31.5 14.5c-5.33301 0 -11 -0.333008 -17 -1s-14.833 -2.83398 -26.5 -6.50098s-29.167 -11.5 -52.5 -23.5l-29 -15l-38 -20
l-31 40c3.33301 1.33301 6 2.66602 8 3.99902c12.667 7.33301 20.334 11.666 23.001 12.999l87 36l50 18c14 4 24.333 6 31 6c9.33301 0 21.166 -4.66699 35.499 -14s31.166 -23.666 50.499 -42.999l28 -29l43 -46v225h-413v41h537v-41h-72z" />
    <glyph glyph-name="greater" unicode="&#x3e;" horiz-adv-x="588" 
d="M518 475l-0.00390625 -475.001h-53v207h-107l-1 -29c0 -17.333 -3.16699 -33 -9.5 -47s-16.166 -26.667 -29.499 -38c-16 -14 -31.833 -24.667 -47.5 -32s-30.167 -11 -43.5 -11l46 -29l53 -23l-31 -39l-63 39l-15 9l-18 13l-16 13l-9 9l-24 1h-34
c-8 0.666992 -16.333 2.83398 -25 6.50098s-15.667 9.16699 -21 16.5c-3.33301 6 -5.66602 15 -6.99902 27l3 15l9 15l13 9l16 4c6.66699 0 11.667 -0.666992 15 -2c4.66699 0 9.66699 -1.66699 15 -5l14 -8l15 -11l10 -11l13 -16l34 7c11.333 2 19.666 4.66699 24.999 8
c20.667 9.33301 35.834 21 45.501 35s14.5 31.333 14.5 52c0 7.33301 -0.666992 12.333 -2 15l-6 10l-9 6l-12 2l-17 -2l-23 -6l-23 -6l-14 -2l-22 3c-7.33301 2 -14.666 5.16699 -21.999 9.5s-15 9.83301 -23 16.5l-22 23c-14 17.333 -25 33.333 -33 48
c-7.33301 16 -11 29.667 -11 41c0 9.33301 1.83301 17 5.5 23s8.83398 11 15.501 15l14 5l18 2l149 1v86h-268v41h600v-41h-82zM464.996 474.999h-144.999v-127h-191l-7 -5l-2 -5l1 -10l5 -11l10 -17l18 -22l12 -13l13 -8l13 -4l17 -1l16 1c8 0 17 1.33301 27 4l26 4l17 2
c8 0 15.333 -1.66699 22 -5c7.33301 -2 15.666 -6 24.999 -12l4 -4l7 -5l112 1v237z" />
    <glyph glyph-name="question" unicode="?" horiz-adv-x="324" 
d="M384 144l-24.999 -13.0039c-22 -10 -43 -17.833 -63 -23.5s-38 -8.5 -54 -8.5c-6.66699 0 -13.834 0.166992 -21.501 0.5s-17.5 2.83301 -29.5 7.5c-15.333 4.66699 -30.333 12.334 -45 23.001s-26 23 -34 37c-6.66699 14.667 -10 29.667 -10 45
c0 12 2.16699 23.667 6.5 35s11.5 22.666 21.5 33.999l11 11l17 14l-24 10l-16 10c-13.333 9.33301 -23.333 20.333 -30 33s-10 26 -10 40l2 20l7 23l10 20l10 12l-107 1v41h326v-41h-156l-12 -11l-8 -8l-16 -26c-2 -5.33301 -3.66699 -14.333 -5 -27c0 -10 2 -19 6 -27
s10.667 -15.667 20 -23c4.66699 -4 8.5 -6.83301 11.5 -8.5s6.5 -3.5 10.5 -5.5l24 -4l86 1l18 -37h-55c-10 0 -20.667 -2.33301 -32 -7c-10.667 -3.33301 -21 -8.66602 -31 -15.999s-18 -16.666 -24 -27.999s-9 -23.333 -9 -36c0 -11.333 2.16699 -21.166 6.5 -29.499
s11.333 -15.833 21 -22.5s20.167 -12 31.5 -16l37 -4c16 0 33 3 51 9c10 3.33301 19 6.83301 27 10.5s18.667 9.16699 32 16.5l40 25c8.66699 6.66699 14 12.334 16 17.001v-54z" />
    <glyph glyph-name="at" unicode="@" horiz-adv-x="781" 
d="M153 -145l-27 34l500 720l35 -25z" />
    <glyph glyph-name="A" unicode="A" horiz-adv-x="396" 
d="M291 -53v584h53v-584h-53z" />
    <glyph glyph-name="B" unicode="B" horiz-adv-x="492" 
d="M387 475l-0.00195312 -149.006h-188c-13.333 0 -24.333 -2.66699 -33 -8c-8.66699 -4 -16.5 -10.167 -23.5 -18.5s-13.167 -19.166 -18.5 -32.499c-3.33301 -11.333 -5 -23.333 -5 -36c0 -21.333 4 -41.5 12 -60.5s20.667 -36.5 38 -52.5
c14 -13.333 30 -24.666 48 -33.999c18 -7.33301 36 -11 54 -11s34.167 2.5 48.5 7.5s27.5 12.5 39.5 22.5s21.167 21.833 27.5 35.5s9.5 27.834 9.5 42.501c0 12 -1.66699 22.833 -5 32.5s-8.66602 19.834 -15.999 30.501l-9 10l-12 13l35 34c4.66699 0 10.667 -4 18 -12
l22 -32c5.33301 -10 9.33301 -20.667 12 -32s4.33398 -19 5.00098 -23s1 -11 1 -21c0 -22.667 -4.16699 -42.5 -12.5 -59.5s-20.5 -32.333 -36.5 -46s-35.167 -24 -57.5 -31s-45.5 -10.5 -69.5 -10.5c-27.333 0 -53 4.83301 -77 14.5s-45.833 23.834 -65.5 42.501
s-35.5 40.334 -47.5 65.001c-10 23.333 -15 49 -15 77c0 21.333 3.16699 40 9.5 56s16.5 30.167 30.5 42.5s29.167 21.5 45.5 27.5s34.833 9 55.5 9l129 1v106h-336v41h494v-41h-107z" />
    <glyph glyph-name="C" unicode="C" horiz-adv-x="230" 
d="M0 475v41h250v-41h-250zM297 130l-26.001 -12.999c-8 -4 -17.333 -7 -28 -9l-29 -2c-19.333 0 -37.833 3 -55.5 9s-33.5 15.667 -47.5 29c-16 13.333 -28 28.666 -36 45.999c-7.33301 18.667 -11 38.334 -11 59.001c0 19.333 3.5 37.166 10.5 53.499s17.5 31.5 31.5 45.5
s29.333 24.5 46 31.5s34.334 10.5 53.001 10.5l23 -2c8.66699 0 17 -1.33301 25 -4l5 -2l8 -2l7 -44c-3.33301 4 -9.66602 7.33301 -18.999 10l-26 4c-10 0 -17.667 -0.666992 -23 -2l-22 -6c-6.66699 -2 -13.334 -5.33301 -20.001 -10
c-6.66699 -3.33301 -11.667 -7 -15 -11l166 -114l6 14v-69c-6 -8 -13.667 -15.333 -23 -22zM126.999 297.001l-4 -10.001l-2 -7l-5 -18l-1 -13c0 -14.667 2.16699 -28.167 6.5 -40.5s11.833 -23.166 22.5 -32.499c9.33301 -10.667 20 -18.667 32 -24
c14 -4.66699 27 -7 39 -7h16c5.33301 2 9 3.33301 11 4c8 2.66699 13 4.5 15 5.5s6 3.83301 12 8.5l10 7l12 11z" />
    <glyph glyph-name="D" unicode="D" horiz-adv-x="420" 
d="M489 335l-9.00391 0.99707l-17 -2l-26 -6c-10 -2 -19.667 -6.66699 -29 -14s-18.166 -17.166 -26.499 -29.499s-14.5 -24.333 -18.5 -36s-6 -23.167 -6 -34.5v-214h-52v148c-11.333 -11.333 -25.166 -20.333 -41.499 -27s-33.5 -10 -51.5 -10c-17.333 0 -34.5 3 -51.5 9
s-32.5 15.333 -46.5 28s-25.667 27.667 -35 45c-7.33301 16.667 -11 35.334 -11 56.001c0 18.667 3.33301 35.667 10 51s17.334 30 32.001 44s30 24.333 46 31c7.33301 2.66699 15.5 5 24.5 7s18.167 3 27.5 3l27 -3l25 -8v-42l-23 8l-22 3c-12.667 0 -24 -2.16699 -34 -6.5
s-19.167 -10.666 -27.5 -18.999s-15.5 -18.5 -21.5 -30.5c-4 -10 -7 -22 -9 -36c0 -12 2 -24.5 6 -37.5s10.167 -24.333 18.5 -34s17.833 -17.5 28.5 -23.5c12 -4.66699 23.667 -7 35 -7c12 0 22.5 1.83301 31.5 5.5s18.167 9.5 27.5 17.5l13.5 13.5
c5 5 9.16699 9.83301 12.5 14.5c6 9.33301 9 18 9 26v249h-305v41h422v-41h-65v-151l24 20l22 16l14 7l14 6l13 3l14 1c6.66699 0 12.834 -0.666992 18.501 -2s10.167 -3 13.5 -5l5 -36z" />
    <glyph glyph-name="E" unicode="E" horiz-adv-x="275" 
d="M178 254l-0.00195312 -72.001v-4l-1 -7v-4c-2 -3.33301 -3.66699 -5.66602 -5 -6.99902l-16 -2c-6.66699 0 -14.667 3.66699 -24 11l-34 36l-29 39c-5.33301 10 -8.66602 19 -9.99902 27l3 11c2.66699 3.33301 6.33398 6.33301 11.001 9l5 2l10 3l39 1v178h-127v41h283
v-41h-105v-178h176v-43h-176z" />
    <glyph glyph-name="F" unicode="F" horiz-adv-x="336" 
d="M394 163l-23.001 -16.999l-33 -19l-32 -13l-33 -9l-33 -2c-33.333 0 -64.5 7.16699 -93.5 21.5s-55.167 35.833 -78.5 64.5c-8.66699 10 -16.667 21.667 -24 35l-26 52c10 -4.66699 22.667 -9.33398 38 -14.001l44 -4c19.333 0 36.666 2.16699 51.999 6.5
s30 11.333 44 21s24.833 22.334 32.5 38.001s11.5 32.5 11.5 50.5c0 13.333 -2.16699 25.666 -6.5 36.999s-11.166 22 -20.499 32c-7.33301 9.33301 -17.166 16.666 -29.499 21.999s-24.833 8 -37.5 8c-10.667 0 -19.334 -1.16699 -26.001 -3.5s-13.167 -6 -19.5 -11
s-11.166 -11.5 -14.499 -19.5l-4 -22c0 -10.667 2.33301 -19.334 7 -26.001s13 -12.667 25 -18l13 -4l19 -3v-42h-13c-4.66699 0 -11.334 0.5 -20.001 1.5s-16.667 3.16699 -24 6.5c-18 6.66699 -32.667 17.667 -44 33c-9.33301 14.667 -14 32.667 -14 54
c0 12.667 3 24.834 9 36.501s14.667 21.834 26 30.501s24.333 15.667 39 21c7.33301 2 14 3.66699 20 5s13 2 21 2c20.667 0 39.334 -3.66699 56.001 -11c16 -5.33301 31.333 -15 46 -29s25.5 -29.5 32.5 -46.5s10.5 -34.833 10.5 -53.5c0 -24.667 -4 -45.667 -12 -63
s-20.333 -33.333 -37 -48c-14.667 -11.333 -34.334 -21 -59.001 -29c-24.667 -6.66699 -50.667 -10 -78 -10l-11 1c4 -10 11 -20 21 -30l35 -26c12.667 -7.33301 26.334 -13.333 41.001 -18s29.667 -7 45 -7c24.667 0 48.667 5 72 15s45.333 25.333 66 46l23 25l25 37v-78z
" />
    <glyph glyph-name="G" unicode="G" horiz-adv-x="588" 
d="M457 475l0.00390625 -104.002l16 -9l13 -7c21.333 -14 37.333 -33 48 -57c11.333 -22.667 17 -49.334 17 -80.001c0 -14.667 -0.333008 -25.167 -1 -31.5s-3.33398 -17.166 -8.00098 -32.499s-12.334 -30.166 -23.001 -44.499s-24.334 -26.833 -41.001 -37.5
c-16 -8 -34.667 -12 -56 -12c-16 0 -29.5 1.83301 -40.5 5.5s-21.667 9.16699 -32 16.5s-20.166 16.666 -29.499 27.999c-6 8.66699 -11.667 20.334 -17 35.001c-2 -6.66699 -4.33301 -13 -7 -19s-6 -12 -10 -18c-6 -10 -14.333 -19.333 -25 -28
s-22.334 -15.167 -35.001 -19.5s-26 -6.5 -40 -6.5c-20 0 -38 4 -54 12s-29.5 19.5 -40.5 34.5s-19.5 31.5 -25.5 49.5c-5.33301 19.333 -8 39 -8 59c0 14.667 0.333008 25.167 1 31.5s3 15.5 7 27.5c6.66699 19.333 15.5 37 26.5 53s24.5 27.833 40.5 35.5
s34.667 11.5 56 11.5c14.667 0 27.667 -1.66699 39 -5s21.666 -8.66602 30.999 -15.999c10.667 -6 19.667 -14 27 -24s13.666 -21.667 18.999 -35l19 30l11 16c4 4 7 6.66699 9 8c8 8 17.333 14.167 28 18.5s21.334 7.5 32.001 9.5v105h-404v41h586v-41h-129z
M490.004 258.998c-2 14 -5.66699 25.333 -11 34c-6 12 -14.167 21 -24.5 27s-22.5 9 -36.5 9s-26.667 -4.66699 -38 -14c-10.667 -7.33301 -21 -20.333 -31 -39c-4 -7.33301 -7 -13.166 -9 -17.499s-4.66699 -10.833 -8 -19.5l-2 -23v-14l6 -24
c7.33301 -26 18.333 -46 33 -60c14.667 -12.667 33 -19 55 -19c12.667 0 23.667 3 33 9s17.333 15.667 24 29c4 9.33301 7 20.666 9 33.999l4 45v28c-2 7.33301 -3.33301 12.333 -4 15zM274.004 247.998c-2 8 -5 15.666 -9 22.999c-9.33301 18.667 -20.5 32.667 -33.5 42
s-27.5 14 -43.5 14c-12.667 0 -23.334 -2.66699 -32.001 -8s-16.167 -13 -22.5 -23s-12.166 -22.667 -17.499 -38c-2.66699 -12 -4.16699 -21.333 -4.5 -28s-0.5 -12 -0.5 -16v-31c2 -8.66699 3.33301 -14.667 4 -18c3.33301 -14.667 8 -27.167 14 -37.5
s14.167 -18.333 24.5 -24s21.833 -8.5 34.5 -8.5c15.333 0 29.5 4.83301 42.5 14.5s24.5 24.834 34.5 45.501l9 25l9 36z" />
    <glyph glyph-name="H" unicode="H" horiz-adv-x="275" 
d="M246 475v41h39v-41h-39zM201 250l-0.000976562 -79.999v-11l-1 -6l-8 -7l-10 -2c-6.66699 0 -15.5 4.16699 -26.5 12.5s-25.5 21.833 -43.5 40.5l-38 45c-7.33301 11.333 -11.666 20.333 -12.999 27l3 8l8 8l9 5l7 2l60 1v140c0 6.66699 -1.16699 12.5 -3.5 17.5
s-5.66602 9.66699 -9.99902 14s-9 7.5 -14 9.5s-10.833 3 -17.5 3c-6 0 -12.667 -1.33301 -20 -4l-17 -9l-11 -16l-4 -21l1 -14l5 -15l2 -7l5 -9l-50 1l-4 7l-1 6l-4 14l-1 13c0 15.333 2.16699 28.5 6.5 39.5s11.666 20.667 21.999 29s21.5 14.5 33.5 18.5s25 6 39 6
c12.667 0 25 -2 37 -6s22.5 -9.66699 31.5 -17s15.833 -16.833 20.5 -28.5s7 -23.834 7 -36.501v-135h164v-43h-164z" />
    <glyph glyph-name="I" unicode="I" horiz-adv-x="215" 
d="M292 205l-24.999 -13.999l-14 -5l-12 -3l-14 -3h-13c-18 0 -35 3 -51 9s-30.667 15.667 -44 29c-14 12 -24.333 26.667 -31 44s-10 35.666 -10 54.999v158h-78v41h221v-41h-92v-166c0 -14.667 2.5 -27.667 7.5 -39s12 -21.333 21 -30s18.5 -15 28.5 -19
c6.66699 -2 16.334 -3.66699 29.001 -5c11.333 0 22.666 2.5 33.999 7.5s22.333 12.833 33 23.5c5.33301 5.33301 10 10.5 14 15.5s7.66699 10.5 11 16.5s5.66602 13.667 6.99902 23v-77z" />
    <glyph glyph-name="J" unicode="J" horiz-adv-x="576" 
d="M506 475l0.00195312 -474.999h-55v248l-256 -197l-31 43l186 133l-71 37l-21 8l-23 12l-10 5l-14 9l-72 -50l-80 -53l-34 39l79 47c6.66699 2 13 5.66699 19 11l22 14l10 7l13 10l-21 12l-13 11c-10 9.33301 -18.667 20.666 -26 33.999
c-5.33301 12.667 -8 26.334 -8 41.001s2.33301 27.5 7 38.5s12.167 20.667 22.5 29s22 14.666 35 18.999s25.833 6.5 38.5 6.5c14.667 0 27.667 -2.16699 39 -6.5s22.166 -10.333 32.499 -18s18.333 -17.5 24 -29.5s8.5 -25 8.5 -39c0 -8.66699 -0.5 -15 -1.5 -19
s-3.33301 -10 -7 -18s-10.834 -18 -21.501 -30l-13 -11l-17 -14l41 -24l31 -17l37 -20l32 -13l63 46v174h-107v41h234v-41h-72zM249.002 440.001c-2 6.66699 -6.00098 13 -12.001 19l-19 12l-21 4c-6.66699 0 -12.834 -1.16699 -18.501 -3.5s-11.5 -5.83301 -17.5 -10.5
l-11 -17l-4 -23c0 -10 2 -19 6 -27s11.333 -16.333 22 -25l18 -12l13 -4l14 7c4 2 7.33301 4.66699 10 8c8.66699 7.33301 14.834 14.833 18.501 22.5s5.83398 16.5 6.50098 26.5c0 9.33301 -1.66699 17 -5 23z" />
    <glyph glyph-name="K" unicode="K" horiz-adv-x="588" 
d="M518 475l0.000976562 -475.001h-53v350h-319c-4 0 -7.33301 -1.16699 -10 -3.5s-4 -5.5 -4 -9.5l2 -13l7 -14l10 -17l7 -9l15 -18l13 -12l17 -10l20 -3l20 2l27 9l26 8l22 3c9.33301 0 17.666 -1.83301 24.999 -5.5s14.333 -9.83398 21 -18.501
c5.33301 -8.66699 9.16602 -16.667 11.499 -24s4.16602 -18 5.49902 -32c0 -18.667 -3.66699 -35 -11 -49c-6 -14 -16.333 -27.333 -31 -40c-10 -8 -18.167 -14.167 -24.5 -18.5s-15.166 -9.83301 -26.499 -16.5c-16.667 -7.33301 -32 -11 -46 -11l100 -75l-41 -32l-102 98
h-33h-12c-4 0 -10.5 0.833008 -19.5 2.5s-18 4.83398 -27 9.50098s-16.5 11 -22.5 19c-3.33301 6.66699 -5.66602 15 -6.99902 25l3 14l9 13l13 9l16 3c6 0 13.333 -2.33301 22 -7l28 -18l19 -18l7 -10l40 9l28 9c22.667 10 39.834 22.167 51.501 36.5
s17.5 30.166 17.5 47.499l-3 13c-0.666992 4 -3 7.33301 -7 10l-10 6l-13 2l-17 -2l-24 -6l-24 -6l-15 -2c-16.667 0 -32.5 4 -47.5 12s-30.833 21.333 -47.5 40c-14 16 -25.667 32.667 -35 50c-7.33301 16.667 -11 32.334 -11 47.001c0 7.33301 1.16699 13.333 3.5 18
s6.16602 9.33398 11.499 14.001l17 8l21 3l334 1v84h-465v41h590v-41h-72z" />
    <glyph glyph-name="L" unicode="L" horiz-adv-x="371" 
d="M324 260l-35 41h176v-41h-141zM277 475l0.00195312 -131.001v-13v-13v-10c-1.33301 -4.66699 -2 -8 -2 -10l-6 -22c-3.33301 -9.33301 -10.333 -18 -21 -26c-7.33301 -5.33301 -18.333 -9.66602 -33 -12.999c-5.33301 0 -9.33301 -0.666992 -12 -2l-10 -1l-11 1
c-4 0 -8.66699 1.33301 -14 4l62 -94l27 -35l33 -38l15 -17l21 -21l-41 -34c-8 3.33301 -24 20.333 -48 51l-92 132l-30 45l-28 46l-18 31l-18 32l43 28l29 -56c5.33301 -12.667 13.166 -21.667 23.499 -27s22.166 -8 35.499 -8l22 3c6 2 10.333 5.33301 13 10l7 15l2 21
l-1 15v11v126h-235v41h395v-41h-108z" />
    <glyph glyph-name="M" unicode="M" horiz-adv-x="527" 
d="M451 475l-0.00292969 -130.997h-213l-6 -8l-1 -7l1 -11c1.33301 -5.33301 3 -9.33301 5 -12l8 -16l15 -21l15 -18l15 -12l15 -9l15 -2h6l4 1l49 14l20 6l25 6l17 2c8 0 15.167 -2.16699 21.5 -6.5s12.5 -11.166 18.5 -20.499l8 -25l3 -28
c0 -14 -0.666992 -25.833 -2 -35.5s-4.33301 -20.5 -9 -32.5c-6.66699 -18.667 -17 -35 -31 -49s-31 -25 -51 -33c-20 -6.66699 -40.333 -10 -61 -10c-24.667 0 -49 4.83301 -73 14.5s-48.333 24.167 -73 43.5c-16 12.667 -34.333 28.667 -55 48
c-16.667 18 -33.667 38 -51 60l-31 42l-10 20l39 38c0.666992 -2.66699 1.16699 -4.83398 1.5 -6.50098s3 -6.83398 8 -15.501s8.5 -14.5 10.5 -17.5s7.66699 -10.5 17 -22.5c9.33301 -14 17 -24.833 23 -32.5s14 -16.834 24 -27.501l49 -47
c22 -18 43.167 -31.833 63.5 -41.5s39.5 -14.5 57.5 -14.5c16.667 0 30.834 2.66699 42.501 8s22.334 13.166 32.001 23.499s16.834 23.333 21.501 39s7 31.167 7 46.5c0 11.333 -2.16699 19.666 -6.5 24.999s-10.833 8 -19.5 8c-5.33301 0 -13 -1.66699 -23 -5
c-7.33301 -1.33301 -12.833 -2.5 -16.5 -3.5s-11.167 -4.16699 -22.5 -9.5l-21 -7l-14 -2c-16 0 -32.167 5 -48.5 15s-32.166 25.333 -47.499 46c-16.667 20.667 -28.834 39.334 -36.501 56.001s-11.5 31.667 -11.5 45l3 19c2 6 5.66699 10.333 11 13l17 7l22 2l173 1v90
h-400v41h535v-41h-84z" />
    <glyph glyph-name="N" unicode="N" horiz-adv-x="588" 
d="M463 475l0.00195312 -86l20 -11l21 -9c12 -9.33301 21.5 -21.5 28.5 -36.5s10.5 -31.167 10.5 -48.5c0 -19.333 -1.66699 -36.666 -5 -51.999s-9.33301 -31.666 -18 -48.999c-14.667 -29.333 -38 -57 -70 -83c-26.667 -22 -56.667 -39.167 -90 -51.5
s-67.333 -18.5 -102 -18.5c-24 0 -44.833 3.16699 -62.5 9.5s-33.834 16.166 -48.501 29.499s-25.334 29.166 -32.001 47.499s-10 37.166 -10 56.499c0 22.667 4.16699 42.834 12.5 60.501s21.833 34.5 40.5 50.5l-15 6l-12 6l-11 5l-8 6c-14 10.667 -25.667 23 -35 37
c-7.33301 13.333 -11 28 -11 44c0 12 0.666992 21 2 27l9 25l13 19c4 6 9 11 15 15l-105 1v41h590v-41h-127zM491.002 307c-1.33301 7.33301 -3.66895 13.8301 -7.00195 19.4971s-9.16602 10.834 -17.499 15.501s-17.5 7 -27.5 7c-9.33301 0 -17 -1.5 -23 -4.5
s-12 -8.5 -18 -16.5l-10 -22l-3 -26c0 -9.33301 0.333008 -16.666 1 -21.999s2.83398 -14 6.50098 -26s10.5 -25.667 20.5 -41l11 -16l17 -18l6 5l12 15c4.66699 6.66699 9.16699 14.334 13.5 23.001s9 20 14 34s7.5 30.667 7.5 50zM411.999 474.997l-241.997 -0.00390625
c-4 0 -9.33301 -3.5 -16 -10.5s-13.667 -16.5 -21 -28.5l-12 -24l-4 -20c0 -13.333 2.66699 -24.166 8 -32.499s13.666 -17.166 24.999 -26.499l14 -8.5c4 -2.33301 8.66699 -4.33301 14 -6s10.166 -3 14.499 -4s10.5 -1.5 18.5 -1.5h11l13 1h6l7 1h6
c3.33301 0.666992 5.33301 1.33398 6 2.00098l19 -38l-3 -1l-4 1h-6h-5c-14.667 0 -28 -2.33301 -40 -7s-23.333 -12 -34 -22s-18.834 -21.167 -24.501 -33.5s-8.5 -25.5 -8.5 -39.5c0 -15.333 2.66699 -29.166 8 -41.499s13.333 -24.5 24 -36.5
c11.333 -10 23.333 -18 36 -24c14 -5.33301 28 -8 42 -8c16.667 0 33.167 2.5 49.5 7.5s32.833 12.5 49.5 22.5l19 13l24 18l-25 30l-22 40l-16 44c-3.33301 15.333 -5 29.333 -5 42c0 16.667 3 32 9 46s15 26 27 36l18 10l20 10v89z" />
    <glyph glyph-name="O" unicode="O" horiz-adv-x="229" 
d="M0 475v41h232v-41h-232zM299 139l-21.998 -14.999l-31 -11l-31 -3c-20.667 0 -39.5 3.16699 -56.5 9.5s-32.833 16.166 -47.5 29.499s-26.667 28.666 -36 45.999c-7.33301 16.667 -11 34.667 -11 54c0 20 3.16699 38 9.5 54s16.166 31.5 29.499 46.5
s28.166 26.167 44.499 33.5s33.5 11 51.5 11l18 -1l20 -3l17 -4c6 0 10.667 -0.666992 14 -2l11 -52l-11 6l-9 4l-27 8l-27 3c-14.667 0 -27 -2.33301 -37 -7c-9.33301 -3.33301 -17.5 -9.5 -24.5 -18.5s-13.167 -20.167 -18.5 -33.5c-3.33301 -11.333 -5 -23.333 -5 -36
c0 -13.333 2 -26.5 6 -39.5s10.167 -24.667 18.5 -35s17.833 -18.166 28.5 -23.499c14 -4.66699 27.333 -7 40 -7h11c8.66699 2 15 3.33301 19 4c12 3.33301 22 8 30 14c12 6.66699 22 13.5 30 20.5s14.333 14.5 19 22.5v-58z" />
    <glyph glyph-name="P" unicode="P" horiz-adv-x="324" 
d="M0 475v41h330v-41h-330zM404 180l-34.999 -28.999c-18.667 -13.333 -38.667 -24.666 -60 -33.999c-8 -3.33301 -16.833 -6 -26.5 -8s-19.167 -3 -28.5 -3c-16.667 0 -31.834 2.16699 -45.501 6.5s-26.167 11.833 -37.5 22.5c-10 8 -18.667 19.333 -26 34
c-5.33301 14.667 -8 30.334 -8 47.001c0 13.333 1.66699 25 5 35c1.33301 4.66699 3.5 10.167 6.5 16.5s6.5 12.166 10.5 17.499c9.33301 13.333 18.5 24.5 27.5 33.5s17.833 15.833 26.5 20.5l-164 1v41h305v-41h-67l-29 -20l-20 -16c-16 -14 -28.167 -28.333 -36.5 -43
s-12.5 -29 -12.5 -43c0 -12.667 1.5 -23.334 4.5 -32.001s7.33301 -15.834 13 -21.501s12.834 -10.167 21.501 -13.5l28 -4c20 0 39.667 5.83301 59 17.5s38.666 29.167 57.999 52.5l35 46c8 12 12 21 12 27v-89c-2 -5.33301 -7.33301 -12.333 -16 -21z" />
    <glyph glyph-name="Q" unicode="Q" horiz-adv-x="625" 
d="M352 475l-0.00292969 -149.003l10 9l21 15c10.667 6.66699 21.167 12 31.5 16s19.833 6 28.5 6c18 0 34.833 -3 50.5 -9s30 -14.833 43 -26.5s22.833 -25.334 29.5 -41.001s10 -31.834 10 -48.501c0 -21.333 -4.16699 -42.5 -12.5 -63.5s-20.5 -42.833 -36.5 -65.5
l-18 -20l-34 -35l-43 35l26 19l19 18c14.667 16.667 26 34.834 34 54.501s12 40.167 12 61.5c0 12 -1.5 22.167 -4.5 30.5s-7.66699 16.333 -14 24s-14.666 13.834 -24.999 18.501s-21.833 7 -34.5 7c-11.333 0 -22.5 -3.66699 -33.5 -11s-22.167 -18.666 -33.5 -33.999
c-4 -4 -8 -10.333 -12 -19l-14 -26v-241h-53v199c-6 -7.33301 -13.333 -13.333 -22 -18l-23 -11l-25 -7l-25 -2c-12.667 0 -21.667 0.333008 -27 1s-13.666 3.33398 -24.999 8.00098s-24.166 13.167 -38.499 25.5s-24.833 26.833 -31.5 43.5
c-2.66699 6.66699 -5 14.834 -7 24.501s-3 19.167 -3 28.5v183h-72v41h631v-41h-279zM298.997 474.997l-176.002 0.000976562v-190c0 -16.667 1.33301 -28.667 4 -36s5.33398 -13.333 8.00098 -18s6.33398 -9.33398 11.001 -14.001s11.667 -9 21 -13l32 -4
c13.333 0 26 2.16699 38 6.5s23 11.5 33 21.5c7.33301 7.33301 13.5 15 18.5 23s8.5 17 10.5 27v197z" />
    <glyph glyph-name="R" unicode="R" horiz-adv-x="275" 
d="M0 475v41h277v-41h-277zM168 322c-12 0 -21.6689 -1.66699 -29.002 -5c-8 -2 -14.167 -5.16699 -18.5 -9.5s-7.66602 -9.83301 -9.99902 -16.5s-3.5 -14.667 -3.5 -24c0 -24.667 5.83301 -50.167 17.5 -76.5s28.834 -53.833 51.501 -82.5l47 -53
c11.333 -10 19.666 -15.667 24.999 -17l-35 -32l-46 41l-32 35c-12 14.667 -23 29.667 -33 45s-18.667 30.666 -26 45.999c-12.667 30.667 -19 59.334 -19 86.001c0 15.333 2 28.833 6 40.5s9.33301 22.167 16 31.5s15.334 16.5 26.001 21.5s22.667 7.5 36 7.5l226 1v-39
h-199z" />
    <glyph glyph-name="S" unicode="S" horiz-adv-x="6" 
d="M-95 516l-172 226l47 26l160 -252h-35zM-181 516l-197 132l37 41l185 -173h-25z" />
    <glyph glyph-name="T" unicode="T" horiz-adv-x="408" 
d="M0 475v41h408v-41h-408zM355 318l12.999 -15.998l18 -33l10 -28l4 -21c0 -18 -2.16699 -33.667 -6.5 -47s-11.333 -26 -21 -38s-22.334 -21.667 -38.001 -29s-32.834 -11 -51.501 -11c-22 0 -43.667 5.5 -65 16.5s-41.333 27.5 -60 49.5
c-13.333 15.333 -26.666 33.666 -39.999 54.999c-3.33301 5.33301 -8.66602 15.333 -15.999 30l-19 39l-20 49c-1.33301 3.33301 -2.16602 6.83301 -2.49902 10.5s-0.833008 6.5 -1.5 8.5l43 34c-4 -4 -2 -17 6 -39l40 -88c20.667 -40.667 42.667 -72.334 66 -95.001
c24 -20.667 48.333 -31 73 -31c8.66699 0 16.5 1.83301 23.5 5.5s13.667 9.5 20 17.5s10.833 16.333 13.5 25s4.66699 20 6 34c0 12.667 -3.16699 26.5 -9.5 41.5s-15.833 31.833 -28.5 50.5l-10 14c-6 8 -11.333 14.333 -16 19c-6 8 -11 13 -15 15l227 1v-39h-143z" />
    <glyph glyph-name="U" unicode="U" horiz-adv-x="264" 
d="M0 475v41h268v-41h-268zM184 301l-0.000976562 -80v-4v-4l-1 -5v-5c0 -4 -2 -7 -6 -9l-15 -2c-3.33301 0 -10.666 4 -21.999 12l-37 37c-10.667 12 -17 19.333 -19 22c-5.33301 6.66699 -10 13 -14 19c-6 10 -9.66699 18.667 -11 26c0 7.33301 1 13 3 17s6.33301 8 13 12
l9 3l12 1l261 1v-41h-173z" />
    <glyph glyph-name="V" unicode="V" horiz-adv-x="492" 
d="M395 475l0.000976562 -155.001h-178c-8.66699 0 -15 -0.5 -19 -1.5s-10.167 -3.33301 -18.5 -7s-16.666 -9.66699 -24.999 -18s-15.5 -18.5 -21.5 -30.5c-4 -10 -6 -21.333 -6 -34c0 -20 4 -40 12 -60c8 -17.333 20.167 -34.5 36.5 -51.5s34.166 -29.667 53.499 -38
s40 -12.5 62 -12.5c15.333 0 29.333 1.66699 42 5s24.167 8 34.5 14s20.833 14.333 31.5 25l27 34l43 -24c-10.667 -17.333 -22.334 -31.333 -35.001 -42c-6 -6 -11.333 -10.667 -16 -14s-13.167 -8.66602 -25.5 -15.999s-26.5 -13 -42.5 -17s-33 -6 -51 -6
c-28 0 -55.333 5 -82 15s-51.5 25.667 -74.5 47s-40.167 44.166 -51.5 68.499s-17 49.833 -17 76.5c0 18 3.33301 34.667 10 50c6 16.667 15.333 30.834 28 42.501s27.167 21 43.5 28s32.833 10.5 49.5 10.5l139 1v110h-338v41h492v-41h-103z" />
    <glyph glyph-name="W" unicode="W" horiz-adv-x="12" 
d="M-32 661c-8 -16 -18.667 -30.5 -32 -43.5s-29.333 -23.167 -48 -30.5c-21.333 -6.66699 -43 -10 -65 -10s-42.167 3 -60.5 9s-34.333 15.5 -48 28.5s-24.667 27.5 -33 43.5s-14.5 36 -18.5 60l52 1c0 -16.667 2.66699 -31 8 -43s13.666 -23.333 24.999 -34
c8.66699 -7.33301 20.334 -14 35.001 -20c6 -2 12.333 -3.66699 19 -5s14 -2 22 -2c13.333 0 26.5 2 39.5 6s24.333 10.167 34 18.5s18.167 19.5 25.5 33.5c5.33301 14 8 29 8 45l51 1c0 -20 -4.66699 -39.333 -14 -58z" />
    <glyph glyph-name="X" unicode="X" horiz-adv-x="287" 
d="M213 475l-0.00292969 -245.001v-13v-8c-1.33301 -6.66699 -3.5 -11.5 -6.5 -14.5s-8.16699 -5.16699 -15.5 -6.5c-8.66699 0 -19 3.66699 -31 11l-40 34c-15.333 16 -26.166 29.5 -32.499 40.5s-10.166 21.833 -11.499 32.5c0.666992 4.66699 1.33398 7.66699 2.00098 9
l7 6l4 1c3.33301 0.666992 5.33301 1.33398 6 2.00098h4l5 1l58 1v149h-162v41h287v-41h-74z" />
    <glyph glyph-name="Y" unicode="Y" horiz-adv-x="385" 
d="M0 475v41h387v-41h-387zM460 299l-11 -2.99707l-31 -15l-13.5 -9.5c-2.33301 -1.66699 -6.83301 -5.83398 -13.5 -12.501l-17 -20l-15 -24l-15 -29l-8 -23l-43 25l2 12l8 15l17 29l6 15c-1.33301 4 -6.16602 9.5 -14.499 16.5s-18.166 13.167 -29.499 18.5l-34 14
c-6.66699 2 -17 3.66699 -31 5c-9.33301 0 -15.833 -0.333008 -19.5 -1s-10 -3 -19 -7s-18.5 -11 -28.5 -21c-4.66699 -6 -8.83398 -12.333 -12.501 -19s-6.33398 -12.167 -8.00098 -16.5s-3.16699 -9.33301 -4.5 -15s-2 -12.167 -2 -19.5c0 -22 7 -44.667 21 -68
c14 -20.667 35.667 -41.334 65 -62.001l35 -22l51 -24l-25 -42c-15.333 0 -34.333 6.83301 -57 20.5s-48.667 35.834 -78 66.501c-20 20.667 -35.167 42.167 -45.5 64.5s-15.5 45.833 -15.5 70.5c0 19.333 3.16699 37.166 9.5 53.499s16.5 31.166 30.5 44.499
s30.333 23.333 49 30s38 10 58 10c18 0 34.667 -2.66699 50 -8c16 -4 31.333 -11.333 46 -22l27 -21c6 -4.66699 9.33301 -9 10 -13l9 7l8 6l19 13l14 9l23 10l25 8l10 2l13 2v-46z" />
    <glyph glyph-name="Z" unicode="Z" horiz-adv-x="5" 
d="M-30 711l-6.99707 3.00195l-19 4l-21 2c-10 0 -18.833 -1.66699 -26.5 -5s-14.167 -7.83301 -19.5 -13.5s-9.83301 -13 -13.5 -22s-5.5 -19.167 -5.5 -30.5c0 -10 0.333008 -17.333 1 -22s3.16699 -13.167 7.5 -25.5s12.166 -27.166 23.499 -44.499l14 -19l19 -23l-38 1
c-2 1.33301 -3.83301 2.66602 -5.5 3.99902s-4.5 4.66602 -8.5 9.99902l-23 36c-2.66699 4.66699 -7 13.5 -13 26.5l-13 28.5c-6 18 -9 34.667 -9 50c0 14.667 2.5 27.167 7.5 37.5s13.167 19.666 24.5 27.999s23.166 14.5 35.499 18.5s26.166 6 41.499 6l29 -3l27 -9
l-1 -40z" />
    <glyph glyph-name="bracketleft" unicode="[" horiz-adv-x="469" 
d="M541 210l-13.0039 -7.99902l-38 -16l-18.5 -4c-3 -0.666992 -8.5 -1 -16.5 -1c-16 0 -30.833 2.5 -44.5 7.5s-25.667 12.333 -36 22s-19.166 21.167 -26.499 34.5c-5.33301 14 -8 29 -8 45c0 14.667 3 28.667 9 42s14.833 25.333 26.5 36s24.834 19 39.501 25
c7.33301 2.66699 14.333 4.66699 21 6s14.334 2 23.001 2l22 -3l23 -8l12 -36l-23 6l-25 3c-11.333 0 -21.333 -1.66699 -30 -5c-8.66699 -2 -16.5 -5.66699 -23.5 -11s-13.167 -13 -18.5 -23c-3.33301 -8.66699 -5 -19.334 -5 -32.001c0 -10.667 1.5 -20.167 4.5 -28.5
s7.5 -15.333 13.5 -21s13.333 -10.167 22 -13.5l26 -4c10.667 0 20.334 1.33301 29.001 4c10.667 2 20.5 5.66699 29.5 11s17 11.5 24 18.5s12.833 14.833 17.5 23.5v-59zM511.996 76.001l-53 -22.999l-56 -16c-17.333 -2.66699 -29.5 -4.16699 -36.5 -4.5
s-12.5 -0.5 -16.5 -0.5c-20 0 -33.833 0.5 -41.5 1.5s-17.834 3.16699 -30.501 6.5c-21.333 6 -41.666 15 -60.999 27c-22 14 -43.667 33.667 -65 59c-19.333 25.333 -38.666 56.666 -57.999 93.999l-17 40l-19 54l-4 11l-5 16l45 24l17 -56l6 -6l6 -4l16 -7l19 -2l20 3
c6 2 11.167 5.16699 15.5 9.5s7.16602 8.83301 8.49902 13.5l3 19v140h-205v41h477v-41h-221v-143c0 -16 -3.33301 -29.167 -10 -39.5s-17 -19.166 -31 -26.499l-36 -10l-46 -3l24 -53l24 -37c22 -28.667 48 -51.334 78 -68.001c14 -6.66699 29 -12 45 -16s32.667 -6 50 -6
c16 0 33.167 2 51.5 6s35.833 9.66699 52.5 17l34 15c6 2.66699 14.333 7.66699 25 15c16 10 29.333 20.333 40 31v-52z" />
    <glyph glyph-name="backslash" unicode="\" horiz-adv-x="408" 
d="M361 452c-8.66699 -19.333 -22.667 -38.668 -42 -58.001c-23.333 -23.333 -45.666 -41.333 -66.999 -54s-41 -19 -59 -19v-145h-52v168c7.33301 0 19 3 35 9c14.667 6.66699 34 17.667 58 33c29.333 18.667 51.666 38.667 66.999 60s23 43.666 23 66.999
c0 16 -3 31 -9 45s-15 27 -27 39s-25.167 21.167 -39.5 27.5s-28.833 9.5 -43.5 9.5c-17.333 0 -33.5 -2.5 -48.5 -7.5s-31.833 -13.167 -50.5 -24.5c-13.333 -7.33301 -24 -14.666 -32 -21.999c-5.33301 -4 -9 -8.33301 -11 -13l-38 44l29 18l24 14
c20.667 10.667 41.5 19 62.5 25s41.167 9 60.5 9c22 0 43.5 -3.83301 64.5 -11.5s40.167 -19 57.5 -34s30.333 -32.167 39 -51.5s13 -39.666 13 -60.999c0 -24 -4.66699 -46.333 -14 -67zM139 -0.00195312v55h58v-55h-58z" />
    <glyph glyph-name="bracketright" unicode="]" horiz-adv-x="180" 
d="M80 -84h-43l41 141h61z" />
    <glyph glyph-name="asciicircum" unicode="^" horiz-adv-x="191" 
d="M129 461h-61l59 143h43z" />
    <glyph glyph-name="underscore" unicode="_" horiz-adv-x="816" 
d="M430 475l0.00292969 -209.002l121 56l-6 10l-1 14c0 8.66699 1.33301 16 4 22c2 7.33301 5.83301 14.166 11.5 20.499s11.334 11 17.001 14s13.5 5.16699 23.5 6.5c17.333 0 30.333 -5.33301 39 -16s13 -26 13 -46c0 -6 -1.66699 -11.833 -5 -17.5s-9 -11.5 -17 -17.5
l-10 -6l-13 -8l77 -97l-32 -9c-5.33301 -1.33301 -9.33301 -2.5 -12 -3.5s-5.66699 -2.5 -9 -4.5c-17.333 -8 -30.5 -18 -39.5 -30s-13.5 -24.667 -13.5 -38c0 -12 2 -23 6 -33c4 -7.33301 10 -14.666 18 -21.999l23 -11l29 -4c10 0 17.167 0.5 21.5 1.5
s10.166 3.16699 17.499 6.5c13.333 5.33301 26.333 13.333 39 24l13 13l17 19l37 -42l-22 -19l-18 -12l-26 -13l-24 -9l-26 -6l-25 -2c-20.667 0 -39.167 2.5 -55.5 7.5s-30.5 12.5 -42.5 22.5s-21.167 21.833 -27.5 35.5s-9.5 28.834 -9.5 45.501
c0 13.333 2.16699 26.166 6.5 38.499s11.5 23.166 21.5 32.499s21.167 16.833 33.5 22.5s25.166 8.5 38.499 8.5l-55 67l-138 -66v-221h-53v199l-215 -160l-33 45l225 146l-30 32l-22 24c-18.667 19.333 -33.834 33.333 -45.501 42s-21.5 13.667 -29.5 15
c-8 0 -19.833 -2.83301 -35.5 -8.5s-35.5 -14.167 -59.5 -25.5l-29 -15l-39 -20l-31 40l23 12l62 28l72 28c8.66699 2.66699 16.5 4.83398 23.5 6.50098s13.167 2.83398 18.5 3.50098c8.66699 0 20.167 -5.16699 34.5 -15.5s32.166 -26.166 53.499 -47.499l43 -48
c8 -10 12.667 -17.333 14 -22v216h-377v41h826v-41h-396z" />
    <glyph glyph-name="grave" unicode="`" horiz-adv-x="5" 
d="M-24 -209l-14.998 -7.00195c-14 -5.33301 -28.167 -9.5 -42.5 -12.5s-27.833 -4.5 -40.5 -4.5c-5.33301 0 -11.5 0.166992 -18.5 0.5s-16.5 2.83301 -28.5 7.5c-14.667 4 -29.334 11 -44.001 21s-25.667 22.5 -33 37.5s-11 30.833 -11 47.5s2.66699 31.334 8 44.001
c4 12.667 10.833 23.834 20.5 33.501s21.167 17.834 34.5 24.501c6 2 12.333 3.66699 19 5s14 2 22 2h83v-41h-71c-8 0 -15.667 -1.5 -23 -4.5s-14 -7.5 -20 -13.5s-10.5 -12.333 -13.5 -19s-5.16699 -15.667 -6.5 -27c0 -11.333 2.16699 -21.833 6.5 -31.5
s11.166 -17.5 20.499 -23.5c8 -6.66699 17.333 -12 28 -16s22.334 -6 35.001 -6c10.667 0 19.167 0.666992 25.5 2s13.166 3.66602 20.499 6.99902l23 12l11 11l26 -39z" />
    <glyph glyph-name="a" unicode="a" horiz-adv-x="2" 
d="M-95 628v65h69v-65h-69z" />
    <glyph glyph-name="b" unicode="b" horiz-adv-x="445" 
d="M338 475l0.00390625 -131.005h-209l-3 -4l-3 -5l1 -14l4 -11l9 -15l15 -19l18 -20l11 -12l16 -13l14 -3c8.66699 0 17.5 1 26.5 3s16.333 3.83301 22 5.5s14.5 4.83398 26.5 9.50098l24 7l20 2c7.33301 0 14.666 -2.16699 21.999 -6.5s13.166 -9.5 17.499 -15.5
s8.16602 -14.333 11.499 -25l4 -27c0 -23.333 -3.66699 -44.333 -11 -63c-5.33301 -16.667 -15.333 -33.334 -30 -50.001c-6.66699 -6.66699 -14.334 -13.334 -23.001 -20.001s-17 -12.667 -25 -18c-17.333 -8.66699 -33.333 -13 -48 -13l11 -12l10 -7l22 -19l18 -16l40 -26
l28 -17l-27 -43l-15 10l-11 7c-4.66699 2.66699 -9.5 5.83398 -14.5 9.50098s-10.167 8.16699 -15.5 13.5l-30 26l-21 18l-25 25l-19 17l-8 10h-19h-16c-6.66699 1.33301 -13 2.33301 -19 3s-10.833 1.33398 -14.5 2.00098s-8.5 2.33398 -14.5 5.00098
c-16 5.33301 -28 13.333 -36 24c-3.33301 4.66699 -6 10.334 -8 17.001s-3 14.334 -3 23.001l3 17c2 6 5.33301 11.333 10 16l14 10l19 4c10.667 0 22.167 -3.16699 34.5 -9.5s25.166 -16.166 38.499 -29.499l13 -17l18 -22c11.333 0 23 1.66699 35 5
c11.333 2 19.666 4.66699 24.999 8c20.667 9.33301 36 22.333 46 39s15 35.667 15 57l-1 19c0 7.33301 -0.666992 12.333 -2 15c0 4 -1.66699 7 -5 9l-10 4l-16 -4l-33 -12l-38 -11l-28 -4c-12 0 -25.667 5.33301 -41 16s-30.666 26.5 -45.999 47.5
s-27.166 39.5 -35.499 55.5s-12.5 29.667 -12.5 41l3 15l11 14l16 10l17 4l174 1v90h-285v41h451v-41h-113z" />
    <glyph glyph-name="c" unicode="c" horiz-adv-x="445" 
d="M373 475l-0.000976562 -474.999h-53v152c-6 -8 -13.667 -15.333 -23 -22l-26 -13c-8 -4 -17.333 -7 -28 -9l-29 -2c-19.333 0 -37.833 3 -55.5 9s-33.5 15.667 -47.5 29c-16 13.333 -28 28.666 -36 45.999c-7.33301 18.667 -11 38.334 -11 59.001
c0 19.333 3.5 37.166 10.5 53.499s17.5 31.5 31.5 45.5s29.333 24.5 46 31.5s34.334 10.5 53.001 10.5l23 -2c8.66699 0 17 -1.33301 25 -4l5 -2l8 -2l7 -44c-3.33301 4 -9.66602 7.33301 -18.999 10l-26 4c-10 0 -17.667 -0.666992 -23 -2l-22 -6
c-6.66699 -2 -13.334 -5.33301 -20.001 -10c-6.66699 -3.33301 -11.667 -7 -15 -11l166 -114l6 22v246h-320v41h443l2 -41h-72zM126.999 297.001l-4 -10.001l-2 -7l-5 -18l-1 -13c0 -14.667 2.16699 -28.167 6.5 -40.5s11.833 -23.166 22.5 -32.499
c9.33301 -10.667 20 -18.667 32 -24c14 -4.66699 27 -7 39 -7h16c5.33301 2 9 3.33301 11 4c8 2.66699 13 4.5 15 5.5s6 3.83301 12 8.5l10 7l12 11z" />
    <glyph glyph-name="d" unicode="d" horiz-adv-x="637" 
d="M357 475v-150.999l18 17l12 10c11.333 8 23.333 14.167 36 18.5s24 6.5 34 6.5c20.667 0 38.667 -3.16699 54 -9.5s30 -15.833 44 -28.5c12 -10.667 21.5 -24.167 28.5 -40.5s10.5 -33.166 10.5 -50.499c0 -18 -4 -36.667 -12 -56s-21.333 -41.333 -40 -66l-22 -27
l-30 -33l-43 33c2 0.666992 4.16699 1.66699 6.5 3s5.5 4 9.5 8c8.66699 8.66699 19 21.334 31 38.001c14.667 18.667 25.834 37.167 33.501 55.5s11.5 34.5 11.5 48.5c0 13.333 -1.33301 24 -4 32s-4.83398 13.667 -6.50098 17s-4.66699 7.66602 -9 12.999
s-11.666 10.333 -21.999 15s-21.833 7 -34.5 7c-14.667 0 -28 -3.5 -40 -10.5s-24 -18.167 -36 -33.5c-8.66699 -10.667 -16.334 -23.667 -23.001 -39c-2 -6 -3.66699 -12 -5 -18s-2 -12.667 -2 -20v-214h-52v148c-11.333 -11.333 -25.166 -20.333 -41.499 -27
s-33.5 -10 -51.5 -10c-18.667 0 -36.334 3.16699 -53.001 9.5s-32.5 16.166 -47.5 29.499s-26.167 28 -33.5 44c-6.66699 18 -10 36.333 -10 55c0 19.333 3.16699 37 9.5 53s16.666 30.5 30.999 43.5s29.5 22.833 45.5 29.5c7.33301 2.66699 15.5 5 24.5 7s18.167 3 27.5 3
l27 -3c12 -2.66699 21 -5.33398 27 -8.00098v-42l-10 4l-5 3l-15 4l-15 2c-14.667 0 -27.167 -2.33301 -37.5 -7s-19.666 -12.167 -27.999 -22.5s-14.5 -21.5 -18.5 -33.5s-6 -24.667 -6 -38c0 -14 2 -26.5 6 -37.5s9.5 -20.833 16.5 -29.5s15.833 -15.667 26.5 -21
c12 -4.66699 24.333 -7 37 -7c12 0 22.5 1.83301 31.5 5.5s18.167 9.5 27.5 17.5l13.5 13.5c5 5 9.16699 9.83301 12.5 14.5c6 9.33301 9 18 9 26v249h-305v41h645v-41h-288z" />
    <glyph glyph-name="e" unicode="e" horiz-adv-x="472" 
d="M413 475l0.000976562 -475.001h-52v252h-183v-70l1 -11c-0.666992 -3.33301 -1.33398 -5.33301 -2.00098 -6l-8 -6l-13 -2c-6.66699 0 -15 3.66699 -25 11c-4.66699 4 -9.83398 9 -15.501 15l-19.5 21c-12.667 14 -23 27 -31 39c-6 10.667 -9.33301 19.334 -10 26.001
l3 13c2.66699 3.33301 6.33398 6.33301 11.001 9l5 2l10 3l43 1v178h-127v41h488v-41h-75zM361.001 474.999h-183v-178h183v178z" />
    <glyph glyph-name="f" unicode="f" horiz-adv-x="216" 
d="M535 516l-24.998 22l-24 24c-20 18 -31.667 28.333 -35 31l-24 17l-60 40c-26.667 16 -51.834 28 -75.501 36s-45.167 12 -64.5 12c-15.333 0 -28.666 -2.66699 -39.999 -8c-12.667 -4 -23.834 -11.167 -33.501 -21.5s-17.5 -22.5 -23.5 -36.5
c-2 -6.66699 -3.66699 -14 -5 -22s-2 -16.333 -2 -25l1 -20l5 -23l6 -19l4 -8l87 1v-41h-85v-475h-53v475h-88v41h91l-4 9l-6 25l-6 27l-1 16c0 21.333 3.33301 40.333 10 57s17.167 32.167 31.5 46.5s31.5 25.333 51.5 33s41 11.5 63 11.5c24 0 50.5 -4.83301 79.5 -14.5
s59.5 -24.167 91.5 -43.5c23.333 -14 46.666 -30.333 69.999 -49l72 -60l29 -30l30 -29z" />
    <glyph glyph-name="g" unicode="g" horiz-adv-x="455" 
d="M375 475l0.00390625 -129.003h-238c-6 0 -10.333 -1.66699 -13 -5l-4 -9l4 -17c2 -6.66699 6.33301 -13.667 13 -21l4 -8l6 -7l6 -8l6 -8l10 -12l7 -4l15 3l16 3l30 4l23 2c23.333 0 43.833 -2.16699 61.5 -6.5s33.167 -10.5 46.5 -18.5s23.333 -18.667 30 -32
s10 -28.333 10 -45c1.33301 -11.333 0.166016 -22.166 -3.50098 -32.499s-9.5 -19.166 -17.5 -26.499l-21 -16l-7 -5l-39 30l5 2l5 3l4 2l3 3c5.33301 4.66699 9.33301 10 12 16s4.66699 14 6 24c0 12 -2.16699 22.167 -6.5 30.5s-10.833 14.666 -19.5 18.999
s-19.334 7.5 -32.001 9.5l-41 4c-20.667 0 -39.167 -2.16699 -55.5 -6.5s-29.5 -11.166 -39.5 -20.499c-10 -8 -17.833 -18.333 -23.5 -31s-8.5 -26 -8.5 -40c0 -20 9 -38.667 27 -56c17.333 -15.333 45 -29 83 -41l85 -21c6.66699 -0.666992 14.334 -1 23.001 -1
c6 0 9.33301 0.666992 10 2l-19 -38c-3.33301 -2.66699 -9.33301 -4 -18 -4c-6.66699 0 -15.834 1 -27.501 3s-24.334 5 -38.001 9s-30.5 9.66699 -50.5 17c-42.667 14 -75 32.5 -97 55.5s-33 49.833 -33 80.5c0 8.66699 1.16699 16.834 3.5 24.501s6.33301 16 12 25
s12.167 17.167 19.5 24.5l24 24l-21 22l-13 17c-12 15.333 -21 29.666 -27 42.999c-1.33301 4 -2.83301 10 -4.5 18s-2.83398 14.333 -3.50098 19l3 18c2 4.66699 5.66699 9.33398 11 14.001l15 8l18 3l211 1v86h-322v41h475v-41h-100z" />
    <glyph glyph-name="h" unicode="h" horiz-adv-x="215" 
d="M140 475l-0.00195312 -474.998h-52v475h-88v41h76c4 4 -0.333008 16 -13 36s-34.667 48 -66 84c-16 18 -31.167 31.833 -45.5 41.5s-27.166 14.5 -38.499 14.5c-10.667 0 -20.334 -2.16699 -29.001 -6.5s-15.667 -10.5 -21 -18.5s-9.16602 -15.833 -11.499 -23.5
s-4 -13.834 -5 -18.501s-1.5 -11 -1.5 -19c0 -8.66699 1.33301 -17.334 4 -26.001c0.666992 -2.66699 2 -7 4 -13s4.33301 -11.667 7 -17l13 -25l7 -10l-58 1l-12 16l-10 20l-7 22l-2 23c0 16.667 3 33 9 49c4.66699 15.333 12.667 29.833 24 43.5s24.5 24 39.5 31
s30.833 10.5 47.5 10.5c24 0 48.833 -9 74.5 -27s51.834 -45 78.501 -81l29 -45l36 -63l95 1v-41h-84z" />
    <glyph glyph-name="i" unicode="i" horiz-adv-x="445" 
d="M377 475l0.000976562 -474.999h-53v199l-18 -15l-13 -9c-12 -8 -24.5 -14 -37.5 -18s-25.833 -6 -38.5 -6c-20.667 0 -39 3.16699 -55 9.5s-31 16.5 -45 30.5c-5.33301 6 -10.333 12.667 -15 20s-9.33398 15.666 -14.001 24.999c-6.66699 18 -10 36 -10 54v185h-78v41
h459v-41h-82zM324.001 475.001h-194.998v-192c0 -15.333 2.5 -29 7.5 -41s12.5 -22 22.5 -30c7.33301 -6 16 -11.667 26 -17c6 -2 16 -3.66699 30 -5c14.667 0 27.167 2.33301 37.5 7s18.166 8.66699 23.499 12s11.666 8.33301 18.999 15l13 14l16 21v216z" />
    <glyph glyph-name="j" unicode="j" horiz-adv-x="372" 
d="M309 475l0.000976562 -131c0 -16 -2.5 -29.5 -7.5 -40.5s-13.5 -21.5 -25.5 -31.5c-8.66699 -7.33301 -20.334 -14 -35.001 -20c-14 -4.66699 -27.333 -7 -40 -7l-19 1c-8 1.33301 -14 3 -18 5l72 -103l28 -35l36 -39l16 -18l22 -22l-37 -34
c-10.667 4.66699 -29.334 22.667 -56.001 54c-22.667 27.333 -55 70.333 -97 129l-31 46l-29 48l-21 36l-20 36l41 30l41 -70c4 -8 10.833 -14.167 20.5 -18.5s21.834 -6.5 36.501 -6.5c12 0 22 1.16699 30 3.5s15 6.5 21 12.5s10.333 12.5 13 19.5s4.66699 16.833 6 29.5
v126h-276v41h409v-41h-80z" />
    <glyph glyph-name="k" unicode="k" horiz-adv-x="215" 
d="M141 475v-475h-53v475h-98v41h248v-41h-97z" />
    <glyph glyph-name="l" unicode="l" horiz-adv-x="588" 
d="M518 475l0.00195312 -475.001h-53v260h-141l-35 41h176v174h-188v-131v-13v-13v-10c-1.33301 -4.66699 -2 -8 -2 -10l-6 -22c-3.33301 -9.33301 -10.333 -18 -21 -26c-7.33301 -5.33301 -18.333 -9.66602 -33 -12.999c-5.33301 0 -9.33301 -0.666992 -12 -2l-10 -1l-11 1
c-4 0 -8.66699 1.33301 -14 4l62 -94l27 -35l33 -38l15 -17l21 -21l-41 -34c-8 3.33301 -24 20.333 -48 51l-92 132l-30 45l-28 46l-18 31l-18 32l43 28l29 -56c5.33301 -12.667 13.166 -21.667 23.499 -27s22.166 -8 35.499 -8l22 3c6 2 10.333 5.33301 13 10l7 15l2 21
l-1 15v11v126h-235v41h610v-41h-82z" />
    <glyph glyph-name="m" unicode="m" horiz-adv-x="541" 
d="M410 475l11.999 -17.002l8 -12c6.66699 -11.333 12 -23 16 -35c0.666992 -3.33301 1.5 -8 2.5 -14s1.83301 -12.333 2.5 -19c0 -20 -4.66699 -37.333 -14 -52c-8 -14.667 -21 -28 -39 -40c11.333 -5.33301 18 -8.5 20 -9.5s7.5 -5.16699 16.5 -12.5s17.167 -17 24.5 -29
s13 -25.167 17 -39.5s6 -29.166 6 -44.499c0 -20 -3.66699 -37.667 -11 -53c-6 -15.333 -16 -29.666 -30 -42.999c-13.333 -11.333 -29 -21 -47 -29c-17.333 -6 -36.666 -9 -57.999 -9c-26.667 0 -52 6.66699 -76 20s-48.667 34.333 -74 63
c-16.667 18.667 -34 41.667 -52 69c-16 26 -31.333 54.667 -46 86l-27 60c-4.66699 14 -6.66699 22.667 -6 26l45 28l15 -41l16 -40c10.667 -25.333 18.667 -43.333 24 -54c0.666992 -1.33301 6 -11.333 16 -30c13.333 -22.667 27.666 -44.334 42.999 -65.001
c20 -26 40.333 -46.333 61 -61c10 -6.66699 19.833 -11.667 29.5 -15s20.167 -5 31.5 -5s19.5 0.333008 24.5 1s11.5 3 19.5 7c12 6 22.333 14.333 31 25c5.33301 8 9.33301 17.333 12 28s4.16699 18.834 4.5 24.501s0.5 10.167 0.5 13.5c0 16 -1.83301 29.167 -5.5 39.5
s-6.5 17.5 -8.5 21.5s-6.66699 10.667 -14 20s-17 17 -29 23s-25 9 -39 9l-92 1l-19 43h109l29 3c8.66699 2 15 4.66699 19 8c8.66699 6 14.834 13.833 18.501 23.5s5.5 20.834 5.5 33.501c0 9.33301 -2.16699 19.166 -6.5 29.499s-10.833 21.5 -19.5 33.5l-11 12l-15 17
l-360 1v41h561v-41h-141z" />
    <glyph glyph-name="n" unicode="n" horiz-adv-x="492" 
d="M393 475l0.00195312 -134.998h-184c-10.667 0 -19.834 -2.16699 -27.501 -6.5s-15.167 -10.166 -22.5 -17.499l-16 -25c-2 -5.33301 -3.66699 -14.333 -5 -27c0 -30.667 7.16699 -56.334 21.5 -77.001s36.166 -36.334 65.499 -47.001l36 -8l52 -4
c-0.666992 3.33301 -1.33398 5.33301 -2.00098 6v5c0 6.66699 -0.666992 11.667 -2 15l-1 11c0 10 0.666992 17.333 2 22l9 20c3.33301 5.33301 8.83301 9.83301 16.5 13.5s16.167 5.5 25.5 5.5c6.66699 0 12.667 -1.66699 18 -5c5.33301 -2 10.333 -5.5 15 -10.5
s8.66699 -11.5 12 -19.5l4 -20c0 -11.333 -1.66699 -21 -5 -29s-8 -15 -14 -21l-8 -7l-12 -8l25 -55l17 -29l17 -23l7 -8l8 -11h-66l-27 53l-28 59l-8 -2h-7c-26 0 -49.833 2 -71.5 6s-41.167 10.333 -58.5 19c-30 14 -53 33.333 -69 58c-14.667 26 -22 56 -22 90
c0 15.333 2.16699 29.666 6.5 42.999s11.833 26.333 22.5 39c9.33301 12.667 20.333 22 33 28s25.334 9 38.001 9l148 1v92h-336v41h502v-41h-109z" />
    <glyph glyph-name="o" unicode="o" horiz-adv-x="445" 
d="M375 475l0.00195312 -474.999h-53v156l-23 -17l-22 -15l-31 -11l-31 -3c-20.667 0 -39.5 3.16699 -56.5 9.5s-32.833 16.166 -47.5 29.499s-26.667 28.666 -36 45.999c-7.33301 16.667 -11 34.667 -11 54c0 20 3.16699 38 9.5 54s16.166 31.5 29.499 46.5
s28.166 26.167 44.499 33.5s33.5 11 51.5 11l18 -1l20 -3l17 -4c6 0 10.667 -0.666992 14 -2l11 -52l-11 6l-9 4l-27 8l-27 3c-14.667 0 -27 -2.33301 -37 -7c-9.33301 -3.33301 -17.5 -9.5 -24.5 -18.5s-13.167 -20.167 -18.5 -33.5c-3.33301 -11.333 -5 -23.333 -5 -36
c0 -13.333 2 -26.5 6 -39.5s10.167 -24.667 18.5 -35s17.833 -18.166 28.5 -23.499c14 -4.66699 27.333 -7 40 -7h11c8.66699 2 15 3.33301 19 4c12 3.33301 22 8 30 14c12 6.66699 22 13.5 30 20.5s14.333 14.5 19 22.5v261h-332v41h477v-41h-92z" />
    <glyph glyph-name="p" unicode="p" horiz-adv-x="541" 
d="M475 475l-0.00195312 -474.997h-53v199c-2 -4.66699 -7.33301 -11.334 -16 -20.001l-36 -29c-20 -14 -40 -24.833 -60 -32.5s-38.667 -11.5 -56 -11.5c-16.667 0 -31.834 2.16699 -45.501 6.5s-26.167 11.833 -37.5 22.5c-10 8 -18.667 19.333 -26 34
c-5.33301 14.667 -8 30.334 -8 47.001c0 13.333 1.66699 25 5 35c1.33301 4.66699 3.5 10.167 6.5 16.5s6.5 12.166 10.5 17.499c9.33301 13.333 18.5 24.5 27.5 33.5s17.833 15.833 26.5 20.5l-164 1v41h305v-41h-67l-29 -20l-20 -16c-16 -14 -28.167 -28.333 -36.5 -43
s-12.5 -29 -12.5 -43c0 -12.667 1.5 -23.334 4.5 -32.001s7.33301 -15.834 13 -21.501s12.834 -10.167 21.501 -13.5l28 -4c20.667 0 40.334 4.5 59.001 13.5s38.334 23.167 59.001 42.5l21 20c5.33301 6 10.333 12 15 18c8 10 12 18 12 24v210h-422v41h545v-41h-70z" />
    <glyph glyph-name="q" unicode="q" horiz-adv-x="5" 
d="M-3 -162c-8 -15.333 -21.6709 -29.002 -41.0039 -41.002c-15.333 -9.33301 -32.333 -16.5 -51 -21.5s-38 -7.5 -58 -7.5c-16.667 0 -34.167 2.16699 -52.5 6.5s-38.666 11.333 -60.999 21s-35.5 15.5 -39.5 17.5c-10 4.66699 -20.667 10.667 -32 18
c-19.333 10 -33.333 20 -42 30l34 43l37 -27l28 -19c23.333 -14.667 46.333 -26 69 -34s43 -12 61 -12c13.333 0 26.5 1.83301 39.5 5.5s25.333 9.33398 37 17.001s20.834 16.834 27.501 27.501c4.66699 8 7 19 7 33c-1.33301 8.66699 -3.66602 17 -6.99902 25l-15 20
c-5.33301 6 -11.333 11 -18 15l-23 4c-9.33301 0 -17.666 -1.33301 -24.999 -4s-16.333 -7.66699 -27 -15l-16 -16l-6 -6l-40 35l12 11l26 15c6 3.33301 12.333 6.33301 19 9s14.5 5.16699 23.5 7.5s15.5 3.83301 19.5 4.5s10.667 1 20 1c15.333 0 29.333 -2.16699 42 -6.5
s24 -11.5 34 -21.5s18 -21.667 24 -35c4.66699 -15.333 7 -30.333 7 -45c0 -20 -4.33301 -38.333 -13 -55z" />
    <glyph glyph-name="r" unicode="r" horiz-adv-x="492" 
d="M418 475l0.00195312 -475.001h-53v332h-187c-11.333 0 -21.666 -2 -30.999 -6c-8.66699 -2 -15.667 -6 -21 -12s-9.66602 -13.333 -12.999 -22l-4 -25c0 -24.667 3.33301 -48 10 -70c3.33301 -10.667 7.66602 -21.5 12.999 -32.5s11.666 -22.167 18.999 -33.5
c20 -32 38 -56 54 -72c8 -7.33301 15.333 -13 22 -17s13 -6 19 -6l-35 -36c-0.666992 0 -1.83398 0.333008 -3.50098 1s-4.83398 3 -9.50098 7l-28 27l-41 46c-6 8 -11.667 16 -17 24c-1.33301 2.66699 -6.33301 11 -15 25c-12.667 23.333 -22.667 46.333 -30 69
c-6.66699 25.333 -10 48 -10 68c0 16 1.66699 29.333 5 40s9.33301 22.334 18 35.001c8 10 17.333 18 28 24c8 3.33301 14.5 5.5 19.5 6.5s11.167 1.5 18.5 1.5l219 1v100h-375v41h520v-41h-92z" />
    <glyph glyph-name="s" unicode="s" horiz-adv-x="3" 
d="M-119 516l-207 214l35 38l205 -252h-33z" />
    <glyph glyph-name="t" unicode="t" horiz-adv-x="637" 
d="M563 475l0.00195312 -474.999h-53v309h-155c3.33301 -2 7.66602 -8.66699 12.999 -20l18 -44l10 -35l4 -27c0 -6 -0.166992 -12.333 -0.5 -19s-2.83301 -16 -7.5 -28c-4 -13.333 -11 -25.333 -21 -36s-22.667 -19.667 -38 -27c-14.667 -5.33301 -31.334 -8 -50.001 -8
c-24 0 -46.333 5.66699 -67 17s-41 29.333 -61 54c-14.667 16.667 -27.5 35.5 -38.5 56.5s-22.5 46.5 -34.5 76.5l-19 52l-4 22l43 32v-8.5c0 -3.66699 0.666992 -7.83398 2 -12.501l18 -56c8 -24 17.167 -46.167 27.5 -66.5s21.833 -39.5 34.5 -57.5
c16 -22.667 32.667 -40.334 50 -53.001c17.333 -11.333 35 -17 53 -17c10 0 18.833 1.83301 26.5 5.5s14.167 9 19.5 16s9.5 15.333 12.5 25s4.5 19.834 4.5 30.501c0 16.667 -3.16699 34 -9.5 52s-15.833 37.667 -28.5 59l-26 38c-5.33301 8 -10.333 13.667 -15 17l239 1
v127h-510v41h645v-41h-82z" />
    <glyph glyph-name="u" unicode="u" horiz-adv-x="492" 
d="M424 475l-0.000976562 -475.001h-53v297h-187v-86l-1 -14c-0.666992 -4 -1.33398 -6.33301 -2.00098 -7l-8 -7l-11 -2c-4 0 -11.333 4.33301 -22 13l-37 39c-15.333 18.667 -26.166 33.334 -32.499 44.001s-10.166 19.667 -11.499 27c0 7.33301 1 13 3 17
s6.33301 8 13 12l9 3l12 1l275 1v137h-371v41h506v-41h-82z" />
    <glyph glyph-name="v" unicode="v" horiz-adv-x="576" 
d="M506 475l-0.00292969 -474.997h-51v227l-15 -4l-15 -3l-13 -2h-8l-18 1l-21 6l-10 3l-11 5l3 -10l3 -7l5 -23l2 -22c0 -22 -3.33301 -41 -10 -57c-5.33301 -15.333 -15.333 -29 -30 -41c-10.667 -9.33301 -24 -16.666 -40 -21.999c-7.33301 -2 -14.833 -3.66699 -22.5 -5
s-16.834 -2 -27.501 -2c-14 0 -27 1.66699 -39 5s-25.333 9.33301 -40 18c-25.333 14.667 -51.666 37.667 -78.999 69c-20.667 24.667 -37.334 46.334 -50.001 65.001c-10 17.333 -15 30 -15 38l41 27l31 -55l25 -37c22 -30 44 -53 66 -69c22 -14.667 42.667 -22 62 -22
c10 0 19.333 2 28 6s17.667 11.333 27 22c6 8 11.333 17.333 16 28s7 22 7 34c0 16 -2.66699 29.667 -8 41c-3.33301 11.333 -10.333 22 -21 32c-9.33301 7.33301 -20.333 13.666 -33 18.999c-14 4.66699 -27.333 7 -40 7h-17c-6.66699 0 -13.667 -1.33301 -21 -4l-5 -2
l-6 -1l-17 38c16 0 30.333 1.33301 43 4c14 4 27.333 10.167 40 18.5s22.834 18.833 30.501 31.5s11.5 26 11.5 40c0 12 -1.33301 22 -4 30c-2 9.33301 -5.66699 17.166 -11 23.499s-13.166 11.833 -23.499 16.5s-21.833 7 -34.5 7c-11.333 0 -23.666 -3 -36.999 -9
c-7.33301 -3.33301 -13.833 -6.83301 -19.5 -10.5s-12.5 -8.83398 -20.5 -15.501l-16 -15l-20 -21l-39 31c0.666992 2 1.5 3.66699 2.5 5s3.83301 4.33301 8.5 9l33 27c18.667 13.333 37 23.333 55 30c21.333 6.66699 40.333 10 57 10c17.333 0 32.666 -3 45.999 -9
s26.333 -15.333 39 -28c9.33301 -10 16.833 -22.333 22.5 -37s8.5 -29.334 8.5 -44.001c0 -10.667 -1.16699 -20.334 -3.5 -29.001s-5.66602 -17 -9.99902 -25s-10.166 -15.5 -17.499 -22.5s-16 -13.167 -26 -18.5l5 -1l9 -2c6 -2 10 -3.66699 12 -5l17 -8l9 -5l10 -4l11 -6
l11 -4l23 -8l26 -2l20 1l24 6l11 3l13 5v203h-96v41h219v-41h-72z" />
    <glyph glyph-name="w" unicode="w" horiz-adv-x="2" 
d="M86 -227c0 8 -4.33203 19.668 -12.999 35.001c-2.66699 4.66699 -9.33398 15 -20.001 31c-8 12 -14 20.667 -18 26c-21.333 29.333 -43.666 52 -66.999 68c-24 14.667 -48 22 -72 22c-11.333 0 -20.5 -1.5 -27.5 -4.5s-13.333 -8.16699 -19 -15.5
s-9.66699 -14.5 -12 -21.5s-4.16602 -16.167 -5.49902 -27.5c0 -8.66699 1.16699 -16.667 3.5 -24s6 -14 11 -20s11.833 -11 20.5 -15c5.33301 -2 13.666 -3.66699 24.999 -5l16 2l17 7l7 4l8 5l27 -41l-13 -6c-10.667 -4 -21.334 -7 -32.001 -9l-32 -3
c-16.667 0 -31.667 2.66699 -45 8s-25.5 13 -36.5 23s-19.5 21.333 -25.5 34s-9 27 -9 43c0 15.333 2.83301 29.166 8.5 41.499s14.834 24.833 27.501 37.5c12 10 25.167 17.833 39.5 23.5s29.166 8.5 44.499 8.5c22 -0 43.5 -4.16699 64.5 -12.5s41.5 -21.5 61.5 -39.5
c14 -12 28 -26 42 -42s27.333 -34.667 40 -56l14 -26l15 -27z" />
    <glyph glyph-name="x" unicode="x" horiz-adv-x="523" 
d="M424 475l-0.000976562 -475.001h-53v475h-158v-262v-13v-10c-1.33301 -6.66699 -4 -11.667 -8 -15l-14 -4c-7.33301 0 -17.666 4 -30.999 12c-10 7.33301 -23.333 19.333 -40 36c-14.667 16.667 -25.667 31.334 -33 44.001s-11 23.667 -11 33c0 4.66699 0.666992 8 2 10
l6 5l9 1l11 1l58 1v161h-162v41h536v-41h-112z" />
    <glyph glyph-name="y" unicode="y" horiz-adv-x="602" 
d="M527 475v-474.997h-52v303l-15 -4l-11 -3l-31 -15l-13.5 -9.5c-2.33301 -1.66699 -6.83301 -5.83398 -13.5 -12.501l-17 -20l-15 -24l-15 -29l-8 -23l-43 25l2 12l8 15l17 29l6 15c-1.33301 4 -6.16602 9.5 -14.499 16.5s-18.166 13.167 -29.499 18.5l-34 14
c-6.66699 2 -17 3.66699 -31 5c-9.33301 0 -15.833 -0.333008 -19.5 -1s-10 -3 -19 -7s-18.5 -11 -28.5 -21c-4.66699 -6 -8.83398 -12.333 -12.501 -19s-6.33398 -12.167 -8.00098 -16.5s-3.16699 -9.33301 -4.5 -15s-2 -12.167 -2 -19.5c0 -22 7 -44.667 21 -68
c14 -20.667 35.667 -41.334 65 -62.001l35 -22l51 -24l-25 -42c-15.333 0 -34.333 6.83301 -57 20.5s-48.667 35.834 -78 66.501c-20 20.667 -35.167 42.167 -45.5 64.5s-15.5 45.833 -15.5 70.5c0 19.333 3.16699 37.166 9.5 53.499s16.5 31.166 30.5 44.499
s30.333 23.333 49 30s38 10 58 10c18 0 34.667 -2.66699 50 -8c16 -4 31.333 -11.333 46 -22l27 -21c6 -4.66699 9.33301 -9 10 -13l9 7l8 6l19 13l14 9l23 8l25 7l10 1l13 2v130h-475v41h610v-41h-83z" />
    <glyph glyph-name="z" unicode="z" horiz-adv-x="5" 
d="M-357 0l-34 39l278 174v-41z" />
    <glyph glyph-name="braceleft" unicode="{" horiz-adv-x="313" 
d="M293 475v41h25v-41h-25zM371 281l-28.001 -7.99805l-31 -5l-39 -1l-38 3l-48 10l-21 5l-27 9c-4 0 -9.33301 -2.33301 -16 -7l-23 -18c-11.333 -10.667 -20.333 -22.334 -27 -35.001s-10 -26 -10 -40c0 -10.667 0.333008 -18.334 1 -23.001s3.5 -11.667 8.5 -21
s13.167 -17.333 24.5 -24l27 -11l35 -3h8h7h5l5 2l-2 4v6v5v5l3 24l9 16c4.66699 4.66699 9.33398 7.66699 14.001 9l19 4c8.66699 0 15.667 -1.33301 21 -4c5.33301 -1.33301 11 -5.33301 17 -12l10 -17l4 -20l-3 -17l-7 -13c-2 -3.33301 -6 -6.66602 -12 -9.99902l-17 -5
l11 -19l15 -16l14 -13l21 -15l-43 -30l-9 7l-6 6l-14 14l-8 12l-6 9l-5 9l-5 10l-4 12l-10 -4l-7 -1l-18 -4l-14 -1c-20.667 0 -39.5 3 -56.5 9s-32.5 15 -46.5 27c-10.667 10.667 -20.334 24.667 -29.001 42c-6.66699 18 -10 36.333 -10 55
c0 8.66699 0.666992 15.834 2 21.501s4.33301 12.834 9 21.501c8 14 19.333 28.333 34 43l19 15l26 18c-5.33301 2.66699 -12 8 -20 16l-20 31c-5.33301 8.66699 -9.66602 18.667 -12.999 30l-4 30c0 14.667 2.33301 27.167 7 37.5s12.167 19.666 22.5 27.999
s21.5 14.5 33.5 18.5s25.667 6 41 6c16 0 30 -2.33301 42 -7c13.333 -4 25.5 -10 36.5 -18s19.5 -18 25.5 -30s9 -25.667 9 -41c0 -12 -3 -24 -9 -36c-3.33301 -6.66699 -6.83301 -12.334 -10.5 -17.001s-8.83398 -10.334 -15.501 -17.001l-15 -13l-21 -14l9 -4l9 -1l31 -5
l35 -1l40 1c10.667 0 21 1.66699 31 5l29 10c10.667 4 16.834 6.5 18.501 7.5s6.5 4.16699 14.5 9.5v-46zM201.999 442.002c-2 5.33301 -6.00098 10.666 -12.001 15.999l-19 10l-21 4c-8.66699 0 -16 -1.33301 -22 -4l-18 -9c-5.33301 -4 -9.33301 -9.33301 -12 -16l-4 -21
c0 -11.333 1.66699 -21.5 5 -30.5s9.33301 -18.833 18 -29.5l9 -10l15 -11c8 2.66699 14.333 5.33398 19 8.00098l14 8c10.667 8 18.834 17.333 24.501 28s8.5 23 8.5 37c0 7.33301 -1.66699 14 -5 20z" />
    <glyph glyph-name="bar" unicode="|" horiz-adv-x="588" 
d="M521 475l0.000976562 -474.999h-52v145c-4 -9.33301 -14 -19.333 -30 -30s-39.667 -23.334 -71 -38.001c-22 -10 -44 -18 -66 -24c-10 -2 -20 -3.66699 -30 -5s-20 -2 -30 -2c-21.333 0 -41 3 -59 9s-33.333 15.667 -46 29c-8.66699 8.66699 -16.334 19.667 -23.001 33
c-2 6 -3.66699 12 -5 18s-2 12.667 -2 20c0 12 1.33301 22.333 4 31c2 11.333 5.66699 20.333 11 27l6 7l9 9c-8 0 -16.167 3 -24.5 9s-16.833 13.5 -25.5 22.5s-14.5 18 -17.5 27s-4.83301 15.167 -5.5 18.5s-1 9 -1 17c0 17.333 3.5 31.333 10.5 42s18.167 19.667 33.5 27
l18 4l27 3l129 1v75h-281v41h594v-41h-73zM469.001 475.001l-138.997 0.00195312v-118h-162c-10.667 0 -18.334 -0.666992 -23.001 -2c-6.66699 0 -12 -0.833008 -16 -2.5s-8 -5.5 -12 -11.5l-4 -22c0 -8 1.16699 -14.833 3.5 -20.5s6.5 -12.167 12.5 -19.5l21 -20
c6 -4 12 -6 18 -6l7 2l5 2l27 9l18 3h21h16l14 -1l15 -1l18 -40l-6 -1h-5h-6h-6h-6h-5h-6l-6 1c-22 0 -39.333 -1.66699 -52 -5c-14 -2.66699 -24.5 -7.33398 -31.5 -14.001s-12.333 -14.167 -16 -22.5s-5.5 -17.833 -5.5 -28.5c0 -10 2.16699 -19.333 6.5 -28
s11.166 -16.334 20.499 -23.001l14 -8.5c4 -2.33301 9 -4.5 15 -6.5l34 -4c22 0 45.167 4.16699 69.5 12.5s50.5 21.833 78.5 40.5c23.333 14 40.666 25.667 51.999 35s18.333 16.333 21 21v279z" />
    <glyph glyph-name="braceright" unicode="}" horiz-adv-x="492" 
d="M383 475l0.000976562 -137.002h-195c-10.667 0 -20.334 -1.66699 -29.001 -5c-8 -2 -15 -6 -21 -12c-6 -4.66699 -10.333 -12 -13 -22l-4 -32c0 -18.667 3.5 -35.167 10.5 -49.5s17.167 -26.833 30.5 -37.5s29 -19.667 47 -27c8.66699 -2.66699 17 -4.66699 25 -6
s18 -2 30 -2l10 1l15 2l12 2l6 1l-1 9c0 5.33301 1.66699 11.333 5 18c4.66699 17.333 11.667 30.833 21 40.5s20.333 14.5 33 14.5c7.33301 0 13.5 -1.16699 18.5 -3.5s9.66699 -5.66602 14 -9.99902s7.5 -9.5 9.5 -15.5l3 -18c0 -8.66699 -1.16699 -16.667 -3.5 -24
s-6 -14.833 -11 -22.5s-11.167 -13.834 -18.5 -18.501c-4.66699 -2 -12 -3.66699 -22 -5l4 -18l3 -12l7 -29l8 -25l3 -9l4 -10l3 -10l3 -9l5 -21l2 -17c0 -6 -0.666992 -10.667 -2 -14l-5 -11l-9 -8l-14 -5l-29 86l-15 -13
c-0.666992 -0.666992 -5.16699 -3.83398 -13.5 -9.50098s-14.5 -9.5 -18.5 -11.5c-16 -8.66699 -34.667 -16.334 -56 -23.001c-10 -2.66699 -18.833 -4.66699 -26.5 -6s-16.5 -2 -26.5 -2c-15.333 0 -30.333 2.83301 -45 8.5s-29 13.834 -43 24.501s-25 23.334 -33 38.001
c-6.66699 14.667 -10 29.334 -10 44.001c0 10 2 20.333 6 31s10 20 18 28c10.667 10.667 20.667 18.334 30 23.001s19.333 7.66699 30 9l-20 17l-13 16c-10 12.667 -18.667 27 -26 43c-2.66699 8 -4.66699 15.333 -6 22s-2 14.667 -2 24c0 18 2.33301 33.667 7 47
c4 14.667 10.667 26 20 34c9.33301 9.33301 20 16.333 32 21c6 2 12.333 3.66699 19 5s14 2 22 2l162 1v98h-330v41h490v-41h-107zM314.001 110.998l-12.001 -3.00195l-12 -1l-13 -1h-11l-17 1l-27 3l-28 3l-20 2l-29 -3c-6.66699 -2 -13.167 -5.16699 -19.5 -9.5
s-11.833 -11.5 -16.5 -21.5c-2 -5.33301 -3.33301 -9.66602 -4 -12.999s-1 -9.33301 -1 -18c0 -11.333 1.83301 -20.5 5.5 -27.5s9.5 -14.167 17.5 -21.5c6 -5.33301 14.333 -10 25 -14c6 -2 16 -3.66699 30 -5c10.667 0 18.667 0.333008 24 1s13.333 3 24 7
c16.667 4.66699 34.334 12 53.001 22l32 20c8.66699 6.66699 13.667 11.334 15 14.001z" />
    <glyph glyph-name="asciitilde" unicode="~" horiz-adv-x="5" 
d="M-21 -205l-133 146l45 22l109 -145z" />
    <glyph glyph-name="c128" horiz-adv-x="1000" 
 />
    <glyph glyph-name="c129" horiz-adv-x="1000" 
 />
    <glyph glyph-name="c141" horiz-adv-x="1000" 
 />
    <glyph glyph-name="c142" horiz-adv-x="1000" 
 />
    <glyph glyph-name="c143" horiz-adv-x="1000" 
 />
    <glyph glyph-name="c144" horiz-adv-x="1000" 
 />
    <glyph glyph-name="c157" horiz-adv-x="1000" 
 />
    <glyph glyph-name="c158" horiz-adv-x="1000" 
 />
    <glyph glyph-name="nonbreakingspace" unicode="&#xa0;" horiz-adv-x="379" 
 />
    <glyph glyph-name="exclamdown" unicode="&#xa1;" horiz-adv-x="12" 
d="M-207 699v55h59v-55h-59zM-32 661c-8 -16 -18.667 -30.5 -32 -43.5s-29.333 -23.167 -48 -30.5c-21.333 -6.66699 -43 -10 -65 -10s-42.167 3 -60.5 9s-34.333 15.5 -48 28.5s-24.667 27.5 -33 43.5s-14.5 36 -18.5 60l52 1c0 -16.667 2.66699 -31 8 -43
s13.666 -23.333 24.999 -34c8.66699 -7.33301 20.334 -14 35.001 -20c6 -2 12.333 -3.66699 19 -5s14 -2 22 -2c13.333 0 26.5 2 39.5 6s24.333 10.167 34 18.5s18.167 19.5 25.5 33.5c5.33301 14 8 29 8 45l51 1c0 -20 -4.66699 -39.333 -14 -58z" />
    <glyph glyph-name="cent" unicode="&#xa2;" horiz-adv-x="3" 
d="M-319 516l-207 214l35 38l205 -252h-33z" />
    <glyph glyph-name="sterling" unicode="&#xa3;" horiz-adv-x="632" 
d="M512 210l-4.00391 -8.00098c-4.66699 -6 -12 -11.333 -22 -16c-5.33301 -2 -9.66602 -3.33301 -12.999 -4s-9.33301 -1 -18 -1c-16 0 -30.833 2.5 -44.5 7.5s-25.667 12.333 -36 22s-19.166 21.167 -26.499 34.5c-5.33301 14 -8 29 -8 45c0 14.667 3 28.667 9 42
s14.833 25.333 26.5 36s24.834 19 39.501 25c7.33301 2.66699 14.333 4.66699 21 6s14.334 2 23.001 2l22 -3l23 -8l12 -36l-23 6l-25 3c-11.333 0 -21.333 -1.66699 -30 -5c-8.66699 -2 -16.5 -5.66699 -23.5 -11s-13.167 -13 -18.5 -23
c-3.33301 -8.66699 -5 -19.334 -5 -32.001l3 -30c2 -8 5 -14.667 9 -20s9 -9.66602 15 -12.999l19 -4c8 0 15.5 1.33301 22.5 4s13.5 6.33398 19.5 11.001l20 18l16 24v-59zM389.996 84.999l-41 29l118 79l8 -38zM255.996 331.999c0 -16 -3.33301 -29.165 -10 -39.498
s-17 -19.166 -31 -26.499l-36 -10l-46 -3l24 -53l24 -37c22 -28.667 48 -51.334 78 -68.001c14 -6.66699 29 -12 45 -16s32.667 -6 50 -6c21.333 0 41.833 3.16699 61.5 9.5s38.167 16.166 55.5 29.499l31 32l13 13v-52c-8 -10 -17.667 -19.667 -29 -29
c-2 -1.33301 -7.83301 -4.83301 -17.5 -10.5l-21.5 -12.5l-47 -16c-10.667 -2 -18.667 -3.33301 -24 -4s-14 -1 -26 -1c-20 0 -33.833 0.5 -41.5 1.5s-17.834 3.16699 -30.501 6.5c-21.333 6 -41.666 15 -60.999 27c-22 14 -43.667 33.667 -65 59
c-19.333 25.333 -38.666 56.666 -57.999 93.999l-17 40l-19 54l-4 11l-5 16l45 24l17 -56l6 -6l6 -4l16 -7l19 -2l20 3c6 2 11.167 5.16699 15.5 9.5s7.16602 8.83301 8.49902 13.5l3 19v140h-205v41h668v-41h-97v-475h-53v475h-262v-143z" />
    <glyph glyph-name="currency" unicode="&#xa4;" horiz-adv-x="220" 
d="M148 43l-0.00195312 -25.999h-96v-70l14 -16l13 3l8 1l9 1h14l22 -31l-33 -3l-29 -9c-10 -4.66699 -16.833 -9.33398 -20.5 -14.001s-6.16699 -10.667 -7.5 -18v-4c0.666992 -3.33301 1.33398 -5.33301 2.00098 -6l2 -4l4 -5c5.33301 -5.33301 11 -9.33301 17 -12l22 -4
c9.33301 0 18.833 1.16699 28.5 3.5s20.334 6.33301 32.001 12s20 10.334 25 14.001s7.83301 6.5 8.5 8.5v-43l-10 -6l-18 -9l-23 -8l-19 -5c-12 0 -23.667 2.33301 -35 7s-21.5 11.167 -30.5 19.5s-15.5 17.166 -19.5 26.499s-6.66699 20 -8 32l1 14l6 13
c2 4.66699 5.33301 8.66699 10 12l15 9l-36 29v62v26h132z" />
    <glyph glyph-name="yen" unicode="&#xa5;" horiz-adv-x="576" 
d="M510 475l-0.000976562 -475.001h-53v219l-20 -6l-20 -1l-17 1l-16 3c-8 1.33301 -14 3 -18 5l-16 8l-7.5 -29c-2.33301 -8.66699 -5.5 -17.334 -9.5 -26.001l-8 -24c-13.333 -22.667 -31.333 -41.334 -54 -56.001c-22 -12.667 -47.333 -19 -76 -19
c-17.333 0 -35.5 3 -54.5 9s-38.5 14 -58.5 24l-23 12c-7.33301 4 -13.666 7.66699 -18.999 11c-8 6 -12.333 10.333 -13 13l34 38c1.33301 -4 5.66602 -9 12.999 -15l31 -21c7.33301 -4.66699 15.5 -9.33398 24.5 -14.001s16.5 -8 22.5 -10c16 -5.33301 30.333 -8 43 -8
c15.333 0 29.166 3 41.499 9s23.333 15.333 33 28s16.834 26.334 21.501 41.001c2 8 3.66699 15.833 5 23.5s2 15.834 2 24.501c0 15.333 -2 29.833 -6 43.5s-10.167 26.334 -18.5 38.001s-19.166 20.667 -32.499 27s-27.333 9.5 -42 9.5c-6 0 -12.667 -1.33301 -20 -4
l-22 -9l-10 -6l-12 -8l-35 40l19 7l14 7l35 12l27 4c26.667 0 50 -5.5 70 -16.5s37.667 -27.833 53 -50.5c5.33301 -7.33301 10.333 -16.666 15 -27.999l15 -39l9 -4l9 -3l16 -6l14 -1c13.333 0 24.5 1.16699 33.5 3.5s18.167 6.5 27.5 12.5v206h-457v41h582v-41h-72z" />
    <glyph glyph-name="brokenbar" unicode="&#xa6;" 
 />
    <glyph glyph-name="section" unicode="&#xa7;" horiz-adv-x="220" 
d="M148 43l-0.00195312 -25.999h-96v-70l14 -16l13 3l8 1l9 1h14l22 -31l-33 -3l-29 -9c-10 -4.66699 -16.833 -9.33398 -20.5 -14.001s-6.16699 -10.667 -7.5 -18v-4c0.666992 -3.33301 1.33398 -5.33301 2.00098 -6l2 -4l4 -5c5.33301 -5.33301 11 -9.33301 17 -12l22 -4
c9.33301 0 18.833 1.16699 28.5 3.5s20.334 6.33301 32.001 12s20 10.334 25 14.001s7.83301 6.5 8.5 8.5v-43l-10 -6l-18 -9l-23 -8l-19 -5c-12 0 -23.667 2.33301 -35 7s-21.5 11.167 -30.5 19.5s-15.5 17.166 -19.5 26.499s-6.66699 20 -8 32l1 14l6 13
c2 4.66699 5.33301 8.66699 10 12l15 9l-36 29v62v26h132z" />
    <glyph glyph-name="dieresis" unicode="&#xa8;" horiz-adv-x="215" 
d="M141 475v-475h-53v475h-88v41h66l-193 214l37 38l203 -252h100v-41h-72z" />
    <glyph glyph-name="copyright" unicode="&#xa9;" horiz-adv-x="215" 
d="M141 475v-475h-53v475h-88v41l-203 132l37 41l193 -173h49l-168 226l47 26l158 -252h100v-41h-72z" />
    <glyph glyph-name="ordfeminine" unicode="&#xaa;" horiz-adv-x="12" 
d="M-127 -143l-123 153l-135 -153h-60l166 180h54l157 -180h-59z" />
    <glyph glyph-name="guillemotleft" unicode="&#xab;" horiz-adv-x="324" 
d="M-2 475v41h371v-41h-371zM172 45l-31 45.002l248 129l-33 32l-24 23c-19.333 18.667 -36.5 32.834 -51.5 42.501s-25.5 14.5 -31.5 14.5c-5.33301 0 -11 -0.333008 -17 -1s-14.833 -2.83398 -26.5 -6.50098s-29.167 -11.5 -52.5 -23.5l-29 -15l-38 -20l-31 40
c3.33301 1.33301 6 2.66602 8 3.99902c12.667 7.33301 20.334 11.666 23.001 12.999l87 36l50 18c14 4 24.333 6 31 6c9.33301 0 21.666 -5.66699 36.999 -17c15.333 -10 33.333 -26 54 -48l49 -50l20 -20v-58z" />
    <glyph glyph-name="logicalnot" unicode="&#xac;" 
 />
    <glyph glyph-name="minus" unicode="&#xad;" 
 />
    <glyph glyph-name="registered" unicode="&#xae;" horiz-adv-x="215" 
d="M141 475v-475h-53v475h-88v41h66l-193 214l37 38l203 -252h100v-41h-72z" />
    <glyph glyph-name="macron" unicode="&#xaf;" 
 />
    <glyph glyph-name="degree" unicode="&#xb0;" 
 />
    <glyph glyph-name="plusminus" unicode="&#xb1;" horiz-adv-x="12" 
d="M-86 602v56h61v-56h-61zM-30 711l-6.99707 3.00195l-19 4l-21 2c-10 0 -18.833 -1.66699 -26.5 -5s-14.167 -7.83301 -19.5 -13.5s-9.83301 -13 -13.5 -22s-5.5 -19.167 -5.5 -30.5c0 -10 0.333008 -17.333 1 -22s3.16699 -13.167 7.5 -25.5
s12.166 -27.166 23.499 -44.499l14 -19l19 -23l-38 1c-2 1.33301 -3.83301 2.66602 -5.5 3.99902s-4.5 4.66602 -8.5 9.99902l-23 36c-2.66699 4.66699 -7 13.5 -13 26.5l-13 28.5c-6 18 -9 34.667 -9 50c0 14.667 2.5 27.167 7.5 37.5s13.167 19.666 24.5 27.999
s23.166 14.5 35.499 18.5s26.166 6 41.499 6l29 -3l27 -9l-1 -40z" />
    <glyph glyph-name="twosuperior" unicode="&#xb2;" 
 />
    <glyph glyph-name="threesuperior" unicode="&#xb3;" horiz-adv-x="588" 
d="M510 279v59h62v-59h-62zM451 475l-0.00292969 -130.997h-213l-6 -8l-1 -7l1 -11c1.33301 -5.33301 3 -9.33301 5 -12l8 -16l15 -21l15 -18l15 -12l15 -9l15 -2h6l4 1l49 14l20 6l25 6l17 2c8 0 15.167 -2.16699 21.5 -6.5s12.5 -11.166 18.5 -20.499l8 -25l3 -28
c0 -14 -0.666992 -25.833 -2 -35.5s-4.33301 -20.5 -9 -32.5c-6.66699 -18.667 -17 -35 -31 -49s-31 -25 -51 -33c-20 -6.66699 -40.333 -10 -61 -10c-24.667 0 -49 4.83301 -73 14.5s-48.333 24.167 -73 43.5c-16 12.667 -34.333 28.667 -55 48
c-16.667 18 -33.667 38 -51 60l-31 42l-10 20l39 38c0.666992 -2.66699 1.16699 -4.83398 1.5 -6.50098s3 -6.83398 8 -15.501s8.5 -14.5 10.5 -17.5s7.66699 -10.5 17 -22.5c9.33301 -14 17 -24.833 23 -32.5s14 -16.834 24 -27.501l49 -47
c22 -18 43.167 -31.833 63.5 -41.5s39.5 -14.5 57.5 -14.5c16.667 0 30.834 2.66699 42.501 8s22.334 13.166 32.001 23.499s16.834 23.333 21.501 39s7 31.167 7 46.5c0 11.333 -2.16699 19.666 -6.5 24.999s-10.833 8 -19.5 8c-5.33301 0 -13 -1.66699 -23 -5
c-7.33301 -1.33301 -12.833 -2.5 -16.5 -3.5s-11.167 -4.16699 -22.5 -9.5l-21 -7l-14 -2c-16 0 -32.167 5 -48.5 15s-32.166 25.333 -47.499 46c-16.667 20.667 -28.834 39.334 -36.501 56.001s-11.5 31.667 -11.5 45l3 19c2 6 5.66699 10.333 11 13l17 7l22 2l173 1v90
h-400v41h586v-41h-135z" />
    <glyph glyph-name="acute" unicode="&#xb4;" horiz-adv-x="576" 
d="M510 475l-0.000976562 -475.001h-53v219l-20 -6l-20 -1l-17 1l-16 3c-8 1.33301 -14 3 -18 5l-16 8l-7.5 -29c-2.33301 -8.66699 -5.5 -17.334 -9.5 -26.001l-8 -24c-13.333 -22.667 -31.333 -41.334 -54 -56.001c-22 -12.667 -47.333 -19 -76 -19
c-17.333 0 -35.5 3 -54.5 9s-38.5 14 -58.5 24l-23 12c-7.33301 4 -13.666 7.66699 -18.999 11c-8 6 -12.333 10.333 -13 13l34 38c1.33301 -4 5.66602 -9 12.999 -15l31 -21c7.33301 -4.66699 15.5 -9.33398 24.5 -14.001s16.5 -8 22.5 -10c16 -5.33301 30.333 -8 43 -8
c15.333 0 29.166 3 41.499 9s23.333 15.333 33 28s16.834 26.334 21.501 41.001c2 8 3.66699 15.833 5 23.5s2 15.834 2 24.501c0 15.333 -2 29.833 -6 43.5s-10.167 26.334 -18.5 38.001s-19.166 20.667 -32.499 27s-27.333 9.5 -42 9.5c-6 0 -12.667 -1.33301 -20 -4
l-22 -9l-10 -6l-12 -8l-35 40l19 7l14 7l35 12l27 4c26.667 0 50 -5.5 70 -16.5s37.667 -27.833 53 -50.5c5.33301 -7.33301 10.333 -16.666 15 -27.999l15 -39l9 -4l9 -3l16 -6l14 -1c13.333 0 24.5 1.16699 33.5 3.5s18.167 6.5 27.5 12.5v206h-457v41h582v-41h-72z" />
    <glyph glyph-name="mu" unicode="&#xb5;" 
 />
    <glyph glyph-name="paragraph" unicode="&#xb6;" horiz-adv-x="420" 
d="M416 324c-10.667 -4 -19.6689 -10.335 -27.002 -19.002c-8 -7.33301 -15.333 -17 -22 -29l-7 -15l-8 -20v-241h-53v199c-6 -7.33301 -13.333 -13.333 -22 -18l-23 -11l-25 -7l-25 -2c-12.667 0 -21.667 0.333008 -27 1s-13.666 3.33398 -24.999 8.00098
s-24.166 13.167 -38.499 25.5s-24.833 26.833 -31.5 43.5c-2.66699 6.66699 -5 14.834 -7 24.501s-3 19.167 -3 28.5v183h-72v41h418v-41h-66v-153l20 17l28 19l30 15l25 5v-44zM298.998 474.998l-176.002 0.000976562v-190c0 -16.667 1.33301 -28.667 4 -36
s5.33398 -13.333 8.00098 -18s6.33398 -9.33398 11.001 -14.001s11.667 -9 21 -13l32 -4c13.333 0 26 2.16699 38 6.5s23 11.5 33 21.5c7.33301 7.33301 13.5 15 18.5 23s8.5 17 10.5 27v197z" />
    <glyph glyph-name="periodcentered" unicode="&#xb7;" horiz-adv-x="361" 
d="M375 67c-6.66699 -15.333 -18 -28.998 -34 -40.998c-12.667 -10.667 -29.667 -19.334 -51 -26.001c-9.33301 -2.66699 -18.5 -4.66699 -27.5 -6s-20.167 -2 -33.5 -2c-16.667 0 -33.334 2.33301 -50.001 7c-18 4 -36.333 11.667 -55 23
c-28.667 15.333 -51 28.833 -67 40.5s-26 21.834 -30 30.501l36 36c0 -4 4.66699 -10.667 14 -20l40 -33c20.667 -16 40 -28 58 -36s34.667 -12 50 -12h19c8 2 14 3.33301 18 4c12 3.33301 23.333 8.16602 34 14.499s19.334 15.833 26.001 28.5s10 25.667 10 39
c0 11.333 -5.5 25.333 -16.5 42s-28.833 36 -53.5 58l-66 54l-64 56c-12 10.667 -22.667 21.167 -32 31.5s-16.666 19.5 -21.999 27.5c-11.333 18.667 -17 34.667 -17 48c0 14.667 2.16699 27 6.5 37s10.833 18.5 19.5 25.5s18.667 12.167 30 15.5
s19.833 5.16602 25.5 5.49902s10.167 0.5 13.5 0.5l209 1v-39l-211 -2c-6 0 -11.667 -1.33301 -17 -4l-15 -9l-11 -14l-4 -15c0 -8 5.66699 -18.333 17 -31s29.666 -29.667 54.999 -51l94 -79l41 -34c24.667 -23.333 43 -44.833 55 -64.5s18 -36.834 18 -51.501
c0 -19.333 -4 -37.666 -12 -54.999z" />
    <glyph glyph-name="periodcentered" unicode="&#x2219;" horiz-adv-x="361" 
d="M375 67c-6.66699 -15.333 -18 -28.998 -34 -40.998c-12.667 -10.667 -29.667 -19.334 -51 -26.001c-9.33301 -2.66699 -18.5 -4.66699 -27.5 -6s-20.167 -2 -33.5 -2c-16.667 0 -33.334 2.33301 -50.001 7c-18 4 -36.333 11.667 -55 23
c-28.667 15.333 -51 28.833 -67 40.5s-26 21.834 -30 30.501l36 36c0 -4 4.66699 -10.667 14 -20l40 -33c20.667 -16 40 -28 58 -36s34.667 -12 50 -12h19c8 2 14 3.33301 18 4c12 3.33301 23.333 8.16602 34 14.499s19.334 15.833 26.001 28.5s10 25.667 10 39
c0 11.333 -5.5 25.333 -16.5 42s-28.833 36 -53.5 58l-66 54l-64 56c-12 10.667 -22.667 21.167 -32 31.5s-16.666 19.5 -21.999 27.5c-11.333 18.667 -17 34.667 -17 48c0 14.667 2.16699 27 6.5 37s10.833 18.5 19.5 25.5s18.667 12.167 30 15.5
s19.833 5.16602 25.5 5.49902s10.167 0.5 13.5 0.5l209 1v-39l-211 -2c-6 0 -11.667 -1.33301 -17 -4l-15 -9l-11 -14l-4 -15c0 -8 5.66699 -18.333 17 -31s29.666 -29.667 54.999 -51l94 -79l41 -34c24.667 -23.333 43 -44.833 55 -64.5s18 -36.834 18 -51.501
c0 -19.333 -4 -37.666 -12 -54.999z" />
    <glyph glyph-name="cedilla" unicode="&#xb8;" horiz-adv-x="287" 
d="M353 167l-31.002 -13.999l-17 -5l-16 -4c-8 0 -14 -0.666992 -18 -2l-16 -1c-14 0 -25.833 0.666992 -35.5 2s-21.167 4.33301 -34.5 9c-20 7.33301 -39.333 19.166 -58 35.499s-33.667 35.833 -45 58.5c-9.33301 22.667 -14 47 -14 73l8 -2
c4.66699 -0.666992 8.5 -1.33398 11.5 -2.00098s5.16699 -1.33398 6.5 -2.00098h10l34 3c10 2 19 5.66699 27 11s14.333 13.5 19 24.5s7 23.167 7 36.5c0 10.667 -2.33301 20.667 -7 30c-3.33301 8.66699 -9.33301 19.334 -18 32.001l-11 11l-14 13l-141 1v41h291v-41h-86
l12 -16l8 -11c6.66699 -10 12 -20.667 16 -32c1.33301 -5.33301 2.33301 -10.333 3 -15s1.33398 -9.66699 2.00098 -15c0 -21.333 -4.66699 -40.333 -14 -57s-24 -30 -44 -40l-25 -8l-34 -7l3 -9l4 -8l3 -7l3 -6c13.333 -22 29.333 -38.333 48 -49s39.334 -16 62.001 -16
c13.333 0 26.333 1.83301 39 5.5s25.667 9.83398 39 18.501c8.66699 6 14.5 10.333 17.5 13s7.16699 7 12.5 13c8 9.33301 15 19.333 21 30v-71c-8.66699 -8.66699 -18 -15.667 -28 -21z" />
    <glyph glyph-name="onesuperior" unicode="&#xb9;" 
 />
    <glyph glyph-name="ordmasculine" unicode="&#xba;" horiz-adv-x="445" 
d="M229 219c-15.333 0 -28.3311 -2.66699 -38.998 -8c-10 -3.33301 -20.667 -10.333 -32 -21c-10 -8 -17.333 -18.333 -22 -31c-2 -6 -3.66699 -11.833 -5 -17.5s-2 -12.167 -2 -19.5c0 -22.667 9.66699 -41.834 29 -57.501s48.333 -28.5 87 -38.5l33 -4
c5.33301 -0.666992 13.666 -2 24.999 -4l58 -7l-17 -36l-22 -1c-11.333 0 -25.333 1.5 -42 4.5s-31.667 5.83301 -45 8.5s-25.333 6 -36 10c-22 6 -40.667 13.667 -56 23c-22 13.333 -39.333 29 -52 47c-11.333 18.667 -17 39 -17 61c0 8.66699 1.16699 16.834 3.5 24.501
s6.33301 16 12 25s12.167 17.167 19.5 24.5l24 24l-21 22l-13 17c-12 15.333 -21 29.666 -27 42.999c-1.33301 4 -2.83301 10 -4.5 18s-2.83398 14.333 -3.50098 19l3 18c2 4.66699 5.66699 9.33398 11 14.001l15 8l18 3l211 1v86h-322v41h445v-41h-70v-129h-238
c-6 0 -10.667 -1.66699 -14 -5l-4 -10l4 -16c4 -8 8.66699 -15 14 -21l8 -13l12 -14l2 -4l5 -4l291 1v-41h-226z" />
    <glyph glyph-name="guillemotright" unicode="&#xbb;" horiz-adv-x="553" 
d="M240 404v69h69v-69h-69zM14 234v43h513v-43h-513zM240 43v68h69v-68h-69z" />
    <glyph glyph-name="onequarter" unicode="&#xbc;" horiz-adv-x="240" 
d="M230 -176l-11.001 14.999l-27 44l-40 76c-6.66699 14 -12.334 27 -17.001 39c-2 4.66699 -7 18.334 -15 41.001c-13.333 38.667 -23.333 76 -30 112c-2.66699 16 -5 33.667 -7 53s-3 37 -3 53c0 38 3.16699 76.667 9.5 116s15.833 76 28.5 110
c10 30.667 20.833 57.5 32.5 80.5s24.834 46.833 39.501 71.5l27 41c5.33301 8 9.66602 12.667 12.999 14l59 1c-17.333 -18 -35.666 -43 -54.999 -75c-8 -13.333 -16.5 -29.5 -25.5 -48.5s-17.833 -38.833 -26.5 -59.5l-22 -63c-2 -8 -4.66699 -18 -8 -30
s-5.66602 -22.667 -6.99902 -32l-9 -63l-3 -63c0 -38 3.16699 -75 9.5 -111s16.5 -73 30.5 -111c8.66699 -24 19.667 -49.333 33 -76c11.333 -24.667 25.333 -50 42 -76l20 -29l21 -30h-59z" />
    <glyph glyph-name="onehalf" unicode="&#xbd;" horiz-adv-x="252" 
d="M205 149c-3.33301 -21.333 -6.99902 -39.6719 -10.999 -55.0049s-10 -33.666 -18 -54.999c-8.66699 -27.333 -19.334 -53 -32.001 -77c-6 -13.333 -12.333 -26.5 -19 -39.5s-14 -25.833 -22 -38.5l-28 -45c-3.33301 -5.33301 -6.33301 -9.66602 -9 -12.999
c0 -0.666992 -0.666992 -1.33398 -2 -2.00098h-56l20 30l20 29c7.33301 11.333 14.333 23.333 21 36c4 7.33301 10.667 20.333 20 39l34 77c13.333 37.333 23.5 74.833 30.5 112.5s10.5 74.167 10.5 109.5c0 40 -3.16699 78.5 -9.5 115.5s-16.5 74.833 -30.5 113.5
c-10 26 -21.333 51.667 -34 77c-6 12.667 -12.167 24.834 -18.5 36.501s-13.833 23.834 -22.5 36.501l-29 40c-2.66699 4 -6 8 -10 12l-2 2l56 1l12 -15l27 -41c7.33301 -11.333 14.333 -23.333 21 -36c4 -7.33301 10.667 -20.333 20 -39c6 -12 12.667 -27 20 -45
c4 -9.33301 8 -19.666 12 -30.999c12 -34 21.667 -71.667 29 -113c2.66699 -16 5 -34.667 7 -56s3 -40.666 3 -57.999c0 -36.667 -3.33301 -72.667 -10 -108z" />
    <glyph glyph-name="threequarters" unicode="&#xbe;" horiz-adv-x="564" 
d="M18 332v43h513v-43h-513zM18 135v43h513v-43h-513z" />
    <glyph glyph-name="questiondown" unicode="&#xbf;" horiz-adv-x="203" 
d="M244 -182c-21.333 0 -40 2.66602 -56 7.99902c-15.333 4 -29.666 10.833 -42.999 20.5s-23.5 22.834 -30.5 39.501s-10.5 34.334 -10.5 53.001v209c0 12.667 -1.5 24.167 -4.5 34.5s-8 21.666 -15 33.999s-14.833 22.5 -23.5 30.5c-7.33301 8 -16.666 15.333 -27.999 22
l10 8l9 6l18 15l12 15l8 15l7 20l5 20l2 16v210c0 11.333 0.5 19.166 1.5 23.499s3.5 11.833 7.5 22.5s11.167 22.834 21.5 36.501s22.5 23.834 36.5 30.501c6 2.66699 12.167 5 18.5 7s14.5 3 24.5 3l13 -2l17 -3l82 1v-31h-80c-9.33301 0 -15.833 -0.333008 -19.5 -1
s-10.334 -3 -20.001 -7s-19.5 -10 -29.5 -18s-18 -18 -24 -30c-4.66699 -12 -7 -23.667 -7 -35v-206l-2 -17c0 -6.66699 -1.33301 -14.334 -4 -23.001c-1.33301 -7.33301 -2.33301 -12.166 -3 -14.499s-2.33398 -5.83301 -5.00098 -10.5l-11 -18l-53 -32l10 -8l8 -4
c8 -4.66699 14 -9.33398 18 -14.001l13 -11l4 -7l6 -8l4 -11l5 -14l7 -27l3 -21v-204c0 -14.667 2.16699 -27 6.5 -37s11 -18.5 20 -25.5s19.833 -12.5 32.5 -16.5c8 -2 14.333 -3.33301 19 -4s12 -1 22 -1h80v-39h-82z" />
    <glyph glyph-name="Agrave" unicode="&#xc0;" horiz-adv-x="385" 
d="M313 247c-8 -8 -14.832 -16.8311 -20.499 -26.498s-10.834 -21.834 -15.501 -36.501l-4 -37v-208c0 -20 -3.66699 -37.667 -11 -53s-18 -28 -32 -38c-12 -10 -26.667 -17.333 -44 -22c-8.66699 -2.66699 -17 -4.66699 -25 -6s-18 -2 -30 -2h-80v39h78
c16.667 0 30.5 1.66699 41.5 5s20.833 8.66602 29.5 15.999c8.66699 5.33301 15.334 14 20.001 26s7 24.333 7 37v205l2 20l8 26l10 25l13 18l12 10l17 13l7 4l11 7l-51 34l-11 13l-8 20l-8 26l-2 22v208c0 12.667 -2.33301 23.834 -7 33.501s-12.334 19.5 -23.001 29.5
c-10 8 -20.833 14.333 -32.5 19s-23.5 7 -35.5 7l-78 1v31h80l8 1l7 2l6 1h4h5c14 0 27.667 -3.16699 41 -9.5s25.5 -15.833 36.5 -28.5s19.5 -26.334 25.5 -41.001s9 -29.667 9 -45v-208l1 -19c0 -6.66699 1.33301 -12.667 4 -18l6 -18l8 -16l5 -8l7 -7l8 -8l10 -8l8 -6
l12 -8c-9.33301 -4.66699 -19 -12 -29 -22z" />
    <glyph glyph-name="Aacute" unicode="&#xc1;" horiz-adv-x="445" 
d="M377 475v-475h-53v217l-250 -217l-39 35l168 133c-18 0 -34.667 3 -50 9s-28.5 15.5 -39.5 28.5s-20.167 28.167 -27.5 45.5c-2.66699 8.66699 -4.66699 17 -6 25s-2 18 -2 30v169h-78v41h445v-41h-68zM322 475h-193v-176c0 -15.333 2.5 -29 7.5 -41s12.5 -22 22.5 -30
c7.33301 -6 16 -11.667 26 -17c6 -2 16 -3.66699 30 -5c8 0 13.833 0.5 17.5 1.5s8.66699 3.16699 15 6.5l18.5 10c6 3.33301 13 8.33301 21 15l15 13l20 20v203z" />
    <glyph glyph-name="Acircumflex" unicode="&#xc2;" 
 />
    <glyph glyph-name="Atilde" unicode="&#xc3;" horiz-adv-x="445" 
d="M451 516l0.00488281 -41.0049h-113v-131h-209l-3 -4l-3 -5l1 -14l4 -11l9 -15l15 -19l18 -20l11 -12l16 -13l14 -3c8.66699 0 17.5 1 26.5 3s16.333 3.83301 22 5.5s14.5 4.83398 26.5 9.50098l24 7l20 2c7.33301 0 14.666 -2.16699 21.999 -6.5
s13.166 -9.5 17.499 -15.5s8.16602 -14.333 11.499 -25l4 -27c0 -23.333 -3.66699 -44.333 -11 -63c-5.33301 -16.667 -15.333 -33.334 -30 -50.001c-6.66699 -6.66699 -14.334 -13.334 -23.001 -20.001s-17 -12.667 -25 -18c-17.333 -8.66699 -33.333 -13 -48 -13l11 -12
l10 -7l22 -19l18 -16l40 -26l28 -17l-27 -43l-15 10l-11 7c-4.66699 2.66699 -9.5 5.83398 -14.5 9.50098s-10.167 8.16699 -15.5 13.5l-30 26l-21 18l-25 25l-19 17l-8 10h-19h-16c-6.66699 1.33301 -13 2.33301 -19 3s-10.833 1.33398 -14.5 2.00098
s-8.5 2.33398 -14.5 5.00098c-16 5.33301 -28 13.333 -36 24c-3.33301 4.66699 -6 10.334 -8 17.001s-3 14.334 -3 23.001l3 17c2 6 5.33301 11.333 10 16l14 10l19 4c10.667 0 22.167 -3.16699 34.5 -9.5s25.166 -16.166 38.499 -29.499l13 -17l18 -22
c11.333 0 23 1.66699 35 5c11.333 2 19.666 4.66699 24.999 8c20.667 9.33301 36 22.333 46 39s15 35.667 15 57l-1 19c0 7.33301 -0.666992 12.333 -2 15c0 4 -1.66699 7 -5 9l-10 4l-16 -4l-33 -12l-38 -11l-28 -4c-12 0 -25.667 5.33301 -41 16
s-30.666 26.5 -45.999 47.5s-27.166 39.5 -35.499 55.5s-12.5 29.667 -12.5 41l3 15l11 14l16 10l17 4l174 1v90h-285v41h286l-20 29l-19 36l-19 48c-4 15.333 -6 29.333 -6 42c0 14.667 2.5 27 7.5 37s13.167 19.667 24.5 29c11.333 8 23.166 14 35.499 18
s26.166 6 41.499 6l29 -3l27 -9v-40l-8 2l-7 3l-20 4l-20 2c-10 0 -19 -1.66699 -27 -5s-14.667 -7.83301 -20 -13.5s-10 -13.167 -14 -22.5l-4 -30c0 -12.667 1.33301 -23.5 4 -32.5s5.33398 -16.833 8.00098 -23.5s6 -14 10 -22l16 -28l19 -28z" />
    <glyph glyph-name="Adieresis" unicode="&#xc4;" horiz-adv-x="536" 
d="M363 133l-31.999 -14l-47 -15c-15.333 -3.33301 -29.333 -5 -42 -5c-6.66699 0 -13.834 0.166992 -21.501 0.5s-17.5 2.83301 -29.5 7.5c-15.333 4.66699 -30.333 12.334 -45 23.001s-26 23 -34 37c-6.66699 14.667 -10 29.667 -10 45c0 12 2.16699 23.667 6.5 35
s11.5 22.666 21.5 33.999l11 11l17 14l-24 10l-16 10c-13.333 9.33301 -23.333 20.333 -30 33s-10 26 -10 40l2 20l7 23l10 20l10 12l-107 1v41h548v-41h-97v-475h-53v153zM398.001 475l-228.002 -0.00390625l-12 -11l-8 -8l-16 -26c-2 -5.33301 -3.66699 -14.333 -5 -27
c0 -10 2 -19 6 -27s10.667 -15.667 20 -23c4.66699 -4 8.5 -6.83301 11.5 -8.5s6.5 -3.5 10.5 -5.5l24 -4l86 1l18 -37h-55c-10 0 -20.667 -2.33301 -32 -7c-10.667 -3.33301 -21 -8.66602 -31 -15.999s-18 -16.666 -24 -27.999s-9 -23.333 -9 -36
c0 -11.333 2.16699 -21.166 6.5 -29.499s11.333 -15.833 21 -22.5s20.167 -12 31.5 -16l37 -4c5.33301 0 11.5 0.333008 18.5 1s13.667 2 20 4l21.5 7c8 2.66699 15.667 6 23 10c8.66699 3.33301 14.334 5.83301 17.001 7.5s7.33398 4.83398 14.001 9.50098l34 23v273z" />
    <glyph glyph-name="Aring" unicode="&#xc5;" horiz-adv-x="672" 
d="M365 475l12.0039 -16.999l8 -12c6.66699 -11.333 12 -23 16 -35c0.666992 -3.33301 1.5 -8 2.5 -14s1.83301 -12.333 2.5 -19c0 -20.667 -4.5 -38.667 -13.5 -54s-23.167 -28.666 -42.5 -39.999l29 -20l7 -8l12 -13l2 -3l4 -3l18 19l15 15l21 15l21 11l20 7l21 2
c14.667 0 28.167 -2.66699 40.5 -8s24.5 -14 36.5 -26c10 -11.333 17.833 -23.833 23.5 -37.5s8.5 -27.834 8.5 -42.501c0 -8.66699 -0.333008 -15.667 -1 -21s-2.5 -13.166 -5.5 -23.499s-5.5 -18.166 -7.5 -23.499s-6 -14 -12 -26c-10.667 -22 -21.167 -40.5 -31.5 -55.5
s-19.833 -26.833 -28.5 -35.5l-47 28l24 28l18 23c13.333 18.667 23.666 37.5 30.999 56.5s11 36.167 11 51.5l-3 26l-9 22c-4.66699 8 -11.667 14.167 -21 18.5s-19 6.5 -29 6.5c-10.667 0 -21.334 -3.16699 -32.001 -9.5s-22 -15.5 -34 -27.5l-12 -16l-14 -22v-5v-4v-6
l1 -7c0 -8.66699 -0.333008 -17.334 -1 -26.001s-2.33398 -19.334 -5.00098 -32.001s-7.66699 -24.667 -15 -36c-11.333 -20 -26.5 -34.833 -45.5 -44.5s-42.167 -14.5 -69.5 -14.5c-26 0 -50.5 6.33301 -73.5 19s-44.833 32.334 -65.5 59.001
c-12.667 17.333 -26.334 39 -41.001 65c-10.667 21.333 -21.334 48 -32.001 80l-17 56c-2.66699 14 -3.66699 22.333 -3 25l43 33l9 -39l9 -38c7.33301 -26.667 16.333 -53.334 27 -80.001c4.66699 -11.333 9.5 -22 14.5 -32s10.833 -19.667 17.5 -29
c16 -24.667 33 -43.667 51 -57c19.333 -12.667 39 -19 59 -19c16.667 0 30.834 2.5 42.501 7.5s20.834 12.5 27.501 22.5l10 26l4 37c0 16 -1.66699 29 -5 39c-2 12.667 -6.33301 23.667 -13 33c-6 10.667 -14 19 -24 25s-20.667 9 -32 9l-78 1l-20 43h92l18 6
c5.33301 2 9.66602 4.66699 12.999 8c9.33301 7.33301 16.833 16.5 22.5 27.5s8.5 23.5 8.5 37.5c0 9.33301 -2.16699 19.166 -6.5 29.499s-10.833 21.5 -19.5 33.5l-11 12l-15 17l-303 1v41h682v-41h-317z" />
    <glyph glyph-name="AE" unicode="&#xc6;" horiz-adv-x="215" 
d="M638 711l-5.99805 3.00195l-19 4l-19 2c-11.333 0 -20.833 -1.66699 -28.5 -5s-14.667 -8.16602 -21 -14.499s-11.166 -13.833 -14.499 -22.5s-5 -18.334 -5 -29.001c0 -10 0.333008 -17.333 1 -22s3.16699 -12.334 7.5 -23.001s8.16602 -19.167 11.499 -25.5
s8 -13.5 14 -21.5l14 -19l21 -23l-59 1l-25 22l-24 24c-20 18 -31.667 28.333 -35 31l-24 17l-60 40c-26.667 16 -51.834 28 -75.501 36s-45.167 12 -64.5 12c-15.333 0 -28.666 -2.66699 -39.999 -8c-12.667 -4 -23.834 -11.167 -33.501 -21.5s-17.5 -22.5 -23.5 -36.5
c-2 -6.66699 -3.66699 -14 -5 -22s-2 -16.333 -2 -25l1 -20l6 -22l7 -20l4 -8l72 1v-41h-72v-475h-53v475h-88v41h92l-3 3l-3 13l-9 33l-3 28c0 21.333 3.33301 40.333 10 57s17.167 32.167 31.5 46.5s31.5 25.333 51.5 33s41 11.5 63 11.5c28 0 56.333 -5.66699 85 -17
c29.333 -10 60.666 -26 93.999 -48c10 -5.33301 22.333 -14.333 37 -27c12.667 -9.33301 28 -22.333 46 -39l-4 8l-1 7l-4 21l-1 25c0 14.667 2.33301 27.167 7 37.5s12.167 19.666 22.5 27.999s21.5 14.5 33.5 18.5s25.667 6 41 6l32 -3l28 -9v-40z" />
    <glyph glyph-name="Ccedilla" unicode="&#xc7;" horiz-adv-x="216" 
d="M535 516l-24.998 22l-24 24c-20 18 -31.667 28.333 -35 31l-24 17l-60 40c-26.667 16 -51.834 28 -75.501 36s-45.167 12 -64.5 12c-15.333 0 -28.666 -2.66699 -39.999 -8c-12.667 -4 -23.834 -11.167 -33.501 -21.5s-17.5 -22.5 -23.5 -36.5
c-2 -6.66699 -3.66699 -14 -5 -22s-2 -16.333 -2 -25l1 -20l5 -23l6 -19l4 -8l87 1v-41h-85v-475h-53v475h-88v41h91l-4 9l-6 25l-6 27l-1 16c0 21.333 3.33301 40.333 10 57s17.167 32.167 31.5 46.5s31.5 25.333 51.5 33s41 11.5 63 11.5c24 0 50.5 -4.83301 79.5 -14.5
s59.5 -24.167 91.5 -43.5c23.333 -14 46.666 -30.333 69.999 -49l72 -60l29 -30l30 -29zM555.002 613v65h69v-65h-69z" />
    <glyph glyph-name="Egrave" unicode="&#xc8;" horiz-adv-x="215" 
d="M140 475l-0.00195312 -474.998h-52v475h-88v41h76c4 4 -0.333008 16 -13 36s-34.667 48 -66 84c-16 18 -31.167 31.833 -45.5 41.5s-27.166 14.5 -38.499 14.5c-10.667 0 -20.334 -2.16699 -29.001 -6.5s-15.667 -10.5 -21 -18.5s-9.16602 -15.833 -11.499 -23.5
s-4 -13.834 -5 -18.501s-1.5 -11 -1.5 -19c0 -8.66699 1.33301 -17.334 4 -26.001c0.666992 -2.66699 2 -7 4 -13s4.33301 -11.667 7 -17l13 -25l7 -10l-58 1l-12 16l-10 20l-7 22l-2 23c0 16.667 3 33 9 49c4.66699 15.333 12.667 29.833 24 43.5s24.5 24 39.5 31
s30.833 10.5 47.5 10.5c24 0 48.833 -9 74.5 -27s51.834 -45 78.501 -81l29 -45l36 -63l95 1v-41h-84zM134.998 578.002v65h69v-65h-69z" />
    <glyph glyph-name="Eacute" unicode="&#xc9;" horiz-adv-x="215" 
d="M584 602v56h59v-56h-59zM638 711l-5.99805 3.00195l-19 4l-19 2c-11.333 0 -20.833 -1.66699 -28.5 -5s-14.667 -8.16602 -21 -14.499s-11.166 -13.833 -14.499 -22.5s-5 -18.334 -5 -29.001c0 -10 0.333008 -17.333 1 -22s3.16699 -12.334 7.5 -23.001
s8.16602 -19.167 11.499 -25.5s8 -13.5 14 -21.5l14 -19l21 -23l-59 1l-25 22l-24 24c-20 18 -31.667 28.333 -35 31l-24 17l-60 40c-26.667 16 -51.834 28 -75.501 36s-45.167 12 -64.5 12c-15.333 0 -28.666 -2.66699 -39.999 -8
c-12.667 -4 -23.834 -11.167 -33.501 -21.5s-17.5 -22.5 -23.5 -36.5c-2 -6.66699 -3.66699 -14 -5 -22s-2 -16.333 -2 -25l1 -20l6 -22l7 -20l4 -8l72 1v-41h-72v-475h-53v475h-88v41h92l-3 3l-3 13l-9 33l-3 28c0 21.333 3.33301 40.333 10 57s17.167 32.167 31.5 46.5
s31.5 25.333 51.5 33s41 11.5 63 11.5c28 0 56.333 -5.66699 85 -17c29.333 -10 60.666 -26 93.999 -48c10 -5.33301 22.333 -14.333 37 -27c12.667 -9.33301 28 -22.333 46 -39l-4 8l-1 7l-4 21l-1 25c0 14.667 2.33301 27.167 7 37.5s12.167 19.666 22.5 27.999
s21.5 14.5 33.5 18.5s25.667 6 41 6l32 -3l28 -9v-40z" />
    <glyph glyph-name="Ecircumflex" unicode="&#xca;" horiz-adv-x="215" 
d="M140 475l-0.00195312 -474.998h-52v475h-88v41h76c4 4 -0.333008 16 -13 36s-34.667 48 -66 84c-16 18 -31.167 31.833 -45.5 41.5s-27.166 14.5 -38.499 14.5c-10.667 0 -20.334 -2.16699 -29.001 -6.5s-15.667 -10.5 -21 -18.5s-9.16602 -15.833 -11.499 -23.5
s-4 -13.834 -5 -18.501s-1.5 -11 -1.5 -19c0 -8.66699 1.33301 -17.334 4 -26.001c0.666992 -2.66699 2 -7 4 -13s4.33301 -11.667 7 -17l13 -25l7 -10l-58 1l-12 16l-10 20l-7 22l-2 23c0 16.667 3 33 9 49c4.66699 15.333 12.667 29.833 24 43.5s24.5 24 39.5 31
s30.833 10.5 47.5 10.5c24 0 48.833 -9 74.5 -27s51.834 -45 78.501 -81l29 -45l36 -63l95 1v-41h-84zM233.998 731.002l-7 2.99902l-20 4l-20 2c-10 0 -19 -1.66699 -27 -5s-14.667 -7.83301 -20 -13.5s-10 -13.167 -14 -22.5l-4 -30c0 -10 0.333008 -17.333 1 -22
s3.33398 -13.167 8.00098 -25.5s12.334 -27.166 23.001 -44.499l13 -19l20 -23l-37 1c-4.66699 0 -9.66699 4.66699 -15 14l-23 36c-12 19.333 -21 37.666 -27 54.999c-2.66699 9.33301 -4.66699 17.833 -6 25.5s-2 15.834 -2 24.501c0 14.667 2.5 27 7.5 37
s13.167 19.667 24.5 29c11.333 8 23.166 14 35.499 18s26.166 6 41.499 6l29 -3l27 -9v-40z" />
    <glyph glyph-name="Edieresis" unicode="&#xcb;" horiz-adv-x="264" 
d="M248 475v41h20v-41h-20zM341 158l-36.001 -24.998c-20 -13.333 -41.333 -23.333 -64 -30c-9.33301 -2.66699 -20.166 -5 -32.499 -7s-23.833 -3 -34.5 -3c-16.667 0 -32.167 2.5 -46.5 7.5s-28.333 12.667 -42 23s-23.834 22.333 -30.501 36s-10 27.167 -10 40.5
c0 10.667 2 21.5 6 32.5s10.333 21.833 19 32.5l10 10l16 13c-6 2.66699 -11.167 5.66699 -15.5 9s-9.16602 8 -14.499 14c-9.33301 10 -19.666 22.333 -30.999 37c-4 6 -7.66699 12 -11 18c-0.666992 1.33301 -3.66699 7.66602 -9 18.999c-2 6 -3.66699 12 -5 18
s-2 12.667 -2 20c0 14 2.33301 27.167 7 39.5s11.334 23.166 20.001 32.499s19.334 16.5 32.001 21.5s26.667 7.5 42 7.5c11.333 0 22.5 -1.83301 33.5 -5.5s21.167 -9.16699 30.5 -16.5s16.333 -16 21 -26s7 -20 7 -30v-30h-45v31c0 12 -3.66699 21.667 -11 29
s-18.666 11 -33.999 11c-8.66699 0 -15.834 -1.66699 -21.501 -5s-10.834 -8 -15.501 -14l-10 -20l-3 -23c0 -14 1.66699 -26.333 5 -37c1.33301 -4 3.66602 -9.33301 6.99902 -16s6.66602 -12.334 9.99902 -17.001c10 -14 19.333 -25.333 28 -34c8 -6 16 -9.66699 24 -11
l34 10l39 4l18 -1l20 -2l22 -38l-67 -3c-16 0 -29 -1.66699 -39 -5c-20 -4.66699 -35.333 -13.167 -46 -25.5s-16 -28.166 -16 -47.499c0 -10 2 -19 6 -27s10.167 -15.167 18.5 -21.5s17.833 -11.5 28.5 -15.5l31 -4c21.333 0 41.5 3.66699 60.5 11s39.833 19.333 62.5 36
l22 20l26 28v-53c0 -4.66699 -4.66699 -10.667 -14 -18z" />
    <glyph glyph-name="Igrave" unicode="&#xcc;" horiz-adv-x="385" 
d="M311 475l-0.000976562 -104h-163l-16 -3l-11 -1c-7.33301 -2 -13.5 -6 -18.5 -12s-7.83301 -14 -8.5 -24c0 -9.33301 1.5 -17.333 4.5 -24s8.16699 -14 15.5 -22l13 -12l10 -4l45 14l4 -1l5 1h4h4l7 1h5h4h6l4 -1h5l9 -1h7l24 -42h-9l-10 2h-6l-6 1h-7h-7h-14.5
c-3.66699 0 -10.5 -1.33301 -20.5 -4l-28 -9c-9.33301 -5.33301 -17.666 -13.333 -24.999 -24c-5.33301 -10.667 -8 -22.334 -8 -35.001c0 -10.667 0.333008 -18.5 1 -23.5s3.5 -12.333 8.5 -22s13.167 -18.167 24.5 -25.5l28 -11l35 -4l17 1l11 3l-2 4v5v6v8
c0 9.33301 0.666992 16.333 2 21l7 17c4 6.66699 9.33301 12 16 16c8 3.33301 16.667 5 26 5c7.33301 0 13.5 -1.16699 18.5 -3.5s9.66699 -5.83301 14 -10.5s7.5 -10.334 9.5 -17.001l3 -20l-3 -20l-9 -17c-4.66699 -5.33301 -9.33398 -9.33301 -14.001 -12l-17 -4l52 -90
l-44 -24l-45 102l-4 -3l-9 -1l-14 -2h-15c-22.667 0 -41.5 1.83301 -56.5 5.5s-28.167 8.83398 -39.5 15.501c-17.333 10 -31 23.667 -41 41c-2 4 -4.66699 11.667 -8 23s-5 24.333 -5 39c0 8 0.666992 14 2 18l7 20l16 24l6 10l-19 13l-13 10
c-10.667 10.667 -18.667 21 -24 31c-2.66699 5.33301 -4.66699 10.333 -6 15s-2 10.334 -2 17.001c0 14 1.83301 25.833 5.5 35.5s8.83398 17 15.501 22s12.334 8.5 17.001 10.5s10.167 4 16.5 6s12.166 3.16699 17.499 3.5s9.33301 0.5 12 0.5l133 1v65h-260v41h391v-41
h-80z" />
    <glyph glyph-name="Iacute" unicode="&#xcd;" horiz-adv-x="480" 
d="M381 475l0.00195312 -104h-211c-16 0 -27.833 -4.66699 -35.5 -14s-11.5 -22.666 -11.5 -39.999c0 -14 4 -27 12 -39s20.333 -23 37 -33c11.333 -6.66699 26.666 -13.334 45.999 -20.001c8 -2 16 -3.66699 24 -5s16.667 -2 26 -2c20 0 37.167 1.83301 51.5 5.5
s24.5 6.66699 30.5 9s14 6.5 24 12.5l17 11l19 16l39 -30l-37 -25l-31 -16v-113h-201c-7.33301 0 -14 -1.66699 -20 -5c-4.66699 -1.33301 -10.334 -5.33301 -17.001 -12l-11 -17l-3 -20c0 -16 4.16699 -29.833 12.5 -41.5s22.5 -22.834 42.5 -33.501
c13.333 -6 27.666 -11 42.999 -15c10.667 -2 18.667 -3.33301 24 -4s14 -1 26 -1c10 0 19 0.833008 27 2.5s15.167 3.5 21.5 5.5s12.5 4.33301 18.5 7l46 21c12 6 20.667 11.667 26 17l35 -31l-30 -21l-42 -21c-8 -3.33301 -14.333 -5.66602 -19 -6.99902
s-13.667 -3.33301 -27 -6s-22.666 -4.33398 -27.999 -5.00098s-14 -1 -26 -1c-22 0 -37.167 0.5 -45.5 1.5s-21.666 3.5 -39.999 7.5s-37.166 12 -56.499 24s-34 27 -44 45c-10 16 -15 35.333 -15 58c0 12 1.83301 23 5.5 33s9 19 16 27s16 14.333 27 19s21.5 7 31.5 7
l174 1v65l-23 -5l-16 -1h-12h-8c-26.667 0 -48.334 1.83301 -65.001 5.5s-30 7.33398 -40 11.001s-20 8.16699 -30 13.5c-21.333 12 -38 26.667 -50 44c-10.667 19.333 -16 39.666 -16 60.999c0 14.667 2 27.834 6 39.501s10.333 21 19 28s18.667 12.5 30 16.5
s23.666 6 36.999 6l168 1v67h-332v41h488v-41h-107z" />
    <glyph glyph-name="Icircumflex" unicode="&#xce;" horiz-adv-x="480" 
d="M381 475l0.000976562 -103.997h-211c-15.333 0 -27.666 -4.66699 -36.999 -14s-14 -22.666 -14 -39.999c0 -14 3.33301 -27.667 10 -41c6.66699 -10.667 17.334 -20.834 32.001 -30.501s31 -17.167 49 -22.5c10 -2 19.333 -3.66699 28 -5s18.667 -2 30 -2
c18.667 0 35.167 1.66699 49.5 5s24.833 6.16602 31.5 8.49902s14.334 6.5 23.001 12.5l16 10l18 17l37 -31l-31 -21l-31 -16v-113h-227c-6.66699 0 -12.667 -1.33301 -18 -4s-11 -7 -17 -13l-11 -17l-4 -20c0 -16 4.33301 -30.667 13 -44c9.33301 -12 23.333 -23 42 -33
c5.33301 -2.66699 12.166 -5.5 20.499 -8.5s19.666 -6.16699 33.999 -9.5s31.833 -5 52.5 -5l41 3l34 9c13.333 4.66699 23.333 11.5 30 20.5s10 18.833 10 29.5c0 7.33301 -1.16699 13.833 -3.5 19.5s-5.83301 11.5 -10.5 17.5l-6 4l-9 5l33 32l14 -17l11 -11
c6.66699 -7.33301 12 -15.333 16 -24s6 -16 6 -22c0 -19.333 -4.66699 -36 -14 -50c-8 -14 -21.333 -25.333 -40 -34c-13.333 -6.66699 -29 -11.667 -47 -15s-31.667 -5.16602 -41 -5.49902s-16.666 -0.5 -21.999 -0.5c-29.333 0 -56.833 3.16699 -82.5 9.5
s-48.834 15.166 -69.501 26.499s-36.667 26.166 -48 44.499s-17 38.5 -17 60.5c0 10 2 20.167 6 30.5s10 19.833 18 28.5s16.667 15.334 26 20.001c12 4.66699 22.667 7 32 7l199 1v65c-12.667 -4 -25.334 -7 -38.001 -9l-38 -2c-20 0 -33.833 0.5 -41.5 1.5
s-17.5 3.16699 -29.5 6.5c-20 5.33301 -39.5 13.666 -58.5 24.999s-33.5 26.166 -43.5 44.499s-15 39.166 -15 62.499c0 16 2.33301 29 7 39c4 11.333 10.167 20.333 18.5 27s18.666 12.334 30.999 17.001s25.5 7 39.5 7l168 1v67h-332v41h488v-41h-107z" />
    <glyph glyph-name="Idieresis" unicode="&#xcf;" horiz-adv-x="527" 
d="M445 475l-0.00390625 -114h-224l-8 -3l-2 -5l1 -6l2 -4l12 -15l20 -20l14 -12l15 -8l17 -4l19 -1l17 1l22 3l45 7l25 2c13.333 0 24.166 -1.66699 32.499 -5s14.666 -7.5 18.999 -12.5s7.5 -11.833 9.5 -20.5l3 -27c0 -19.333 -4.66699 -36.333 -14 -51s-24 -28 -44 -40
c-3.33301 -2 -9.16602 -4.66699 -17.499 -8s-19.5 -7.33301 -33.5 -12c-18 -4 -37 -6 -57 -6h-15h-13c-6 1.33301 -10.333 2 -13 2l-37 8l-14 4l-15 6l15 -25l13 -17c4 -5.33301 9.16699 -11.166 15.5 -17.499s11.5 -11.166 15.5 -14.499
c8.66699 -5.33301 17.667 -8.66602 27 -9.99902l21 1l25 5l54 11l29 4c8.66699 0 16 -1.66699 22 -5c7.33301 -2 13.833 -5.66699 19.5 -11s10.834 -12 15.501 -20c2 -4.66699 3.66699 -12 5 -22c0 -19.333 -4.66699 -37 -14 -53c-7.33301 -15.333 -20.666 -29 -39.999 -41
c-15.333 -10 -33 -17.333 -53 -22c-9.33301 -2.66699 -18.5 -4.66699 -27.5 -6s-20.167 -2 -33.5 -2c-34.667 0 -68.5 5.16699 -101.5 15.5s-65.5 26.166 -97.5 47.499l-36 27l-42 36l31 36c15.333 -15.333 28.666 -27.333 39.999 -36
c5.33301 -4.66699 11.833 -9.33398 19.5 -14.001s12.5 -7.66699 14.5 -9c30.667 -20 60.334 -35 89.001 -45s56.334 -15 83.001 -15c14 0 28 2 42 6c5.33301 1.33301 11.666 3.66602 18.999 6.99902s14 6.66602 20 9.99902c12 7.33301 20.833 15.166 26.5 23.499
s9.16699 17.833 10.5 28.5c-0.666992 4.66699 -1.5 8.33398 -2.5 11.001s-2.16699 4.66699 -3.5 6l-9 4l-13 2l-18 -4l-50 -10l-30 -6l-25 -1c-12.667 0 -25.5 3 -38.5 9s-26.833 15.833 -41.5 29.5s-25.334 28 -32.001 43s-10 28.833 -10 41.5v4l1 6v4l2 5l-32 20l-33 23
l-17 12l-16 12l-16 11l-15 12l29 42l42 -38l34 -26c32 -21.333 62.333 -37.333 91 -48s55 -16 79 -16h16c8.66699 2 16.334 3.66699 23.001 5s11.834 2.83301 15.501 4.5s9.5 4.5 17.5 8.5c16.667 7.33301 28.834 15.833 36.501 25.5s11.5 20.5 11.5 32.5
c0 4.66699 -0.5 8.33398 -1.5 11.001s-3.5 5 -7.5 7l-11 3l-14 1l-21 -2l-31 -7l-34 -7l-27 -2c-9.33301 0 -20.666 3.33301 -33.999 10c-12 7.33301 -26.167 17.833 -42.5 31.5s-29.833 27.5 -40.5 41.5c-8 13.333 -12 25.333 -12 36l3 20c2 6 5.66699 10.667 11 14l16 8
l19 3l186 1v75h-393v41h525v-41h-80z" />
    <glyph glyph-name="Eth" unicode="&#xd0;" 
 />
    <glyph glyph-name="Ntilde" unicode="&#xd1;" horiz-adv-x="637" 
d="M357 475l0.00195312 -150.999l18 17l12 10c11.333 8 23.333 14.167 36 18.5s24 6.5 34 6.5c20.667 0 38.667 -3.16699 54 -9.5s30 -15.833 44 -28.5c12 -10.667 21.5 -24.167 28.5 -40.5s10.5 -33.166 10.5 -50.499c0 -18 -4 -36.667 -12 -56s-21.333 -41.333 -40 -66
l-22 -27l-30 -33l-43 33c2 0.666992 4.16699 1.66699 6.5 3s5.5 4 9.5 8c8.66699 8.66699 19 21.334 31 38.001c14.667 18.667 25.834 37.167 33.501 55.5s11.5 34.5 11.5 48.5c0 13.333 -1.33301 24 -4 32s-4.83398 13.667 -6.50098 17s-4.66699 7.66602 -9 12.999
s-11.666 10.333 -21.999 15s-21.833 7 -34.5 7c-14.667 0 -28 -3.5 -40 -10.5s-24 -18.167 -36 -33.5c-8.66699 -10.667 -16.334 -23.667 -23.001 -39c-2 -6 -3.66699 -12 -5 -18s-2 -12.667 -2 -20v-214h-52v148c-11.333 -11.333 -25.166 -20.333 -41.499 -27
s-33.5 -10 -51.5 -10c-18.667 0 -36.334 3.16699 -53.001 9.5s-32.5 16.166 -47.5 29.499s-26.167 28 -33.5 44c-6.66699 18 -10 36.333 -10 55c0 19.333 3.16699 37 9.5 53s16.666 30.5 30.999 43.5s29.5 22.833 45.5 29.5c7.33301 2.66699 15.5 5 24.5 7s18.167 3 27.5 3
l27 -3c12 -2.66699 21 -5.33398 27 -8.00098v-42l-24 8l-22 3c-12 0 -23.167 -2.16699 -33.5 -6.5s-20.5 -10.833 -30.5 -19.5c-6.66699 -6.66699 -13.334 -16.667 -20.001 -30c-4.66699 -12 -7 -24 -7 -36s2 -24.5 6 -37.5s10.167 -24.333 18.5 -34
s17.833 -17.5 28.5 -23.5c12 -4.66699 23.667 -7 35 -7c12 0 22.5 1.83301 31.5 5.5s18.167 9.5 27.5 17.5l13.5 13.5c5 5 9.16699 9.83301 12.5 14.5c6 9.33301 9 18 9 26v249h-305v41h635v-41h-278zM403.002 -198.999l-14.001 -7.00098
c-14 -5.33301 -27.5 -9.33301 -40.5 -12s-22.333 -4.16699 -28 -4.5s-10.167 -0.5 -13.5 -0.5c-18 0 -34 2.66699 -48 8c-14.667 4 -28.667 11.333 -42 22s-24.666 23.667 -33.999 39c-7.33301 14.667 -11 30.334 -11 47.001s2.16699 31 6.5 43s11.166 22.833 20.499 32.5
s21 17.834 35 24.501c6 2 12.333 3.66699 19 5s14 2 22 2h82v-39h-68c-8.66699 0 -16.5 -1.33301 -23.5 -4s-13.833 -7.33398 -20.5 -14.001s-12 -14 -16 -22l-4 -25c0 -12 2.33301 -22.333 7 -31c4 -10 10.667 -18 20 -24l14 -8.5c4 -2.33301 10.333 -4.83301 19 -7.5
s19 -4 31 -4c16.667 0 31.334 2.66699 44.001 8c12 4 23.667 11 35 21l25 -39z" />
    <glyph glyph-name="Ograve" unicode="&#xd2;" horiz-adv-x="494" 
d="M201 250l-0.000976562 -79.999v-11l-1 -6l-8 -7l-10 -2c-6.66699 0 -15.5 4.16699 -26.5 12.5s-25.5 21.833 -43.5 40.5l-38 45c-7.33301 11.333 -11.666 20.333 -12.999 27l3 8l8 8l9 5l7 2l60 1v140c0 6.66699 -1.16699 12.5 -3.5 17.5s-5.66602 9.66699 -9.99902 14
s-9 7.5 -14 9.5s-10.833 3 -17.5 3c-6 0 -12.667 -1.33301 -20 -4l-17 -9l-11 -16l-4 -21l1 -14l5 -15l2 -7l5 -9l-50 1l-4 7l-1 6l-4 14l-1 13c0 15.333 2.16699 28.5 6.5 39.5s11.666 20.667 21.999 29s21.5 14.5 33.5 18.5s25 6 39 6c12.667 0 25 -2 37 -6
s22.5 -9.66699 31.5 -17s15.833 -16.833 20.5 -28.5s7 -23.834 7 -36.501v-135h157v182h-98v41h248v-41h-97v-475h-53v250h-157z" />
    <glyph glyph-name="Oacute" unicode="&#xd3;" horiz-adv-x="492" 
d="M422 475l0.00292969 -475h-53v127c-2.66699 -4 -5.33398 -6.66699 -8.00098 -8l-17 -11c-20.667 -12 -40 -21 -58 -27c-8.66699 -2.66699 -17.334 -4.66699 -26.001 -6s-18 -2 -28 -2c-24.667 0 -46.667 4.16699 -66 12.5s-36.833 21.666 -52.5 39.999
s-28.5 38.166 -38.5 59.499c-8 20 -12 40 -12 60l23 -6l29 -2l36 3c12 2 22.5 5.5 31.5 10.5s16.333 11.833 22 20.5s8.5 18.334 8.5 29.001s-2.5 19.667 -7.5 27s-13.167 13.666 -24.5 18.999l-35 10l-42 4l-46 -3l-51 -9c-25.333 -5.33301 -45.333 -10.666 -60 -15.999
c-16 -4 -28.667 -8.33301 -38 -13l-1 46c15.333 2 27 4.66699 35 8l27 7l71 12c21.333 2.66699 36.166 4.16699 44.499 4.5s14.833 0.5 19.5 0.5c10.667 0 21.334 -0.333008 32.001 -1s20.667 -2 30 -4c18.667 -2 35.167 -6.66699 49.5 -14s25.833 -17.333 34.5 -30
c2 -3.33301 4.66699 -8.83301 8 -16.5s5 -16.834 5 -27.501c0 -19.333 -3.66699 -35.5 -11 -48.5s-18 -23.833 -32 -32.5c-10 -5.33301 -24 -10.666 -42 -15.999c-14.667 -2.66699 -26.334 -4.16699 -35.001 -4.5s-15.667 -0.5 -21 -0.5c4 -14 9.33301 -26.333 16 -37
s15 -20.167 25 -28.5s21.333 -15.166 34 -20.499c12 -4 25.333 -6 40 -6s29.667 3 45 9s31.333 15.333 48 28l17 15l21 23v290h-369v41h492v-41h-70z" />
    <glyph glyph-name="Ocircumflex" unicode="&#xd4;" horiz-adv-x="527" 
d="M445 475l-0.000976562 -90.002h-224l-7 -3l-2 -3l1 -5l6 -7l9 -10l14 -12l19 -13l14 -9l12 -5l12 -1l18 1l21 3l52 9l27 3l28 -3c7.33301 -2 13.833 -5.16699 19.5 -9.5s10.334 -11 14.001 -20s5.5 -19.167 5.5 -30.5c0 -15.333 -2.5 -28.333 -7.5 -39
s-13.5 -21.334 -25.5 -32.001l-14 -11l-19 -11v-101h-221c-6.66699 0 -13 -1.33301 -19 -4l-17 -9l-11 -14l-4 -17c0 -18 5 -34.167 15 -48.5s25.667 -26.166 47 -35.499l25 -9l37 -9c0 7.33301 -0.666992 13 -2 17l-1 15c0 10.667 1.16699 19.834 3.5 27.501
s6.66602 15.167 12.999 22.5s16.333 13.5 30 18.5s28.834 7.5 45.501 7.5c14.667 0 27.334 -1.66699 38.001 -5c12 -2 23 -6 33 -12c10 -4.66699 17.333 -10.834 22 -18.501s7.66699 -17.5 9 -29.5c0 -16 -3.5 -29.667 -10.5 -41s-18.167 -20.666 -33.5 -27.999
c-12.667 -5.33301 -26.834 -9.5 -42.501 -12.5s-32.5 -4.5 -50.5 -4.5c-36 0 -67.833 3.16699 -95.5 9.5s-51.334 16.166 -71.001 29.499s-34.834 29.333 -45.501 48s-16 40 -16 64c0 8.66699 2 17.167 6 25.5s10 16.166 18 23.499s17.333 13 28 17s21.334 6 32.001 6l187 1
v47l-6 -2l-14 -1l-16 -1h-11l-36 1c-5.33301 0 -10 0.333008 -14 1s-10.333 2 -19 4l-34 9l-35 16l-46 23c-13.333 6.66699 -22.666 12.334 -27.999 17.001l-37 26l-32 31l29 38l40 -38l34 -25c28 -18.667 57.333 -34.334 88 -47.001c30.667 -10.667 58.667 -16 84 -16
c13.333 0 25.333 1.33301 36 4c12.667 2 24.667 6.33301 36 13c16.667 7.33301 28.834 15.833 36.501 25.5s11.5 20.834 11.5 33.501c0 4.66699 -0.5 8.33398 -1.5 11.001s-3.5 5 -7.5 7l-11 3l-14 1l-21 -2l-31 -7l-34 -7l-27 -2c-10.667 0 -21.167 2.33301 -31.5 7
s-17.833 8.33398 -22.5 11.001s-12.334 7.66699 -23.001 15c-16.667 12 -29.667 24 -39 36c-2 2.66699 -4.66699 7.5 -8 14.5s-5 13.833 -5 20.5l3 19c2 5.33301 5.33301 10 10 14l16 7l20 3l186 1v53h-393v41h525v-41h-80zM409.999 -23.002l-10 4
c-5.33301 0 -12.666 -2 -21.999 -6l-31 -19l-14 -10l-19 -16h5l8 -1h5l5 -1h5h5c11.333 0 19.666 0.666992 24.999 2c8 0 14.333 1.33301 19 4c6 2 11.333 5.83301 16 11.5s7 12.167 7 19.5c0 5.33301 -1.33301 9.33301 -4 12z" />
    <glyph glyph-name="Otilde" unicode="&#xd5;" 
 />
    <glyph glyph-name="Odieresis" unicode="&#xd6;" horiz-adv-x="371" 
d="M457 198l-7.00586 -0.00292969l-8 -1h-6l-14 -2h-14h-14c-5.33301 0 -9.33301 0.666992 -12 2l-6 1c-3.33301 0.666992 -5.33301 1.33398 -6 2.00098l-7 2l-6 4v-28c0 -17.333 -3.16699 -33 -9.5 -47s-16.166 -26.667 -29.499 -38c-16 -14 -31.833 -24.667 -47.5 -32
s-30.167 -11 -43.5 -11l46 -29l53 -23l-31 -39l-63 39l-15 9l-18 13l-16 13l-9 9l-24 1h-34c-8 0.666992 -16.333 2.83398 -25 6.50098s-15.667 9.16699 -21 16.5c-3.33301 6 -5.66602 15 -6.99902 27l3 15l9 15l13 9l16 4c6.66699 0 11.667 -0.666992 15 -2
c4.66699 0 9.66699 -1.66699 15 -5l14 -8l15 -11l10 -11l13 -16l34 7c11.333 2 19.666 4.66699 24.999 8c20.667 9.33301 35.834 21 45.501 35s14.5 31.333 14.5 52c0 7.33301 -0.666992 12.333 -2 15l-6 10l-9 6l-12 2l-17 -2l-23 -6l-23 -6l-14 -2l-22 3
c-7.33301 2 -14.666 5.16699 -21.999 9.5s-15 9.83301 -23 16.5l-22 23c-14 17.333 -25 33.333 -33 48c-7.33301 16 -11 29.667 -11 41c0 9.33301 1.83301 17 5.5 23s8.83398 11 15.501 15l14 5l18 2l149 1v86h-268v41h375v-41h-55v-127h-191l-7 -5l-2 -5l1 -10l5 -11
l10 -17l18 -22l12 -13l13 -8l13 -4l17 -1l16 1c8 0 17 1.33301 27 4l26 4l17 2c6.66699 0 12.334 -0.666992 17.001 -2s9.33398 -3.66602 14.001 -6.99902l16 -11l10 -4l26 -8l25 -2l28 3c8.66699 2 17 5.33301 25 10l4 2l5 5v-50z" />
    <glyph glyph-name="multiply" unicode="&#xd7;" 
 />
    <glyph glyph-name="Oslash" unicode="&#xd8;" horiz-adv-x="637" 
d="M357 475v-151.002l18 17l12 10c11.333 8 23.333 14.167 36 18.5s24 6.5 34 6.5c20.667 0 38.667 -3.16699 54 -9.5s30 -15.833 44 -28.5c12 -10.667 21.5 -24.167 28.5 -40.5s10.5 -33.166 10.5 -50.499c0 -18 -4 -36.667 -12 -56s-21.333 -41.333 -40 -66l-22 -27
l-30 -33l-43 33c2 0.666992 4.16699 1.66699 6.5 3s5.5 4 9.5 8c8.66699 8.66699 19 21.334 31 38.001c14.667 18.667 25.834 37.167 33.501 55.5s11.5 34.5 11.5 48.5c0 13.333 -1.33301 24 -4 32s-4.83398 13.667 -6.50098 17s-4.66699 7.66602 -9 12.999
s-11.666 10.333 -21.999 15s-21.833 7 -34.5 7c-14.667 0 -28 -3.5 -40 -10.5s-24 -18.167 -36 -33.5c-8.66699 -10.667 -16.334 -23.667 -23.001 -39c-2 -6 -3.66699 -12 -5 -18s-2 -12.667 -2 -20v-214h-52v162l-237 -158l-29 39l145 86l-34 9
c-11.333 3.33301 -19.333 7 -24 11c-18 10.667 -32.667 24.667 -44 42c-9.33301 16.667 -14 36 -14 58c0 18.667 3.5 36.167 10.5 52.5s17.5 30.5 31.5 42.5c14 13.333 29.333 23.333 46 30c6.66699 2.66699 14.834 5 24.501 7s19.167 3 28.5 3l26 -3
c8.66699 -1.33301 17 -3.66602 25 -6.99902v-42l-24 8l-22 3c-12 0 -23.167 -2.16699 -33.5 -6.5s-20.5 -10.833 -30.5 -19.5c-6.66699 -6.66699 -13.334 -16.667 -20.001 -30c-4.66699 -12 -7 -24 -7 -36s2.16699 -23.333 6.5 -34s10.833 -20.167 19.5 -28.5
s18.667 -15.5 30 -21.5c12 -4.66699 22.667 -7 32 -7c8 0 14.333 0.666992 19 2l20 9l55 38v266h-305v41h655v-41h-298z" />
    <glyph glyph-name="Ugrave" unicode="&#xd9;" horiz-adv-x="348" 
d="M0 475v41h393v-41h-393zM258 328c-13.333 0 -25.1689 -2.33301 -35.502 -7s-20.333 -11 -30 -19s-16.834 -17.667 -21.501 -29s-7 -22.666 -7 -33.999c0 -18.667 5.33301 -38.834 16 -60.501s26.334 -44.834 47.001 -69.501l26 -30l38 -37l-31 -38l-42 44l-30 36
c-23.333 30.667 -41.666 59 -54.999 85c-12 26 -18 49.333 -18 70c0 12 1.66699 22.5 5 31.5s5.83301 14.833 7.5 17.5s4.83398 7.33398 9.50098 14.001l18 18l7 7l-141 1v39h418v-39h-181z" />
    <glyph glyph-name="Uacute" unicode="&#xda;" horiz-adv-x="252" 
d="M0 475v41h254v-41h-254zM258 243l-10 -4l-27 -8l-24 -2l-40 3c-14.667 2 -28.667 5.33301 -42 10l-49 16l-33 18v42c4 -4.66699 12 -9.66699 24 -15l46 -15l43 -9l40 -3l29 3l31 9l11 5l14 7v-50z" />
    <glyph glyph-name="Ucircumflex" unicode="&#xdb;" horiz-adv-x="287" 
d="M258 214c-4 -12.667 -10.499 -24.1699 -19.499 -34.5029s-19.833 -18.166 -32.5 -23.499c-14 -4.66699 -28 -7 -42 -7c-16.667 0 -31 2.33301 -43 7s-22.667 12.334 -32 23.001c-4.66699 6 -8.83398 12.333 -12.501 19s-6.16699 11.334 -7.5 14.001
c-4 12 -6 25.667 -6 41c0 14 2 27 6 39s10.5 23.167 19.5 33.5s19.833 18.333 32.5 24s27 8.5 43 8.5c10.667 0 18.5 -0.333008 23.5 -1s11.5 -3 19.5 -7c12 -4.66699 22.5 -12.334 31.5 -23.001s15.667 -22.5 20 -35.5s6.5 -25.5 6.5 -37.5
c0 -13.333 -2.33301 -26.666 -7 -39.999z" />
    <glyph glyph-name="Udieresis" unicode="&#xdc;" horiz-adv-x="371" 
d="M291 264l-20.999 8l-23 12l-10 5l-14 9l-73 -50l-20 -15l-29 -19l-23 -14l-10 -6l-31 40l78 47l18 10l32 22l6 4l9 6l-21 14l-13 13c-12 12 -20.833 24.333 -26.5 37s-8.5 26 -8.5 40s2.33301 26.5 7 37.5s12.167 20.667 22.5 29s22 14.666 35 18.999s25.5 6.5 37.5 6.5
c14.667 0 27.667 -2.16699 39 -6.5s22.5 -10.666 33.5 -18.999s19.167 -17.833 24.5 -28.5c3.33301 -8 5.5 -14.333 6.5 -19s1.5 -11 1.5 -19s-0.666992 -14 -2 -18l-5 -17c-2 -6.66699 -5.33301 -12.667 -10 -18l-12 -18l-12 -14l-17 -15l9 -6l9 -5l8 -5l9 -4l20 -11l11 -6
c2.66699 -0.666992 5.16699 -1.5 7.5 -2.5s7.16602 -3.83301 14.499 -8.5l55 -27l43 -21l15 -7v-48zM261.001 446c-2 6.66699 -6 13 -12 19l-19 12l-21 4c-6.66699 0 -12.834 -1.16699 -18.501 -3.5s-11.5 -5.83301 -17.5 -10.5l-11 -17l-4 -23
c0 -8.66699 1.16699 -16.667 3.5 -24s6.83301 -14.333 13.5 -21c8 -10 15.333 -17.167 22 -21.5s13.334 -6.83301 20.001 -7.5l14 10l10 9c8 8 14 16 18 24s6.33301 17 7 27c0 9.33301 -1.66699 17 -5 23z" />
    <glyph glyph-name="Yacute" unicode="&#xdd;" horiz-adv-x="625" 
d="M352 475l-0.000976562 -149.002l10 9l21 15c10.667 6.66699 21.167 12 31.5 16s19.833 6 28.5 6c18 0 34.833 -3 50.5 -9s30 -14.833 43 -26.5s22.833 -25.334 29.5 -41.001s10 -31.834 10 -48.501c0 -21.333 -4.16699 -42.5 -12.5 -63.5s-20.5 -42.833 -36.5 -65.5
l-18 -20l-34 -35l-43 35l26 19l19 18c14.667 16.667 26 34.834 34 54.501s12 40.167 12 61.5c0 12 -1.5 22.167 -4.5 30.5s-7.66699 16.333 -14 24s-14.666 13.834 -24.999 18.501s-21.833 7 -34.5 7c-11.333 0 -22.5 -3.66699 -33.5 -11s-22.167 -18.666 -33.5 -33.999
c-4 -4 -8 -10.333 -12 -19l-14 -26v-241h-53v199l-213 -166l-37 35l154 104l-8 -2h-7l-22 1l-19 5l-25 12l-22 18l-13 17c-4 6.66699 -7 13.334 -9 20.001l-5 23l-1 26v183h-72v41h631v-41h-279zM298.999 474.998l-176.002 0.000976562v-190
c0 -16.667 1.33301 -28.667 4 -36s5.33398 -13.333 8.00098 -18s6.33398 -9.33398 11.001 -14.001s11.667 -9 21 -13l32 -4c13.333 0 26 2.16699 38 6.5s23 11.5 33 21.5c7.33301 7.33301 13.5 15 18.5 23s8.5 17 10.5 27v197z" />
    <glyph glyph-name="Thorn" unicode="&#xde;" horiz-adv-x="264" 
d="M193 447h-43l41 143h61zM94 449h-43l43 143h58z" />
    <glyph glyph-name="germandbls" unicode="&#xdf;" horiz-adv-x="275" 
d="M209 453h-59l59 143h43zM111 455h-60l58 143h43z" />
    <glyph glyph-name="agrave" unicode="&#xe0;" horiz-adv-x="445" 
d="M319 136l0.00488281 -52.001v-6c-2 -5.33301 -3.66699 -8.66602 -5 -9.99902l-8 -2c-0.666992 0 -1.83398 0.333008 -3.50098 1s-4.83398 3 -9.50098 7l-22 24l-20 26l-7 15l1 8c1.33301 3.33301 2.66602 5.33301 3.99902 6l6 3l11 3l165 1l1 59h-203
c-15.333 0 -28.333 -2.66699 -39 -8c-10 -3.33301 -20.667 -10.333 -32 -21c-10 -8 -17.333 -18.333 -22 -31c-2 -6 -3.66699 -11.833 -5 -17.5s-2 -12.167 -2 -19.5c0 -22.667 9.66699 -41.834 29 -57.501s48.333 -28.5 87 -38.5l33 -4
c5.33301 -0.666992 13.666 -2 24.999 -4l58 -7l-17 -36l-22 -1c-11.333 0 -25.333 1.5 -42 4.5s-31.667 5.83301 -45 8.5s-25.333 6 -36 10c-22 6 -40.667 13.667 -56 23c-22 13.333 -39.333 29 -52 47c-11.333 18.667 -17 39 -17 61c0 8.66699 1.16699 16.834 3.5 24.501
s6.33301 16 12 25s12.167 17.167 19.5 24.5l24 24l-21 22l-13 17c-12 15.333 -21 29.666 -27 42.999c-1.33301 4 -2.83301 10 -4.5 18s-2.83398 14.333 -3.50098 19l3 18c2 4.66699 5.66699 9.33398 11 14.001l15 8l18 3l211 1v86h-322v41h445v-41h-70v-129h-238
c-6 0 -10.667 -1.66699 -14 -5l-4 -10l4 -16c4 -8 8.66699 -15 14 -21l8 -13l12 -14l2 -4l5 -4l289 -1l2 -258h-23l-1 136h-112z" />
    <glyph glyph-name="aacute" unicode="&#xe1;" horiz-adv-x="672" 
d="M598 475l-0.00292969 -475.003h-53v113c-21.333 -22.667 -45.666 -40 -72.999 -52s-55.333 -18 -84 -18c-30 0 -57.667 6.33301 -83 19c-24 13.333 -45 33.333 -63 60h5l4 -1h4h6c11.333 0 19.833 0.666992 25.5 2s9.83398 2.5 12.501 3.5s5.66699 2.5 9 4.5
c9.33301 5.33301 16.333 12.333 21 21s7 18.334 7 29.001s-1.66699 19 -5 25c-2 6 -6.33301 11 -13 15l-4 1l-4 2h-5c-3.33301 0.666992 -5.33301 1.33398 -6 2.00098l-119 1c-5.33301 0 -12 -3 -20 -9c-4.66699 -3.33301 -11.334 -10.333 -20.001 -21
c-6 -9.33301 -11 -19.666 -15 -30.999l-4 -36c0 -18.667 7.33301 -37.334 22 -56.001c6.66699 -8 15.834 -16.5 27.501 -25.5s25.5 -18.167 41.5 -27.5l59 -29c14.667 -5.33301 26.667 -8.66602 36 -9.99902l-37 -35c-5.33301 -2 -16 0.666992 -32 8
s-39.667 20.666 -71 39.999s-55.666 40.5 -72.999 63.5s-26 46.167 -26 69.5l3 38c2 12 5.66699 21.333 11 28l13 15l26 26l-17 19l-11 16c-9.33301 13.333 -16.5 26.833 -21.5 40.5s-7.5 25.167 -7.5 34.5l3 18c2 4.66699 5.66699 9.33398 11 14.001l15 8l18 3l211 1v86
h-322v41h670v-41h-72zM544.997 474.997h-170v-129h-238c-6 0 -11 -2 -15 -6c-1.33301 -1.33301 -2.66602 -5.33301 -3.99902 -12l3 -17c2 -6.66699 5.66699 -13.334 11 -20.001l14 -17l12 -9l166 1l19 -9c5.33301 -2 9.66602 -4.66699 12.999 -8
c10.667 -8 18.834 -17.333 24.501 -28s8.5 -22 8.5 -34c0 -11.333 -2 -22.666 -6 -33.999s-9.66699 -21.333 -17 -30l-10 -10l-14 -10l16 -8l16 -6l15 -5l11 -1c19.333 0 37.666 4.33301 54.999 13c18.667 8 36 20.667 52 38l17 21l21 30v290z" />
    <glyph glyph-name="acircumflex" unicode="&#xe2;" horiz-adv-x="480" 
d="M418 475l-0.00195312 -129.003h-281c-6.66699 0 -11.167 -1.16699 -13.5 -3.5s-4.16602 -6.83301 -5.49902 -13.5c0 -7.33301 1.66699 -14.333 5 -21l15 -25l20 -22l16 -10l13 4l27 7l32 6l27 2c25.333 0 48.333 -2 69 -6s38.667 -10 54 -18s27 -18.167 35 -30.5
s12 -27.833 12 -46.5c0 -10 -3 -19.333 -9 -28s-14.667 -15 -26 -19l-23 -5l-45 -7c-12.667 0 -22 -0.666992 -28 -2c-7.33301 0 -14.333 -1.5 -21 -4.5s-12.167 -7.5 -16.5 -13.5s-6.5 -13.667 -6.5 -23c0 -8 2.16699 -15.5 6.5 -22.5s11.166 -12.167 20.499 -15.5l28 -9
l31 -3l30 3c4.66699 0.666992 9.66699 2 15 4s11 4.33301 17 7l6 2l8 5l21 -42c-6.66699 -3.33301 -12.167 -5.66602 -16.5 -6.99902s-14 -3.66602 -29 -6.99902s-31.5 -5 -49.5 -5c-9.33301 0 -18.333 0.333008 -27 1s-19.334 2.33398 -32.001 5.00098
s-24.667 7.66699 -36 15c-14.667 7.33301 -25.667 17.166 -33 29.499s-11 26.833 -11 43.5c0 14 2.16699 26.667 6.5 38s11.833 20.333 22.5 27c8.66699 6.66699 20.834 11.667 36.501 15s28.667 5.16602 39 5.49902s18.5 0.5 24.5 0.5l17 1h14l11 3l6 6l2 12
c0 10 -3.66699 18.333 -11 25c-5.33301 6 -15.666 11.667 -30.999 17l-35 6l-46 2c-14.667 0 -25.167 -0.333008 -31.5 -1s-16.666 -3.16699 -30.999 -7.5s-29.833 -12.166 -46.5 -23.499c-13.333 -9.33301 -24.666 -21.333 -33.999 -36
c-7.33301 -13.333 -11 -28.333 -11 -45c0 -10 0.666992 -18.833 2 -26.5s4.5 -18.667 9.5 -33s14.5 -30.166 28.5 -47.499c20 -24 37.667 -42.667 53 -56c15.333 -11.333 28.666 -17.666 39.999 -18.999l-35 -39c-13.333 2 -28.333 10.667 -45 26s-36 37.333 -58 66
c-13.333 18 -25 39 -35 63c-7.33301 22 -11 44 -11 66c0 11.333 1.16699 22.166 3.5 32.499s6.83301 20.166 13.5 29.499l17 23l27 27l-19 21l-13 17l-25 43c-4 10.667 -6.66699 22.667 -8 36l3 18c2 4.66699 5.66699 9.33398 11 14.001l15 8l18 3l254 1v86h-365v41h488v-41
h-70z" />
    <glyph glyph-name="atilde" unicode="&#xe3;" horiz-adv-x="686" 
d="M615 475l0.000976562 -475h-52v100h-163v-55l-1 -11c-0.666992 -3.33301 -1.33398 -5.33301 -2.00098 -6l-8 -6l-10 -2c-6.66699 0 -14.334 3 -23.001 9s-20.167 16.167 -34.5 30.5s-24.333 26 -30 35s-9.16699 16.833 -10.5 23.5l1 8l5 6l8 3l12 3l39 1v84h-143
c-11.333 0 -21.166 -2.33301 -29.499 -7s-15.833 -11.334 -22.5 -20.001s-12 -19 -16 -31l-4 -35c0 -18 6.83301 -36.167 20.5 -54.5s35.5 -36.5 65.5 -54.5l55 -29c14 -5.33301 25.667 -8.66602 35 -9.99902l-37 -35c-8 0 -20.5 4.33301 -37.5 13s-36.833 21 -59.5 37
c-30 20 -53.333 41.333 -70 64c-7.33301 10.667 -13 21.667 -17 33s-6 22.666 -6 33.999l3 32c2 10.667 5 19.5 9 26.5s9 13.5 15 19.5l22 23l-19 21l-13 17l-25 42c-4 10.667 -6.66699 22.667 -8 36l3 18c2 4.66699 5.66699 9.33398 11 14.001l15 8l18 3l211 1v86h-322v41
h688v-41h-73zM563.001 475h-188v-129h-238c-6 0 -10 -1.16699 -12 -3.5s-3.66699 -6.83301 -5 -13.5c0 -6.66699 1.16699 -13 3.5 -19s6.83301 -13.333 13.5 -22l16 -18c2.66699 -2 7 -3.66699 13 -5l234 1v-127h163v336z" />
    <glyph glyph-name="adieresis" unicode="&#xe4;" horiz-adv-x="709" 
d="M434 475v-118.001l37 16c14 4 28.667 6 44 6c20.667 0 39.834 -3.16699 57.501 -9.5s34 -15.333 49 -27s26.833 -25.667 35.5 -42s13 -34.166 13 -53.499c0 -18 -4.33301 -38 -13 -60c-4 -11.333 -9 -23.166 -15 -35.499s-13.667 -25.833 -23 -40.5l-22 -32l-29 -41
l-43 30c2 2 3.66699 3.33301 5 4c4 3.33301 7.66699 7.66602 11 12.999l30 47c14 24 25 46 33 66c3.33301 8.66699 6 17.667 8 27s3 18 3 26c0 12 -2 23 -6 33s-10 19 -18 27s-17 14 -27 18s-21 6 -33 6c-8 0 -15.833 -0.333008 -23.5 -1s-15.167 -2 -22.5 -4
c-12 -2 -23 -6 -33 -12l-14 -11l-4 -9v-298h-51v324h-125c-12.667 0 -24.334 -2.16699 -35.001 -6.5s-20.667 -10.5 -30 -18.5s-16.666 -17 -21.999 -27c-4.66699 -12 -7 -23 -7 -33c0 -18.667 4.16699 -39.167 12.5 -61.5s21.166 -46.833 38.499 -73.5l21 -31l30 -41
l-43 -26l-32 44l-22 35c-16 26.667 -29.667 54.667 -41 84c-8.66699 28 -13 51.333 -13 70c0 11.333 1.83301 22 5.5 32s9.16699 19.333 16.5 28l18 17l7 7l-141 1v43h362v108h-383v41h713v-41h-279z" />
    <glyph glyph-name="aring" unicode="&#xe5;" horiz-adv-x="438" 
d="M405 165c-7.33301 -18.667 -18.6611 -35.668 -33.9941 -51.001c-14 -16 -31 -28 -51 -36c-8.66699 -3.33301 -18.5 -6 -29.5 -8s-22.5 -3 -34.5 -3c-24.667 0 -46.834 3.83301 -66.501 11.5s-38.834 19 -57.501 34s-33.334 32.5 -44.001 52.5c-9.33301 20 -14 41 -14 63
c0 22.667 4 44 12 64s20.167 38.167 36.5 54.5s35.166 28.833 56.499 37.5s42.333 13 63 13c23.333 0 45.166 -4.16699 65.499 -12.5s39.166 -20.666 56.499 -36.999s30.333 -34.833 39 -55.5s13 -42 13 -64c0 -23.333 -3.66699 -44.333 -11 -63zM362.005 292.999
c-4 11.333 -11 21.6699 -21 31.0029c-8 8.66699 -18.667 15.334 -32 20.001c-6 2 -12.333 3.66699 -19 5s-14 2 -22 2c-19.333 0 -38 -4 -56 -12c-15.333 -8 -30.666 -20 -45.999 -36c-13.333 -15.333 -23.5 -32.333 -30.5 -51s-10.5 -37.334 -10.5 -56.001
c0 -8.66699 0.5 -15 1.5 -19s3.5 -9.83301 7.5 -17.5s11.667 -16.834 23 -27.501c8.66699 -6.66699 20 -13.334 34 -20.001c12 -4 25 -6 39 -6c16 0 31.667 3.5 47 10.5s30.166 17.667 44.499 32s25.833 30.666 34.5 48.999s13 37.5 13 57.5c0 14 -2.33301 26.667 -7 38z
" />
    <glyph glyph-name="ae" unicode="&#xe6;" horiz-adv-x="492" 
d="M383 475l-0.000976562 -127.001h-195c-22 0 -39 -7 -51 -21c-10.667 -14 -16 -34 -16 -60c0 -18.667 3.5 -35.167 10.5 -49.5s17.167 -26.833 30.5 -37.5s29 -19.667 47 -27c8.66699 -2.66699 17 -4.66699 25 -6s18 -2 30 -2l10 1l15 2l12 2l6 1l-1 9
c0 5.33301 1.66699 11.333 5 18c4.66699 17.333 11.667 30.833 21 40.5s20.333 14.5 33 14.5c7.33301 0 13.5 -1.16699 18.5 -3.5s9.66699 -5.66602 14 -9.99902s7.5 -9.5 9.5 -15.5l3 -18c0 -8.66699 -1.16699 -16.667 -3.5 -24s-6 -14.833 -11 -22.5
s-11.167 -13.834 -18.5 -18.501c-4.66699 -2 -12 -3.66699 -22 -5l2 -13l2 -10l5 -25l7 -22l12 -29l17 -27l10 -14l10 -11h-59l-18 41l-12 29c-5.33301 11.333 -9.66602 24.333 -12.999 39l-4 36l-207 -151l-31 43l184 109c-10 0 -19.667 0.333008 -29 1
s-18 1.83398 -26 3.50098s-14.833 3 -20.5 4s-12.5 3.5 -20.5 7.5c-32 12 -56 29.833 -72 53.5s-24 52.5 -24 86.5c0 18.667 2.16699 34.667 6.5 48s11.333 25.833 21 37.5s20.667 20.167 33 25.5s25.5 8 39.5 8l162 1v88h-330v41h490v-41h-107z" />
    <glyph glyph-name="ccedilla" unicode="&#xe7;" horiz-adv-x="445" 
d="M377 475v-475h-53v217l-250 -217l-39 35l168 133c-18 0 -34.667 3 -50 9s-28.5 15.5 -39.5 28.5s-20.167 28.167 -27.5 45.5c-2.66699 8.66699 -4.66699 17 -6 25s-2 18 -2 30v169h-78v41h445v-41h-68zM322 475h-193v-176c0 -15.333 2.5 -29 7.5 -41s12.5 -22 22.5 -30
c7.33301 -6 16 -11.667 26 -17c6 -2 16 -3.66699 30 -5c8 0 13.833 0.5 17.5 1.5s8.66699 3.16699 15 6.5l18.5 10c6 3.33301 13 8.33301 21 15l15 13l20 20v203z" />
    <glyph glyph-name="egrave" unicode="&#xe8;" horiz-adv-x="264" 
d="M248 475v41h20v-41h-20zM341 158l-36.001 -24.998c-20 -13.333 -41.333 -23.333 -64 -30c-9.33301 -2.66699 -20.166 -5 -32.499 -7s-23.833 -3 -34.5 -3c-16.667 0 -32.167 2.5 -46.5 7.5s-28.333 12.667 -42 23s-23.834 22.333 -30.501 36s-10 27.167 -10 40.5
c0 10.667 2 21.5 6 32.5s10.333 21.833 19 32.5l10 10l16 13c-6 2.66699 -11.167 5.66699 -15.5 9s-9.16602 8 -14.499 14c-9.33301 10 -19.666 22.333 -30.999 37c-4 6 -7.66699 12 -11 18c-0.666992 1.33301 -3.66699 7.66602 -9 18.999c-2 6 -3.66699 12 -5 18
s-2 12.667 -2 20c0 14 2.33301 27.167 7 39.5s11.334 23.166 20.001 32.499s19.334 16.5 32.001 21.5s26.667 7.5 42 7.5c11.333 0 22.5 -1.83301 33.5 -5.5s21.167 -9.16699 30.5 -16.5s16.333 -16 21 -26s7 -20 7 -30v-30h-45v31c0 12 -3.66699 21.667 -11 29
s-18.666 11 -33.999 11c-8.66699 0 -15.834 -1.66699 -21.501 -5s-10.834 -8 -15.501 -14l-10 -20l-3 -23c0 -14 1.66699 -26.333 5 -37c1.33301 -4 3.66602 -9.33301 6.99902 -16s6.66602 -12.334 9.99902 -17.001c10 -14 19.333 -25.333 28 -34c8 -6 16 -9.66699 24 -11
l34 10l39 4l18 -1l20 -2l22 -38l-67 -3c-16 0 -29 -1.66699 -39 -5c-20 -4.66699 -35.333 -13.167 -46 -25.5s-16 -28.166 -16 -47.499c0 -10 2 -19 6 -27s10.167 -15.167 18.5 -21.5s17.833 -11.5 28.5 -15.5l31 -4c21.333 0 41.5 3.66699 60.5 11s39.833 19.333 62.5 36
l22 20l26 28v-53c0 -4.66699 -4.66699 -10.667 -14 -18z" />
    <glyph glyph-name="eacute" unicode="&#xe9;" horiz-adv-x="504" 
d="M434 477l-0.00195312 -477h-53v223l-186 -100l30 -51l1 -9l1 -5c0 -4.66699 -0.666992 -8.16699 -2 -10.5s-2.66602 -3.83301 -3.99902 -4.5l-8 -2l-10 -1l-14 1c-6 0 -12 1.33301 -18 4l-23 6l-27 12l-18 9c-5.33301 3.33301 -9.66602 7 -12.999 11l-7 10l-2 11
c0 5.33301 2 11 6 17s9 11.667 15 17l4 3l7 4l242 103l-18 20l-14 16c-11.333 13.333 -23.333 24.666 -36 33.999c-10.667 10 -20.334 17 -29.001 21l-15 6l-16 4l-18 2l-16 1l-24 -1l-22 -3l-9 -2l-11 -3l4 -72l-3 -11l-3 -6l-7 -6l-8 -2l-10 2l-13 8l-15 13l-17 18l-15 19
l-10 13l-3 4l-6 10l-2 10c0 8 4.66699 15.667 14 23c2.66699 1.33301 8.33398 3.83301 17.001 7.5s17.334 6.83398 26.001 9.50098l59 10l64 4c17.333 0 30.166 -0.5 38.499 -1.5s16.5 -3.16699 24.5 -6.5c3.33301 -1.33301 7.33301 -3.5 12 -6.5s10 -7.5 16 -13.5
c12 -10 26.333 -24.333 43 -43l20 -24l28 -32v205h-381v41h506v-39h-72z" />
    <glyph glyph-name="ecircumflex" unicode="&#xea;" horiz-adv-x="480" 
d="M381 475l0.00195312 -104h-211c-16 0 -27.833 -4.66699 -35.5 -14s-11.5 -22.666 -11.5 -39.999c0 -14 4 -27 12 -39s20.333 -23 37 -33c11.333 -6.66699 26.666 -13.334 45.999 -20.001c8 -2 16 -3.66699 24 -5s16.667 -2 26 -2c20 0 37.167 1.83301 51.5 5.5
s24.5 6.66699 30.5 9s14 6.5 24 12.5l17 11l19 16l39 -30l-37 -25l-31 -16v-113h-201c-7.33301 0 -14 -1.66699 -20 -5c-4.66699 -1.33301 -10.334 -5.33301 -17.001 -12l-11 -17l-3 -20c0 -16 4.16699 -29.833 12.5 -41.5s22.5 -22.834 42.5 -33.501
c13.333 -6 27.666 -11 42.999 -15c10.667 -2 18.667 -3.33301 24 -4s14 -1 26 -1c10 0 19 0.833008 27 2.5s15.167 3.5 21.5 5.5s12.5 4.33301 18.5 7l46 21c12 6 20.667 11.667 26 17l35 -31l-30 -21l-42 -21c-8 -3.33301 -14.333 -5.66602 -19 -6.99902
s-13.667 -3.33301 -27 -6s-22.666 -4.33398 -27.999 -5.00098s-14 -1 -26 -1c-22 0 -37.167 0.5 -45.5 1.5s-21.666 3.5 -39.999 7.5s-37.166 12 -56.499 24s-34 27 -44 45c-10 16 -15 35.333 -15 58c0 12 1.83301 23 5.5 33s9 19 16 27s16 14.333 27 19s21.5 7 31.5 7
l174 1v65l-23 -5l-16 -1h-12h-8c-26.667 0 -48.334 1.83301 -65.001 5.5s-30 7.33398 -40 11.001s-20 8.16699 -30 13.5c-21.333 12 -38 26.667 -50 44c-10.667 19.333 -16 39.666 -16 60.999c0 14.667 2 27.834 6 39.501s10.333 21 19 28s18.667 12.5 30 16.5
s23.666 6 36.999 6l168 1v67h-332v41h488v-41h-107z" />
    <glyph glyph-name="edieresis" unicode="&#xeb;" horiz-adv-x="480" 
d="M381 475l0.000976562 -103.997h-211c-15.333 0 -27.666 -4.66699 -36.999 -14s-14 -22.666 -14 -39.999c0 -14 3.33301 -27.667 10 -41c6.66699 -10.667 17.334 -20.834 32.001 -30.501s31 -17.167 49 -22.5c10 -2 19.333 -3.66699 28 -5s18.667 -2 30 -2
c18.667 0 35.167 1.66699 49.5 5s24.833 6.16602 31.5 8.49902s14.334 6.5 23.001 12.5l16 10l18 17l37 -31l-31 -21l-31 -16v-113h-227c-6.66699 0 -12.667 -1.33301 -18 -4s-11 -7 -17 -13l-11 -17l-4 -20c0 -16 4.33301 -30.667 13 -44c9.33301 -12 23.333 -23 42 -33
c5.33301 -2.66699 12.166 -5.5 20.499 -8.5s19.666 -6.16699 33.999 -9.5s31.833 -5 52.5 -5l41 3l34 9c13.333 4.66699 23.333 11.5 30 20.5s10 18.833 10 29.5c0 7.33301 -1.16699 13.833 -3.5 19.5s-5.83301 11.5 -10.5 17.5l-6 4l-9 5l33 32l14 -17l11 -11
c6.66699 -7.33301 12 -15.333 16 -24s6 -16 6 -22c0 -19.333 -4.66699 -36 -14 -50c-8 -14 -21.333 -25.333 -40 -34c-13.333 -6.66699 -29 -11.667 -47 -15s-31.667 -5.16602 -41 -5.49902s-16.666 -0.5 -21.999 -0.5c-29.333 0 -56.833 3.16699 -82.5 9.5
s-48.834 15.166 -69.501 26.499s-36.667 26.166 -48 44.499s-17 38.5 -17 60.5c0 10 2 20.167 6 30.5s10 19.833 18 28.5s16.667 15.334 26 20.001c12 4.66699 22.667 7 32 7l199 1v65c-12.667 -4 -25.334 -7 -38.001 -9l-38 -2c-20 0 -33.833 0.5 -41.5 1.5
s-17.5 3.16699 -29.5 6.5c-20 5.33301 -39.5 13.666 -58.5 24.999s-33.5 26.166 -43.5 44.499s-15 39.166 -15 62.499c0 16 2.33301 29 7 39c4 11.333 10.167 20.333 18.5 27s18.666 12.334 30.999 17.001s25.5 7 39.5 7l168 1v67h-332v41h488v-41h-107z" />
    <glyph glyph-name="igrave" unicode="&#xec;" horiz-adv-x="527" 
d="M445 475l-0.00390625 -114h-224l-8 -3l-2 -5l1 -6l2 -4l12 -15l20 -20l14 -12l15 -8l17 -4l19 -1l17 1l22 3l45 7l25 2c13.333 0 24.166 -1.66699 32.499 -5s14.666 -7.5 18.999 -12.5s7.5 -11.833 9.5 -20.5l3 -27c0 -19.333 -4.66699 -36.333 -14 -51s-24 -28 -44 -40
c-3.33301 -2 -9.16602 -4.66699 -17.499 -8s-19.5 -7.33301 -33.5 -12c-18 -4 -37 -6 -57 -6h-15h-13c-6 1.33301 -10.333 2 -13 2l-37 8l-14 4l-15 6l15 -25l13 -17c4 -5.33301 9.16699 -11.166 15.5 -17.499s11.5 -11.166 15.5 -14.499
c8.66699 -5.33301 17.667 -8.66602 27 -9.99902l21 1l25 5l54 11l29 4c8.66699 0 16 -1.66699 22 -5c7.33301 -2 13.833 -5.66699 19.5 -11s10.834 -12 15.501 -20c2 -4.66699 3.66699 -12 5 -22c0 -19.333 -4.66699 -37 -14 -53c-7.33301 -15.333 -20.666 -29 -39.999 -41
c-15.333 -10 -33 -17.333 -53 -22c-9.33301 -2.66699 -18.5 -4.66699 -27.5 -6s-20.167 -2 -33.5 -2c-34.667 0 -68.5 5.16699 -101.5 15.5s-65.5 26.166 -97.5 47.499l-36 27l-42 36l31 36c15.333 -15.333 28.666 -27.333 39.999 -36
c5.33301 -4.66699 11.833 -9.33398 19.5 -14.001s12.5 -7.66699 14.5 -9c30.667 -20 60.334 -35 89.001 -45s56.334 -15 83.001 -15c14 0 28 2 42 6c5.33301 1.33301 11.666 3.66602 18.999 6.99902s14 6.66602 20 9.99902c12 7.33301 20.833 15.166 26.5 23.499
s9.16699 17.833 10.5 28.5c-0.666992 4.66699 -1.5 8.33398 -2.5 11.001s-2.16699 4.66699 -3.5 6l-9 4l-13 2l-18 -4l-50 -10l-30 -6l-25 -1c-12.667 0 -25.5 3 -38.5 9s-26.833 15.833 -41.5 29.5s-25.334 28 -32.001 43s-10 28.833 -10 41.5v4l1 6v4l2 5l-32 20l-33 23
l-17 12l-16 12l-16 11l-15 12l29 42l42 -38l34 -26c32 -21.333 62.333 -37.333 91 -48s55 -16 79 -16h16c8.66699 2 16.334 3.66699 23.001 5s11.834 2.83301 15.501 4.5s9.5 4.5 17.5 8.5c16.667 7.33301 28.834 15.833 36.501 25.5s11.5 20.5 11.5 32.5
c0 4.66699 -0.5 8.33398 -1.5 11.001s-3.5 5 -7.5 7l-11 3l-14 1l-21 -2l-31 -7l-34 -7l-27 -2c-9.33301 0 -20.666 3.33301 -33.999 10c-12 7.33301 -26.167 17.833 -42.5 31.5s-29.833 27.5 -40.5 41.5c-8 13.333 -12 25.333 -12 36l3 20c2 6 5.66699 10.667 11 14l16 8
l19 3l186 1v75h-393v41h525v-41h-80z" />
    <glyph glyph-name="iacute" unicode="&#xed;" horiz-adv-x="385" 
d="M311 475l-0.000976562 -104h-163l-16 -3l-11 -1c-7.33301 -2 -13.5 -6 -18.5 -12s-7.83301 -14 -8.5 -24c0 -9.33301 1.5 -17.333 4.5 -24s8.16699 -14 15.5 -22l13 -12l10 -4l45 14l4 -1l5 1h4h4l7 1h5h4h6l4 -1h5l9 -1h7l24 -42h-9l-10 2h-6l-6 1h-7h-7h-14.5
c-3.66699 0 -10.5 -1.33301 -20.5 -4l-28 -9c-9.33301 -5.33301 -17.666 -13.333 -24.999 -24c-5.33301 -10.667 -8 -22.334 -8 -35.001c0 -10.667 0.333008 -18.5 1 -23.5s3.5 -12.333 8.5 -22s13.167 -18.167 24.5 -25.5l28 -11l35 -4l17 1l11 3l-2 4v5v6v8
c0 9.33301 0.666992 16.333 2 21l7 17c4 6.66699 9.33301 12 16 16c8 3.33301 16.667 5 26 5c7.33301 0 13.5 -1.16699 18.5 -3.5s9.66699 -5.83301 14 -10.5s7.5 -10.334 9.5 -17.001l3 -20l-3 -20l-9 -17c-4.66699 -5.33301 -9.33398 -9.33301 -14.001 -12l-17 -4l52 -90
l-44 -24l-45 102l-4 -3l-9 -1l-14 -2h-15c-22.667 0 -41.5 1.83301 -56.5 5.5s-28.167 8.83398 -39.5 15.501c-17.333 10 -31 23.667 -41 41c-2 4 -4.66699 11.667 -8 23s-5 24.333 -5 39c0 8 0.666992 14 2 18l7 20l16 24l6 10l-19 13l-13 10
c-10.667 10.667 -18.667 21 -24 31c-2.66699 5.33301 -4.66699 10.333 -6 15s-2 10.334 -2 17.001c0 14 1.83301 25.833 5.5 35.5s8.83398 17 15.501 22s12.334 8.5 17.001 10.5s10.167 4 16.5 6s12.166 3.16699 17.499 3.5s9.33301 0.5 12 0.5l133 1v65h-260v41h391v-41
h-80z" />
    <glyph glyph-name="icircumflex" unicode="&#xee;" horiz-adv-x="492" 
d="M422 475l0.00292969 -475h-53v127c-2.66699 -4 -5.33398 -6.66699 -8.00098 -8l-17 -11c-20.667 -12 -40 -21 -58 -27c-8.66699 -2.66699 -17.334 -4.66699 -26.001 -6s-18 -2 -28 -2c-24.667 0 -46.667 4.16699 -66 12.5s-36.833 21.666 -52.5 39.999
s-28.5 38.166 -38.5 59.499c-8 20 -12 40 -12 60l23 -6l29 -2l36 3c12 2 22.5 5.5 31.5 10.5s16.333 11.833 22 20.5s8.5 18.334 8.5 29.001s-2.5 19.667 -7.5 27s-13.167 13.666 -24.5 18.999l-35 10l-42 4l-46 -3l-51 -9c-25.333 -5.33301 -45.333 -10.666 -60 -15.999
c-16 -4 -28.667 -8.33301 -38 -13l-1 46c15.333 2 27 4.66699 35 8l27 7l71 12c21.333 2.66699 36.166 4.16699 44.499 4.5s14.833 0.5 19.5 0.5c10.667 0 21.334 -0.333008 32.001 -1s20.667 -2 30 -4c18.667 -2 35.167 -6.66699 49.5 -14s25.833 -17.333 34.5 -30
c2 -3.33301 4.66699 -8.83301 8 -16.5s5 -16.834 5 -27.501c0 -19.333 -3.66699 -35.5 -11 -48.5s-18 -23.833 -32 -32.5c-10 -5.33301 -24 -10.666 -42 -15.999c-14.667 -2.66699 -26.334 -4.16699 -35.001 -4.5s-15.667 -0.5 -21 -0.5c4 -14 9.33301 -26.333 16 -37
s15 -20.167 25 -28.5s21.333 -15.166 34 -20.499c12 -4 25.333 -6 40 -6s29.667 3 45 9s31.333 15.333 48 28l17 15l21 23v290h-369v41h492v-41h-70z" />
    <glyph glyph-name="idieresis" unicode="&#xef;" horiz-adv-x="527" 
d="M445 475l-0.000976562 -90.002h-224l-7 -3l-2 -3l1 -5l6 -7l9 -10l14 -12l19 -13l14 -9l12 -5l12 -1l18 1l21 3l52 9l27 3l28 -3c7.33301 -2 13.833 -5.16699 19.5 -9.5s10.334 -11 14.001 -20s5.5 -19.167 5.5 -30.5c0 -15.333 -2.5 -28.333 -7.5 -39
s-13.5 -21.334 -25.5 -32.001l-14 -11l-19 -11v-101h-221c-6.66699 0 -13 -1.33301 -19 -4l-17 -9l-11 -14l-4 -17c0 -18 5 -34.167 15 -48.5s25.667 -26.166 47 -35.499l25 -9l37 -9c0 7.33301 -0.666992 13 -2 17l-1 15c0 10.667 1.16699 19.834 3.5 27.501
s6.66602 15.167 12.999 22.5s16.333 13.5 30 18.5s28.834 7.5 45.501 7.5c14.667 0 27.334 -1.66699 38.001 -5c12 -2 23 -6 33 -12c10 -4.66699 17.333 -10.834 22 -18.501s7.66699 -17.5 9 -29.5c0 -16 -3.5 -29.667 -10.5 -41s-18.167 -20.666 -33.5 -27.999
c-12.667 -5.33301 -26.834 -9.5 -42.501 -12.5s-32.5 -4.5 -50.5 -4.5c-36 0 -67.833 3.16699 -95.5 9.5s-51.334 16.166 -71.001 29.499s-34.834 29.333 -45.501 48s-16 40 -16 64c0 8.66699 2 17.167 6 25.5s10 16.166 18 23.499s17.333 13 28 17s21.334 6 32.001 6l187 1
v47l-6 -2l-14 -1l-16 -1h-11l-36 1c-5.33301 0 -10 0.333008 -14 1s-10.333 2 -19 4l-34 9l-35 16l-46 23c-13.333 6.66699 -22.666 12.334 -27.999 17.001l-37 26l-32 31l29 38l40 -38l34 -25c28 -18.667 57.333 -34.334 88 -47.001c30.667 -10.667 58.667 -16 84 -16
c13.333 0 25.333 1.33301 36 4c12.667 2 24.667 6.33301 36 13c16.667 7.33301 28.834 15.833 36.501 25.5s11.5 20.834 11.5 33.501c0 4.66699 -0.5 8.33398 -1.5 11.001s-3.5 5 -7.5 7l-11 3l-14 1l-21 -2l-31 -7l-34 -7l-27 -2c-10.667 0 -21.167 2.33301 -31.5 7
s-17.833 8.33398 -22.5 11.001s-12.334 7.66699 -23.001 15c-16.667 12 -29.667 24 -39 36c-2 2.66699 -4.66699 7.5 -8 14.5s-5 13.833 -5 20.5l3 19c2 5.33301 5.33301 10 10 14l16 7l20 3l186 1v53h-393v41h525v-41h-80zM409.999 -23.002l-10 4
c-5.33301 0 -12.666 -2 -21.999 -6l-31 -19l-14 -10l-19 -16h5l8 -1h5l5 -1h5h5c11.333 0 19.666 0.666992 24.999 2c8 0 14.333 1.33301 19 4c6 2 11.333 5.83301 16 11.5s7 12.167 7 19.5c0 5.33301 -1.33301 9.33301 -4 12z" />
    <glyph glyph-name="eth" unicode="&#xf0;" horiz-adv-x="480" 
d="M381 475l0.00195312 -103.998h-211c-15.333 0 -27.666 -4.66699 -36.999 -14s-14 -22.666 -14 -39.999c0 -14 3.33301 -27.667 10 -41c6.66699 -10.667 17.334 -20.834 32.001 -30.501s31 -17.167 49 -22.5c10 -2 19.333 -3.66699 28 -5s18.667 -2 30 -2
c20 0 37 5.83301 51 17.5s26 28.834 36 51.501l8 28l8 41l38 -12c0 -12.667 -0.666992 -22.334 -2 -29.001l-1 -26c0 -8.66699 -1.33301 -16.667 -4 -24l-5 -20l-3 -3l-3 -6l-4 -9l-3 -12l-2 -5l-1 -8v-112h-227c-6.66699 0 -12.667 -1.33301 -18 -4s-11 -7 -17 -13l-11 -17
l-4 -20c0 -16 4.33301 -30.667 13 -44c9.33301 -12 23.333 -23 42 -33c5.33301 -2.66699 12.166 -5.5 20.499 -8.5s19.666 -6.16699 33.999 -9.5s31.833 -5 52.5 -5l41 3l34 9c13.333 4.66699 23.333 11.5 30 20.5s10 18.833 10 29.5c0 7.33301 -1.16699 13.833 -3.5 19.5
s-5.83301 11.5 -10.5 17.5l-6 4l-9 5l33 32l14 -17l11 -11c6.66699 -7.33301 12 -15.333 16 -24s6 -16 6 -22c0 -19.333 -4.66699 -36 -14 -50c-8 -14 -21.333 -25.333 -40 -34c-13.333 -6.66699 -29 -11.667 -47 -15s-31.667 -5.16602 -41 -5.49902
s-16.666 -0.5 -21.999 -0.5c-29.333 0 -56.833 3.16699 -82.5 9.5s-48.834 15.166 -69.501 26.499s-36.667 26.166 -48 44.499s-17 38.5 -17 60.5c0 10 2 20.167 6 30.5s10 19.833 18 28.5s16.667 15.334 26 20.001c12 4.66699 22.667 7 32 7l199 1v65
c-12.667 -4 -25.334 -7 -38.001 -9l-38 -2c-20 0 -33.833 0.5 -41.5 1.5s-17.5 3.16699 -29.5 6.5c-20 5.33301 -39.5 13.666 -58.5 24.999s-33.5 26.166 -43.5 44.499s-15 39.166 -15 62.499c0 16 2.33301 29 7 39c4 11.333 10.167 20.333 18.5 27
s18.666 12.334 30.999 17.001s25.5 7 39.5 7l168 1v67h-332v41h488v-41h-107z" />
    <glyph glyph-name="ntilde" unicode="&#xf1;" horiz-adv-x="240" 
d="M200 63c-4 -9.33301 -10.8301 -18.335 -20.4971 -27.002s-19.834 -15 -30.501 -19s-22.667 -6 -36 -6s-25 1.83301 -35 5.5s-19.833 9.33398 -29.5 17.001s-16.834 17.5 -21.501 29.5s-7 24.667 -7 38c0 14.667 2.33301 27 7 37c3.33301 10 10 19.333 20 28
s20.167 15 30.5 19s22.166 6 35.499 6c12.667 0 24.667 -2 36 -6s21.5 -10.167 30.5 -18.5s15.833 -18.166 20.5 -29.499s7 -23.333 7 -36c0 -14 -2.33301 -26.667 -7 -38zM134.003 49.998c6 2 11.334 5.66699 16.001 11l10 17l4 21c0 8 -1.33301 15 -4 21l-9 17
c-4 5.33301 -9.66699 9.33301 -17 12l-21 4c-8.66699 0 -15.834 -1.33301 -21.501 -4s-11.167 -7 -16.5 -13l-10 -17l-3 -20l3 -21c2 -5.33301 5.33301 -11 10 -17l15 -11l23 -4z" />
    <glyph glyph-name="ograve" unicode="&#xf2;" 
 />
    <glyph glyph-name="oacute" unicode="&#xf3;" horiz-adv-x="672" 
d="M600 477l0.00292969 -476.998h-53v197l-143 -131l-39 32l149 121l-3 1l-3 2l-4 1l-3 2c-10 5.33301 -21 9.33301 -33 12l-36 4l-28 -2l-32 -6l-25 -7l-11 -4l-25 46l23 4l18 3l44 7l32 2h6h6l5 -1h6c4.66699 -0.666992 7.66699 -1.33398 9 -2.00098l7 -1l-14 25l-10 15
c-11.333 11.333 -26.166 20.5 -44.499 27.5s-37.833 10.5 -58.5 10.5l-22 -2c-8.66699 0 -17.334 -1.33301 -26.001 -4c-3.33301 -0.666992 -5.33301 -1.33398 -6 -2.00098l-7 -1c0 -14.667 -2 -28.667 -6 -42s-10 -26 -18 -38c-8 -10 -17.333 -18.333 -28 -25
c-10.667 -5.33301 -22.334 -8 -35.001 -8l-11 1l-13 2l62 -94l27 -35l33 -38l15 -17l21 -21l-41 -34c-8 3.33301 -24 20.333 -48 51l-92 132l-30 45l-28 46l-18 31l-18 32l43 28l29 -56c5.33301 -12.667 13.166 -21.667 23.499 -27s22.166 -8 35.499 -8l22 3
c6 2 10.333 5.33301 13 10l7 15l2 21l-1 15v11v126h-225v41h672v-39h-72zM547.003 475.002h-270.002v-84c6 0 10.667 0.666992 14 2c4.66699 0 8.33398 0.666992 11.001 2l27 4l19 2c28.667 0 54.334 -5.5 77.001 -16.5s43 -28.5 61 -52.5l16 -29l18 -40l27 -17v229z" />
    <glyph glyph-name="ocircumflex" unicode="&#xf4;" horiz-adv-x="637" 
d="M357 475l-0.00585938 -127.003l24 17l32 15l36 9l36 4c16 0 29.667 -1.66699 41 -5s21.333 -8.33301 30 -15s15.834 -15.667 21.501 -27s8.5 -24.666 8.5 -39.999c0 -14.667 -2.16699 -27.834 -6.5 -39.501s-10.833 -23.5 -19.5 -35.5l-8 -8l-7 -7l-37 26l5 3l4 5
c6.66699 7.33301 12 16 16 26s6 20 6 30c0 7.33301 -1.66699 14 -5 20c-1.33301 5.33301 -4.83301 10.5 -10.5 15.5s-12.5 9.16699 -20.5 12.5l-21 4c-9.33301 0 -20.166 -2.5 -32.499 -7.5s-27.5 -13.167 -45.5 -24.5l-21 -13l-26 -19v-101l25 12l14 6l37 13l30 5
c18.667 0 34.834 -2.16699 48.501 -6.5s25.5 -11.5 35.5 -21.5c9.33301 -7.33301 16.833 -17.666 22.5 -30.999s8.5 -27.333 8.5 -42c0 -17.333 -4 -34.333 -12 -51s-20 -32 -36 -46l-20 -15l-28 -16l-27 35l21 12l15 11c12 10 21 21 27 33s9 24.333 9 37
c0 12 -1.66699 21.667 -5 29c-2 8 -6.16699 14 -12.5 18s-13.5 7 -21.5 9l-27 4c-7.33301 0 -17.666 -2 -30.999 -6l-37 -18l-16 -10l-20 -14v-140h-52v102c-2.66699 -4 -7.33398 -8 -14.001 -12l-31 -16c-16 -8 -30.833 -14 -44.5 -18s-25.5 -6 -35.5 -6
c-9.33301 0 -16.333 0.333008 -21 1s-12.667 3 -24 7s-22.666 11.167 -33.999 21.5s-20 22.166 -26 35.499s-9 27.333 -9 42c0 10.667 1.66699 19.667 5 27s5.5 12 6.5 14s4.16699 6.33301 9.5 13l12 12l12 8l-19 14l-13 18l-8 19l-2 20c0 9.33301 0.333008 15.833 1 19.5
s3.5 10.834 8.5 21.501s13 21.167 24 31.5s23.833 18.333 38.5 24s29.667 8.5 45 8.5l23 -2l27 -6l6 -2l8 -3l20 -44l-16 3l-11 3l-30 6l-20 2c-11.333 0 -20.666 -1.5 -27.999 -4.5s-15 -8.5 -23 -16.5c-5.33301 -5.33301 -10.666 -12.666 -15.999 -21.999
c-2 -4.66699 -3.66699 -12.667 -5 -24c0 -10 2.83301 -18.5 8.5 -25.5s14.5 -13.167 26.5 -18.5l15 3l16 1l18 -1l27 -3l25 -3l16 -1l20 -46l-11 2l-27 6l-31 5l-21 2c-12 0 -22.667 -1.66699 -32 -5c-10 -2 -19 -5.83301 -27 -11.5s-14.167 -12.5 -18.5 -20.5
s-6.5 -17.333 -6.5 -28c0 -8.66699 1.16699 -16.5 3.5 -23.5s6.83301 -13.5 13.5 -19.5c4.66699 -5.33301 11.667 -9.66602 21 -12.999l31 -4c11.333 0 23.833 2.16699 37.5 6.5s27.5 11.833 41.5 22.5l28 20l10 13v320h-305v41h633v-41h-276z" />
    <glyph glyph-name="otilde" unicode="&#xf5;" horiz-adv-x="6" 
d="M-95 516l-172 226l47 26l160 -252h-35zM-181 516l-197 132l37 41l185 -173h-25zM-26 642v56h61v-56h-61zM29 751l-6.99707 3.00195l-20 4l-19 2c-10 0 -18.833 -1.66699 -26.5 -5s-14.167 -7.83301 -19.5 -13.5s-9.83301 -13 -13.5 -22s-5.5 -19.167 -5.5 -30.5
c0 -10 0.333008 -17.333 1 -22s3.16699 -13.167 7.5 -25.5s12.166 -27.166 23.499 -44.499l14 -19l19 -23l-38 1c-2 1.33301 -3.83301 2.66602 -5.5 3.99902s-4.5 4.66602 -8.5 9.99902l-23 36c-2.66699 4.66699 -7 13.5 -13 26.5l-13 28.5c-6 18 -9 34.667 -9 50
c0 14.667 2.5 27.167 7.5 37.5s13.167 19.666 24.5 27.999s23.166 14.5 35.499 18.5s26.166 6 41.499 6l28 -3l27 -9v-40z" />
    <glyph glyph-name="odieresis" unicode="&#xf6;" horiz-adv-x="492" 
d="M175 -17l3.00098 -6.00195l1 -4l-2 -4l-5 -5c-7.33301 0 -13 0.666992 -17 2l-34 11c-4.66699 2 -9.33398 3.66699 -14.001 5c-8 3.33301 -15 6.5 -21 9.5s-10 6.16699 -12 9.5v5l3 7l6 7l33 16l-35 77l-10 11l-13 4l-12 -3c-3.33301 -0.666992 -7 -3 -11 -7l-8 -10
l-2 -12l1 -6v-4l2 -3l2 -3l2 -3l3 -4l4 -3l3 -3l5 -4l-27 -12l-4 2l-2 3l-6 7l-4 7l-4 12l-1 12c0 8.66699 1.33301 15.834 4 21.501s7.66699 12.167 15 19.5c6.66699 5.33301 13.167 9.33301 19.5 12s15.166 4.66699 26.499 6l13 -2l13 -6l11 -9l9 -13l34 -73l116 61
c-10 0 -19.667 0.333008 -29 1s-18 1.83398 -26 3.50098s-14.833 3 -20.5 4s-12.5 3.5 -20.5 7.5c-32 12 -56 29.833 -72 53.5s-24 52.5 -24 86.5c0 18.667 2.16699 34.667 6.5 48s11.333 25.833 21 37.5s20.667 20.167 33 25.5s25.5 8 39.5 8l162 1v88h-330v41h490v-41
h-107v-127h-195c-22 0 -39 -7 -51 -21c-10.667 -14 -16 -34 -16 -60c0 -18.667 3.5 -35.167 10.5 -49.5s17.167 -26.833 30.5 -37.5s29 -19.667 47 -27c8.66699 -2.66699 17 -4.66699 25 -6s18 -2 30 -2l10 1l15 2l12 2l6 1l-1 9c0 5.33301 1.66699 11.333 5 18
c4.66699 17.333 11.667 30.833 21 40.5s20.333 14.5 33 14.5c7.33301 0 13.5 -1.16699 18.5 -3.5s9.66699 -5.66602 14 -9.99902s7.5 -9.5 9.5 -15.5l3 -18c0 -8.66699 -1.16699 -16.667 -3.5 -24s-6 -14.833 -11 -22.5s-11.167 -13.834 -18.5 -18.501
c-4.66699 -2 -12 -3.66699 -22 -5l2 -13l2 -10l5 -25l7 -22l12 -29l17 -27l10 -14l10 -11h-59l-18 41l-12 29c-5.33301 11.333 -9.66602 24.333 -12.999 39l-4 36l-159 -84z" />
    <glyph glyph-name="divide" unicode="&#xf7;" horiz-adv-x="371" 
d="M457 198l-7.00586 -0.00292969l-8 -1h-6l-14 -2h-14h-14c-5.33301 0 -9.33301 0.666992 -12 2l-6 1c-3.33301 0.666992 -5.33301 1.33398 -6 2.00098l-7 2l-6 4v-28c0 -17.333 -3.16699 -33 -9.5 -47s-16.166 -26.667 -29.499 -38c-16 -14 -31.833 -24.667 -47.5 -32
s-30.167 -11 -43.5 -11l46 -29l53 -23l-31 -39l-63 39l-15 9l-18 13l-16 13l-9 9l-24 1h-34c-8 0.666992 -16.333 2.83398 -25 6.50098s-15.667 9.16699 -21 16.5c-3.33301 6 -5.66602 15 -6.99902 27l3 15l9 15l13 9l16 4c6.66699 0 11.667 -0.666992 15 -2
c4.66699 0 9.66699 -1.66699 15 -5l14 -8l15 -11l10 -11l13 -16l34 7c11.333 2 19.666 4.66699 24.999 8c20.667 9.33301 35.834 21 45.501 35s14.5 31.333 14.5 52c0 7.33301 -0.666992 12.333 -2 15l-6 10l-9 6l-12 2l-17 -2l-23 -6l-23 -6l-14 -2l-22 3
c-7.33301 2 -14.666 5.16699 -21.999 9.5s-15 9.83301 -23 16.5l-22 23c-14 17.333 -25 33.333 -33 48c-7.33301 16 -11 29.667 -11 41c0 9.33301 1.83301 17 5.5 23s8.83398 11 15.501 15l14 5l18 2l149 1v86h-268v41h375v-41h-55v-127h-191l-7 -5l-2 -5l1 -10l5 -11
l10 -17l18 -22l12 -13l13 -8l13 -4l17 -1l16 1c8 0 17 1.33301 27 4l26 4l17 2c6.66699 0 12.334 -0.666992 17.001 -2s9.33398 -3.66602 14.001 -6.99902l16 -11l10 -4l26 -8l25 -2l28 3c8.66699 2 17 5.33301 25 10l4 2l5 5v-50z" />
    <glyph glyph-name="oslash" unicode="&#xf8;" horiz-adv-x="203" 
d="M244 -182c-21.333 0 -40 2.66602 -56 7.99902c-15.333 4 -29.666 10.833 -42.999 20.5s-23.5 22.834 -30.5 39.501s-10.5 34.334 -10.5 53.001v209c0 12.667 -1.5 24.167 -4.5 34.5s-8 21.666 -15 33.999s-14.833 22.5 -23.5 30.5c-7.33301 8 -16.666 15.333 -27.999 22
l10 8l9 6l18 15l12 15l8 15l7 20l5 20l2 16v210c0 11.333 0.5 19.166 1.5 23.499s3.5 11.833 7.5 22.5s11.167 22.834 21.5 36.501s22.5 23.834 36.5 30.501c6 2.66699 12.167 5 18.5 7s14.5 3 24.5 3l13 -2l17 -3l82 1v-31h-80c-9.33301 0 -15.833 -0.333008 -19.5 -1
s-10.334 -3 -20.001 -7s-19.5 -10 -29.5 -18s-18 -18 -24 -30c-4.66699 -12 -7 -23.667 -7 -35v-206l-2 -17c0 -6.66699 -1.33301 -14.334 -4 -23.001c-1.33301 -7.33301 -2.33301 -12.166 -3 -14.499s-2.33398 -5.83301 -5.00098 -10.5l-11 -18l-53 -32l10 -8l8 -4
c8 -4.66699 14 -9.33398 18 -14.001l13 -11l4 -7l6 -8l4 -11l5 -14l7 -27l3 -21v-204c0 -14.667 2.16699 -27 6.5 -37s11 -18.5 20 -25.5s19.833 -12.5 32.5 -16.5c8 -2 14.333 -3.33301 19 -4s12 -1 22 -1h80v-39h-82z" />
    <glyph glyph-name="ugrave" unicode="&#xf9;" horiz-adv-x="686" 
d="M563 475h-188v-129h-238c-6 0 -10 -1.16699 -12 -3.5s-3.66699 -6.83301 -5 -13.5c0 -6.66699 1.16699 -13 3.5 -19s6.83301 -13.333 13.5 -22l16 -18c2.66699 -2 7 -3.66699 13 -5l234 1v-127h163v336zM124 232l-17.9971 18.9971l-12 17
c-9.33301 12.667 -17 26.334 -23 41.001c-0.666992 2 -2 8 -4 18s-3 16 -3 18l3 18c2 4.66699 5.66699 9.33398 11 14.001l15 8l18 3l211 1v86h-322v41h688v-41h-73v-475h-52v100h-163v-55l-1 -11c-0.666992 -3.33301 -1.33398 -5.33301 -2.00098 -6l-8 -6l-10 -2
c-6.66699 0 -14.334 3 -23.001 9s-20.167 16.167 -34.5 30.5s-24.333 26 -30 35s-9.16699 16.833 -10.5 23.5l1 8l5 6l8 3l12 3l39 1v84h-143h-31c-10.667 0 -20.334 1.33301 -29.001 4h-5c-3.33301 0.666992 -5.33301 1.33398 -6 2.00098z" />
    <glyph glyph-name="OE" unicode="&#x152;" horiz-adv-x="438" 
d="M405 165c-7.33301 -18.667 -18.6611 -35.668 -33.9941 -51.001c-14 -16 -31 -28 -51 -36c-8.66699 -3.33301 -18.5 -6 -29.5 -8s-22.5 -3 -34.5 -3c-24.667 0 -46.834 3.83301 -66.501 11.5s-38.834 19 -57.501 34s-33.334 32.5 -44.001 52.5c-9.33301 20 -14 41 -14 63
c0 22.667 4 44 12 64s20.167 38.167 36.5 54.5s35.166 28.833 56.499 37.5s42.333 13 63 13c23.333 0 45.166 -4.16699 65.499 -12.5s39.166 -20.666 56.499 -36.999s30.333 -34.833 39 -55.5s13 -42 13 -64c0 -23.333 -3.66699 -44.333 -11 -63zM362.005 292.999
c-4 11.333 -11 21.6699 -21 31.0029c-8 8.66699 -18.667 15.334 -32 20.001c-6 2 -12.333 3.66699 -19 5s-14 2 -22 2c-19.333 0 -38 -4 -56 -12c-15.333 -8 -30.666 -20 -45.999 -36c-13.333 -15.333 -23.5 -32.333 -30.5 -51s-10.5 -37.334 -10.5 -56.001
c0 -8.66699 0.5 -15 1.5 -19s3.5 -9.83301 7.5 -17.5s11.667 -16.834 23 -27.501c8.66699 -6.66699 20 -13.334 34 -20.001c12 -4 25 -6 39 -6c16 0 31.667 3.5 47 10.5s30.166 17.667 44.499 32s25.833 30.666 34.5 48.999s13 37.5 13 57.5c0 14 -2.33301 26.667 -7 38z
" />
    <glyph glyph-name="oe" unicode="&#x153;" 
 />
    <glyph glyph-name="Scaron" unicode="&#x160;" horiz-adv-x="447" 
d="M435 -26c-1.33301 -6 -2.32812 -9.66602 -2.99512 -10.999s-2.33398 -3.66602 -5.00098 -6.99902l-11 -9l-18 -11l-25 25c7.33301 1.33301 12.666 3 15.999 5l11 7c2.66699 2 5 5.33301 7 10l3 15l-6 8l-13 7l-20 5l-29 2h-26c-24 0 -45.167 1.66699 -63.5 5
s-30.833 6 -37.5 8s-16.334 6.33301 -29.001 13c-26 12 -45.333 26.667 -58 44s-19 37 -19 59v13l1 9l2 10l5 13l12 30c2 4.66699 3.66699 8.83398 5 12.501s5 9.5 11 17.5l7 11l10 13l-94 -3l-11 51h336l9 -51h-142c-9.33301 0 -20.666 -4 -33.999 -12
c-12.667 -6 -24.834 -16.333 -36.501 -31s-20.5 -28 -26.5 -40s-9 -24.333 -9 -37c0 -14 3 -26.833 9 -38.5s15.167 -20.834 27.5 -27.501s25.833 -12 40.5 -16l52 -4c28.667 0 54 -2 76 -6s38.167 -9.33301 48.5 -16s17.666 -13.834 21.999 -21.501
s7.16602 -16.834 8.49902 -27.501z" />
    <glyph glyph-name="scaron" unicode="&#x161;" 
 />
    <glyph glyph-name="Ydieresis" unicode="&#x178;" horiz-adv-x="348" 
d="M0 475v41h393v-41h-393zM258 328c-13.333 0 -25.1689 -2.33301 -35.502 -7s-20.333 -11 -30 -19s-16.834 -17.667 -21.501 -29s-7 -22.666 -7 -33.999c0 -18.667 5.33301 -38.834 16 -60.501s26.334 -44.834 47.001 -69.501l26 -30l38 -37l-31 -38l-42 44l-30 36
c-23.333 30.667 -41.666 59 -54.999 85c-12 26 -18 49.333 -18 70c0 12 1.66699 22.5 5 31.5s5.83301 14.833 7.5 17.5s4.83398 7.33398 9.50098 14.001l18 18l7 7l-141 1v39h418v-39h-181z" />
    <glyph glyph-name="florin" unicode="&#x192;" horiz-adv-x="355" 
d="M322 162c-7.33301 -36.667 -18.665 -69.665 -33.998 -98.998l-24 -36l-24 -33l-56 37l3 1l3 2l5 3l21 16l14 16c5.33301 8.66699 9.66602 16.5 12.999 23.5s7.66602 18.167 12.999 33.5c2.66699 8 5.5 18.833 8.5 32.5s5.83301 28.5 8.5 44.5l3 33l3 44l-15 -5l-11 -3
l-24 -7l-10 -2c-14.667 0 -28.5 2.83301 -41.5 8.5s-26.5 14 -40.5 25s-25.333 24.5 -34 40.5c-7.33301 16 -11 32.333 -11 49c0 14.667 3 28.667 9 42s14.333 25.166 25 35.499s22.667 18.5 36 24.5s27 9 41 9c22.667 0 42.667 -5.83301 60 -17.5s32 -29.834 44 -54.501
c8 -16 14.667 -37.667 20 -65c2 -12 3.66699 -24.667 5 -38s2 -28 2 -44c0 -41.333 -4 -80 -12 -116zM276.001 384.002c0 4.66699 -0.665039 9.83203 -1.99805 15.499s-3 10.834 -5 15.501c-4 13.333 -10.5 23.5 -19.5 30.5s-19.167 10.5 -30.5 10.5
c-10 0 -19.167 -2.16699 -27.5 -6.5s-16.833 -11 -25.5 -20s-15 -18.5 -19 -28.5s-6 -19.667 -6 -29c0 -11.333 1.5 -20.333 4.5 -27s8.16699 -13 15.5 -19l22 -11l28 -4c15.333 0 28.166 2.5 38.499 7.5s20.166 13.167 29.499 24.5z" />
    <glyph glyph-name="circumflex" unicode="&#x2c6;" horiz-adv-x="471" 
d="M396 -119l-10.999 16l-7 11l-18 29l-12 22l-11 20l-10 18l-9 17l-7 18l-11 -3l-10 -3c-5.33301 0 -9.33301 -0.666992 -12 -2h-10c-18 0 -37 5 -57 15c-16.667 9.33301 -35.334 24.333 -56.001 45c-18 20 -32 40 -42 60c-2 4.66699 -4.66699 13 -8 25s-5 24.333 -5 37
c0 14 2.16699 27.5 6.5 40.5s11.5 25.5 21.5 37.5l7 6l8 8l-21 24l-18 30l-12 31l-4 30c0 10.667 1.16699 20 3.5 28s6.83301 16.333 13.5 25c4.66699 6 11 11.667 19 17c8 4 16.667 6 26 6l155 1l23 -47h-148c-5.33301 0 -11.666 -2 -18.999 -6c-6 -2 -11 -6 -15 -12
l-10 -20c-2 -6 -3 -13.667 -3 -23c0 -8.66699 2.33301 -16.667 7 -24l16 -26l8 -10l12 -12l133 1l25 -49h-127c-8 0 -15.333 -2.33301 -22 -7s-12.334 -11.334 -17.001 -20.001l-11 -27l-3 -27c0 -14.667 2.33301 -28.167 7 -40.5s11.167 -23 19.5 -32
s18.5 -16.833 30.5 -23.5c12.667 -4.66699 24.667 -7 36 -7l24 4l-3 2l-1 2l-4 11l-1 13c0 8.66699 1.16699 15.834 3.5 21.501s6 11 11 16s11.5 9.16699 19.5 12.5l20 4c8 0 15.167 -1.16699 21.5 -3.5s12.333 -5.83301 18 -10.5s10 -11 13 -19s4.5 -16.333 4.5 -25
c0 -8 -1.66699 -15.667 -5 -23c-2 -6.66699 -6 -14 -12 -22l-12 -14l-10 -7l22 -35l26 -36l27 -35l27 -28z" />
    <glyph glyph-name="tilde" unicode="&#x2dc;" horiz-adv-x="492" 
d="M175 -17l3.00098 -6.00195l1 -4l-2 -4l-5 -5c-7.33301 0 -13 0.666992 -17 2l-34 11c-4.66699 2 -9.33398 3.66699 -14.001 5c-8 3.33301 -15 6.5 -21 9.5s-10 6.16699 -12 9.5v5l3 7l6 7l33 16l-35 77l-10 11l-13 4l-12 -3c-3.33301 -0.666992 -7 -3 -11 -7l-8 -10
l-2 -12l1 -6v-4l2 -3l2 -3l2 -3l3 -4l4 -3l3 -3l5 -4l-27 -12l-4 2l-2 3l-6 7l-4 7l-4 12l-1 12c0 8.66699 1.33301 15.834 4 21.501s7.66699 12.167 15 19.5c6.66699 5.33301 13.167 9.33301 19.5 12s15.166 4.66699 26.499 6l13 -2l13 -6l11 -9l9 -13l34 -73l116 61
c-10 0 -19.667 0.333008 -29 1s-18 1.83398 -26 3.50098s-14.833 3 -20.5 4s-12.5 3.5 -20.5 7.5c-32 12 -56 29.833 -72 53.5s-24 52.5 -24 86.5c0 18.667 2.16699 34.667 6.5 48s11.333 25.833 21 37.5s20.667 20.167 33 25.5s25.5 8 39.5 8l162 1v88h-330v41h490v-41
h-107v-127h-195c-22 0 -39 -7 -51 -21c-10.667 -14 -16 -34 -16 -60c0 -18.667 3.5 -35.167 10.5 -49.5s17.167 -26.833 30.5 -37.5s29 -19.667 47 -27c8.66699 -2.66699 17 -4.66699 25 -6s18 -2 30 -2l10 1l15 2l12 2l6 1l-1 9c0 5.33301 1.66699 11.333 5 18
c4.66699 17.333 11.667 30.833 21 40.5s20.333 14.5 33 14.5c7.33301 0 13.5 -1.16699 18.5 -3.5s9.66699 -5.66602 14 -9.99902s7.5 -9.5 9.5 -15.5l3 -18c0 -8.66699 -1.16699 -16.667 -3.5 -24s-6 -14.833 -11 -22.5s-11.167 -13.834 -18.5 -18.501
c-4.66699 -2 -12 -3.66699 -22 -5l2 -13l2 -10l5 -25l7 -22l12 -29l17 -27l10 -14l10 -11h-59l-18 41l-12 29c-5.33301 11.333 -9.66602 24.333 -12.999 39l-4 36l-159 -84z" />
    <glyph glyph-name="endash" unicode="&#x2013;" horiz-adv-x="492" 
d="M393 475l0.00195312 -134.998h-184c-10.667 0 -19.834 -2.16699 -27.501 -6.5s-15.167 -10.166 -22.5 -17.499l-16 -25c-2 -5.33301 -3.66699 -14.333 -5 -27c0 -30.667 7.16699 -56.334 21.5 -77.001s36.166 -36.334 65.499 -47.001l36 -8l52 -4
c-0.666992 3.33301 -1.33398 5.33301 -2.00098 6v5c0 6.66699 -0.666992 11.667 -2 15l-1 11c0 10 0.666992 17.333 2 22l9 20c3.33301 5.33301 8.83301 9.83301 16.5 13.5s16.167 5.5 25.5 5.5c6.66699 0 12.667 -1.66699 18 -5c5.33301 -2 10.333 -5.5 15 -10.5
s8.66699 -11.5 12 -19.5l4 -20c0 -11.333 -1.66699 -21 -5 -29s-8 -15 -14 -21l-8 -7l-12 -8l25 -55l17 -29l17 -23l7 -8l8 -11h-66l-27 53l-28 59l-8 -2h-7c-26 0 -49.833 2 -71.5 6s-41.167 10.333 -58.5 19c-30 14 -53 33.333 -69 58c-14.667 26 -22 56 -22 90
c0 15.333 2.16699 29.666 6.5 42.999s11.833 26.333 22.5 39c9.33301 12.667 20.333 22 33 28s25.334 9 38.001 9l148 1v92h-336v41h502v-41h-109zM449.002 -223.998l-14 -7l-21 -7l-20 -6l-21 -3l-21 -1c-18 0 -34 2.66699 -48 8c-14 4 -28 11 -42 21s-25 22.5 -33 37.5
s-12 30.833 -12 47.5c0 16 2.16699 30.5 6.5 43.5s11.5 24.5 21.5 34.5s21.667 18 35 24c6 2 12.333 3.66699 19 5s14 2 22 2h84v-41h-71c-8.66699 0 -16.5 -1.33301 -23.5 -4s-14 -7.5 -21 -14.5s-12.167 -13.833 -15.5 -20.5l-4 -25c0 -11.333 2.16699 -21.833 6.5 -31.5
s11 -17.667 20 -24s18.667 -11.5 29 -15.5s21.833 -6 34.5 -6c10 0 17.667 0.666992 23 2c8 0.666992 15.667 3 23 7l22 12c6.66699 4 10.667 7.66699 12 11l27 -39z" />
    <glyph glyph-name="emdash" unicode="&#x2014;" horiz-adv-x="637" 
d="M357 475l0.00195312 -150.999l18 17l12 10c11.333 8 23.333 14.167 36 18.5s24 6.5 34 6.5c20.667 0 38.667 -3.16699 54 -9.5s30 -15.833 44 -28.5c12 -10.667 21.5 -24.167 28.5 -40.5s10.5 -33.166 10.5 -50.499c0 -18 -4 -36.667 -12 -56s-21.333 -41.333 -40 -66
l-22 -27l-30 -33l-43 33c2 0.666992 4.16699 1.66699 6.5 3s5.5 4 9.5 8c8.66699 8.66699 19 21.334 31 38.001c14.667 18.667 25.834 37.167 33.501 55.5s11.5 34.5 11.5 48.5c0 13.333 -1.33301 24 -4 32s-4.83398 13.667 -6.50098 17s-4.66699 7.66602 -9 12.999
s-11.666 10.333 -21.999 15s-21.833 7 -34.5 7c-14.667 0 -28 -3.5 -40 -10.5s-24 -18.167 -36 -33.5c-8.66699 -10.667 -16.334 -23.667 -23.001 -39c-2 -6 -3.66699 -12 -5 -18s-2 -12.667 -2 -20v-214h-52v148c-11.333 -11.333 -25.166 -20.333 -41.499 -27
s-33.5 -10 -51.5 -10c-18.667 0 -36.334 3.16699 -53.001 9.5s-32.5 16.166 -47.5 29.499s-26.167 28 -33.5 44c-6.66699 18 -10 36.333 -10 55c0 19.333 3.16699 37 9.5 53s16.666 30.5 30.999 43.5s29.5 22.833 45.5 29.5c7.33301 2.66699 15.5 5 24.5 7s18.167 3 27.5 3
l27 -3c12 -2.66699 21 -5.33398 27 -8.00098v-42l-24 8l-22 3c-12 0 -23.167 -2.16699 -33.5 -6.5s-20.5 -10.833 -30.5 -19.5c-6.66699 -6.66699 -13.334 -16.667 -20.001 -30c-4.66699 -12 -7 -24 -7 -36s2 -24.5 6 -37.5s10.167 -24.333 18.5 -34
s17.833 -17.5 28.5 -23.5c12 -4.66699 23.667 -7 35 -7c12 0 22.5 1.83301 31.5 5.5s18.167 9.5 27.5 17.5l13.5 13.5c5 5 9.16699 9.83301 12.5 14.5c6 9.33301 9 18 9 26v249h-305v41h635v-41h-278zM403.002 -198.999l-14.001 -7.00098
c-14 -5.33301 -27.5 -9.33301 -40.5 -12s-22.333 -4.16699 -28 -4.5s-10.167 -0.5 -13.5 -0.5c-18 0 -34 2.66699 -48 8c-14.667 4 -28.667 11.333 -42 22s-24.666 23.667 -33.999 39c-7.33301 14.667 -11 30.334 -11 47.001s2.16699 31 6.5 43s11.166 22.833 20.499 32.5
s21 17.834 35 24.501c6 2 12.333 3.66699 19 5s14 2 22 2h82v-39h-68c-8.66699 0 -16.5 -1.33301 -23.5 -4s-13.833 -7.33398 -20.5 -14.001s-12 -14 -16 -22l-4 -25c0 -12 2.33301 -22.333 7 -31c4 -10 10.667 -18 20 -24l14 -8.5c4 -2.33301 10.333 -4.83301 19 -7.5
s19 -4 31 -4c16.667 0 31.334 2.66699 44.001 8c12 4 23.667 11 35 21l25 -39z" />
    <glyph glyph-name="quoteleft" unicode="&#x2018;" 
 />
    <glyph glyph-name="quoteright" unicode="&#x2019;" horiz-adv-x="371" 
d="M297 475c8 -8 14.999 -16.999 20.999 -26.999l16 -29l9 -31l4 -32c0 -24.667 -4.66699 -47.334 -14 -68.001c-8 -20.667 -20.833 -40.667 -38.5 -60s-37.5 -33.666 -59.5 -42.999s-45.667 -14 -71 -14l166 -138l-35 -35l-240 203l35 35l33 -27l6 -2h6l26 1
c10 1.33301 19.333 3.33301 28 6s18 6.66699 28 12l31 21l24 25l16 27l5 21l2 29l-15 -13l-12 -9c-11.333 -8 -22.666 -14 -33.999 -18c-6.66699 -2 -17 -3.66699 -31 -5c-17.333 0 -32.333 2.5 -45 7.5s-24.5 12.667 -35.5 23s-20.167 22.166 -27.5 35.499
c-5.33301 12.667 -8 26 -8 40c0 12 2.16699 22.833 6.5 32.5s11.5 20.167 21.5 31.5l-115 1v41h369v-41h-72zM279.999 422.001c-2 6.66699 -4.66797 11.999 -8.00098 15.999c-7.33301 11.333 -17.166 20.5 -29.499 27.5s-24.833 10.5 -37.5 10.5
c-11.333 0 -20.333 -1.66699 -27 -5c-7.33301 -2 -14 -6.16699 -20 -12.5s-10.333 -13.166 -13 -20.499l-4 -23c0 -9.33301 1.5 -18.166 4.5 -26.499s7.5 -15.5 13.5 -21.5s13.167 -10.833 21.5 -14.5s17.833 -5.5 28.5 -5.5c11.333 0 22 2.16699 32 6.5
s19.667 11.166 29 20.499l8 11l11 16z" />
    <glyph glyph-name="quotesinglbase" unicode="&#x201a;" horiz-adv-x="215" 
d="M141 475v-475h-53v475h-98v41h248v-41h-97zM197 661c-6.66699 -16 -16.832 -30.499 -30.499 -43.499s-30.667 -23 -51 -30s-41.5 -10.5 -63.5 -10.5s-42.333 3.16699 -61 9.5s-34.5 15.833 -47.5 28.5s-23.667 27 -32 43s-14.5 36 -18.5 60l52 1
c0 -16.667 2.66699 -31 8 -43s13.666 -23.333 24.999 -34c8.66699 -6.66699 20 -13.334 34 -20.001c6 -2 12.333 -3.66699 19 -5s14 -2 22 -2c14 0 27 2 39 6s23.333 10.333 34 19s19 19.667 25 33s9 28.333 9 45l52 1c-2 -20.667 -7 -40 -15 -58z" />
    <glyph glyph-name="quotedblleft" unicode="&#x201c;" horiz-adv-x="494" 
d="M201 250l-0.000976562 -79.999v-11l-1 -6l-8 -7l-10 -2c-6.66699 0 -15.5 4.16699 -26.5 12.5s-25.5 21.833 -43.5 40.5l-38 45c-7.33301 11.333 -11.666 20.333 -12.999 27l3 8l8 8l9 5l7 2l60 1v140c0 6.66699 -1.16699 12.5 -3.5 17.5s-5.66602 9.66699 -9.99902 14
s-9 7.5 -14 9.5s-10.833 3 -17.5 3c-6 0 -12.667 -1.33301 -20 -4l-17 -9l-11 -16l-4 -21l1 -14l5 -15l2 -7l5 -9l-50 1l-4 7l-1 6l-4 14l-1 13c0 15.333 2.16699 28.5 6.5 39.5s11.666 20.667 21.999 29s21.5 14.5 33.5 18.5s25 6 39 6c12.667 0 25 -2 37 -6
s22.5 -9.66699 31.5 -17s15.833 -16.833 20.5 -28.5s7 -23.834 7 -36.501v-135h157v182h-98v41h248v-41h-97v-475h-53v250h-157z" />
    <glyph glyph-name="quotedblright" unicode="&#x201d;" 
 />
    <glyph glyph-name="quotedblbase" unicode="&#x201e;" horiz-adv-x="438" 
d="M359 -39l-34 45.002l-28 43l-28 48l-21 48l-28 -1l-43 3c-11.333 2 -22.5 6.33301 -33.5 13s-19.5 15.167 -25.5 25.5s-9 23.166 -9 38.499c0 7.33301 1.16699 14 3.5 20s6.83301 11.333 13.5 16l19 12l23 4c10.667 0 20.5 -2.5 29.5 -7.5s18.5 -13.5 28.5 -25.5l10 -14
l12 -19l18 7l14 7c24.667 13.333 42.834 28.666 54.501 45.999s17.5 37 17.5 59c0 20 -3.66699 37 -11 51c-6 15.333 -16.333 28.333 -31 39c-10.667 8 -25 14.667 -43 20c-7.33301 2 -15.333 3.66699 -24 5s-18 2 -28 2c-17.333 0 -29.333 -0.5 -36 -1.5
s-17.667 -3.5 -33 -7.5s-31.333 -12 -48 -24l-37 60l25 6l42 9l43 7l32 2c26 0 49.5 -4.5 70.5 -13.5s41.833 -23.167 62.5 -42.5c18.667 -17.333 32.834 -37.166 42.501 -59.499s14.5 -45.166 14.5 -68.499c0 -17.333 -3 -35 -9 -53
c-6.66699 -16.667 -15.334 -32 -26.001 -46c-4 -4.66699 -9.83301 -10.834 -17.5 -18.501s-14.5 -13.834 -20.5 -18.501c-12 -8.66699 -25.667 -16 -41 -22l23 -48c7.33301 -14 16.666 -28.667 27.999 -44l33 -42l39 -39z" />
    <glyph glyph-name="dagger" unicode="&#x2020;" horiz-adv-x="426" 
d="M384 365c-4.66699 -6.66699 -12.998 -16.3359 -24.998 -29.0029c-8.66699 -9.33301 -16 -16.666 -22 -21.999c-16.667 -16.667 -31.667 -30 -45 -40c-9.33301 -7.33301 -16.333 -11.666 -21 -12.999c8 -3.33301 17.667 -10.333 29 -21l32 -34
c3.33301 -4 6.83301 -9 10.5 -15s7 -12.833 10 -20.5s5.16699 -16.5 6.5 -26.5c0 -12.667 -0.333008 -21.667 -1 -27s-3.33398 -14.166 -8.00098 -26.499s-12.667 -23.166 -24 -32.499c-3.33301 -3.33301 -7.83301 -7 -13.5 -11s-13.167 -8 -22.5 -12
c-7.33301 -2 -14.333 -3.66699 -21 -5s-14.334 -2 -23.001 -2c-14 0 -28.333 3.16699 -43 9.5s-28.5 16.166 -41.5 29.499s-23.167 27.333 -30.5 42c-6.66699 16.667 -10 32.667 -10 48c0 5.33301 0.5 11 1.5 17s4.16699 13.333 9.5 22c8.66699 14.667 20 29.667 34 45
l19 17l26 22l-39 34l-27 26c-22 22 -39 41 -51 57c-10 15.333 -15.333 28 -16 38l37 67l47 -31l-14 -10l-13 -11l-14 -17l-4 -14c0 -10 4.33301 -21.667 13 -35c9.33301 -12 23.333 -27 42 -45l22 -20l33 -25l36 27l26 21l21 18c9.33301 8.66699 18.333 18.167 27 28.5
s13.667 19.833 15 28.5c0 11.333 -1.16699 21 -3.5 29s-5.5 15 -9.5 21l-5 5l-12 9l16 17l18 -15l13 -11c9.33301 -9.33301 17 -20.666 23 -33.999c2.66699 -6 4.66699 -11.5 6 -16.5s2 -11.167 2 -18.5c0 -10.667 -5.33301 -23.334 -16 -38.001zM254.002 251.998
c-0.666992 -0.666992 -1.33008 -1 -1.99707 -1c-4.66699 -2.66699 -9.33398 -6 -14.001 -10l-31 -30c-13.333 -14.667 -24.666 -29 -33.999 -43c-6 -10.667 -9.66699 -22 -11 -34c0 -12 1.16699 -22.167 3.5 -30.5s6.16602 -15.833 11.499 -22.5s11.666 -12 18.999 -16
c5.33301 -2 13.666 -3.66699 24.999 -5c7.33301 0 12.5 0.333008 15.5 1s8.66699 3 17 7s18.333 11.667 30 23s20.5 23 26.5 35c2.66699 6 4.66699 11.5 6 16.5s2 11.167 2 18.5z" />
    <glyph glyph-name="daggerdbl" unicode="&#x2021;" horiz-adv-x="426" 
d="M373 -102l-138.999 88.001l-6 -8l-5 -6c-5.33301 -4 -12 -7.66699 -20 -11l-23 -4c-16.667 0 -28.667 3.66699 -36 11c-7.33301 6 -11 16 -11 30l2 13l8 13c3.33301 4 7.33301 7 12 9l15 3l41 -9l51 153l-4 -3l-4 -1l-8 -1h-16c-20 0 -38.333 5.16699 -55 15.5
s-31.834 26.333 -45.501 48s-24.167 44.5 -31.5 68.5c-2.66699 11.333 -5 23.5 -7 36.5s-3 25.833 -3 38.5c0 10 0.166992 17 0.5 21s1.83301 10 4.5 18c2.66699 12 7.66699 25.667 15 41l10 18l11 20l62 -34l-15 -19l-14 -17c-5.33301 -7.33301 -9 -13.333 -11 -18l-9 -21
c-4.66699 -14 -7 -26.333 -7 -37v-38c2 -10 3.33301 -17 4 -21c3.33301 -16 8 -28.833 14 -38.5s14.667 -17.5 26 -23.5c12 -4.66699 23.333 -7 34 -7l17 1l19 6l18 6l10 6v16c2 6 3.66699 11.833 5 17.5s5.33301 14.667 12 27s14.5 22 23.5 29s19.167 10.5 30.5 10.5l13 -3
c4.66699 -2 7.66699 -4.66699 9 -8l5 -18l2 -28c0 -14.667 -3.66699 -28.334 -11 -41.001s-18 -24.667 -32 -36c-8 -6.66699 -13.667 -11.167 -17 -13.5s-7.33301 -4.83301 -12 -7.5l-20 -7l-43 -177l147 -76z" />
    <glyph glyph-name="bullet" unicode="&#x2022;" 
 />
    <glyph glyph-name="ellipsis" unicode="&#x2026;" horiz-adv-x="402" 
d="M336 -107l-12.999 16.002l-9 11l-23 29l-16 22l-16 25l-10 16l-14 21l-5 11l-28 1l-39 1c-12.667 2 -22.834 5 -30.501 9s-15.167 10.667 -22.5 20c-5.33301 9.33301 -8 21 -8 35c0 6 1.16699 11.833 3.5 17.5s6.16602 10.834 11.499 15.501l16 10l19 4
c6.66699 0 14.167 -1.83301 22.5 -5.5s18.5 -9.83398 30.5 -18.501l11 -11l14 -14c4.66699 0 10.334 1.66699 17.001 5l26 16c12.667 8.66699 21.834 17.5 27.501 26.5s8.5 18.167 8.5 27.5c0 7.33301 -1.33301 14.666 -4 21.999l-9 25l-11 20l-6 7l-109 1l-37 51h121l17 8
l13 9c9.33301 7.33301 16.333 15.833 21 25.5s7.66699 20.5 9 32.5c0 10.667 -1.66699 19.667 -5 27s-8.83301 13.166 -16.5 17.499s-17.167 7.5 -28.5 9.5l-39 4l-31 -2c-12 0 -24.333 -1.33301 -37 -4l-31 -5c-6.66699 -0.666992 -11 -2 -13 -4l-29 63h158
c15.333 0 29.166 -3.16699 41.499 -9.5s24.166 -15.166 35.499 -26.499c8.66699 -10.667 16.334 -23.667 23.001 -39c5.33301 -14.667 8 -29.667 8 -45c0 -12 -2 -24.667 -6 -38c-1.33301 -4.66699 -3.5 -10.167 -6.5 -16.5s-6.5 -12.166 -10.5 -17.499l-10 -11l-14 -13
c6.66699 -4.66699 13 -10.834 19 -18.501s11 -15.834 15 -24.501s7 -18.334 9 -29.001l3 -28c0 -14.667 -1.5 -27.167 -4.5 -37.5s-5.83301 -18.5 -8.5 -24.5s-6 -12 -10 -18c-8.66699 -10.667 -18.334 -19.667 -29.001 -27
c-9.33301 -5.33301 -21.666 -9.66602 -36.999 -12.999l6 -11l11 -16l15 -18l17 -19l16 -19l20 -21l18 -17l10 -9z" />
    <glyph glyph-name="perthousand" unicode="&#x2030;" horiz-adv-x="471" 
d="M433 192c-8 -30 -20.9961 -57.0049 -38.9961 -81.0049c-18 -26 -39.833 -45.667 -65.5 -59s-53.834 -20 -84.501 -20c-27.333 0 -52.333 6 -75 18s-43 30 -61 54c-14.667 20 -26.834 42.833 -36.501 68.5s-17.5 54.834 -23.5 87.501l-11 75l-3 77v22v15l1 10
c0 4.66699 0.666992 8.33398 2 11.001l41 14l-2 -3v-5l-2 -9l-1 -10c0 -11.333 -0.666992 -20.333 -2 -27v-27c0 -53.333 4 -101 12 -143s20.667 -77.333 38 -106c13.333 -24 29.333 -41.833 48 -53.5s39.667 -17.5 63 -17.5c18.667 0 36.667 4 54 12s34 20 50 36l17 21
l22 35c-10.667 0 -20.667 1 -30 3s-19.166 5.5 -29.499 10.5s-21.166 11.333 -32.499 19s-22 16.167 -32 25.5c-18 16 -31.833 34.333 -41.5 55s-14.5 43.334 -14.5 68.001c0 16 2.5 30.333 7.5 43s12.833 24.834 23.5 36.501s22.667 20.5 36 26.5s27.666 9 42.999 9
c21.333 0 40.166 -5 56.499 -15s32.166 -25.333 47.499 -46c11.333 -17.333 20.666 -37.666 27.999 -60.999c2.66699 -9.33301 5 -20.5 7 -33.5s3 -25.5 3 -37.5c0 -37.333 -4.66699 -70 -14 -98zM397.004 344.995c-2 9.33301 -3.66699 15.833 -5 19.5
s-4.33301 9.16699 -9 16.5c-8 15.333 -17.667 26.666 -29 33.999c-10 8 -22 12 -36 12c-9.33301 0 -18.5 -1.83301 -27.5 -5.5s-16.333 -9.16699 -22 -16.5s-10.5 -15.666 -14.5 -24.999l-4 -29c0 -23.333 4.83301 -43.5 14.5 -60.5s24.167 -31.167 43.5 -42.5
c13.333 -8 27 -14 41 -18s28.667 -6 44 -6l9 85c0 14 -1.66699 26 -5 36z" />
    <glyph glyph-name="guilsinglleft" unicode="&#x2039;" horiz-adv-x="447" 
d="M436 -33c-0.666992 -4.66699 -2.99707 -9.32715 -6.99707 -13.9941l-10 -7l-15 -10l-19 15l14 8l6 3c2.66699 2 5 5.33301 7 10l2 14c-0.666992 3.33301 -1.33398 5.33301 -2.00098 6l-7 5l-11 5l-14 5c-10 4 -22 7 -36 9l-43 3c-12 0 -23.667 0.333008 -35 1
s-21.5 2 -30.5 4s-17.833 4.33301 -26.5 7s-16.334 6 -23.001 10c-22 12 -39 30.333 -51 55c-10.667 25.333 -16 55.666 -16 90.999c0 11.333 1.5 22.166 4.5 32.499s7.5 19.5 13.5 27.5l7 9l12 11l-88 -1l-13 52h117l-7 3l-6 5l-4 4l-4 4c-6 7.33301 -11.667 17 -17 29
c-3.33301 12 -5 24 -5 36c0 18 3.5 33.667 10.5 47s16.667 23 29 29s25.833 10.333 40.5 13l53 4h60l8 -49l-18 1c-6 0 -10.333 0.666992 -13 2l-32 3l-25 1c-10 0 -20.5 -1.83301 -31.5 -5.5s-20.333 -9 -28 -16s-13.667 -15 -18 -24s-6.5 -19.167 -6.5 -30.5
c0 -8.66699 1.33301 -15.334 4 -20.001s5.5 -8.83398 8.5 -12.501s6.16699 -6.83398 9.5 -9.50098l9 -7l14 -8l190 1l9 -50h-158c-8 0 -16.333 -3.16699 -25 -9.5s-19.334 -16.833 -32.001 -31.5c-8.66699 -11.333 -17 -24.333 -25 -39
c-2.66699 -6 -4.66699 -11.833 -6 -17.5s-2 -12.167 -2 -19.5c0 -16.667 2.5 -30.5 7.5 -41.5s11.833 -18.833 20.5 -23.5s18.667 -8 30 -10l42 -3l35 1c18 0 31.167 -0.333008 39.5 -1s18.5 -3 30.5 -7c20 -4 35.5 -10.167 46.5 -18.5s19.333 -17.833 25 -28.5
s8.5 -22.334 8.5 -35.001z" />
    <glyph glyph-name="guilsinglright" unicode="&#x203a;" horiz-adv-x="6" 
d="M-95 516l-172 226l47 26l160 -252h-35zM-181 516l-197 132l37 41l185 -173h-25zM-26 642v56h61v-56h-61zM29 751l-6.99707 3.00195l-20 4l-19 2c-10 0 -18.833 -1.66699 -26.5 -5s-14.167 -7.83301 -19.5 -13.5s-9.83301 -13 -13.5 -22s-5.5 -19.167 -5.5 -30.5
c0 -10 0.333008 -17.333 1 -22s3.16699 -13.167 7.5 -25.5s12.166 -27.166 23.499 -44.499l14 -19l19 -23l-38 1c-2 1.33301 -3.83301 2.66602 -5.5 3.99902s-4.5 4.66602 -8.5 9.99902l-23 36c-2.66699 4.66699 -7 13.5 -13 26.5l-13 28.5c-6 18 -9 34.667 -9 50
c0 14.667 2.5 27.167 7.5 37.5s13.167 19.666 24.5 27.999s23.166 14.5 35.499 18.5s26.166 6 41.499 6l28 -3l27 -9v-40z" />
    <glyph glyph-name="trademark" unicode="&#x2122;" horiz-adv-x="290" 
d="M0 516h404v-39l-404 -2v41zM195 123l29.998 -51l1 -9l1 -5c0 -4.66699 -0.666992 -8.16699 -2 -10.5s-2.66602 -3.83301 -3.99902 -4.5l-8 -2l-10 -1l-14 1c-6 0 -12 1.33301 -18 4l-23 6l-27 12l-18 9c-5.33301 3.33301 -9.66602 7 -12.999 11l-7 10l-2 11
c0 5.33301 2 11 6 17s9 11.667 15 17l4 3l7 4l242 103l-18 20l-14 16c-11.333 13.333 -23.333 24.666 -36 33.999c-10.667 10 -20.334 17 -29.001 21l-15 6l-16 4l-18 2l-16 1l-24 -1l-22 -3l-9 -2l-11 -3l4 -72l-3 -11l-3 -6l-7 -6l-8 -2l-10 2l-13 8l-15 13l-17 18l-15 19
l-10 13l-3 4l-6 10l-2 10c0 8 4.66699 15.667 14 23c2.66699 1.33301 8.33398 3.83301 17.001 7.5s17.334 6.83398 26.001 9.50098l59 10l64 4c17.333 0 30.166 -0.5 38.499 -1.5s16.5 -3.16699 24.5 -6.5c3.33301 -1.33301 7.33301 -3.5 12 -6.5s10 -7.5 16 -13.5
c12 -10 26.333 -24.333 43 -43l20 -24l28 -32v-47z" />
    <glyph glyph-name=".null" horiz-adv-x="0" 
 />
    <glyph glyph-name="nonmarkingreturn" horiz-adv-x="379" 
 />
  </font>
</defs>
</svg>
